<svg width="326" height="192" viewBox="0 0 326 192" fill="none" xmlns="http://www.w3.org/2000/svg">
<path d="M300.552 182.434C300.649 182.409 300.751 182.414 300.845 182.449C300.939 182.484 301.02 182.547 301.077 182.629C301.134 182.711 301.165 182.809 301.165 182.909V187.201C301.367 186.778 301.617 186.38 301.91 186.015C302.219 185.637 302.509 185.403 302.735 185.259C302.849 185.187 302.945 185.139 303.019 185.106C303.059 185.089 303.101 185.074 303.143 185.061L303.154 185.056L303.159 185.055H303.161L303.162 185.054H303.164C303.237 185.034 303.313 185.032 303.387 185.046C303.461 185.06 303.531 185.092 303.591 185.138C303.651 185.183 303.699 185.242 303.732 185.31C303.766 185.377 303.784 185.452 303.784 185.527V191.584H302.802V186.484C302.759 186.531 302.715 186.582 302.671 186.637C302.183 187.232 301.555 188.376 301.157 190.527C301.135 190.648 301.069 190.756 300.972 190.83C300.874 190.904 300.751 190.94 300.629 190.929C300.507 190.917 300.393 190.86 300.311 190.77C300.228 190.679 300.183 190.56 300.184 190.438V184.408C300.103 184.531 300.024 184.656 299.947 184.781C299.35 185.757 298.684 187.094 298.372 188.575C298.349 188.685 298.289 188.785 298.201 188.855C298.114 188.926 298.004 188.965 297.892 188.965C297.779 188.965 297.669 188.926 297.582 188.855C297.495 188.785 297.434 188.685 297.411 188.575C297.1 187.094 296.434 185.757 295.836 184.781C295.756 184.65 295.677 184.526 295.601 184.408V190.438C295.6 190.56 295.554 190.677 295.472 190.768C295.389 190.858 295.276 190.914 295.154 190.925C295.033 190.936 294.911 190.902 294.813 190.828C294.716 190.755 294.65 190.647 294.627 190.527C294.228 188.376 293.601 187.232 293.113 186.637C293.071 186.585 293.028 186.534 292.982 186.484V191.584H292V185.527C292 185.452 292.017 185.377 292.051 185.31C292.084 185.242 292.133 185.183 292.192 185.138C292.252 185.092 292.322 185.06 292.396 185.046C292.471 185.031 292.547 185.034 292.62 185.054H292.623L292.625 185.055L292.63 185.056L292.642 185.061C292.684 185.073 292.725 185.088 292.766 185.106C292.838 185.139 292.935 185.187 293.048 185.259C293.275 185.403 293.565 185.637 293.874 186.015C294.167 186.38 294.416 186.779 294.618 187.201V182.909C294.618 182.809 294.649 182.711 294.706 182.629C294.763 182.547 294.845 182.484 294.938 182.449C295.032 182.414 295.135 182.408 295.231 182.433C295.304 182.451 295.371 182.487 295.428 182.535L295.483 182.591L295.489 182.598L295.51 182.621L295.584 182.711C295.647 182.788 295.736 182.901 295.845 183.046C296.062 183.335 296.357 183.752 296.674 184.269C297.157 185.052 297.564 185.879 297.892 186.738C298.219 185.879 298.627 185.052 299.109 184.269C299.426 183.751 299.722 183.335 299.939 183.046C300.048 182.902 300.159 182.76 300.274 182.621L300.295 182.598L300.301 182.591L300.303 182.589V182.588C300.368 182.512 300.455 182.458 300.552 182.434Z" fill="#225A7F"/>
<path d="M314.016 170.042C314.143 169.995 314.282 169.987 314.413 170.021C314.544 170.054 314.662 170.127 314.751 170.23L314.752 170.232L314.755 170.234L314.763 170.243L314.79 170.276L314.891 170.398C314.976 170.502 315.097 170.655 315.244 170.851C315.539 171.243 315.939 171.808 316.368 172.508C317.022 173.569 317.574 174.689 318.018 175.854C318.461 174.689 319.014 173.569 319.668 172.508C320.097 171.807 320.497 171.243 320.791 170.851C320.938 170.656 321.09 170.464 321.245 170.276L321.273 170.243L321.281 170.234L321.283 170.232V170.23C321.372 170.127 321.491 170.055 321.622 170.022C321.753 169.988 321.892 169.995 322.02 170.042C322.146 170.089 322.256 170.175 322.333 170.286C322.41 170.397 322.453 170.53 322.453 170.665V176.481C322.727 175.908 323.065 175.368 323.462 174.873C323.88 174.362 324.273 174.044 324.58 173.849C324.734 173.751 324.865 173.686 324.964 173.643C325.018 173.619 325.074 173.598 325.131 173.58L325.147 173.574L325.154 173.572H325.16C325.259 173.546 325.363 173.541 325.463 173.561C325.563 173.58 325.658 173.623 325.739 173.685C325.82 173.747 325.886 173.827 325.932 173.919C325.977 174.01 326 174.111 326 174.213V182.418H324.67V175.51C324.612 175.573 324.552 175.641 324.492 175.716C323.831 176.522 322.982 178.073 322.442 180.986C322.413 181.15 322.323 181.297 322.19 181.398C322.058 181.498 321.892 181.546 321.727 181.53C321.561 181.515 321.407 181.439 321.295 181.316C321.183 181.192 321.121 181.032 321.122 180.865V172.696C321.013 172.863 320.907 173.032 320.803 173.202C319.993 174.524 319.091 176.336 318.669 178.342C318.638 178.491 318.556 178.626 318.438 178.722C318.319 178.818 318.17 178.87 318.018 178.87C317.865 178.87 317.717 178.818 317.599 178.722C317.48 178.626 317.399 178.491 317.367 178.342C316.945 176.336 316.042 174.524 315.232 173.202C315.124 173.025 315.017 172.856 314.913 172.696V180.865C314.913 181.031 314.851 181.19 314.739 181.313C314.628 181.435 314.474 181.511 314.31 181.526C314.145 181.542 313.98 181.494 313.848 181.395C313.716 181.295 313.625 181.149 313.595 180.986C313.055 178.071 312.204 176.522 311.543 175.716C311.486 175.646 311.427 175.577 311.365 175.51V182.418H310.035V174.213C310.035 174.111 310.059 174.01 310.104 173.918C310.15 173.827 310.216 173.747 310.297 173.685C310.378 173.623 310.472 173.579 310.572 173.56C310.673 173.54 310.776 173.545 310.875 173.571H310.877L310.879 173.572H310.882L310.889 173.574L310.904 173.58C310.962 173.597 311.019 173.618 311.073 173.643C311.172 173.687 311.302 173.752 311.454 173.849C311.762 174.044 312.156 174.361 312.574 174.873C312.971 175.369 313.309 175.908 313.583 176.481V170.665C313.583 170.53 313.625 170.398 313.702 170.286C313.779 170.175 313.889 170.089 314.016 170.042Z" fill="#225A7F"/>
<path d="M25.4482 12.4327C25.3513 12.408 25.249 12.4145 25.1553 12.4493C25.0615 12.4843 24.98 12.5469 24.9229 12.629C24.8659 12.711 24.8352 12.8085 24.835 12.9083V17.2003C24.6332 16.7778 24.3828 16.38 24.0898 16.0148C23.781 15.6372 23.4911 15.402 23.2646 15.2579C23.1515 15.186 23.0547 15.1386 22.9814 15.1065C22.941 15.089 22.8994 15.0731 22.8574 15.0597L22.8457 15.0558L22.8408 15.0548H22.8389L22.8379 15.0538H22.8359C22.7633 15.0341 22.6872 15.0316 22.6133 15.046C22.5393 15.0605 22.4691 15.092 22.4092 15.1378C22.3495 15.1835 22.301 15.2423 22.2676 15.3097C22.2342 15.3772 22.2159 15.4521 22.2158 15.5274V21.5831H23.1982V16.4845C23.2409 16.5306 23.2848 16.5811 23.3291 16.6358C23.8168 17.231 24.4448 18.3758 24.8428 20.5265C24.8647 20.6471 24.9308 20.7559 25.0283 20.8302C25.1261 20.9044 25.2489 20.9401 25.3711 20.9288C25.4932 20.9175 25.607 20.8604 25.6895 20.7696C25.7718 20.6789 25.8168 20.5601 25.8164 20.4376V14.4073C25.8967 14.5305 25.9761 14.6559 26.0527 14.7814C26.6503 15.7567 27.3164 17.094 27.6279 18.5743C27.6511 18.6844 27.7115 18.7836 27.7988 18.8546C27.8863 18.9255 27.9958 18.9649 28.1084 18.9649C28.2209 18.9649 28.3306 18.9255 28.418 18.8546C28.5051 18.7837 28.5657 18.6843 28.5889 18.5743C28.9005 17.0939 29.5665 15.7567 30.1641 14.7814C30.2443 14.6505 30.3227 14.5251 30.3994 14.4073V20.4376C30.3999 20.5595 30.446 20.6777 30.5283 20.7677C30.6107 20.8575 30.7243 20.9137 30.8457 20.9249C30.9672 20.936 31.0891 20.9016 31.1865 20.8282C31.2839 20.7547 31.3503 20.6463 31.373 20.5265C31.7717 18.3752 32.3991 17.231 32.8867 16.6358C32.9289 16.5841 32.9724 16.5336 33.0176 16.4845V21.5831H34V15.5274C34 15.4521 33.9825 15.3773 33.9492 15.3097C33.9159 15.2421 33.8674 15.1826 33.8076 15.1368C33.7477 15.091 33.6775 15.0596 33.6035 15.045C33.5294 15.0305 33.4527 15.033 33.3799 15.0528H33.3789L33.375 15.0548L33.3701 15.0558L33.3584 15.0597C33.316 15.0721 33.2746 15.0881 33.2344 15.1065C33.1617 15.1393 33.0647 15.1866 32.9521 15.2579C32.725 15.402 32.4348 15.6372 32.126 16.0148C31.8336 16.3802 31.584 16.7782 31.3818 17.2003V12.9083C31.3818 12.8086 31.3507 12.711 31.2939 12.629C31.2369 12.5468 31.1553 12.4833 31.0615 12.4483C30.9678 12.4135 30.8654 12.408 30.7686 12.4327C30.6718 12.4575 30.585 12.5116 30.5195 12.587L30.5186 12.589L30.5107 12.5968L30.4902 12.6212L30.416 12.711C30.3532 12.7882 30.2636 12.9008 30.1553 13.045C29.9379 13.3344 29.6429 13.7523 29.3262 14.2687C28.8435 15.0517 28.4355 15.8787 28.1084 16.7384C27.7813 15.8787 27.3733 15.0516 26.8906 14.2687C26.5739 13.7516 26.2779 13.3344 26.0605 13.045C25.9522 12.9013 25.8404 12.7598 25.7256 12.6212L25.7051 12.5968L25.6973 12.589V12.587C25.6317 12.5117 25.545 12.4575 25.4482 12.4327Z" fill="#225A7F"/>
<path d="M11.9844 0.0420794C11.8573 -0.0052914 11.7183 -0.0129753 11.5869 0.020595C11.4557 0.0541425 11.3378 0.127223 11.249 0.229579L11.248 0.231533L11.2451 0.234462L11.2373 0.243251L11.21 0.276454L11.1094 0.397548C11.0243 0.502168 10.903 0.654821 10.7559 0.850673C10.4614 1.24269 10.0611 1.80812 9.63184 2.5079C8.97788 3.56867 8.42559 4.68892 7.98242 5.8536C7.53922 4.68878 6.98607 3.56878 6.33203 2.5079C5.90281 1.80732 5.50343 1.24269 5.20898 0.850673C5.06216 0.655825 4.91048 0.46437 4.75488 0.276454L4.72656 0.243251L4.71875 0.234462L4.7168 0.231533V0.229579C4.62789 0.127238 4.50929 0.055066 4.37793 0.0215716C4.24653 -0.0119092 4.10754 -0.00525211 3.98047 0.0420794C3.85354 0.0894265 3.74441 0.175044 3.66699 0.28622C3.58958 0.39744 3.54721 0.529623 3.54688 0.665126V6.48056C3.2734 5.90784 2.93521 5.36819 2.53809 4.87313C2.1196 4.36156 1.72675 4.04386 1.41992 3.84872C1.2665 3.75117 1.13546 3.68612 1.03613 3.64267C0.981592 3.61898 0.925782 3.59825 0.869141 3.58017L0.852539 3.57431L0.845703 3.57235H0.839844C0.741272 3.54552 0.637371 3.54105 0.537109 3.56063C0.436818 3.58025 0.341972 3.62265 0.260742 3.68466C0.179532 3.74666 0.113714 3.82748 0.0683594 3.91903C0.0231981 4.01041 0.000138283 4.11105 0 4.21298V12.4181H1.33008V5.50985C1.388 5.57251 1.44752 5.64143 1.50781 5.71591C2.16851 6.52219 3.01842 8.0727 3.55762 10.9864C3.58721 11.1499 3.6774 11.2969 3.80957 11.3975C3.94202 11.4982 4.10777 11.5456 4.27344 11.5304C4.43913 11.5151 4.59323 11.4387 4.70508 11.3155C4.81688 11.1923 4.87869 11.0317 4.87793 10.8653V2.69638C4.98681 2.86331 5.09332 3.03219 5.19727 3.20224C6.007 4.52374 6.90887 6.33577 7.33105 8.34188C7.3624 8.49122 7.44409 8.62554 7.5625 8.72177C7.68104 8.81801 7.82973 8.8702 7.98242 8.8702C8.135 8.87014 8.28291 8.81793 8.40137 8.72177C8.51989 8.62553 8.60145 8.4913 8.63281 8.34188C9.05501 6.33563 9.9578 4.52378 10.7676 3.20224C10.8764 3.02489 10.9829 2.85599 11.0869 2.69638V10.8653C11.0874 11.0308 11.149 11.1904 11.2607 11.3126C11.3724 11.4347 11.5257 11.5112 11.6904 11.5265C11.8553 11.5416 12.0202 11.4943 12.1523 11.3946C12.2845 11.2949 12.3746 11.1491 12.4053 10.9864C12.9454 8.07141 13.7963 6.52212 14.457 5.71591C14.5143 5.64553 14.5733 5.57659 14.6348 5.50985V12.4181H15.9648V4.21298C15.9648 4.1108 15.9408 4.00967 15.8955 3.91806C15.8502 3.82653 15.7843 3.74668 15.7031 3.68466C15.622 3.62266 15.5279 3.57933 15.4277 3.55966C15.3274 3.54 15.2236 3.54454 15.125 3.57138H15.123L15.1211 3.57235H15.1182L15.1113 3.57431L15.0957 3.58017C15.0381 3.59705 14.9813 3.61763 14.9268 3.64267C14.8284 3.68699 14.6983 3.75216 14.5459 3.84872C14.2381 4.04384 13.8444 4.36139 13.4258 4.87313C13.0294 5.3686 12.6911 5.90829 12.417 6.48056V0.665126C12.4169 0.52964 12.3751 0.397525 12.2979 0.28622C12.2206 0.17492 12.1113 0.0894758 11.9844 0.0420794Z" fill="#225A7F"/>
</svg>
