<svg width="304" height="180" viewBox="0 0 304 180" fill="none" xmlns="http://www.w3.org/2000/svg">
<path d="M272.938 170.449C273.032 170.414 273.135 170.408 273.231 170.433C273.328 170.458 273.415 170.512 273.48 170.588L273.481 170.589L273.489 170.597L273.51 170.622L273.584 170.712C273.647 170.789 273.736 170.902 273.845 171.046C274.062 171.336 274.357 171.753 274.674 172.269C275.157 173.052 275.564 173.879 275.892 174.739C276.219 173.879 276.627 173.052 277.109 172.269C277.426 171.752 277.722 171.336 277.939 171.046C278.048 170.903 278.159 170.761 278.274 170.622L278.295 170.597L278.303 170.589V170.588C278.368 170.512 278.455 170.459 278.552 170.434C278.649 170.409 278.751 170.415 278.845 170.45C278.939 170.485 279.02 170.547 279.077 170.629C279.134 170.711 279.165 170.809 279.165 170.909V175.201C279.367 174.778 279.617 174.381 279.91 174.015C280.219 173.638 280.509 173.402 280.735 173.258C280.849 173.186 280.945 173.139 281.019 173.107C281.059 173.089 281.101 173.074 281.143 173.06L281.154 173.056L281.159 173.055H281.161L281.162 173.054H281.164C281.237 173.035 281.313 173.032 281.387 173.046C281.461 173.061 281.531 173.093 281.591 173.138C281.651 173.184 281.699 173.243 281.732 173.31C281.766 173.378 281.784 173.452 281.784 173.528V179.585H280.802V174.485C280.759 174.531 280.715 174.582 280.671 174.637C280.183 175.232 279.555 176.377 279.157 178.528C279.135 178.648 279.069 178.756 278.972 178.831C278.874 178.905 278.751 178.941 278.629 178.929C278.507 178.918 278.393 178.861 278.311 178.77C278.228 178.679 278.183 178.561 278.184 178.438V172.409C278.103 172.532 278.024 172.656 277.947 172.782C277.35 173.757 276.684 175.095 276.372 176.576C276.349 176.686 276.289 176.785 276.201 176.856C276.114 176.927 276.004 176.965 275.892 176.965C275.779 176.965 275.669 176.927 275.582 176.856C275.495 176.785 275.434 176.686 275.411 176.576C275.1 175.095 274.434 173.757 273.836 172.782C273.756 172.651 273.677 172.527 273.601 172.409V178.438C273.6 178.56 273.554 178.678 273.472 178.768C273.389 178.858 273.276 178.914 273.154 178.925C273.033 178.936 272.911 178.902 272.813 178.829C272.716 178.755 272.65 178.648 272.627 178.528C272.228 176.377 271.601 175.233 271.113 174.637C271.071 174.585 271.028 174.534 270.982 174.485V179.585H270V173.528C270 173.452 270.017 173.378 270.051 173.31C270.084 173.243 270.132 173.183 270.192 173.137C270.252 173.091 270.322 173.06 270.396 173.046C270.471 173.031 270.547 173.034 270.62 173.054H270.623L270.625 173.055L270.63 173.056L270.642 173.06C270.684 173.073 270.725 173.089 270.766 173.107C270.838 173.14 270.935 173.187 271.048 173.258C271.275 173.402 271.565 173.638 271.874 174.015C272.166 174.381 272.416 174.779 272.618 175.201V170.909C272.618 170.809 272.649 170.712 272.706 170.629C272.763 170.547 272.845 170.484 272.938 170.449Z" fill="#81916E"/>
<path d="M299.622 158.021C299.753 157.987 299.892 157.995 300.02 158.042C300.146 158.089 300.256 158.175 300.333 158.286C300.41 158.397 300.453 158.53 300.453 158.665V164.481C300.727 163.908 301.065 163.368 301.462 162.873C301.88 162.362 302.273 162.044 302.58 161.849C302.734 161.751 302.865 161.686 302.964 161.643C303.018 161.619 303.074 161.598 303.131 161.58L303.147 161.574L303.154 161.572H303.157L303.159 161.571H303.16C303.259 161.545 303.363 161.541 303.463 161.561C303.563 161.58 303.658 161.623 303.739 161.685C303.82 161.747 303.886 161.827 303.932 161.918C303.977 162.01 304 162.111 304 162.213V170.418H302.67V163.51C302.612 163.572 302.552 163.641 302.492 163.716C301.831 164.522 300.982 166.073 300.442 168.986C300.413 169.15 300.323 169.297 300.19 169.398C300.058 169.498 299.892 169.546 299.727 169.53C299.561 169.515 299.407 169.439 299.295 169.316C299.183 169.192 299.121 169.032 299.122 168.865V160.696C299.013 160.863 298.907 161.032 298.803 161.202C297.993 162.524 297.091 164.336 296.669 166.342C296.638 166.491 296.556 166.626 296.438 166.722C296.319 166.818 296.17 166.87 296.018 166.87C295.865 166.87 295.717 166.818 295.599 166.722C295.48 166.626 295.399 166.491 295.367 166.342C294.945 164.336 294.042 162.524 293.232 161.202C293.124 161.025 293.017 160.856 292.913 160.696V168.865C292.913 169.031 292.851 169.19 292.739 169.313C292.628 169.435 292.474 169.51 292.31 169.525C292.145 169.541 291.98 169.494 291.848 169.395C291.716 169.295 291.625 169.149 291.595 168.986C291.055 166.071 290.204 164.522 289.543 163.716C289.486 163.646 289.427 163.577 289.365 163.51V170.418H288.035V162.213C288.035 162.111 288.059 162.01 288.104 161.918C288.15 161.826 288.216 161.747 288.297 161.685C288.378 161.623 288.472 161.579 288.572 161.56C288.673 161.54 288.776 161.545 288.875 161.571H288.879L288.882 161.572L288.889 161.574L288.904 161.58C288.962 161.597 289.019 161.618 289.073 161.643C289.172 161.687 289.302 161.752 289.454 161.849C289.762 162.044 290.156 162.361 290.574 162.873C290.971 163.369 291.309 163.908 291.583 164.481V158.665C291.583 158.53 291.625 158.398 291.702 158.286C291.779 158.175 291.889 158.089 292.016 158.042C292.143 157.995 292.282 157.987 292.413 158.021C292.544 158.054 292.662 158.127 292.751 158.23L292.752 158.232L292.755 158.234L292.763 158.243L292.79 158.275L292.891 158.398C292.976 158.502 293.097 158.655 293.244 158.851C293.539 159.243 293.939 159.808 294.368 160.508C295.022 161.569 295.574 162.689 296.018 163.854C296.461 162.689 297.014 161.569 297.668 160.508C298.097 159.807 298.497 159.243 298.791 158.851C298.938 158.656 299.089 158.464 299.245 158.275L299.273 158.243L299.281 158.234L299.283 158.232V158.23C299.372 158.127 299.491 158.054 299.622 158.021Z" fill="#81916E"/>
<path d="M9.06152 0.448829C8.96783 0.413995 8.86541 0.408455 8.76855 0.433204C8.67177 0.457973 8.58499 0.51204 8.51953 0.5875L8.51855 0.589454L8.51074 0.597266L8.49023 0.62168L8.41602 0.711524C8.35318 0.788768 8.26386 0.901924 8.15527 1.04648C7.93795 1.33582 7.64293 1.75278 7.32617 2.26914C6.8434 3.05221 6.43554 3.87907 6.1084 4.73887C5.78128 3.87908 5.37337 3.05221 4.89062 2.26914C4.5738 1.75201 4.27789 1.33584 4.06055 1.04648C3.95208 0.902535 3.84054 0.760503 3.72559 0.62168L3.70508 0.597266L3.69727 0.589454V0.5875C3.63177 0.512231 3.5449 0.458916 3.44824 0.43418C3.35135 0.409488 3.24899 0.414963 3.15527 0.449805C3.06147 0.48475 2.98004 0.547334 2.92285 0.629493C2.86582 0.711499 2.83524 0.808904 2.83496 0.908789V5.20078C2.63315 4.7782 2.38286 4.38054 2.08984 4.01523C1.78089 3.63755 1.49115 3.40243 1.26465 3.2584C1.15141 3.1864 1.05476 3.13911 0.981445 3.10703C0.941011 3.08947 0.899421 3.07356 0.857422 3.06016L0.845703 3.05625L0.84082 3.05527H0.838867L0.837891 3.0543H0.835938C0.76333 3.03457 0.687132 3.0321 0.613281 3.04648C0.539244 3.06097 0.469142 3.0925 0.40918 3.13828C0.349386 3.18396 0.301027 3.24276 0.267578 3.31016C0.2341 3.37776 0.215887 3.45249 0.21582 3.52793V9.58262H1.19824V4.48496C1.241 4.53121 1.2846 4.58233 1.3291 4.63731C1.81679 5.23247 2.44481 6.37707 2.84277 8.52793C2.86471 8.64846 2.93085 8.75644 3.02832 8.83066C3.12609 8.90498 3.2488 8.94056 3.37109 8.9293C3.49329 8.91798 3.60695 8.86097 3.68945 8.77012C3.7719 8.67927 3.81689 8.56076 3.81641 8.43809V2.40879C3.89676 2.53198 3.97603 2.65634 4.05273 2.78184C4.65038 3.75725 5.31635 5.09511 5.62793 6.57578C5.65117 6.68586 5.71147 6.78514 5.79883 6.85606C5.88627 6.92691 5.99585 6.96543 6.1084 6.96543C6.22099 6.96536 6.33056 6.92702 6.41797 6.85606C6.50534 6.78511 6.56565 6.6859 6.58887 6.57578C6.90048 5.09497 7.56637 3.75727 8.16406 2.78184C8.24431 2.651 8.32265 2.52655 8.39941 2.40879V8.43809C8.39981 8.56018 8.44592 8.67807 8.52832 8.76816C8.61076 8.85815 8.72416 8.91419 8.8457 8.92539C8.96726 8.9365 9.08907 8.90222 9.18652 8.82871C9.28387 8.75521 9.35034 8.64777 9.37305 8.52793C9.77163 6.37661 10.3991 5.23252 10.8867 4.63731C10.929 4.58542 10.9722 4.53416 11.0176 4.48496V9.58262H12V3.52793C12 3.45244 11.9827 3.37784 11.9492 3.31016C11.9158 3.24253 11.8675 3.18314 11.8076 3.13731C11.7477 3.09146 11.6776 3.06003 11.6035 3.04551C11.5294 3.03099 11.4527 3.03447 11.3799 3.0543H11.377L11.375 3.05527L11.3701 3.05625L11.3584 3.06016C11.3159 3.0726 11.2746 3.0886 11.2344 3.10703C11.1617 3.13976 11.0647 3.18704 10.9521 3.2584C10.725 3.40243 10.4349 3.63755 10.126 4.01523C9.83355 4.38075 9.5841 4.77863 9.38184 5.20078V0.908789C9.38176 0.808973 9.3508 0.711534 9.29395 0.629493C9.23684 0.547256 9.15533 0.483803 9.06152 0.448829Z" fill="#81916E"/>
</svg>
