<svg width="304" height="180" viewBox="0 0 304 180" fill="none" xmlns="http://www.w3.org/2000/svg">
<path d="M278.552 170.434C278.649 170.409 278.751 170.414 278.845 170.449C278.939 170.484 279.02 170.547 279.077 170.629C279.134 170.711 279.165 170.809 279.165 170.909V175.201C279.367 174.778 279.617 174.38 279.91 174.015C280.219 173.637 280.509 173.403 280.735 173.259C280.849 173.187 280.945 173.139 281.019 173.106C281.059 173.089 281.101 173.074 281.143 173.061L281.154 173.056L281.159 173.055H281.161L281.162 173.054H281.164C281.237 173.034 281.313 173.032 281.387 173.046C281.461 173.06 281.531 173.092 281.591 173.138C281.651 173.183 281.699 173.242 281.732 173.31C281.766 173.377 281.784 173.452 281.784 173.527V179.584H280.802V174.484C280.759 174.531 280.715 174.582 280.671 174.637C280.183 175.232 279.555 176.376 279.157 178.527C279.135 178.648 279.069 178.756 278.972 178.83C278.874 178.904 278.751 178.94 278.629 178.929C278.507 178.917 278.393 178.86 278.311 178.77C278.228 178.679 278.183 178.56 278.184 178.438V172.408C278.103 172.531 278.024 172.656 277.947 172.781C277.35 173.757 276.684 175.094 276.372 176.575C276.349 176.685 276.289 176.785 276.201 176.855C276.114 176.926 276.004 176.965 275.892 176.965C275.779 176.965 275.669 176.926 275.582 176.855C275.495 176.785 275.434 176.685 275.411 176.575C275.1 175.094 274.434 173.757 273.836 172.781C273.756 172.65 273.677 172.526 273.601 172.408V178.438C273.6 178.56 273.554 178.677 273.472 178.768C273.389 178.858 273.276 178.914 273.154 178.925C273.033 178.936 272.911 178.902 272.813 178.828C272.716 178.755 272.65 178.647 272.627 178.527C272.228 176.376 271.601 175.232 271.113 174.637C271.071 174.585 271.028 174.534 270.982 174.484V179.584H270V173.527C270 173.452 270.017 173.377 270.051 173.31C270.084 173.242 270.133 173.183 270.192 173.138C270.252 173.092 270.322 173.06 270.396 173.046C270.471 173.031 270.547 173.034 270.62 173.054H270.623L270.625 173.055L270.63 173.056L270.642 173.061C270.684 173.073 270.725 173.088 270.766 173.106C270.838 173.139 270.935 173.187 271.048 173.259C271.275 173.403 271.565 173.637 271.874 174.015C272.167 174.38 272.416 174.779 272.618 175.201V170.909C272.618 170.809 272.649 170.711 272.706 170.629C272.763 170.547 272.845 170.484 272.938 170.449C273.032 170.414 273.135 170.408 273.231 170.433C273.304 170.451 273.371 170.487 273.428 170.535L273.483 170.591L273.489 170.598L273.51 170.621L273.584 170.711C273.647 170.788 273.736 170.901 273.845 171.046C274.062 171.335 274.357 171.752 274.674 172.269C275.157 173.052 275.564 173.879 275.892 174.738C276.219 173.879 276.627 173.052 277.109 172.269C277.426 171.751 277.722 171.335 277.939 171.046C278.048 170.902 278.159 170.76 278.274 170.621L278.295 170.598L278.301 170.591L278.303 170.589V170.588C278.368 170.512 278.455 170.458 278.552 170.434Z" fill="#225A7F"/>
<path d="M292.016 158.042C292.143 157.995 292.282 157.987 292.413 158.021C292.544 158.054 292.662 158.127 292.751 158.23L292.752 158.232L292.755 158.234L292.763 158.243L292.79 158.276L292.891 158.398C292.976 158.502 293.097 158.655 293.244 158.851C293.539 159.243 293.939 159.808 294.368 160.508C295.022 161.569 295.574 162.689 296.018 163.854C296.461 162.689 297.014 161.569 297.668 160.508C298.097 159.807 298.497 159.243 298.791 158.851C298.938 158.656 299.09 158.464 299.245 158.276L299.273 158.243L299.281 158.234L299.283 158.232V158.23C299.372 158.127 299.491 158.055 299.622 158.022C299.753 157.988 299.892 157.995 300.02 158.042C300.146 158.089 300.256 158.175 300.333 158.286C300.41 158.397 300.453 158.53 300.453 158.665V164.481C300.727 163.908 301.065 163.368 301.462 162.873C301.88 162.362 302.273 162.044 302.58 161.849C302.734 161.751 302.865 161.686 302.964 161.643C303.018 161.619 303.074 161.598 303.131 161.58L303.147 161.574L303.154 161.572H303.16C303.259 161.546 303.363 161.541 303.463 161.561C303.563 161.58 303.658 161.623 303.739 161.685C303.82 161.747 303.886 161.827 303.932 161.919C303.977 162.01 304 162.111 304 162.213V170.418H302.67V163.51C302.612 163.573 302.552 163.641 302.492 163.716C301.831 164.522 300.982 166.073 300.442 168.986C300.413 169.15 300.323 169.297 300.19 169.398C300.058 169.498 299.892 169.546 299.727 169.53C299.561 169.515 299.407 169.439 299.295 169.316C299.183 169.192 299.121 169.032 299.122 168.865V160.696C299.013 160.863 298.907 161.032 298.803 161.202C297.993 162.524 297.091 164.336 296.669 166.342C296.638 166.491 296.556 166.626 296.438 166.722C296.319 166.818 296.17 166.87 296.018 166.87C295.865 166.87 295.717 166.818 295.599 166.722C295.48 166.626 295.399 166.491 295.367 166.342C294.945 164.336 294.042 162.524 293.232 161.202C293.124 161.025 293.017 160.856 292.913 160.696V168.865C292.913 169.031 292.851 169.19 292.739 169.313C292.628 169.435 292.474 169.511 292.31 169.526C292.145 169.542 291.98 169.494 291.848 169.395C291.716 169.295 291.625 169.149 291.595 168.986C291.055 166.071 290.204 164.522 289.543 163.716C289.486 163.646 289.427 163.577 289.365 163.51V170.418H288.035V162.213C288.035 162.111 288.059 162.01 288.104 161.918C288.15 161.827 288.216 161.747 288.297 161.685C288.378 161.623 288.472 161.579 288.572 161.56C288.673 161.54 288.776 161.545 288.875 161.571H288.877L288.879 161.572H288.882L288.889 161.574L288.904 161.58C288.962 161.597 289.019 161.618 289.073 161.643C289.172 161.687 289.302 161.752 289.454 161.849C289.762 162.044 290.156 162.361 290.574 162.873C290.971 163.369 291.309 163.908 291.583 164.481V158.665C291.583 158.53 291.625 158.398 291.702 158.286C291.779 158.175 291.889 158.089 292.016 158.042Z" fill="#225A7F"/>
<path d="M3.44824 0.432721C3.35133 0.408026 3.249 0.414466 3.15527 0.449323C3.06152 0.484277 2.98001 0.546889 2.92285 0.62901C2.86595 0.710979 2.83522 0.808517 2.83496 0.908307V5.2003C2.6332 4.7778 2.38277 4.38 2.08984 4.01475C1.781 3.6372 1.49111 3.40196 1.26465 3.25792C1.15151 3.18598 1.05474 3.13863 0.981445 3.10655C0.941047 3.089 0.899383 3.07307 0.857422 3.05967L0.845703 3.05577L0.84082 3.05479H0.838867L0.837891 3.05381H0.835938C0.763312 3.03408 0.68715 3.03161 0.613281 3.046C0.53927 3.06049 0.469123 3.09203 0.40918 3.1378C0.34947 3.18348 0.300982 3.24232 0.267578 3.30967C0.234199 3.3772 0.215887 3.45212 0.21582 3.52745V9.58311H1.19824V4.48448C1.24086 4.53059 1.28475 4.58107 1.3291 4.63585C1.81677 5.23096 2.44479 6.37579 2.84277 8.52647C2.8647 8.64705 2.9308 8.75595 3.02832 8.83018C3.12605 8.9044 3.24889 8.94006 3.37109 8.92881C3.4932 8.91751 3.60697 8.86037 3.68945 8.76964C3.77183 8.67891 3.81677 8.56013 3.81641 8.4376V2.40733C3.89672 2.53047 3.97606 2.65592 4.05273 2.78135C4.65029 3.75667 5.31636 5.09395 5.62793 6.57432C5.65114 6.68444 5.71146 6.78364 5.79883 6.8546C5.88629 6.92553 5.99578 6.96495 6.1084 6.96495C6.2209 6.96487 6.33059 6.92547 6.41797 6.8546C6.50512 6.78367 6.56569 6.68428 6.58887 6.57432C6.90048 5.09386 7.56648 3.75667 8.16406 2.78135C8.2443 2.65052 8.32266 2.52509 8.39941 2.40733V8.4376C8.39994 8.55951 8.44603 8.67771 8.52832 8.76768C8.61074 8.85751 8.72429 8.91372 8.8457 8.92491C8.96716 8.93599 9.08911 8.90163 9.18652 8.82823C9.2839 8.75473 9.35034 8.64634 9.37305 8.52647C9.77169 6.37517 10.3991 5.23096 10.8867 4.63585C10.9289 4.58408 10.9724 4.53357 11.0176 4.48448V9.58311H12V3.52745C12 3.45209 11.9825 3.37726 11.9492 3.30967C11.9159 3.24212 11.8674 3.18264 11.8076 3.13682C11.7477 3.091 11.6775 3.05955 11.6035 3.04503C11.5294 3.03051 11.4527 3.03301 11.3799 3.05284H11.3789L11.375 3.05479L11.3701 3.05577L11.3584 3.05967C11.316 3.07212 11.2746 3.08812 11.2344 3.10655C11.1617 3.13928 11.0647 3.18661 10.9521 3.25792C10.725 3.40196 10.4348 3.6372 10.126 4.01475C9.83363 4.38022 9.58405 4.77823 9.38184 5.2003V0.908307C9.38178 0.808586 9.35067 0.711013 9.29395 0.62901C9.23687 0.546811 9.15528 0.48333 9.06152 0.448346C8.96782 0.413498 8.86542 0.407969 8.76855 0.432721C8.67179 0.457512 8.58497 0.511552 8.51953 0.587018L8.51855 0.588971L8.51074 0.596783L8.49023 0.621198L8.41602 0.711041C8.35323 0.788222 8.26361 0.900806 8.15527 1.04503C7.93794 1.33438 7.64294 1.75228 7.32617 2.26866C6.84346 3.05167 6.4355 3.87866 6.1084 4.73839C5.78133 3.87874 5.37327 3.05161 4.89062 2.26866C4.57386 1.75163 4.27788 1.33437 4.06055 1.04503C3.95225 0.901316 3.84035 0.759797 3.72559 0.621198L3.70508 0.596783L3.69727 0.588971V0.587018C3.63174 0.511682 3.54498 0.457453 3.44824 0.432721Z" fill="#225A7F"/>
</svg>
