<svg width="326" height="192" viewBox="0 0 326 192" fill="none" xmlns="http://www.w3.org/2000/svg">
<path d="M294.938 182.449C295.032 182.414 295.135 182.408 295.231 182.433C295.328 182.458 295.415 182.512 295.48 182.588L295.481 182.589L295.489 182.597L295.51 182.622L295.584 182.712C295.647 182.789 295.736 182.902 295.845 183.046C296.062 183.336 296.357 183.753 296.674 184.269C297.157 185.052 297.564 185.879 297.892 186.739C298.219 185.879 298.627 185.052 299.109 184.269C299.426 183.752 299.722 183.336 299.939 183.046C300.048 182.903 300.159 182.761 300.274 182.622L300.295 182.597L300.303 182.589V182.588C300.368 182.512 300.455 182.459 300.552 182.434C300.649 182.409 300.751 182.415 300.845 182.45C300.939 182.485 301.02 182.547 301.077 182.629C301.134 182.711 301.165 182.809 301.165 182.909V187.201C301.367 186.778 301.617 186.381 301.91 186.015C302.219 185.638 302.509 185.402 302.735 185.258C302.849 185.186 302.945 185.139 303.019 185.107C303.059 185.089 303.101 185.074 303.143 185.06L303.154 185.056L303.159 185.055H303.161L303.162 185.054H303.164C303.237 185.035 303.313 185.032 303.387 185.046C303.461 185.061 303.531 185.093 303.591 185.138C303.651 185.184 303.699 185.243 303.732 185.31C303.766 185.378 303.784 185.452 303.784 185.528V191.585H302.802V186.485C302.759 186.531 302.715 186.582 302.671 186.637C302.183 187.232 301.555 188.377 301.157 190.528C301.135 190.648 301.069 190.756 300.972 190.831C300.874 190.905 300.751 190.941 300.629 190.929C300.507 190.918 300.393 190.861 300.311 190.77C300.228 190.679 300.183 190.561 300.184 190.438V184.409C300.103 184.532 300.024 184.656 299.947 184.782C299.35 185.757 298.684 187.095 298.372 188.576C298.349 188.686 298.289 188.785 298.201 188.856C298.114 188.927 298.004 188.965 297.892 188.965C297.779 188.965 297.669 188.927 297.582 188.856C297.495 188.785 297.434 188.686 297.411 188.576C297.1 187.095 296.434 185.757 295.836 184.782C295.756 184.651 295.677 184.527 295.601 184.409V190.438C295.6 190.56 295.554 190.678 295.472 190.768C295.389 190.858 295.276 190.914 295.154 190.925C295.033 190.936 294.911 190.902 294.813 190.829C294.716 190.755 294.65 190.648 294.627 190.528C294.228 188.377 293.601 187.233 293.113 186.637C293.071 186.585 293.028 186.534 292.982 186.485V191.585H292V185.528C292 185.452 292.017 185.378 292.051 185.31C292.084 185.243 292.132 185.183 292.192 185.137C292.252 185.091 292.322 185.06 292.396 185.046C292.471 185.031 292.547 185.034 292.62 185.054H292.623L292.625 185.055L292.63 185.056L292.642 185.06C292.684 185.073 292.725 185.089 292.766 185.107C292.838 185.14 292.935 185.187 293.048 185.258C293.275 185.402 293.565 185.638 293.874 186.015C294.166 186.381 294.416 186.779 294.618 187.201V182.909C294.618 182.809 294.649 182.712 294.706 182.629C294.763 182.547 294.845 182.484 294.938 182.449Z" fill="#81916E"/>
<path d="M321.622 170.021C321.753 169.987 321.892 169.995 322.02 170.042C322.146 170.089 322.256 170.175 322.333 170.286C322.41 170.397 322.453 170.53 322.453 170.665V176.481C322.727 175.908 323.065 175.368 323.462 174.873C323.88 174.362 324.273 174.044 324.58 173.849C324.734 173.751 324.865 173.686 324.964 173.643C325.018 173.619 325.074 173.598 325.131 173.58L325.147 173.574L325.154 173.572H325.157L325.159 173.571H325.16C325.259 173.545 325.363 173.541 325.463 173.561C325.563 173.58 325.658 173.623 325.739 173.685C325.82 173.747 325.886 173.827 325.932 173.918C325.977 174.01 326 174.111 326 174.213V182.418H324.67V175.51C324.612 175.572 324.552 175.641 324.492 175.716C323.831 176.522 322.982 178.073 322.442 180.986C322.413 181.15 322.323 181.297 322.19 181.398C322.058 181.498 321.892 181.546 321.727 181.53C321.561 181.515 321.407 181.439 321.295 181.316C321.183 181.192 321.121 181.032 321.122 180.865V172.696C321.013 172.863 320.907 173.032 320.803 173.202C319.993 174.524 319.091 176.336 318.669 178.342C318.638 178.491 318.556 178.626 318.438 178.722C318.319 178.818 318.17 178.87 318.018 178.87C317.865 178.87 317.717 178.818 317.599 178.722C317.48 178.626 317.399 178.491 317.367 178.342C316.945 176.336 316.042 174.524 315.232 173.202C315.124 173.025 315.017 172.856 314.913 172.696V180.865C314.913 181.031 314.851 181.19 314.739 181.313C314.628 181.435 314.474 181.51 314.31 181.525C314.145 181.541 313.98 181.494 313.848 181.395C313.716 181.295 313.625 181.149 313.595 180.986C313.055 178.071 312.204 176.522 311.543 175.716C311.486 175.646 311.427 175.577 311.365 175.51V182.418H310.035V174.213C310.035 174.111 310.059 174.01 310.104 173.918C310.15 173.826 310.216 173.747 310.297 173.685C310.378 173.623 310.472 173.579 310.572 173.56C310.673 173.54 310.776 173.545 310.875 173.571H310.879L310.882 173.572L310.889 173.574L310.904 173.58C310.962 173.597 311.019 173.618 311.073 173.643C311.172 173.687 311.302 173.752 311.454 173.849C311.762 174.044 312.156 174.361 312.574 174.873C312.971 175.369 313.309 175.908 313.583 176.481V170.665C313.583 170.53 313.625 170.398 313.702 170.286C313.779 170.175 313.889 170.089 314.016 170.042C314.143 169.995 314.282 169.987 314.413 170.021C314.544 170.054 314.662 170.127 314.751 170.23L314.752 170.232L314.755 170.234L314.763 170.243L314.79 170.275L314.891 170.398C314.976 170.502 315.097 170.655 315.244 170.851C315.539 171.243 315.939 171.808 316.368 172.508C317.022 173.569 317.574 174.689 318.018 175.854C318.461 174.689 319.014 173.569 319.668 172.508C320.097 171.807 320.497 171.243 320.791 170.851C320.938 170.656 321.089 170.464 321.245 170.275L321.273 170.243L321.281 170.234L321.283 170.232V170.23C321.372 170.127 321.491 170.054 321.622 170.021Z" fill="#81916E"/>
<path d="M31.0615 12.4488C30.9678 12.414 30.8654 12.4085 30.7686 12.4332C30.6718 12.458 30.585 12.512 30.5195 12.5875L30.5186 12.5895L30.5107 12.5973L30.4902 12.6217L30.416 12.7115C30.3532 12.7888 30.2639 12.9019 30.1553 13.0465C29.938 13.3358 29.6429 13.7528 29.3262 14.2691C28.8434 15.0522 28.4355 15.8791 28.1084 16.7389C27.7813 15.8791 27.3734 15.0522 26.8906 14.2691C26.5738 13.752 26.2779 13.3358 26.0605 13.0465C25.9521 12.9025 25.8405 12.7605 25.7256 12.6217L25.7051 12.5973L25.6973 12.5895V12.5875C25.6318 12.5122 25.5449 12.4589 25.4482 12.4342C25.3513 12.4095 25.249 12.415 25.1553 12.4498C25.0615 12.4848 24.98 12.5473 24.9229 12.6295C24.8658 12.7115 24.8352 12.8089 24.835 12.9088V17.2008C24.6332 16.7782 24.3829 16.3805 24.0898 16.0152C23.7809 15.6376 23.4911 15.4024 23.2646 15.2584C23.1514 15.1864 23.0548 15.1391 22.9814 15.107C22.941 15.0895 22.8994 15.0736 22.8574 15.0602L22.8457 15.0563L22.8408 15.0553H22.8389L22.8379 15.0543H22.8359C22.7633 15.0346 22.6871 15.0321 22.6133 15.0465C22.5392 15.061 22.4691 15.0925 22.4092 15.1383C22.3494 15.184 22.301 15.2428 22.2676 15.3102C22.2341 15.3778 22.2159 15.4525 22.2158 15.5279V21.5826H23.1982V16.485C23.241 16.5312 23.2846 16.5823 23.3291 16.6373C23.8168 17.2325 24.4448 18.3771 24.8428 20.5279C24.8647 20.6485 24.9309 20.7564 25.0283 20.8307C25.1261 20.905 25.2488 20.9406 25.3711 20.9293C25.4933 20.918 25.607 20.861 25.6895 20.7701C25.7719 20.6793 25.8169 20.5608 25.8164 20.4381V14.4088C25.8968 14.532 25.976 14.6563 26.0527 14.7818C26.6504 15.7572 27.3163 17.0951 27.6279 18.5758C27.6512 18.6859 27.7115 18.7851 27.7988 18.8561C27.8863 18.9269 27.9958 18.9654 28.1084 18.9654C28.221 18.9654 28.3306 18.927 28.418 18.8561C28.5053 18.7851 28.5657 18.6859 28.5889 18.5758C28.9005 17.095 29.5664 15.7573 30.1641 14.7818C30.2443 14.651 30.3227 14.5266 30.3994 14.4088V20.4381C30.3998 20.5602 30.4459 20.6781 30.5283 20.7682C30.6108 20.8582 30.7242 20.9142 30.8457 20.9254C30.9673 20.9365 31.0891 20.9022 31.1865 20.8287C31.2839 20.7552 31.3503 20.6478 31.373 20.5279C31.7716 18.3766 32.3991 17.2325 32.8867 16.6373C32.929 16.5854 32.9722 16.5342 33.0176 16.485V21.5826H34V15.5279C34 15.4524 33.9827 15.3778 33.9492 15.3102C33.9158 15.2425 33.8675 15.1831 33.8076 15.1373C33.7477 15.0915 33.6776 15.06 33.6035 15.0455C33.5294 15.031 33.4527 15.0345 33.3799 15.0543H33.377L33.375 15.0553L33.3701 15.0563L33.3584 15.0602C33.3159 15.0726 33.2746 15.0886 33.2344 15.107C33.1617 15.1398 33.0647 15.187 32.9521 15.2584C32.725 15.4024 32.4349 15.6376 32.126 16.0152C31.8335 16.3808 31.5841 16.7786 31.3818 17.2008V12.9088C31.3818 12.809 31.3508 12.7115 31.2939 12.6295C31.2368 12.5473 31.1553 12.4838 31.0615 12.4488Z" fill="#81916E"/>
<path d="M4.37793 0.020595C4.24656 -0.0128532 4.10751 -0.00523897 3.98047 0.0420794C3.85354 0.0894377 3.7444 0.17503 3.66699 0.28622C3.58957 0.39747 3.54718 0.52959 3.54688 0.665126V6.48056C3.27341 5.90787 2.93518 5.36817 2.53809 4.87313C2.11963 4.3616 1.72674 4.04386 1.41992 3.84872C1.2665 3.75117 1.13546 3.68612 1.03613 3.64267C0.981589 3.61898 0.925786 3.59826 0.869141 3.58017L0.852539 3.57431L0.845703 3.57235H0.842773L0.84082 3.57138H0.839844C0.741263 3.54454 0.637379 3.54104 0.537109 3.56063C0.436818 3.58025 0.341972 3.62265 0.260742 3.68466C0.179624 3.74661 0.113698 3.82661 0.0683594 3.91806C0.0230265 4.0096 0.000117302 4.11083 0 4.21298V12.4181H1.33008V5.50985C1.38798 5.57249 1.44755 5.64146 1.50781 5.71591C2.16851 6.52223 3.01844 8.07271 3.55762 10.9864C3.58722 11.15 3.67736 11.2969 3.80957 11.3975C3.94201 11.4982 4.10778 11.5456 4.27344 11.5304C4.43911 11.5151 4.59323 11.4387 4.70508 11.3155C4.81688 11.1924 4.87866 11.0317 4.87793 10.8653V2.69638C4.9868 2.86328 5.09334 3.03221 5.19727 3.20224C6.007 4.52375 6.90889 6.33578 7.33105 8.34188C7.36242 8.49123 7.44406 8.62554 7.5625 8.72177C7.68104 8.81801 7.82973 8.8702 7.98242 8.8702C8.13497 8.87014 8.28292 8.81789 8.40137 8.72177C8.51986 8.62555 8.60143 8.49126 8.63281 8.34188C9.05501 6.33565 9.95781 4.52378 10.7676 3.20224C10.8764 3.02487 10.9829 2.85601 11.0869 2.69638V10.8653C11.0874 11.0308 11.1491 11.1905 11.2607 11.3126C11.3724 11.4346 11.5257 11.5102 11.6904 11.5255C11.8553 11.5407 12.0202 11.4943 12.1523 11.3946C12.2845 11.2949 12.3746 11.1491 12.4053 10.9864C12.9454 8.07142 13.7963 6.52216 14.457 5.71591C14.5143 5.64553 14.5733 5.57659 14.6348 5.50985V12.4181H15.9648V4.21298C15.9649 4.11075 15.9408 4.00971 15.8955 3.91806C15.8502 3.82648 15.7843 3.74671 15.7031 3.68466C15.622 3.62264 15.528 3.57933 15.4277 3.55966C15.3274 3.54 15.2237 3.54454 15.125 3.57138H15.1211L15.1182 3.57235L15.1113 3.57431L15.0957 3.58017C15.0381 3.59705 14.9813 3.61763 14.9268 3.64267C14.8284 3.687 14.6983 3.75215 14.5459 3.84872C14.2381 4.04384 13.8444 4.36139 13.4258 4.87313C13.0294 5.36857 12.6911 5.90832 12.417 6.48056V0.665126C12.417 0.52963 12.3751 0.397544 12.2979 0.28622C12.2206 0.174933 12.1113 0.0894791 11.9844 0.0420794C11.8573 -0.00529141 11.7183 -0.0129753 11.5869 0.020595C11.4556 0.0541548 11.3378 0.12719 11.249 0.229579L11.248 0.231533L11.2451 0.234462L11.2373 0.243251L11.21 0.275478L11.1094 0.397548C11.0243 0.502182 10.903 0.654831 10.7559 0.850673C10.4614 1.24269 10.0611 1.80812 9.63184 2.5079C8.97789 3.56868 8.42558 4.68891 7.98242 5.8536C7.53922 4.68878 6.98606 3.56879 6.33203 2.5079C5.90284 1.80737 5.50343 1.24269 5.20898 0.850673C5.06204 0.655664 4.91062 0.463543 4.75488 0.275478L4.72656 0.243251L4.71875 0.234462L4.7168 0.231533V0.229579C4.62787 0.127215 4.50933 0.0540791 4.37793 0.020595Z" fill="#81916E"/>
</svg>
