<svg width="102" height="40" viewBox="0 0 102 40" fill="none" xmlns="http://www.w3.org/2000/svg">
<path d="M4.26271 28.1834C3.99631 29.1773 3.05566 29.789 2.16178 29.5495C1.26798 29.3099 0.759124 28.3098 1.02535 27.3159C1.29168 26.322 2.23239 25.7104 3.12629 25.9499C4.02021 26.1894 4.52906 27.1894 4.26271 28.1834ZM14.6627 35.9837L14.4753 36.2792L4.98433 30.2633L5.35858 29.6741L14.8498 35.689L14.6627 35.9837ZM18.9055 38.2791C18.6391 39.2729 17.6983 39.8846 16.8046 39.6452C15.9108 39.4057 15.402 38.4056 15.6682 37.4117C15.9345 36.4177 16.8752 35.8061 17.7691 36.0456C18.6629 36.2853 19.1718 37.2852 18.9055 38.2791ZM22.7647 23.8801C22.4984 24.8741 21.5577 25.4857 20.6638 25.2462C19.77 25.0066 19.2611 24.0066 19.5274 23.0127C19.7938 22.0189 20.7345 21.4073 21.6283 21.6466C22.5222 21.8861 23.0309 22.8862 22.7647 23.8801ZM17.7839 33.3492L19.3272 27.5895L20.0026 27.7704L18.4593 33.5302L17.7839 33.3492ZM33.6374 33.3044L23.7885 26.0359L23.9963 25.7549L24.2031 25.4737L34.0529 32.7424L33.6374 33.3044ZM39.6121 36.1094C39.3458 37.1034 38.4051 37.715 37.5112 37.4755C36.6172 37.2359 36.1084 36.236 36.3747 35.2419C36.6411 34.248 37.5818 33.6364 38.4757 33.8759C39.3695 34.1154 39.8783 35.1155 39.6121 36.1094ZM40.0234 32.0239L39.3764 31.7595L46.4647 14.3687L47.1117 14.6331L40.0234 32.0239ZM49.5998 11.7805C49.3335 12.7745 48.3928 13.386 47.4989 13.1465C46.605 12.907 46.0961 11.907 46.3624 10.913C46.6289 9.91924 47.5696 9.30747 48.4634 9.54694C49.3572 9.78644 49.8659 10.7866 49.5998 11.7805ZM66.0734 26.1743L49.9709 13.7573L50.1845 13.4809L50.3971 13.2043L66.5006 25.6214L66.0734 26.1743ZM70.6611 28.9979C70.3947 29.9918 69.454 30.6034 68.5601 30.3639C67.6662 30.1244 67.1575 29.1244 67.4237 28.1304C67.69 27.1364 68.6307 26.5248 69.5246 26.7644C70.4186 27.0039 70.9274 28.0039 70.6611 28.9979ZM71.7925 27.19L71.3357 26.6612L96.1812 5.15478L96.638 5.68361L71.7925 27.19ZM101.161 3.21959C100.895 4.21344 99.9551 4.82513 99.0613 4.58591C98.1674 4.34638 97.6585 3.3464 97.9249 2.3524C98.1914 1.35864 99.132 0.746834 100.026 0.986328C100.919 1.22602 101.427 2.22588 101.161 3.21959Z" fill="white"/>
</svg>
