<svg width="55" height="57" viewBox="0 0 55 57" fill="none" xmlns="http://www.w3.org/2000/svg">
<path d="M10.3125 54.0508C10.8709 54.0508 11.3232 54.5317 11.3232 55.124C11.323 55.7161 10.8708 56.1963 10.3125 56.1963C9.75428 56.1962 9.30195 55.7161 9.30176 55.124C9.30176 54.5318 9.75416 54.0508 10.3125 54.0508ZM15.166 38.3945L15.4746 38.4785L11.2285 54.1357L10.9199 54.0518L10.6113 53.9688L14.8584 38.3105L15.166 38.3945ZM16.3779 34.748C16.9363 34.748 17.3896 35.228 17.3896 35.8203C17.3895 36.4125 16.9362 36.8926 16.3779 36.8926C15.8198 36.8924 15.3673 36.4124 15.3672 35.8203C15.3672 35.2281 15.8197 34.7482 16.3779 34.748ZM35.0029 35.0664L18.0176 36.1387L17.9766 35.502L34.9619 34.4297L35.0029 35.0664ZM36.1953 33.0322C36.7537 33.0322 37.2061 33.5122 37.2061 34.1045C37.2059 34.6967 36.7536 35.1768 36.1953 35.1768C35.637 35.1767 35.1847 34.6967 35.1846 34.1045C35.1846 33.5122 35.637 33.0323 36.1953 33.0322ZM15.5576 34.4912L15.1787 35.0049L3.24805 26.2109L3.62695 25.6973L15.5576 34.4912ZM52.7754 25.3096L52.9238 25.5928L38.5674 33.0996L38.4189 32.8164L38.2705 32.5342L52.6279 25.0264L52.7754 25.3096ZM1.01074 24.8809C1.56902 24.8809 2.02229 25.361 2.02246 25.9531C2.02246 26.5454 1.56912 27.0264 1.01074 27.0264C0.452497 27.0262 0 26.5453 0 25.9531C0.000166109 25.3611 0.4526 24.881 1.01074 24.8809ZM53.9893 22.7373C54.5476 22.7374 55 23.2173 55 23.8096C54.9999 24.4018 54.5475 24.8818 53.9893 24.8818C53.4309 24.8818 52.9786 24.4018 52.9785 23.8096C52.9785 23.2173 53.4309 22.7373 53.9893 22.7373ZM20.8271 3.21875L21.0645 3.43164L2.25977 24.4512L1.7832 24.0254L20.5889 3.00586L20.8271 3.21875ZM22.041 0C22.5993 0.000176078 23.0518 0.481056 23.0518 1.07324C23.0515 1.66522 22.5991 2.14533 22.041 2.14551C21.4828 2.14551 21.0295 1.66532 21.0293 1.07324C21.0293 0.480947 21.4826 0 22.041 0Z" fill="white"/>
</svg>
