<svg width="1512" height="341" viewBox="0 0 1512 341" fill="none" xmlns="http://www.w3.org/2000/svg">
<rect width="1512" height="341" fill="url(#paint0_linear_0_1)"/>
<path d="M64.4545 143.101C65.3245 142.646 66.4769 143.13 67.0278 144.182C67.5785 145.234 67.3195 146.457 66.4497 146.912C65.5797 147.368 64.4282 146.883 63.8774 145.83C63.3267 144.778 63.5849 143.556 64.4545 143.101ZM60.0131 141.66L59.4467 142.485L41.4555 126.004L42.0219 125.18L60.0131 141.66ZM92.2124 115.622L69.1782 140.627L68.517 139.877L91.5512 114.872L92.2124 115.622ZM225.087 125.381C225.957 124.926 227.11 125.41 227.661 126.462C228.211 127.515 227.952 128.737 227.082 129.193C226.213 129.648 225.061 129.163 224.51 128.111C223.959 127.058 224.218 125.837 225.087 125.381ZM221.426 123.259L221.131 124.214L193.409 109.591L193.704 108.635L221.426 123.259ZM35.226 117.936C36.096 117.481 37.2484 117.964 37.7993 119.017C38.35 120.069 38.091 121.292 37.2211 121.747C36.3512 122.203 35.1997 121.718 34.6489 120.665C34.0982 119.613 34.3564 118.391 35.226 117.936ZM71.3872 86.059L39.9516 115.461L39.3315 114.677L70.767 85.2748L71.3872 86.059ZM94.2788 108.068C95.1487 107.612 96.3011 108.096 96.852 109.149C97.4027 110.201 97.1438 111.424 96.2739 111.879C95.404 112.334 94.2525 111.85 93.7016 110.797C93.1509 109.745 93.4091 108.523 94.2788 108.068ZM184.693 104.442C185.563 103.986 186.715 104.47 187.266 105.523C187.817 106.575 187.558 107.798 186.688 108.253C185.818 108.708 184.667 108.224 184.116 107.171C183.565 106.119 183.823 104.897 184.693 104.442ZM137.649 95.0765L100.334 108.134L99.9614 107.206L137.276 94.1488L137.649 95.0765ZM179.841 102.835L179.69 103.825L150.147 93.391L150.298 92.4027L179.841 102.835ZM92.143 102.709L91.4145 103.395L79.6196 88.5277L80.3481 87.8431L92.143 102.709ZM142.759 90.7836C143.629 90.3282 144.782 90.8121 145.332 91.8646C145.883 92.9171 145.624 94.1398 144.754 94.5951C143.884 95.0502 142.733 94.5654 142.182 93.5131C141.631 92.4608 141.89 91.2391 142.759 90.7836ZM74.7827 81.0453C75.6526 80.5899 76.805 81.0739 77.3559 82.1263C77.9066 83.1788 77.6477 84.4015 76.7778 84.8568C75.9079 85.3119 74.7564 84.8271 74.2055 83.7748C73.6548 82.7225 73.9131 81.5008 74.7827 81.0453Z" fill="white"/>
<path d="M64.4545 143.101C65.3245 142.646 66.4769 143.13 67.0278 144.182C67.5785 145.234 67.3195 146.457 66.4497 146.912C65.5797 147.368 64.4282 146.883 63.8774 145.83C63.3267 144.778 63.5849 143.556 64.4545 143.101ZM60.0131 141.66L59.4467 142.485L41.4555 126.004L42.0219 125.18L60.0131 141.66ZM92.2124 115.622L69.1782 140.627L68.517 139.877L91.5512 114.872L92.2124 115.622ZM225.087 125.381C225.957 124.926 227.11 125.41 227.661 126.462C228.211 127.515 227.952 128.737 227.082 129.193C226.213 129.648 225.061 129.163 224.51 128.111C223.959 127.058 224.218 125.837 225.087 125.381ZM221.426 123.259L221.131 124.214L193.409 109.591L193.704 108.635L221.426 123.259ZM35.226 117.936C36.096 117.481 37.2484 117.964 37.7993 119.017C38.35 120.069 38.091 121.292 37.2211 121.747C36.3512 122.203 35.1997 121.718 34.6489 120.665C34.0982 119.613 34.3564 118.391 35.226 117.936ZM71.3872 86.059L39.9516 115.461L39.3315 114.677L70.767 85.2748L71.3872 86.059ZM94.2788 108.068C95.1487 107.612 96.3011 108.096 96.852 109.149C97.4027 110.201 97.1438 111.424 96.2739 111.879C95.404 112.334 94.2525 111.85 93.7016 110.797C93.1509 109.745 93.4091 108.523 94.2788 108.068ZM184.693 104.442C185.563 103.986 186.715 104.47 187.266 105.523C187.817 106.575 187.558 107.798 186.688 108.253C185.818 108.708 184.667 108.224 184.116 107.171C183.565 106.119 183.823 104.897 184.693 104.442ZM137.649 95.0765L100.334 108.134L99.9614 107.206L137.276 94.1488L137.649 95.0765ZM179.841 102.835L179.69 103.825L150.147 93.391L150.298 92.4027L179.841 102.835ZM92.143 102.709L91.4145 103.395L79.6196 88.5277L80.3481 87.8431L92.143 102.709ZM142.759 90.7836C143.629 90.3282 144.782 90.8121 145.332 91.8646C145.883 92.9171 145.624 94.1398 144.754 94.5951C143.884 95.0502 142.733 94.5654 142.182 93.5131C141.631 92.4608 141.89 91.2391 142.759 90.7836ZM74.7827 81.0453C75.6526 80.5899 76.805 81.0739 77.3559 82.1263C77.9066 83.1788 77.6477 84.4015 76.7778 84.8568C75.9079 85.3119 74.7564 84.8271 74.2055 83.7748C73.6548 82.7225 73.9131 81.5008 74.7827 81.0453Z" fill="white"/>
<path d="M64.4545 143.101C65.3245 142.646 66.4769 143.13 67.0278 144.182C67.5785 145.234 67.3195 146.457 66.4497 146.912C65.5797 147.368 64.4282 146.883 63.8774 145.83C63.3267 144.778 63.5849 143.556 64.4545 143.101ZM60.0131 141.66L59.4467 142.485L41.4555 126.004L42.0219 125.18L60.0131 141.66ZM92.2124 115.622L69.1782 140.627L68.517 139.877L91.5512 114.872L92.2124 115.622ZM225.087 125.381C225.957 124.926 227.11 125.41 227.661 126.462C228.211 127.515 227.952 128.737 227.082 129.193C226.213 129.648 225.061 129.163 224.51 128.111C223.959 127.058 224.218 125.837 225.087 125.381ZM221.426 123.259L221.131 124.214L193.409 109.591L193.704 108.635L221.426 123.259ZM35.226 117.936C36.096 117.481 37.2484 117.964 37.7993 119.017C38.35 120.069 38.091 121.292 37.2211 121.747C36.3512 122.203 35.1997 121.718 34.6489 120.665C34.0982 119.613 34.3564 118.391 35.226 117.936ZM71.3872 86.059L39.9516 115.461L39.3315 114.677L70.767 85.2748L71.3872 86.059ZM94.2788 108.068C95.1487 107.612 96.3011 108.096 96.852 109.149C97.4027 110.201 97.1438 111.424 96.2739 111.879C95.404 112.334 94.2525 111.85 93.7016 110.797C93.1509 109.745 93.4091 108.523 94.2788 108.068ZM184.693 104.442C185.563 103.986 186.715 104.47 187.266 105.523C187.817 106.575 187.558 107.798 186.688 108.253C185.818 108.708 184.667 108.224 184.116 107.171C183.565 106.119 183.823 104.897 184.693 104.442ZM137.649 95.0765L100.334 108.134L99.9614 107.206L137.276 94.1488L137.649 95.0765ZM179.841 102.835L179.69 103.825L150.147 93.391L150.298 92.4027L179.841 102.835ZM92.143 102.709L91.4145 103.395L79.6196 88.5277L80.3481 87.8431L92.143 102.709ZM142.759 90.7836C143.629 90.3282 144.782 90.8121 145.332 91.8646C145.883 92.9171 145.624 94.1398 144.754 94.5951C143.884 95.0502 142.733 94.5654 142.182 93.5131C141.631 92.4608 141.89 91.2391 142.759 90.7836ZM74.7827 81.0453C75.6526 80.5899 76.805 81.0739 77.3559 82.1263C77.9066 83.1788 77.6477 84.4015 76.7778 84.8568C75.9079 85.3119 74.7564 84.8271 74.2055 83.7748C73.6548 82.7225 73.9131 81.5008 74.7827 81.0453Z" fill="white"/>
<path d="M64.4545 143.101C65.3245 142.646 66.4769 143.13 67.0278 144.182C67.5785 145.234 67.3195 146.457 66.4497 146.912C65.5797 147.368 64.4282 146.883 63.8774 145.83C63.3267 144.778 63.5849 143.556 64.4545 143.101ZM60.0131 141.66L59.4467 142.485L41.4555 126.004L42.0219 125.18L60.0131 141.66ZM92.2124 115.622L69.1782 140.627L68.517 139.877L91.5512 114.872L92.2124 115.622ZM225.087 125.381C225.957 124.926 227.11 125.41 227.661 126.462C228.211 127.515 227.952 128.737 227.082 129.193C226.213 129.648 225.061 129.163 224.51 128.111C223.959 127.058 224.218 125.837 225.087 125.381ZM221.426 123.259L221.131 124.214L193.409 109.591L193.704 108.635L221.426 123.259ZM35.226 117.936C36.096 117.481 37.2484 117.964 37.7993 119.017C38.35 120.069 38.091 121.292 37.2211 121.747C36.3512 122.203 35.1997 121.718 34.6489 120.665C34.0982 119.613 34.3564 118.391 35.226 117.936ZM71.3872 86.059L39.9516 115.461L39.3315 114.677L70.767 85.2748L71.3872 86.059ZM94.2788 108.068C95.1487 107.612 96.3011 108.096 96.852 109.149C97.4027 110.201 97.1438 111.424 96.2739 111.879C95.404 112.334 94.2525 111.85 93.7016 110.797C93.1509 109.745 93.4091 108.523 94.2788 108.068ZM184.693 104.442C185.563 103.986 186.715 104.47 187.266 105.523C187.817 106.575 187.558 107.798 186.688 108.253C185.818 108.708 184.667 108.224 184.116 107.171C183.565 106.119 183.823 104.897 184.693 104.442ZM137.649 95.0765L100.334 108.134L99.9614 107.206L137.276 94.1488L137.649 95.0765ZM179.841 102.835L179.69 103.825L150.147 93.391L150.298 92.4027L179.841 102.835ZM92.143 102.709L91.4145 103.395L79.6196 88.5277L80.3481 87.8431L92.143 102.709ZM142.759 90.7836C143.629 90.3282 144.782 90.8121 145.332 91.8646C145.883 92.9171 145.624 94.1398 144.754 94.5951C143.884 95.0502 142.733 94.5654 142.182 93.5131C141.631 92.4608 141.89 91.2391 142.759 90.7836ZM74.7827 81.0453C75.6526 80.5899 76.805 81.0739 77.3559 82.1263C77.9066 83.1788 77.6477 84.4015 76.7778 84.8568C75.9079 85.3119 74.7564 84.8271 74.2055 83.7748C73.6548 82.7225 73.9131 81.5008 74.7827 81.0453Z" fill="white"/>
<path d="M64.4545 143.101C65.3245 142.646 66.4769 143.13 67.0278 144.182C67.5785 145.234 67.3195 146.457 66.4497 146.912C65.5797 147.368 64.4282 146.883 63.8774 145.83C63.3267 144.778 63.5849 143.556 64.4545 143.101ZM60.0131 141.66L59.4467 142.485L41.4555 126.004L42.0219 125.18L60.0131 141.66ZM92.2124 115.622L69.1782 140.627L68.517 139.877L91.5512 114.872L92.2124 115.622ZM225.087 125.381C225.957 124.926 227.11 125.41 227.661 126.462C228.211 127.515 227.952 128.737 227.082 129.193C226.213 129.648 225.061 129.163 224.51 128.111C223.959 127.058 224.218 125.837 225.087 125.381ZM221.426 123.259L221.131 124.214L193.409 109.591L193.704 108.635L221.426 123.259ZM35.226 117.936C36.096 117.481 37.2484 117.964 37.7993 119.017C38.35 120.069 38.091 121.292 37.2211 121.747C36.3512 122.203 35.1997 121.718 34.6489 120.665C34.0982 119.613 34.3564 118.391 35.226 117.936ZM71.3872 86.059L39.9516 115.461L39.3315 114.677L70.767 85.2748L71.3872 86.059ZM94.2788 108.068C95.1487 107.612 96.3011 108.096 96.852 109.149C97.4027 110.201 97.1438 111.424 96.2739 111.879C95.404 112.334 94.2525 111.85 93.7016 110.797C93.1509 109.745 93.4091 108.523 94.2788 108.068ZM184.693 104.442C185.563 103.986 186.715 104.47 187.266 105.523C187.817 106.575 187.558 107.798 186.688 108.253C185.818 108.708 184.667 108.224 184.116 107.171C183.565 106.119 183.823 104.897 184.693 104.442ZM137.649 95.0765L100.334 108.134L99.9614 107.206L137.276 94.1488L137.649 95.0765ZM179.841 102.835L179.69 103.825L150.147 93.391L150.298 92.4027L179.841 102.835ZM92.143 102.709L91.4145 103.395L79.6196 88.5277L80.3481 87.8431L92.143 102.709ZM142.759 90.7836C143.629 90.3282 144.782 90.8121 145.332 91.8646C145.883 92.9171 145.624 94.1398 144.754 94.5951C143.884 95.0502 142.733 94.5654 142.182 93.5131C141.631 92.4608 141.89 91.2391 142.759 90.7836ZM74.7827 81.0453C75.6526 80.5899 76.805 81.0739 77.3559 82.1263C77.9066 83.1788 77.6477 84.4015 76.7778 84.8568C75.9079 85.3119 74.7564 84.8271 74.2055 83.7748C73.6548 82.7225 73.9131 81.5008 74.7827 81.0453Z" fill="white"/>
<path d="M64.4545 143.101C65.3245 142.646 66.4769 143.13 67.0278 144.182C67.5785 145.234 67.3195 146.457 66.4497 146.912C65.5797 147.368 64.4282 146.883 63.8774 145.83C63.3267 144.778 63.5849 143.556 64.4545 143.101ZM60.0131 141.66L59.4467 142.485L41.4555 126.004L42.0219 125.18L60.0131 141.66ZM92.2124 115.622L69.1782 140.627L68.517 139.877L91.5512 114.872L92.2124 115.622ZM225.087 125.381C225.957 124.926 227.11 125.41 227.661 126.462C228.211 127.515 227.952 128.737 227.082 129.193C226.213 129.648 225.061 129.163 224.51 128.111C223.959 127.058 224.218 125.837 225.087 125.381ZM221.426 123.259L221.131 124.214L193.409 109.591L193.704 108.635L221.426 123.259ZM35.226 117.936C36.096 117.481 37.2484 117.964 37.7993 119.017C38.35 120.069 38.091 121.292 37.2211 121.747C36.3512 122.203 35.1997 121.718 34.6489 120.665C34.0982 119.613 34.3564 118.391 35.226 117.936ZM71.3872 86.059L39.9516 115.461L39.3315 114.677L70.767 85.2748L71.3872 86.059ZM94.2788 108.068C95.1487 107.612 96.3011 108.096 96.852 109.149C97.4027 110.201 97.1438 111.424 96.2739 111.879C95.404 112.334 94.2525 111.85 93.7016 110.797C93.1509 109.745 93.4091 108.523 94.2788 108.068ZM184.693 104.442C185.563 103.986 186.715 104.47 187.266 105.523C187.817 106.575 187.558 107.798 186.688 108.253C185.818 108.708 184.667 108.224 184.116 107.171C183.565 106.119 183.823 104.897 184.693 104.442ZM137.649 95.0765L100.334 108.134L99.9614 107.206L137.276 94.1488L137.649 95.0765ZM179.841 102.835L179.69 103.825L150.147 93.391L150.298 92.4027L179.841 102.835ZM92.143 102.709L91.4145 103.395L79.6196 88.5277L80.3481 87.8431L92.143 102.709ZM142.759 90.7836C143.629 90.3282 144.782 90.8121 145.332 91.8646C145.883 92.9171 145.624 94.1398 144.754 94.5951C143.884 95.0502 142.733 94.5654 142.182 93.5131C141.631 92.4608 141.89 91.2391 142.759 90.7836ZM74.7827 81.0453C75.6526 80.5899 76.805 81.0739 77.3559 82.1263C77.9066 83.1788 77.6477 84.4015 76.7778 84.8568C75.9079 85.3119 74.7564 84.8271 74.2055 83.7748C73.6548 82.7225 73.9131 81.5008 74.7827 81.0453Z" fill="white"/>
<path d="M64.4545 143.101C65.3245 142.646 66.4769 143.13 67.0278 144.182C67.5785 145.234 67.3195 146.457 66.4497 146.912C65.5797 147.368 64.4282 146.883 63.8774 145.83C63.3267 144.778 63.5849 143.556 64.4545 143.101ZM60.0131 141.66L59.4467 142.485L41.4555 126.004L42.0219 125.18L60.0131 141.66ZM92.2124 115.622L69.1782 140.627L68.517 139.877L91.5512 114.872L92.2124 115.622ZM225.087 125.381C225.957 124.926 227.11 125.41 227.661 126.462C228.211 127.515 227.952 128.737 227.082 129.193C226.213 129.648 225.061 129.163 224.51 128.111C223.959 127.058 224.218 125.837 225.087 125.381ZM221.426 123.259L221.131 124.214L193.409 109.591L193.704 108.635L221.426 123.259ZM35.226 117.936C36.096 117.481 37.2484 117.964 37.7993 119.017C38.35 120.069 38.091 121.292 37.2211 121.747C36.3512 122.203 35.1997 121.718 34.6489 120.665C34.0982 119.613 34.3564 118.391 35.226 117.936ZM71.3872 86.059L39.9516 115.461L39.3315 114.677L70.767 85.2748L71.3872 86.059ZM94.2788 108.068C95.1487 107.612 96.3011 108.096 96.852 109.149C97.4027 110.201 97.1438 111.424 96.2739 111.879C95.404 112.334 94.2525 111.85 93.7016 110.797C93.1509 109.745 93.4091 108.523 94.2788 108.068ZM184.693 104.442C185.563 103.986 186.715 104.47 187.266 105.523C187.817 106.575 187.558 107.798 186.688 108.253C185.818 108.708 184.667 108.224 184.116 107.171C183.565 106.119 183.823 104.897 184.693 104.442ZM137.649 95.0765L100.334 108.134L99.9614 107.206L137.276 94.1488L137.649 95.0765ZM179.841 102.835L179.69 103.825L150.147 93.391L150.298 92.4027L179.841 102.835ZM92.143 102.709L91.4145 103.395L79.6196 88.5277L80.3481 87.8431L92.143 102.709ZM142.759 90.7836C143.629 90.3282 144.782 90.8121 145.332 91.8646C145.883 92.9171 145.624 94.1398 144.754 94.5951C143.884 95.0502 142.733 94.5654 142.182 93.5131C141.631 92.4608 141.89 91.2391 142.759 90.7836ZM74.7827 81.0453C75.6526 80.5899 76.805 81.0739 77.3559 82.1263C77.9066 83.1788 77.6477 84.4015 76.7778 84.8568C75.9079 85.3119 74.7564 84.8271 74.2055 83.7748C73.6548 82.7225 73.9131 81.5008 74.7827 81.0453Z" fill="white"/>
<path d="M445.462 314.412C446.807 314.412 447.898 315.439 447.898 316.706C447.898 317.973 446.807 319 445.462 319C444.116 319 443.024 317.973 443.024 316.706C443.024 315.439 444.116 314.412 445.462 314.412ZM440.216 316.219L440.102 316.706L439.987 317.192L389.304 305.263L389.532 304.29L440.216 316.219ZM515.711 307.565L452.356 316.741L452.285 316.247L452.214 315.752L515.568 306.575L515.711 307.565ZM444.012 312.118H443.012V269.447H444.012V312.118ZM384.058 302.482C385.403 302.482 386.494 303.51 386.494 304.776C386.494 306.043 385.403 307.07 384.058 307.07C382.712 307.07 381.621 306.043 381.621 304.776C381.621 303.509 382.712 302.482 384.058 302.482ZM518.563 302.482C519.909 302.483 521 303.51 521 304.776C521 306.043 519.909 307.07 518.563 307.07C517.218 307.07 516.126 306.043 516.126 304.776C516.126 303.509 517.218 302.482 518.563 302.482ZM381.14 301.944L380.646 302.024L380.152 302.104L371.381 247.963L372.367 247.803L381.14 301.944ZM515.869 299.286L515.408 300.173L450.104 266.22L450.565 265.333L515.869 299.286ZM444.488 261.188C445.834 261.188 446.926 262.215 446.926 263.482C446.926 264.749 445.834 265.776 444.488 265.776C443.143 265.776 442.052 264.749 442.052 263.482C442.052 262.216 443.143 261.189 444.488 261.188ZM439.748 262.542L439.479 263.505L377.099 246.069L377.368 245.106L439.748 262.542ZM369.437 241C370.782 241 371.873 242.027 371.873 243.294C371.873 244.561 370.782 245.588 369.437 245.588C368.091 245.588 367 244.561 367 243.294C367 242.027 368.091 241 369.437 241Z" fill="white"/>
<path d="M1470.18 140.148C1471.79 139.046 1473.89 139.324 1474.89 140.77C1475.88 142.216 1475.38 144.283 1473.77 145.386C1472.16 146.489 1470.05 146.21 1469.06 144.764C1468.07 143.317 1468.57 141.251 1470.18 140.148ZM1464.82 116.1L1465.3 115.953L1471.55 136.309L1470.59 136.602L1464.34 116.246L1464.82 116.1ZM1438.24 123.544C1439.85 122.441 1441.96 122.719 1442.95 124.165C1443.94 125.612 1443.44 127.679 1441.83 128.781C1440.22 129.884 1438.12 129.605 1437.12 128.159C1436.13 126.712 1436.63 124.647 1438.24 123.544ZM1461.54 107.569C1463.14 106.466 1465.25 106.744 1466.24 108.191C1467.24 109.637 1466.74 111.704 1465.13 112.807C1463.52 113.91 1461.41 113.631 1460.42 112.184C1459.43 110.738 1459.93 108.672 1461.54 107.569ZM1456.99 115.916L1447.67 122.306L1447.1 121.482L1456.42 115.091L1456.99 115.916ZM1433.55 96.7253L1434.04 96.613L1439.26 119.214L1438.29 119.44L1433.06 96.8381L1433.55 96.7253ZM1429.05 85.1761C1430.66 84.0732 1432.77 84.3518 1433.76 85.7982C1434.75 87.2446 1434.25 89.3108 1432.65 90.4136C1431.04 91.5164 1428.93 91.2384 1427.94 89.7922C1426.95 88.3458 1427.45 86.2789 1429.05 85.1761ZM1423.5 90.6953L1423.96 91.5843L1392.32 107.887L1391.86 106.998L1423.5 90.6953ZM1384.69 107.894C1386.3 106.791 1388.41 107.07 1389.4 108.516C1390.39 109.963 1389.89 112.028 1388.29 113.131C1386.68 114.234 1384.57 113.956 1383.58 112.51C1382.59 111.063 1383.09 108.997 1384.69 107.894ZM1378.07 67.0054L1378.56 66.9028L1386.44 104.622L1385.46 104.827L1377.58 67.1074L1378.07 67.0054ZM1375.59 57.1528C1377.2 56.0501 1379.31 56.3281 1380.3 57.7742C1381.29 59.2206 1380.79 61.2875 1379.18 62.3903C1377.57 63.4931 1375.46 63.2146 1374.47 61.7682C1373.48 60.3218 1373.98 58.2556 1375.59 57.1528ZM1371.73 58.5242L1371.74 59.0248L1371.74 59.5248L1309.47 59.8705L1309.46 58.8705L1371.73 58.5242ZM1299.91 56.6793C1301.52 55.5766 1303.63 55.8551 1304.62 57.3014C1305.61 58.7478 1305.11 60.814 1303.5 61.9168C1301.9 63.0196 1299.79 62.7417 1298.8 61.2954C1297.8 59.849 1298.3 57.7821 1299.91 56.6793Z" fill="white"/>
<path d="M704.5 141C705.881 141 707 142.119 707 143.5C707 144.881 705.881 146 704.5 146C703.119 146 702 144.881 702 143.5C702 142.119 703.119 141 704.5 141ZM716.98 104.639L706.48 141.139L705.52 140.861L716.02 104.361L716.98 104.639ZM719.5 96C720.881 96 722 97.1193 722 98.5C722 99.8807 720.881 101 719.5 101C718.119 101 717 99.8807 717 98.5C717 97.1193 718.119 96 719.5 96ZM765.529 96.499L723.529 98.999L723.471 98.001L765.471 95.501L765.529 96.499ZM768.5 92C769.881 92 771 93.1193 771 94.5C771 95.8807 769.881 97 768.5 97C767.119 97 766 95.8807 766 94.5C766 93.1193 767.119 92 768.5 92ZM717.285 95.5898L716.715 96.4102L687.215 75.9102L687.785 75.0898L717.285 95.5898ZM809.721 74.4482L774.221 91.9482L773.779 91.0518L809.279 73.5518L809.721 74.4482ZM681.5 73C682.881 73 684 74.1193 684 75.5C684 76.8807 682.881 78 681.5 78C680.119 78 679 76.8807 679 75.5C679 74.1193 680.119 73 681.5 73ZM812.5 68C813.881 68 815 69.1193 815 70.5C815 71.8807 813.881 73 812.5 73C811.119 73 810 71.8807 810 70.5C810 69.1193 811.119 68 812.5 68ZM730.862 22.8438L684.362 71.8438L683.638 71.1562L730.138 22.1562L730.862 22.8438ZM733.5 15C734.881 15 736 16.1193 736 17.5C736 18.8807 734.881 20 733.5 20C732.119 20 731 18.8807 731 17.5C731 16.1193 732.119 15 733.5 15Z" fill="white"/>
<g filter="url(#filter0_d_0_1)">
<path d="M980.854 77.4998L982.208 71.6457L977.666 67.7082L983.666 67.1873L985.999 61.6665L988.333 67.1873L994.333 67.7082L989.791 71.6457L991.145 77.4998L985.999 74.3957L980.854 77.4998Z" fill="white"/>
</g>
<g filter="url(#filter1_d_0_1)">
<path d="M697.854 275.5L699.208 269.646L694.666 265.708L700.666 265.187L702.999 259.667L705.333 265.187L711.333 265.708L706.791 269.646L708.145 275.5L702.999 272.396L697.854 275.5Z" fill="white"/>
</g>
<g filter="url(#filter2_d_0_1)">
<path d="M1416.85 265.5L1418.21 259.646L1413.67 255.708L1419.67 255.187L1422 249.667L1424.33 255.187L1430.33 255.708L1425.79 259.646L1427.15 265.5L1422 262.396L1416.85 265.5Z" fill="white"/>
</g>
<g filter="url(#filter3_d_0_1)">
<path d="M99.8535 224.5L101.208 218.646L96.666 214.708L102.666 214.187L104.999 208.667L107.333 214.187L113.333 214.708L108.791 218.646L110.145 224.5L104.999 221.396L99.8535 224.5Z" fill="white"/>
</g>
<g filter="url(#filter4_d_0_1)">
<path d="M149.494 247.625L151.864 237.38L143.916 230.489L154.416 229.578L158.499 219.917L162.583 229.578L173.083 230.489L165.135 237.38L167.505 247.625L158.499 242.193L149.494 247.625Z" fill="white"/>
</g>
<g filter="url(#filter5_d_0_1)">
<path d="M1175.49 290.625L1177.86 280.38L1169.92 273.489L1180.42 272.578L1184.5 262.917L1188.58 272.578L1199.08 273.489L1191.13 280.38L1193.5 290.625L1184.5 285.193L1175.49 290.625Z" fill="white"/>
</g>
<g filter="url(#filter6_d_0_1)">
<path d="M424.494 81.6248L426.864 71.38L418.916 64.4894L429.416 63.578L433.499 53.9165L437.583 63.578L448.083 64.4894L440.135 71.38L442.505 81.6248L433.499 76.1925L424.494 81.6248Z" fill="white"/>
</g>
<g filter="url(#filter7_d_0_1)">
<path d="M1022.49 101.625L1024.86 91.38L1016.92 84.4894L1027.42 83.578L1031.5 73.9165L1035.58 83.578L1046.08 84.4894L1038.13 91.38L1040.5 101.625L1031.5 96.1925L1022.49 101.625Z" fill="white"/>
</g>
<path d="M1061.21 313C1063.42 313 1065.21 314.791 1065.21 317C1065.21 319.209 1063.42 321 1061.21 321C1059 321 1057.21 319.209 1057.21 317C1057.21 314.791 1059 313 1061.21 313ZM1056.22 308.802L1055.85 309.134L1055.48 309.465L1043.22 295.62L1043.97 294.958L1056.22 308.802ZM1033.98 285.4C1036.19 285.4 1037.98 286.967 1037.98 288.9C1037.98 290.833 1036.19 292.4 1033.98 292.4C1031.77 292.4 1029.98 290.833 1029.98 288.9C1029.98 286.967 1031.77 285.4 1033.98 285.4ZM1024.66 288.874L1024.53 289.355L1024.39 289.838L953.586 270.06L953.855 269.097L1024.66 288.874ZM1038.65 280.455H1037.65V265.622H1038.65V280.455ZM948 261.667C949.657 261.667 951 263.01 951 264.667C951 266.324 949.657 267.667 948 267.667C946.343 267.667 945 266.324 945 264.667C945 263.01 946.343 261.667 948 261.667ZM1036.2 253.756C1038.13 253.756 1039.7 255.323 1039.7 257.256C1039.7 259.189 1038.13 260.756 1036.2 260.756C1034.27 260.756 1032.7 259.189 1032.7 257.256C1032.7 255.323 1034.27 253.756 1036.2 253.756ZM948.774 257.712H947.774V243.867H948.774V257.712ZM1030.12 255.255L1029.98 255.733L1029.83 256.213L964.47 236.435L964.759 235.478L1030.12 255.255ZM953.605 232C955.538 232 957.105 233.343 957.105 235C957.105 236.657 955.538 238 953.605 238C951.672 238 950.105 236.657 950.105 235C950.105 233.343 951.672 232 953.605 232Z" fill="white"/>
<defs>
<filter id="filter0_d_0_1" x="968.2" y="56.2" width="35.6" height="35.6" filterUnits="userSpaceOnUse" color-interpolation-filters="sRGB">
<feFlood flood-opacity="0" result="BackgroundImageFix"/>
<feColorMatrix in="SourceAlpha" type="matrix" values="0 0 0 0 0 0 0 0 0 0 0 0 0 0 0 0 0 0 127 0" result="hardAlpha"/>
<feOffset dy="4"/>
<feGaussianBlur stdDeviation="3.9"/>
<feComposite in2="hardAlpha" operator="out"/>
<feColorMatrix type="matrix" values="0 0 0 0 1 0 0 0 0 1 0 0 0 0 1 0 0 0 0.25 0"/>
<feBlend mode="normal" in2="BackgroundImageFix" result="effect1_dropShadow_0_1"/>
<feBlend mode="normal" in="SourceGraphic" in2="effect1_dropShadow_0_1" result="shape"/>
</filter>
<filter id="filter1_d_0_1" x="685.2" y="254.2" width="35.6" height="35.6" filterUnits="userSpaceOnUse" color-interpolation-filters="sRGB">
<feFlood flood-opacity="0" result="BackgroundImageFix"/>
<feColorMatrix in="SourceAlpha" type="matrix" values="0 0 0 0 0 0 0 0 0 0 0 0 0 0 0 0 0 0 127 0" result="hardAlpha"/>
<feOffset dy="4"/>
<feGaussianBlur stdDeviation="3.9"/>
<feComposite in2="hardAlpha" operator="out"/>
<feColorMatrix type="matrix" values="0 0 0 0 1 0 0 0 0 1 0 0 0 0 1 0 0 0 0.25 0"/>
<feBlend mode="normal" in2="BackgroundImageFix" result="effect1_dropShadow_0_1"/>
<feBlend mode="normal" in="SourceGraphic" in2="effect1_dropShadow_0_1" result="shape"/>
</filter>
<filter id="filter2_d_0_1" x="1404.2" y="244.2" width="35.6" height="35.6" filterUnits="userSpaceOnUse" color-interpolation-filters="sRGB">
<feFlood flood-opacity="0" result="BackgroundImageFix"/>
<feColorMatrix in="SourceAlpha" type="matrix" values="0 0 0 0 0 0 0 0 0 0 0 0 0 0 0 0 0 0 127 0" result="hardAlpha"/>
<feOffset dy="4"/>
<feGaussianBlur stdDeviation="3.9"/>
<feComposite in2="hardAlpha" operator="out"/>
<feColorMatrix type="matrix" values="0 0 0 0 1 0 0 0 0 1 0 0 0 0 1 0 0 0 0.25 0"/>
<feBlend mode="normal" in2="BackgroundImageFix" result="effect1_dropShadow_0_1"/>
<feBlend mode="normal" in="SourceGraphic" in2="effect1_dropShadow_0_1" result="shape"/>
</filter>
<filter id="filter3_d_0_1" x="87.2" y="203.2" width="35.6" height="35.6" filterUnits="userSpaceOnUse" color-interpolation-filters="sRGB">
<feFlood flood-opacity="0" result="BackgroundImageFix"/>
<feColorMatrix in="SourceAlpha" type="matrix" values="0 0 0 0 0 0 0 0 0 0 0 0 0 0 0 0 0 0 127 0" result="hardAlpha"/>
<feOffset dy="4"/>
<feGaussianBlur stdDeviation="3.9"/>
<feComposite in2="hardAlpha" operator="out"/>
<feColorMatrix type="matrix" values="0 0 0 0 1 0 0 0 0 1 0 0 0 0 1 0 0 0 0.25 0"/>
<feBlend mode="normal" in2="BackgroundImageFix" result="effect1_dropShadow_0_1"/>
<feBlend mode="normal" in="SourceGraphic" in2="effect1_dropShadow_0_1" result="shape"/>
</filter>
<filter id="filter4_d_0_1" x="133.2" y="213.2" width="50.6" height="50.6" filterUnits="userSpaceOnUse" color-interpolation-filters="sRGB">
<feFlood flood-opacity="0" result="BackgroundImageFix"/>
<feColorMatrix in="SourceAlpha" type="matrix" values="0 0 0 0 0 0 0 0 0 0 0 0 0 0 0 0 0 0 127 0" result="hardAlpha"/>
<feOffset dy="4"/>
<feGaussianBlur stdDeviation="3.9"/>
<feComposite in2="hardAlpha" operator="out"/>
<feColorMatrix type="matrix" values="0 0 0 0 1 0 0 0 0 1 0 0 0 0 1 0 0 0 0.25 0"/>
<feBlend mode="normal" in2="BackgroundImageFix" result="effect1_dropShadow_0_1"/>
<feBlend mode="normal" in="SourceGraphic" in2="effect1_dropShadow_0_1" result="shape"/>
</filter>
<filter id="filter5_d_0_1" x="1159.2" y="256.2" width="50.6" height="50.6" filterUnits="userSpaceOnUse" color-interpolation-filters="sRGB">
<feFlood flood-opacity="0" result="BackgroundImageFix"/>
<feColorMatrix in="SourceAlpha" type="matrix" values="0 0 0 0 0 0 0 0 0 0 0 0 0 0 0 0 0 0 127 0" result="hardAlpha"/>
<feOffset dy="4"/>
<feGaussianBlur stdDeviation="3.9"/>
<feComposite in2="hardAlpha" operator="out"/>
<feColorMatrix type="matrix" values="0 0 0 0 1 0 0 0 0 1 0 0 0 0 1 0 0 0 0.25 0"/>
<feBlend mode="normal" in2="BackgroundImageFix" result="effect1_dropShadow_0_1"/>
<feBlend mode="normal" in="SourceGraphic" in2="effect1_dropShadow_0_1" result="shape"/>
</filter>
<filter id="filter6_d_0_1" x="408.2" y="47.2" width="50.6" height="50.6" filterUnits="userSpaceOnUse" color-interpolation-filters="sRGB">
<feFlood flood-opacity="0" result="BackgroundImageFix"/>
<feColorMatrix in="SourceAlpha" type="matrix" values="0 0 0 0 0 0 0 0 0 0 0 0 0 0 0 0 0 0 127 0" result="hardAlpha"/>
<feOffset dy="4"/>
<feGaussianBlur stdDeviation="3.9"/>
<feComposite in2="hardAlpha" operator="out"/>
<feColorMatrix type="matrix" values="0 0 0 0 1 0 0 0 0 1 0 0 0 0 1 0 0 0 0.25 0"/>
<feBlend mode="normal" in2="BackgroundImageFix" result="effect1_dropShadow_0_1"/>
<feBlend mode="normal" in="SourceGraphic" in2="effect1_dropShadow_0_1" result="shape"/>
</filter>
<filter id="filter7_d_0_1" x="1006.2" y="67.2" width="50.6" height="50.6" filterUnits="userSpaceOnUse" color-interpolation-filters="sRGB">
<feFlood flood-opacity="0" result="BackgroundImageFix"/>
<feColorMatrix in="SourceAlpha" type="matrix" values="0 0 0 0 0 0 0 0 0 0 0 0 0 0 0 0 0 0 127 0" result="hardAlpha"/>
<feOffset dy="4"/>
<feGaussianBlur stdDeviation="3.9"/>
<feComposite in2="hardAlpha" operator="out"/>
<feColorMatrix type="matrix" values="0 0 0 0 1 0 0 0 0 1 0 0 0 0 1 0 0 0 0.25 0"/>
<feBlend mode="normal" in2="BackgroundImageFix" result="effect1_dropShadow_0_1"/>
<feBlend mode="normal" in="SourceGraphic" in2="effect1_dropShadow_0_1" result="shape"/>
</filter>
<linearGradient id="paint0_linear_0_1" x1="756" y1="-859.952" x2="756" y2="341" gradientUnits="userSpaceOnUse">
<stop stop-color="#0C1526"/>
<stop offset="1" stop-color="#2B4C8C"/>
</linearGradient>
</defs>
</svg>
