<svg width="88" height="77" viewBox="0 0 88 77" fill="none" xmlns="http://www.w3.org/2000/svg">
<path d="M16.5 74.0615C17.3933 74.0615 18.117 74.7188 18.1172 75.5303C18.1172 76.3418 17.3934 77 16.5 77C15.6066 77 14.8828 76.3418 14.8828 75.5303C14.883 74.7188 15.6067 74.0615 16.5 74.0615ZM24.7412 52.7578L17.9473 74.2119L17.4707 74.0605L16.9941 73.9102L23.7881 52.4551L24.7412 52.7578ZM26.2061 47.6104C27.0993 47.6104 27.8232 48.2686 27.8232 49.0801C27.8232 49.8916 27.0994 50.5497 26.2061 50.5498C25.3127 50.5498 24.5879 49.8916 24.5879 49.0801C24.5879 48.2686 25.3127 47.6104 26.2061 47.6104ZM55.9707 47.6104L55.9971 48.1094L28.8213 49.5791L28.7939 49.0801L28.7666 48.5801L55.9434 47.1113L55.9707 47.6104ZM57.9121 45.2598C58.8054 45.2599 59.5293 45.918 59.5293 46.7295C59.529 47.5407 58.8052 48.1981 57.9121 48.1982C57.0189 48.1982 56.2942 47.5408 56.2939 46.7295C56.2939 45.9179 57.0187 45.2598 57.9121 45.2598ZM24.8555 47.1885L24.5879 47.6113L24.3213 48.0342L5.2334 35.9844L5.7666 35.1387L24.8555 47.1885ZM84.6455 35.1357L61.6748 45.4219L61.2666 44.5098L84.2373 34.2236L84.6455 35.1357ZM1.61719 34.0918C2.51059 34.0918 3.23535 34.75 3.23535 35.5615C3.23508 36.3729 2.51042 37.0303 1.61719 37.0303C0.724164 37.03 0.000270887 36.3727 0 35.5615C0 34.7501 0.723997 34.092 1.61719 34.0918ZM86.3828 31.1523C87.276 31.1526 88 31.8107 88 32.6221C88 33.4335 87.276 34.0916 86.3828 34.0918C85.4894 34.0918 84.7646 33.4336 84.7646 32.6221C84.7647 31.8105 85.4894 31.1523 86.3828 31.1523ZM33.6689 4.76953L3.58105 33.5713L2.88965 32.8486L32.9775 4.04688L33.6689 4.76953ZM35.2646 0C36.1581 0 36.8828 0.658163 36.8828 1.46973C36.8826 2.28114 36.1579 2.93848 35.2646 2.93848C34.3714 2.93845 33.6477 2.28113 33.6475 1.46973C33.6475 0.658181 34.3713 2.89695e-05 35.2646 0Z" fill="white"/>
</svg>
