<svg width="136" height="47" viewBox="0 0 136 47" fill="none" xmlns="http://www.w3.org/2000/svg">
<path d="M21.0538 43.5302C21.6623 43.212 22.4683 43.5509 22.8536 44.2871C23.2387 45.0233 23.0578 45.8787 22.4493 46.1972C21.8407 46.5158 21.0349 46.1766 20.6495 45.4404C20.2641 44.7041 20.4452 43.8488 21.0538 43.5302ZM18.1153 42.2753L17.5499 43.0996L4.96393 31.5712L5.53034 30.747L18.1153 42.2753ZM40.4717 24.3085L24.3585 41.8017L23.6973 41.0507L39.8106 23.5585L40.4717 24.3085ZM133.426 31.1367C134.034 30.8181 134.84 31.1563 135.226 31.8925C135.611 32.6288 135.43 33.4841 134.821 33.8027C134.213 34.1212 133.407 33.7821 133.022 33.0459C132.636 32.3097 132.817 31.4552 133.426 31.1367ZM130.952 29.3632L130.658 30.3183L111.265 20.0888L111.56 19.1337L130.952 29.3632ZM0.606513 25.9267C1.21507 25.6082 2.0209 25.9464 2.40632 26.6826C2.79171 27.4188 2.61061 28.2742 2.00202 28.5927C1.39347 28.911 0.587531 28.572 0.202216 27.8359C-0.1828 27.0999 -0.0016548 26.2454 0.606513 25.9267ZM25.9034 3.62691L3.91315 24.1953L3.29304 23.4111L25.2833 2.84273L25.9034 3.62691ZM41.9171 19.0224C42.5256 18.7042 43.3316 19.0431 43.7169 19.7793C44.1021 20.5155 43.9211 21.3709 43.3126 21.6894C42.704 22.008 41.8982 21.6688 41.5128 20.9326C41.1275 20.1963 41.3085 19.341 41.9171 19.0224ZM105.166 16.4863C105.775 16.1677 106.58 16.5068 106.966 17.2431C107.351 17.9793 107.171 18.8347 106.563 19.1533C105.954 19.4718 105.148 19.1326 104.763 18.3964C104.377 17.6603 104.558 16.8049 105.166 16.4863ZM72.2579 9.9355L46.1544 19.0693L45.7813 18.1416L71.8839 9.00679L72.2579 9.9355ZM101.817 15.0673L101.666 16.0556L80.9991 8.75679L81.1505 7.76851L101.817 15.0673ZM40.4239 15.2753L39.6944 15.9599L31.4434 5.55953L32.1719 4.87496L40.4239 15.2753ZM75.8321 6.93355C76.4406 6.61503 77.2465 6.95332 77.6319 7.68941C78.0172 8.42555 77.8369 9.28088 77.2286 9.59957C76.62 9.91812 75.8142 9.579 75.4288 8.84273C75.0436 8.10668 75.2239 7.25227 75.8321 6.93355ZM28.2784 0.120073C28.8869 -0.198439 29.6927 0.139865 30.0782 0.875933C30.4635 1.61208 30.2832 2.4674 29.6749 2.78609C29.0663 3.10464 28.2605 2.76553 27.8751 2.02925C27.4899 1.29321 27.6702 0.438794 28.2784 0.120073Z" fill="white"/>
<path d="M21.0538 43.5302C21.6623 43.212 22.4683 43.5509 22.8536 44.2871C23.2387 45.0233 23.0578 45.8787 22.4493 46.1972C21.8407 46.5158 21.0349 46.1766 20.6495 45.4404C20.2641 44.7041 20.4452 43.8488 21.0538 43.5302ZM18.1153 42.2753L17.5499 43.0996L4.96393 31.5712L5.53034 30.747L18.1153 42.2753ZM40.4717 24.3085L24.3585 41.8017L23.6973 41.0507L39.8106 23.5585L40.4717 24.3085ZM133.426 31.1367C134.034 30.8181 134.84 31.1563 135.226 31.8925C135.611 32.6288 135.43 33.4841 134.821 33.8027C134.213 34.1212 133.407 33.7821 133.022 33.0459C132.636 32.3097 132.817 31.4552 133.426 31.1367ZM130.952 29.3632L130.658 30.3183L111.265 20.0888L111.56 19.1337L130.952 29.3632ZM0.606513 25.9267C1.21507 25.6082 2.0209 25.9464 2.40632 26.6826C2.79171 27.4188 2.61061 28.2742 2.00202 28.5927C1.39347 28.911 0.587531 28.572 0.202216 27.8359C-0.1828 27.0999 -0.0016548 26.2454 0.606513 25.9267ZM25.9034 3.62691L3.91315 24.1953L3.29304 23.4111L25.2833 2.84273L25.9034 3.62691ZM41.9171 19.0224C42.5256 18.7042 43.3316 19.0431 43.7169 19.7793C44.1021 20.5155 43.9211 21.3709 43.3126 21.6894C42.704 22.008 41.8982 21.6688 41.5128 20.9326C41.1275 20.1963 41.3085 19.341 41.9171 19.0224ZM105.166 16.4863C105.775 16.1677 106.58 16.5068 106.966 17.2431C107.351 17.9793 107.171 18.8347 106.563 19.1533C105.954 19.4718 105.148 19.1326 104.763 18.3964C104.377 17.6603 104.558 16.8049 105.166 16.4863ZM72.2579 9.9355L46.1544 19.0693L45.7813 18.1416L71.8839 9.00679L72.2579 9.9355ZM101.817 15.0673L101.666 16.0556L80.9991 8.75679L81.1505 7.76851L101.817 15.0673ZM40.4239 15.2753L39.6944 15.9599L31.4434 5.55953L32.1719 4.87496L40.4239 15.2753ZM75.8321 6.93355C76.4406 6.61503 77.2465 6.95332 77.6319 7.68941C78.0172 8.42555 77.8369 9.28088 77.2286 9.59957C76.62 9.91812 75.8142 9.579 75.4288 8.84273C75.0436 8.10668 75.2239 7.25227 75.8321 6.93355ZM28.2784 0.120073C28.8869 -0.198439 29.6927 0.139865 30.0782 0.875933C30.4635 1.61208 30.2832 2.4674 29.6749 2.78609C29.0663 3.10464 28.2605 2.76553 27.8751 2.02925C27.4899 1.29321 27.6702 0.438794 28.2784 0.120073Z" fill="white"/>
<path d="M21.0538 43.5302C21.6623 43.212 22.4683 43.5509 22.8536 44.2871C23.2387 45.0233 23.0578 45.8787 22.4493 46.1972C21.8407 46.5158 21.0349 46.1766 20.6495 45.4404C20.2641 44.7041 20.4452 43.8488 21.0538 43.5302ZM18.1153 42.2753L17.5499 43.0996L4.96393 31.5712L5.53034 30.747L18.1153 42.2753ZM40.4717 24.3085L24.3585 41.8017L23.6973 41.0507L39.8106 23.5585L40.4717 24.3085ZM133.426 31.1367C134.034 30.8181 134.84 31.1563 135.226 31.8925C135.611 32.6288 135.43 33.4841 134.821 33.8027C134.213 34.1212 133.407 33.7821 133.022 33.0459C132.636 32.3097 132.817 31.4552 133.426 31.1367ZM130.952 29.3632L130.658 30.3183L111.265 20.0888L111.56 19.1337L130.952 29.3632ZM0.606513 25.9267C1.21507 25.6082 2.0209 25.9464 2.40632 26.6826C2.79171 27.4188 2.61061 28.2742 2.00202 28.5927C1.39347 28.911 0.587531 28.572 0.202216 27.8359C-0.1828 27.0999 -0.0016548 26.2454 0.606513 25.9267ZM25.9034 3.62691L3.91315 24.1953L3.29304 23.4111L25.2833 2.84273L25.9034 3.62691ZM41.9171 19.0224C42.5256 18.7042 43.3316 19.0431 43.7169 19.7793C44.1021 20.5155 43.9211 21.3709 43.3126 21.6894C42.704 22.008 41.8982 21.6688 41.5128 20.9326C41.1275 20.1963 41.3085 19.341 41.9171 19.0224ZM105.166 16.4863C105.775 16.1677 106.58 16.5068 106.966 17.2431C107.351 17.9793 107.171 18.8347 106.563 19.1533C105.954 19.4718 105.148 19.1326 104.763 18.3964C104.377 17.6603 104.558 16.8049 105.166 16.4863ZM72.2579 9.9355L46.1544 19.0693L45.7813 18.1416L71.8839 9.00679L72.2579 9.9355ZM101.817 15.0673L101.666 16.0556L80.9991 8.75679L81.1505 7.76851L101.817 15.0673ZM40.4239 15.2753L39.6944 15.9599L31.4434 5.55953L32.1719 4.87496L40.4239 15.2753ZM75.8321 6.93355C76.4406 6.61503 77.2465 6.95332 77.6319 7.68941C78.0172 8.42555 77.8369 9.28088 77.2286 9.59957C76.62 9.91812 75.8142 9.579 75.4288 8.84273C75.0436 8.10668 75.2239 7.25227 75.8321 6.93355ZM28.2784 0.120073C28.8869 -0.198439 29.6927 0.139865 30.0782 0.875933C30.4635 1.61208 30.2832 2.4674 29.6749 2.78609C29.0663 3.10464 28.2605 2.76553 27.8751 2.02925C27.4899 1.29321 27.6702 0.438794 28.2784 0.120073Z" fill="white"/>
<path d="M21.0538 43.5302C21.6623 43.212 22.4683 43.5509 22.8536 44.2871C23.2387 45.0233 23.0578 45.8787 22.4493 46.1972C21.8407 46.5158 21.0349 46.1766 20.6495 45.4404C20.2641 44.7041 20.4452 43.8488 21.0538 43.5302ZM18.1153 42.2753L17.5499 43.0996L4.96393 31.5712L5.53034 30.747L18.1153 42.2753ZM40.4717 24.3085L24.3585 41.8017L23.6973 41.0507L39.8106 23.5585L40.4717 24.3085ZM133.426 31.1367C134.034 30.8181 134.84 31.1563 135.226 31.8925C135.611 32.6288 135.43 33.4841 134.821 33.8027C134.213 34.1212 133.407 33.7821 133.022 33.0459C132.636 32.3097 132.817 31.4552 133.426 31.1367ZM130.952 29.3632L130.658 30.3183L111.265 20.0888L111.56 19.1337L130.952 29.3632ZM0.606513 25.9267C1.21507 25.6082 2.0209 25.9464 2.40632 26.6826C2.79171 27.4188 2.61061 28.2742 2.00202 28.5927C1.39347 28.911 0.587531 28.572 0.202216 27.8359C-0.1828 27.0999 -0.0016548 26.2454 0.606513 25.9267ZM25.9034 3.62691L3.91315 24.1953L3.29304 23.4111L25.2833 2.84273L25.9034 3.62691ZM41.9171 19.0224C42.5256 18.7042 43.3316 19.0431 43.7169 19.7793C44.1021 20.5155 43.9211 21.3709 43.3126 21.6894C42.704 22.008 41.8982 21.6688 41.5128 20.9326C41.1275 20.1963 41.3085 19.341 41.9171 19.0224ZM105.166 16.4863C105.775 16.1677 106.58 16.5068 106.966 17.2431C107.351 17.9793 107.171 18.8347 106.563 19.1533C105.954 19.4718 105.148 19.1326 104.763 18.3964C104.377 17.6603 104.558 16.8049 105.166 16.4863ZM72.2579 9.9355L46.1544 19.0693L45.7813 18.1416L71.8839 9.00679L72.2579 9.9355ZM101.817 15.0673L101.666 16.0556L80.9991 8.75679L81.1505 7.76851L101.817 15.0673ZM40.4239 15.2753L39.6944 15.9599L31.4434 5.55953L32.1719 4.87496L40.4239 15.2753ZM75.8321 6.93355C76.4406 6.61503 77.2465 6.95332 77.6319 7.68941C78.0172 8.42555 77.8369 9.28088 77.2286 9.59957C76.62 9.91812 75.8142 9.579 75.4288 8.84273C75.0436 8.10668 75.2239 7.25227 75.8321 6.93355ZM28.2784 0.120073C28.8869 -0.198439 29.6927 0.139865 30.0782 0.875933C30.4635 1.61208 30.2832 2.4674 29.6749 2.78609C29.0663 3.10464 28.2605 2.76553 27.8751 2.02925C27.4899 1.29321 27.6702 0.438794 28.2784 0.120073Z" fill="white"/>
<path d="M21.0538 43.5302C21.6623 43.212 22.4683 43.5509 22.8536 44.2871C23.2387 45.0233 23.0578 45.8787 22.4493 46.1972C21.8407 46.5158 21.0349 46.1766 20.6495 45.4404C20.2641 44.7041 20.4452 43.8488 21.0538 43.5302ZM18.1153 42.2753L17.5499 43.0996L4.96393 31.5712L5.53034 30.747L18.1153 42.2753ZM40.4717 24.3085L24.3585 41.8017L23.6973 41.0507L39.8106 23.5585L40.4717 24.3085ZM133.426 31.1367C134.034 30.8181 134.84 31.1563 135.226 31.8925C135.611 32.6288 135.43 33.4841 134.821 33.8027C134.213 34.1212 133.407 33.7821 133.022 33.0459C132.636 32.3097 132.817 31.4552 133.426 31.1367ZM130.952 29.3632L130.658 30.3183L111.265 20.0888L111.56 19.1337L130.952 29.3632ZM0.606513 25.9267C1.21507 25.6082 2.0209 25.9464 2.40632 26.6826C2.79171 27.4188 2.61061 28.2742 2.00202 28.5927C1.39347 28.911 0.587531 28.572 0.202216 27.8359C-0.1828 27.0999 -0.0016548 26.2454 0.606513 25.9267ZM25.9034 3.62691L3.91315 24.1953L3.29304 23.4111L25.2833 2.84273L25.9034 3.62691ZM41.9171 19.0224C42.5256 18.7042 43.3316 19.0431 43.7169 19.7793C44.1021 20.5155 43.9211 21.3709 43.3126 21.6894C42.704 22.008 41.8982 21.6688 41.5128 20.9326C41.1275 20.1963 41.3085 19.341 41.9171 19.0224ZM105.166 16.4863C105.775 16.1677 106.58 16.5068 106.966 17.2431C107.351 17.9793 107.171 18.8347 106.563 19.1533C105.954 19.4718 105.148 19.1326 104.763 18.3964C104.377 17.6603 104.558 16.8049 105.166 16.4863ZM72.2579 9.9355L46.1544 19.0693L45.7813 18.1416L71.8839 9.00679L72.2579 9.9355ZM101.817 15.0673L101.666 16.0556L80.9991 8.75679L81.1505 7.76851L101.817 15.0673ZM40.4239 15.2753L39.6944 15.9599L31.4434 5.55953L32.1719 4.87496L40.4239 15.2753ZM75.8321 6.93355C76.4406 6.61503 77.2465 6.95332 77.6319 7.68941C78.0172 8.42555 77.8369 9.28088 77.2286 9.59957C76.62 9.91812 75.8142 9.579 75.4288 8.84273C75.0436 8.10668 75.2239 7.25227 75.8321 6.93355ZM28.2784 0.120073C28.8869 -0.198439 29.6927 0.139865 30.0782 0.875933C30.4635 1.61208 30.2832 2.4674 29.6749 2.78609C29.0663 3.10464 28.2605 2.76553 27.8751 2.02925C27.4899 1.29321 27.6702 0.438794 28.2784 0.120073Z" fill="white"/>
<path d="M21.0538 43.5302C21.6623 43.212 22.4683 43.5509 22.8536 44.2871C23.2387 45.0233 23.0578 45.8787 22.4493 46.1972C21.8407 46.5158 21.0349 46.1766 20.6495 45.4404C20.2641 44.7041 20.4452 43.8488 21.0538 43.5302ZM18.1153 42.2753L17.5499 43.0996L4.96393 31.5712L5.53034 30.747L18.1153 42.2753ZM40.4717 24.3085L24.3585 41.8017L23.6973 41.0507L39.8106 23.5585L40.4717 24.3085ZM133.426 31.1367C134.034 30.8181 134.84 31.1563 135.226 31.8925C135.611 32.6288 135.43 33.4841 134.821 33.8027C134.213 34.1212 133.407 33.7821 133.022 33.0459C132.636 32.3097 132.817 31.4552 133.426 31.1367ZM130.952 29.3632L130.658 30.3183L111.265 20.0888L111.56 19.1337L130.952 29.3632ZM0.606513 25.9267C1.21507 25.6082 2.0209 25.9464 2.40632 26.6826C2.79171 27.4188 2.61061 28.2742 2.00202 28.5927C1.39347 28.911 0.587531 28.572 0.202216 27.8359C-0.1828 27.0999 -0.0016548 26.2454 0.606513 25.9267ZM25.9034 3.62691L3.91315 24.1953L3.29304 23.4111L25.2833 2.84273L25.9034 3.62691ZM41.9171 19.0224C42.5256 18.7042 43.3316 19.0431 43.7169 19.7793C44.1021 20.5155 43.9211 21.3709 43.3126 21.6894C42.704 22.008 41.8982 21.6688 41.5128 20.9326C41.1275 20.1963 41.3085 19.341 41.9171 19.0224ZM105.166 16.4863C105.775 16.1677 106.58 16.5068 106.966 17.2431C107.351 17.9793 107.171 18.8347 106.563 19.1533C105.954 19.4718 105.148 19.1326 104.763 18.3964C104.377 17.6603 104.558 16.8049 105.166 16.4863ZM72.2579 9.9355L46.1544 19.0693L45.7813 18.1416L71.8839 9.00679L72.2579 9.9355ZM101.817 15.0673L101.666 16.0556L80.9991 8.75679L81.1505 7.76851L101.817 15.0673ZM40.4239 15.2753L39.6944 15.9599L31.4434 5.55953L32.1719 4.87496L40.4239 15.2753ZM75.8321 6.93355C76.4406 6.61503 77.2465 6.95332 77.6319 7.68941C78.0172 8.42555 77.8369 9.28088 77.2286 9.59957C76.62 9.91812 75.8142 9.579 75.4288 8.84273C75.0436 8.10668 75.2239 7.25227 75.8321 6.93355ZM28.2784 0.120073C28.8869 -0.198439 29.6927 0.139865 30.0782 0.875933C30.4635 1.61208 30.2832 2.4674 29.6749 2.78609C29.0663 3.10464 28.2605 2.76553 27.8751 2.02925C27.4899 1.29321 27.6702 0.438794 28.2784 0.120073Z" fill="white"/>
<path d="M21.0538 43.5302C21.6623 43.212 22.4683 43.5509 22.8536 44.2871C23.2387 45.0233 23.0578 45.8787 22.4493 46.1972C21.8407 46.5158 21.0349 46.1766 20.6495 45.4404C20.2641 44.7041 20.4452 43.8488 21.0538 43.5302ZM18.1153 42.2753L17.5499 43.0996L4.96393 31.5712L5.53034 30.747L18.1153 42.2753ZM40.4717 24.3085L24.3585 41.8017L23.6973 41.0507L39.8106 23.5585L40.4717 24.3085ZM133.426 31.1367C134.034 30.8181 134.84 31.1563 135.226 31.8925C135.611 32.6288 135.43 33.4841 134.821 33.8027C134.213 34.1212 133.407 33.7821 133.022 33.0459C132.636 32.3097 132.817 31.4552 133.426 31.1367ZM130.952 29.3632L130.658 30.3183L111.265 20.0888L111.56 19.1337L130.952 29.3632ZM0.606513 25.9267C1.21507 25.6082 2.0209 25.9464 2.40632 26.6826C2.79171 27.4188 2.61061 28.2742 2.00202 28.5927C1.39347 28.911 0.587531 28.572 0.202216 27.8359C-0.1828 27.0999 -0.0016548 26.2454 0.606513 25.9267ZM25.9034 3.62691L3.91315 24.1953L3.29304 23.4111L25.2833 2.84273L25.9034 3.62691ZM41.9171 19.0224C42.5256 18.7042 43.3316 19.0431 43.7169 19.7793C44.1021 20.5155 43.9211 21.3709 43.3126 21.6894C42.704 22.008 41.8982 21.6688 41.5128 20.9326C41.1275 20.1963 41.3085 19.341 41.9171 19.0224ZM105.166 16.4863C105.775 16.1677 106.58 16.5068 106.966 17.2431C107.351 17.9793 107.171 18.8347 106.563 19.1533C105.954 19.4718 105.148 19.1326 104.763 18.3964C104.377 17.6603 104.558 16.8049 105.166 16.4863ZM72.2579 9.9355L46.1544 19.0693L45.7813 18.1416L71.8839 9.00679L72.2579 9.9355ZM101.817 15.0673L101.666 16.0556L80.9991 8.75679L81.1505 7.76851L101.817 15.0673ZM40.4239 15.2753L39.6944 15.9599L31.4434 5.55953L32.1719 4.87496L40.4239 15.2753ZM75.8321 6.93355C76.4406 6.61503 77.2465 6.95332 77.6319 7.68941C78.0172 8.42555 77.8369 9.28088 77.2286 9.59957C76.62 9.91812 75.8142 9.579 75.4288 8.84273C75.0436 8.10668 75.2239 7.25227 75.8321 6.93355ZM28.2784 0.120073C28.8869 -0.198439 29.6927 0.139865 30.0782 0.875933C30.4635 1.61208 30.2832 2.4674 29.6749 2.78609C29.0663 3.10464 28.2605 2.76553 27.8751 2.02925C27.4899 1.29321 27.6702 0.438794 28.2784 0.120073Z" fill="white"/>
</svg>
