<svg width="390" height="602" viewBox="0 0 390 602" fill="none" xmlns="http://www.w3.org/2000/svg">
<mask id="path-1-inside-1_466_143" fill="white">
<path d="M-179.697 62.6249C-174.511 23.4344 -137.855 -4.35151 -97.8223 0.563423C-57.789 5.47857 -29.539 41.2338 -34.7246 80.4248L-26.5664 81.4267L-32.3369 125.037C-29.9413 125.339 -27.4301 125.447 -24.8662 125.428C-25.6035 117.259 -24.44 110.319 -20 107.5C-9.74792 100.99 15.7366 104.147 23.5 119C29.6329 130.734 28.628 153.219 22.8818 165.355C27.5922 164.543 32.5237 164.491 37.5186 165.315C61.3443 169.249 77.5862 191.6 73.7959 215.237C72.9733 220.367 71.2729 225.135 68.874 229.418C79.4056 229.088 90.5695 231.76 101.216 237.76C116.289 246.255 127.482 259.821 133.409 274.907C141.329 266.956 151.939 262.63 162.943 263.981C169.577 264.796 175.534 267.574 180.446 271.757C190.343 258.44 207.496 250.647 225.763 252.89C237.64 254.348 247.957 259.801 255.402 267.637C260 242.202 282.018 224.24 305.684 227.145C327.445 229.817 343.264 249.234 343.979 272.35C354.727 264.374 368.514 260.34 382.896 262.105C410.236 265.462 430.037 288.595 429.36 315.07C431.452 314.977 433.59 315.055 435.754 315.32C453.809 317.537 466.779 331.924 464.725 347.455C464.039 352.638 461.766 357.292 458.371 361.112C470.57 367.633 478.059 380.245 476.285 393.649C474.209 409.341 460.129 420.913 443.325 421.904L436.681 472.121L-205 393.338L-195.935 324.819L-195.268 324.901L-167.183 112.646C-177.213 98.6088 -182.128 80.994 -179.697 62.6249Z"/>
</mask>
<path d="M-179.697 62.6249C-174.511 23.4344 -137.855 -4.35151 -97.8223 0.563423C-57.789 5.47857 -29.539 41.2338 -34.7246 80.4248L-26.5664 81.4267L-32.3369 125.037C-29.9413 125.339 -27.4301 125.447 -24.8662 125.428C-25.6035 117.259 -24.44 110.319 -20 107.5C-9.74792 100.99 15.7366 104.147 23.5 119C29.6329 130.734 28.628 153.219 22.8818 165.355C27.5922 164.543 32.5237 164.491 37.5186 165.315C61.3443 169.249 77.5862 191.6 73.7959 215.237C72.9733 220.367 71.2729 225.135 68.874 229.418C79.4056 229.088 90.5695 231.76 101.216 237.76C116.289 246.255 127.482 259.821 133.409 274.907C141.329 266.956 151.939 262.63 162.943 263.981C169.577 264.796 175.534 267.574 180.446 271.757C190.343 258.44 207.496 250.647 225.763 252.89C237.64 254.348 247.957 259.801 255.402 267.637C260 242.202 282.018 224.24 305.684 227.145C327.445 229.817 343.264 249.234 343.979 272.35C354.727 264.374 368.514 260.34 382.896 262.105C410.236 265.462 430.037 288.595 429.36 315.07C431.452 314.977 433.59 315.055 435.754 315.32C453.809 317.537 466.779 331.924 464.725 347.455C464.039 352.638 461.766 357.292 458.371 361.112C470.57 367.633 478.059 380.245 476.285 393.649C474.209 409.341 460.129 420.913 443.325 421.904L436.681 472.121L-205 393.338L-195.935 324.819L-195.268 324.901L-167.183 112.646C-177.213 98.6088 -182.128 80.994 -179.697 62.6249Z" fill="#FFFEF8"/>
<path d="M-179.697 62.6249L-180.552 62.5118L-180.552 62.5118L-179.697 62.6249ZM-97.8223 0.563423L-97.7172 -0.292583V-0.292584L-97.8223 0.563423ZM-34.7246 80.4248L-35.5796 80.3116L-35.6938 81.1746L-34.8297 81.2808L-34.7246 80.4248ZM-26.5664 81.4267L-25.7114 81.5398L-25.5972 80.6768L-26.4613 80.5707L-26.5664 81.4267ZM-32.3369 125.037L-33.1919 124.924L-33.3057 125.784L-32.4447 125.893L-32.3369 125.037ZM-24.8662 125.428L-24.8598 126.29L-23.923 126.283L-24.0073 125.35L-24.8662 125.428ZM-20 107.5L-20.4623 106.772L-20.4623 106.772L-20 107.5ZM23.5 119L24.2643 118.6L24.2643 118.6L23.5 119ZM22.8818 165.355L22.1024 164.986L21.3915 166.488L23.0284 166.205L22.8818 165.355ZM37.5186 165.315L37.659 164.464H37.659L37.5186 165.315ZM73.7959 215.237L74.6475 215.374V215.374L73.7959 215.237ZM68.874 229.418L68.1216 228.996L67.3759 230.328L68.901 230.28L68.874 229.418ZM101.216 237.76L101.639 237.008L101.216 237.76ZM133.409 274.907L132.606 275.223L133.089 276.451L134.02 275.516L133.409 274.907ZM162.943 263.981L163.048 263.125L162.943 263.981ZM180.446 271.757L179.887 272.413L180.589 273.011L181.138 272.271L180.446 271.757ZM225.763 252.89L225.868 252.034L225.763 252.89ZM255.402 267.637L254.777 268.231L255.948 269.464L256.251 267.79L255.402 267.637ZM305.684 227.145L305.789 226.289L305.684 227.145ZM343.979 272.35L343.117 272.376L343.168 274.025L344.493 273.042L343.979 272.35ZM382.896 262.105L383.001 261.249L382.896 262.105ZM429.36 315.07L428.498 315.048L428.475 315.973L429.399 315.932L429.36 315.07ZM435.754 315.32L435.859 314.464L435.754 315.32ZM464.725 347.455L465.58 347.568L464.725 347.455ZM458.371 361.112L457.726 360.539L457 361.357L457.965 361.873L458.371 361.112ZM476.285 393.649L477.14 393.763V393.762L476.285 393.649ZM443.325 421.904L443.274 421.043L442.564 421.085L442.47 421.791L443.325 421.904ZM436.681 472.121L436.576 472.977L437.424 473.081L437.536 472.234L436.681 472.121ZM-205 393.338L-205.855 393.225L-205.969 394.088L-205.105 394.194L-205 393.338ZM-195.935 324.819L-195.829 323.963L-196.677 323.859L-196.79 324.706L-195.935 324.819ZM-195.268 324.901L-195.373 325.757L-194.525 325.862L-194.413 325.014L-195.268 324.901ZM-167.183 112.646L-166.328 112.76L-166.283 112.422L-166.481 112.145L-167.183 112.646ZM-179.697 62.6249L-178.842 62.7381C-173.721 24.0324 -137.507 -3.43981 -97.9274 1.41943L-97.8223 0.563423L-97.7172 -0.292584C-138.204 -5.2632 -175.302 22.8363 -180.552 62.5118L-179.697 62.6249ZM-97.8223 0.563423L-97.9274 1.41943C-58.3535 6.27818 -30.4591 41.6123 -35.5796 80.3116L-34.7246 80.4248L-33.8696 80.5379C-28.619 40.8553 -57.2245 4.67897 -97.7172 -0.292583L-97.8223 0.563423ZM-34.7246 80.4248L-34.8297 81.2808L-26.6715 82.2827L-26.5664 81.4267L-26.4613 80.5707L-34.6195 79.5687L-34.7246 80.4248ZM-26.5664 81.4267L-27.4214 81.3136L-33.1919 124.924L-32.3369 125.037L-31.4819 125.15L-25.7114 81.5398L-26.5664 81.4267ZM-32.3369 125.037L-32.4447 125.893C-30.0016 126.2 -27.4507 126.309 -24.8598 126.29L-24.8662 125.428L-24.8726 124.565C-27.4094 124.584 -29.881 124.477 -32.2292 124.181L-32.3369 125.037ZM-24.8662 125.428L-24.0073 125.35C-24.3713 121.317 -24.2597 117.644 -23.5365 114.661C-22.813 111.678 -21.502 109.475 -19.5377 108.228L-20 107.5L-20.4623 106.772C-22.938 108.344 -24.4288 111.021 -25.2128 114.255C-25.997 117.489 -26.0985 121.37 -25.7252 125.505L-24.8662 125.428ZM-20 107.5L-19.5377 108.228C-14.6781 105.142 -6.00562 104.275 2.50403 106.083C10.9969 107.887 19.0206 112.292 22.7357 119.399L23.5 119L24.2643 118.6C20.2161 110.855 11.6158 106.255 2.8625 104.395C-5.87399 102.539 -15.0698 103.348 -20.4623 106.772L-20 107.5ZM23.5 119L22.7357 119.399C25.7058 125.082 26.9846 133.47 26.7834 142.007C26.5823 150.534 24.9081 159.061 22.1024 164.986L22.8818 165.355L23.6613 165.724C26.6018 159.514 28.3031 150.73 28.5078 142.047C28.7122 133.374 27.4271 124.652 24.2643 118.6L23.5 119ZM22.8818 165.355L23.0284 166.205C27.6451 165.409 32.4795 165.358 37.3781 166.166L37.5186 165.315L37.659 164.464C32.5678 163.624 27.5393 163.677 22.7353 164.506L22.8818 165.355ZM37.5186 165.315L37.3781 166.166C60.7423 170.024 76.6584 191.939 72.9443 215.101L73.7959 215.237L74.6475 215.374C78.514 191.261 61.9463 168.474 37.659 164.464L37.5186 165.315ZM73.7959 215.237L72.9443 215.101C72.1381 220.129 70.4717 224.801 68.1216 228.996L68.874 229.418L69.6265 229.839C72.074 225.47 73.8086 220.605 74.6475 215.374L73.7959 215.237ZM68.874 229.418L68.901 230.28C79.2669 229.955 90.2759 232.584 100.792 238.511L101.216 237.76L101.639 237.008C90.8631 230.935 79.5443 228.221 68.847 228.556L68.874 229.418ZM101.216 237.76L100.792 238.511C115.684 246.904 126.748 260.312 132.606 275.223L133.409 274.907L134.212 274.592C128.216 259.331 116.894 245.606 101.639 237.008L101.216 237.76ZM133.409 274.907L134.02 275.516C141.781 267.725 152.136 263.523 162.838 264.837L162.943 263.981L163.048 263.125C151.743 261.737 140.878 266.187 132.798 274.299L133.409 274.907ZM162.943 263.981L162.838 264.837C169.294 265.63 175.095 268.333 179.887 272.413L180.446 271.757L181.005 271.1C175.973 266.815 169.86 263.962 163.048 263.125L162.943 263.981ZM180.446 271.757L181.138 272.271C190.849 259.205 207.697 251.541 225.658 253.746L225.763 252.89L225.868 252.034C207.295 249.754 189.837 257.675 179.754 271.242L180.446 271.757ZM225.763 252.89L225.658 253.746C237.334 255.179 247.468 260.538 254.777 268.231L255.402 267.637L256.028 267.043C248.446 259.063 237.945 253.516 225.868 252.034L225.763 252.89ZM255.402 267.637L256.251 267.79C260.781 242.734 282.436 225.16 305.578 228.001L305.684 227.145L305.789 226.289C281.601 223.32 259.22 241.671 254.554 267.483L255.402 267.637ZM305.684 227.145L305.578 228.001C326.856 230.614 342.414 249.62 343.117 272.376L343.979 272.35L344.841 272.323C344.115 248.848 328.035 229.021 305.789 226.289L305.684 227.145ZM343.979 272.35L344.493 273.042C355.069 265.194 368.637 261.224 382.79 262.961L382.896 262.105L383.001 261.249C368.392 259.456 354.384 263.554 343.466 271.657L343.979 272.35ZM382.896 262.105L382.79 262.961C409.698 266.265 429.163 289.025 428.498 315.048L429.36 315.07L430.223 315.092C430.91 288.166 410.775 264.66 383.001 261.249L382.896 262.105ZM429.36 315.07L429.399 315.932C431.443 315.84 433.533 315.917 435.649 316.176L435.754 315.32L435.859 314.464C433.648 314.193 431.461 314.113 429.322 314.209L429.36 315.07ZM435.754 315.32L435.649 316.176C453.354 318.35 465.846 332.403 463.87 347.342L464.725 347.455L465.58 347.568C467.713 331.445 454.264 316.724 435.859 314.464L435.754 315.32ZM464.725 347.455L463.87 347.342C463.208 352.341 461.016 356.838 457.726 360.539L458.371 361.112L459.016 361.685C462.516 357.746 464.87 352.935 465.58 347.568L464.725 347.455ZM458.371 361.112L457.965 361.873C469.895 368.251 477.15 380.539 475.43 393.536L476.285 393.649L477.14 393.762C478.968 379.95 471.245 367.016 458.778 360.352L458.371 361.112ZM476.285 393.649L475.43 393.536C473.417 408.752 459.736 420.072 443.274 421.043L443.325 421.904L443.376 422.765C460.521 421.754 475 409.931 477.14 393.763L476.285 393.649ZM443.325 421.904L442.47 421.791L435.826 472.008L436.681 472.121L437.536 472.234L444.18 422.017L443.325 421.904ZM436.681 472.121L436.786 471.265L-204.895 392.482L-205 393.338L-205.105 394.194L436.576 472.977L436.681 472.121ZM-205 393.338L-204.145 393.451L-195.08 324.932L-195.935 324.819L-196.79 324.706L-205.855 393.225L-205 393.338ZM-195.935 324.819L-196.04 325.675L-195.373 325.757L-195.268 324.901L-195.162 324.045L-195.829 323.963L-195.935 324.819ZM-195.268 324.901L-194.413 325.014L-166.328 112.76L-167.183 112.646L-168.038 112.533L-196.123 324.788L-195.268 324.901ZM-167.183 112.646L-166.481 112.145C-176.39 98.2775 -181.243 80.8808 -178.842 62.7381L-179.697 62.6249L-180.552 62.5118C-183.013 81.1071 -178.036 98.9401 -167.884 113.148L-167.183 112.646Z" fill="#66A0D2" mask="url(#path-1-inside-1_466_143)"/>
<mask id="path-3-inside-2_466_143" fill="white">
<path d="M64.397 277.83C78.054 278.944 88.409 289.438 88.0034 301.502C92.2605 305.91 94.5856 311.241 94.1323 316.8C93.1257 329.138 78.7947 338.162 61.4924 337.812L60.6029 348.714L62.7196 351.448L51.796 350.557L54.4911 348.051L55.3682 337.301C38.33 334.789 25.7437 323.597 26.7468 311.302C27.2673 304.924 31.3492 299.433 37.5602 295.663C39.9688 284.582 51.3954 276.769 64.397 277.83Z"/>
</mask>
<path d="M64.397 277.83C78.054 278.944 88.409 289.438 88.0034 301.502C92.2605 305.91 94.5856 311.241 94.1323 316.8C93.1257 329.138 78.7947 338.162 61.4924 337.812L60.6029 348.714L62.7196 351.448L51.796 350.557L54.4911 348.051L55.3682 337.301C38.33 334.789 25.7437 323.597 26.7468 311.302C27.2673 304.924 31.3492 299.433 37.5602 295.663C39.9688 284.582 51.3954 276.769 64.397 277.83Z" fill="#F1C8D0"/>
<path d="M64.397 277.83L64.4783 276.833L64.4783 276.833L64.397 277.83ZM88.0034 301.502L87.004 301.468L86.9897 301.892L87.2841 302.197L88.0034 301.502ZM94.1323 316.8L95.129 316.881L95.129 316.881L94.1323 316.8ZM61.4924 337.812L61.5126 336.812L60.5722 336.793L60.4957 337.731L61.4924 337.812ZM60.6029 348.714L59.6062 348.633L59.5747 349.02L59.8122 349.326L60.6029 348.714ZM62.7196 351.448L62.6383 352.445L64.8988 352.629L63.5103 350.836L62.7196 351.448ZM51.796 350.557L51.115 349.825L49.4538 351.369L51.7147 351.554L51.796 350.557ZM54.4911 348.051L55.172 348.783L55.4562 348.519L55.4878 348.132L54.4911 348.051ZM55.3682 337.301L56.3648 337.382L56.441 336.448L55.514 336.311L55.3682 337.301ZM26.7468 311.302L25.7501 311.221L25.7501 311.221L26.7468 311.302ZM37.5602 295.663L38.0791 296.518L38.4461 296.295L38.5373 295.875L37.5602 295.663ZM64.397 277.83L64.3156 278.827C77.5436 279.906 87.3884 290.035 87.004 301.468L88.0034 301.502L89.0028 301.535C89.4297 288.841 78.5644 277.983 64.4783 276.833L64.397 277.83ZM88.0034 301.502L87.2841 302.197C91.3902 306.448 93.5604 311.51 93.1356 316.719L94.1323 316.8L95.129 316.881C95.6108 310.973 93.1309 305.371 88.7227 300.807L88.0034 301.502ZM94.1323 316.8L93.1356 316.719C92.6641 322.497 89.0677 327.588 83.3845 331.222C77.7015 334.856 69.9935 336.984 61.5126 336.812L61.4924 337.812L61.4721 338.812C70.2936 338.99 78.4022 336.782 84.4619 332.907C90.5215 329.032 94.5938 323.441 95.129 316.881L94.1323 316.8ZM61.4924 337.812L60.4957 337.731L59.6062 348.633L60.6029 348.714L61.5996 348.796L62.489 337.893L61.4924 337.812ZM60.6029 348.714L59.8122 349.326L61.9289 352.06L62.7196 351.448L63.5103 350.836L61.3936 348.102L60.6029 348.714ZM62.7196 351.448L62.801 350.451L51.8773 349.56L51.796 350.557L51.7147 351.554L62.6383 352.445L62.7196 351.448ZM51.796 350.557L52.4769 351.289L55.172 348.783L54.4911 348.051L53.8101 347.319L51.115 349.825L51.796 350.557ZM54.4911 348.051L55.4878 348.132L56.3648 337.382L55.3682 337.301L54.3715 337.219L53.4944 347.97L54.4911 348.051ZM55.3682 337.301L55.514 336.311C47.1629 335.08 39.9472 331.727 34.962 327.228C29.9767 322.728 27.2737 317.142 27.7435 311.384L26.7468 311.302L25.7501 311.221C25.2168 317.757 28.3054 323.914 33.622 328.712C38.9387 333.511 46.5353 337.009 55.2223 338.29L55.3682 337.301ZM26.7468 311.302L27.7435 311.384C28.2309 305.41 32.0599 300.172 38.0791 296.518L37.5602 295.663L37.0413 294.808C30.6384 298.695 26.3036 304.438 25.7501 311.221L26.7468 311.302ZM37.5602 295.663L38.5373 295.875C40.8222 285.364 51.728 277.8 64.3157 278.827L64.397 277.83L64.4783 276.833C51.0627 275.739 39.1153 283.801 36.583 295.451L37.5602 295.663Z" fill="black" mask="url(#path-3-inside-2_466_143)"/>
<path d="M425.913 282.595C337.485 292.981 251.126 410.858 219 468.497H1115.8L1139.22 145.676C1127.42 129.938 1085.75 100.705 1013.44 109.675C923.048 120.889 853.895 261.348 778.753 306.201C718.64 342.083 644.805 321.152 615.401 306.201C589.083 294.004 514.341 272.208 425.913 282.595Z" fill="#81916E" stroke="black" stroke-width="1.01875"/>
<mask id="path-6-inside-3_466_143" fill="white">
<path d="M338.401 381.308C353.362 384.791 362.407 400.858 358.604 417.193C355.254 431.576 343.06 441.37 329.98 441.127L326.423 456.401L329.185 462.068L310.992 457.832L316.293 453.72L319.767 438.804C307.777 433.322 301.054 419.056 304.425 404.577C308.229 388.242 323.44 377.824 338.401 381.308Z"/>
</mask>
<path d="M338.401 381.308C353.362 384.791 362.407 400.858 358.604 417.193C355.254 431.576 343.06 441.37 329.98 441.127L326.423 456.401L329.185 462.068L310.992 457.832L316.293 453.72L319.767 438.804C307.777 433.322 301.054 419.056 304.425 404.577C308.229 388.242 323.44 377.824 338.401 381.308Z" fill="#F1C8D0"/>
<path d="M338.401 381.308L338.596 380.468L338.596 380.468L338.401 381.308ZM358.604 417.193L359.444 417.388L359.444 417.388L358.604 417.193ZM329.98 441.127L329.996 440.264L329.298 440.251L329.14 440.931L329.98 441.127ZM326.423 456.401L325.583 456.205L325.514 456.503L325.648 456.778L326.423 456.401ZM329.185 462.068L328.99 462.908L330.754 463.319L329.961 461.69L329.185 462.068ZM310.992 457.832L310.464 457.15L309.032 458.261L310.797 458.672L310.992 457.832ZM316.293 453.72L316.822 454.401L317.064 454.214L317.133 453.916L316.293 453.72ZM319.767 438.804L320.607 438.999L320.767 438.312L320.125 438.019L319.767 438.804ZM304.425 404.577L303.585 404.381L303.585 404.381L304.425 404.577ZM338.401 381.308L338.205 382.148C352.634 385.508 361.476 401.055 357.764 416.997L358.604 417.193L359.444 417.388C363.338 400.66 354.089 384.075 338.596 380.468L338.401 381.308ZM358.604 417.193L357.764 416.997C354.497 431.026 342.627 440.499 329.996 440.264L329.98 441.127L329.964 441.989C343.492 442.24 356.012 432.126 359.444 417.388L358.604 417.193ZM329.98 441.127L329.14 440.931L325.583 456.205L326.423 456.401L327.263 456.596L330.82 441.322L329.98 441.127ZM326.423 456.401L325.648 456.778L328.41 462.446L329.185 462.068L329.961 461.69L327.198 456.023L326.423 456.401ZM329.185 462.068L329.381 461.228L311.188 456.992L310.992 457.832L310.797 458.672L328.99 462.908L329.185 462.068ZM310.992 457.832L311.521 458.513L316.822 454.401L316.293 453.72L315.765 453.039L310.464 457.15L310.992 457.832ZM316.293 453.72L317.133 453.916L320.607 438.999L319.767 438.804L318.927 438.608L315.454 453.524L316.293 453.72ZM319.767 438.804L320.125 438.019C308.548 432.726 301.976 418.895 305.265 404.773L304.425 404.577L303.585 404.381C300.131 419.216 307.006 433.918 319.408 439.588L319.767 438.804ZM304.425 404.577L305.265 404.773C308.977 388.831 323.776 378.788 338.205 382.148L338.401 381.308L338.596 380.468C323.104 376.86 307.48 387.654 303.585 404.381L304.425 404.577Z" fill="black" mask="url(#path-6-inside-3_466_143)"/>
<mask id="path-8-inside-4_466_143" fill="white">
<path d="M210.154 337.105C232.533 339.488 249.761 349.999 248.634 360.584C247.596 370.339 231.328 376.752 211.265 375.832L209.929 388.378L213.262 393.507L195.242 391.588L199.858 387L201.161 374.769C181.228 371.484 166.55 361.752 167.593 351.956C168.72 341.372 187.776 334.723 210.154 337.105Z"/>
</mask>
<path d="M210.154 337.105C232.533 339.488 249.761 349.999 248.634 360.584C247.596 370.339 231.328 376.752 211.265 375.832L209.929 388.378L213.262 393.507L195.242 391.588L199.858 387L201.161 374.769C181.228 371.484 166.55 361.752 167.593 351.956C168.72 341.372 187.776 334.723 210.154 337.105Z" fill="#C8E6C1"/>
<path d="M210.154 337.105L210.246 336.247L210.246 336.247L210.154 337.105ZM248.634 360.584L249.492 360.675L249.492 360.675L248.634 360.584ZM211.265 375.832L211.305 374.97L210.493 374.933L210.407 375.741L211.265 375.832ZM209.929 388.378L209.072 388.287L209.039 388.591L209.206 388.848L209.929 388.378ZM213.262 393.507L213.171 394.364L214.973 394.556L213.986 393.037L213.262 393.507ZM195.242 391.588L194.634 390.977L193.349 392.254L195.151 392.446L195.242 391.588ZM199.858 387L200.466 387.611L200.684 387.395L200.716 387.091L199.858 387ZM201.161 374.769L202.018 374.86L202.104 374.05L201.301 373.918L201.161 374.769ZM167.593 351.956L166.735 351.865L166.735 351.865L167.593 351.956ZM210.154 337.105L210.063 337.963C221.155 339.144 230.927 342.336 237.76 346.505C244.654 350.712 248.284 355.725 247.776 360.493L248.634 360.584L249.492 360.675C250.111 354.858 245.69 349.323 238.658 345.033C231.563 340.704 221.533 337.449 210.246 336.247L210.154 337.105ZM248.634 360.584L247.777 360.493C247.309 364.884 243.372 368.742 236.761 371.412C230.199 374.062 221.246 375.426 211.305 374.97L211.265 375.832L211.225 376.693C221.347 377.158 230.56 375.776 237.407 373.011C244.204 370.266 248.921 366.04 249.492 360.675L248.634 360.584ZM211.265 375.832L210.407 375.741L209.072 388.287L209.929 388.378L210.787 388.469L212.123 375.923L211.265 375.832ZM209.929 388.378L209.206 388.848L212.539 393.977L213.262 393.507L213.986 393.037L210.652 387.908L209.929 388.378ZM213.262 393.507L213.354 392.649L195.334 390.731L195.242 391.588L195.151 392.446L213.171 394.364L213.262 393.507ZM195.242 391.588L195.85 392.2L200.466 387.611L199.858 387L199.25 386.388L194.634 390.977L195.242 391.588ZM199.858 387L200.716 387.091L202.018 374.86L201.161 374.769L200.303 374.678L199.001 386.908L199.858 387ZM201.161 374.769L201.301 373.918C191.424 372.29 182.897 369.071 176.993 365.089C171.045 361.077 167.981 356.457 168.451 352.048L167.593 351.956L166.735 351.865C166.162 357.251 169.916 362.395 176.029 366.519C182.187 370.673 190.965 373.963 201.02 375.62L201.161 374.769ZM167.593 351.956L168.451 352.048C168.958 347.28 173.562 343.143 181.188 340.482C188.745 337.845 198.972 336.782 210.063 337.963L210.154 337.105L210.246 336.247C198.958 335.046 188.467 336.116 180.62 338.854C172.842 341.568 167.355 346.048 166.735 351.865L167.593 351.956Z" fill="black" mask="url(#path-8-inside-4_466_143)"/>
<path d="M-253 333.335C-128.279 319.987 160.44 324.649 317.548 450.083C354.241 465.123 448.608 486.179 532.537 450.083C585.078 444.067 717.035 454.82 824.529 545.963C833.594 553.649 841.564 560.405 848.537 566.315L848.819 566.267C882.417 594.843 924.248 630.481 848.537 566.315L398.5 643.5L-253 566.267V333.335Z" fill="#A9BFA0" stroke="black" stroke-width="1.01875"/>
<mask id="path-11-inside-5_466_143" fill="white">
<path d="M248.231 478C254.227 478 259.088 484.934 259.088 493.486C259.088 495.963 258.678 498.302 257.953 500.378C264.404 502.762 268.775 507.368 268.775 512.659C268.775 516.041 266.99 519.143 264.018 521.563C271.724 524.477 276.794 529.422 276.794 535.03C276.794 543.259 265.882 550.055 251.739 551.11V568.458H243.722V551.085C229.741 549.949 219 543.194 219 535.03C219 529.422 224.069 524.477 231.775 521.563C228.803 519.143 227.018 516.041 227.018 512.659C227.018 507.207 231.658 502.482 238.434 500.166C237.755 498.144 237.374 495.878 237.374 493.486C237.374 484.933 242.235 478 248.231 478Z"/>
</mask>
<path d="M248.231 478C254.227 478 259.088 484.934 259.088 493.486C259.088 495.963 258.678 498.302 257.953 500.378C264.404 502.762 268.775 507.368 268.775 512.659C268.775 516.041 266.99 519.143 264.018 521.563C271.724 524.477 276.794 529.422 276.794 535.03C276.794 543.259 265.882 550.055 251.739 551.11V568.458H243.722V551.085C229.741 549.949 219 543.194 219 535.03C219 529.422 224.069 524.477 231.775 521.563C228.803 519.143 227.018 516.041 227.018 512.659C227.018 507.207 231.658 502.482 238.434 500.166C237.755 498.144 237.374 495.878 237.374 493.486C237.374 484.933 242.235 478 248.231 478Z" fill="#C8E6C1"/>
<path d="M248.231 478L248.231 477.138H248.231V478ZM259.088 493.486L259.95 493.486V493.486H259.088ZM257.953 500.378L257.139 500.094L256.86 500.893L257.654 501.187L257.953 500.378ZM268.775 512.659H269.638V512.659L268.775 512.659ZM264.018 521.563L263.473 520.895L262.312 521.841L263.713 522.37L264.018 521.563ZM276.794 535.03L277.656 535.03V535.03H276.794ZM251.739 551.11L251.675 550.25L250.877 550.31V551.11H251.739ZM251.739 568.458V569.32H252.602V568.458H251.739ZM243.722 568.458H242.859V569.32H243.722V568.458ZM243.722 551.085H244.584V550.29L243.792 550.225L243.722 551.085ZM219 535.03H218.138V535.03L219 535.03ZM231.775 521.563L232.08 522.37L233.481 521.84L232.32 520.895L231.775 521.563ZM227.018 512.659L226.155 512.659V512.659H227.018ZM238.434 500.166L238.713 500.982L239.524 500.705L239.251 499.892L238.434 500.166ZM237.374 493.486H236.512V493.486L237.374 493.486ZM248.231 478L248.231 478.862C250.871 478.863 253.349 480.388 255.202 483.031C257.053 485.672 258.225 489.366 258.225 493.486H259.088H259.95C259.95 489.054 258.692 485.005 256.614 482.041C254.538 479.079 251.588 477.138 248.231 477.138L248.231 478ZM259.088 493.486L258.225 493.486C258.225 495.868 257.831 498.112 257.139 500.094L257.953 500.378L258.767 500.662C259.525 498.493 259.95 496.057 259.95 493.486L259.088 493.486ZM257.953 500.378L257.654 501.187C263.944 503.511 267.913 507.887 267.913 512.659L268.775 512.659L269.638 512.659C269.638 506.849 264.864 502.012 258.252 499.569L257.953 500.378ZM268.775 512.659H267.913C267.913 515.715 266.302 518.591 263.473 520.895L264.018 521.563L264.562 522.232C267.678 519.695 269.638 516.367 269.638 512.659H268.775ZM264.018 521.563L263.713 522.37C271.325 525.248 275.932 529.982 275.932 535.03H276.794H277.656C277.656 528.861 272.124 523.706 264.323 520.757L264.018 521.563ZM276.794 535.03L275.932 535.03C275.931 538.731 273.475 542.255 269.107 545.033C264.756 547.8 258.637 549.731 251.675 550.25L251.739 551.11L251.803 551.97C258.984 551.435 265.393 549.44 270.033 546.488C274.657 543.547 277.656 539.558 277.656 535.03L276.794 535.03ZM251.739 551.11H250.877V568.458H251.739H252.602V551.11H251.739ZM251.739 568.458V567.596H243.722V568.458V569.32H251.739V568.458ZM243.722 568.458H244.584V551.085H243.722H242.859V568.458H243.722ZM243.722 551.085L243.792 550.225C236.91 549.666 230.874 547.726 226.585 544.968C222.281 542.199 219.862 538.702 219.862 535.03L219 535.03L218.138 535.03C218.138 539.523 221.09 543.484 225.652 546.418C230.228 549.362 236.553 551.368 243.652 551.945L243.722 551.085ZM219 535.03H219.862C219.862 529.983 224.469 525.248 232.08 522.37L231.775 521.563L231.47 520.757C223.669 523.706 218.138 528.861 218.138 535.03H219ZM231.775 521.563L232.32 520.895C229.491 518.591 227.88 515.715 227.88 512.659H227.018H226.155C226.155 516.367 228.115 519.695 231.231 522.232L231.775 521.563ZM227.018 512.659L227.88 512.659C227.88 507.742 232.097 503.243 238.713 500.982L238.434 500.166L238.155 499.35C231.219 501.72 226.155 506.672 226.155 512.659L227.018 512.659ZM238.434 500.166L239.251 499.892C238.603 497.96 238.236 495.788 238.236 493.486L237.374 493.486L236.512 493.486C236.512 495.969 236.906 498.327 237.616 500.44L238.434 500.166ZM237.374 493.486H238.236C238.236 489.365 239.409 485.672 241.26 483.031C243.114 480.388 245.591 478.862 248.231 478.862V478V477.138C244.875 477.138 241.924 479.079 239.848 482.041C237.77 485.005 236.512 489.054 236.512 493.486H237.374Z" fill="black" mask="url(#path-11-inside-5_466_143)"/>
<mask id="path-13-inside-6_466_143" fill="white">
<path d="M113.879 397C120.008 397 124.977 404.284 124.977 413.27C124.977 415.871 124.557 418.328 123.816 420.509C130.411 423.013 134.879 427.852 134.879 433.411C134.879 436.964 133.053 440.222 130.015 442.766C137.892 445.827 143.074 451.021 143.074 456.913C143.074 465.558 131.92 472.698 117.464 473.806V492.032H109.27V473.778C94.9791 472.585 84.0002 465.49 84 456.913C84 451.021 89.1814 445.827 97.0586 442.766C94.0202 440.222 92.1953 436.964 92.1953 433.411C92.1953 427.683 96.9382 422.719 103.863 420.286C103.169 418.162 102.781 415.782 102.781 413.27C102.781 404.284 107.75 397 113.879 397Z"/>
</mask>
<path d="M113.879 397C120.008 397 124.977 404.284 124.977 413.27C124.977 415.871 124.557 418.328 123.816 420.509C130.411 423.013 134.879 427.852 134.879 433.411C134.879 436.964 133.053 440.222 130.015 442.766C137.892 445.827 143.074 451.021 143.074 456.913C143.074 465.558 131.92 472.698 117.464 473.806V492.032H109.27V473.778C94.9791 472.585 84.0002 465.49 84 456.913C84 451.021 89.1814 445.827 97.0586 442.766C94.0202 440.222 92.1953 436.964 92.1953 433.411C92.1953 427.683 96.9382 422.719 103.863 420.286C103.169 418.162 102.781 415.782 102.781 413.27C102.781 404.284 107.75 397 113.879 397Z" fill="#A9BFA0"/>
<path d="M113.879 397L113.879 396.138H113.879V397ZM124.977 413.27L125.839 413.27V413.27H124.977ZM123.816 420.509L123 420.231L122.732 421.02L123.51 421.315L123.816 420.509ZM134.879 433.411H135.741H134.879ZM130.015 442.766L129.461 442.104L128.342 443.041L129.702 443.57L130.015 442.766ZM143.074 456.913L143.937 456.913V456.913H143.074ZM117.464 473.806L117.398 472.946L116.601 473.007V473.806H117.464ZM117.464 492.032V492.895H118.326V492.032H117.464ZM109.27 492.032H108.407V492.895H109.27V492.032ZM109.27 473.778H110.132V472.985L109.341 472.919L109.27 473.778ZM84 456.913H83.1376V456.913L84 456.913ZM97.0586 442.766L97.371 443.569L98.7312 443.041L97.6121 442.104L97.0586 442.766ZM92.1953 433.411H91.3329H92.1953ZM103.863 420.286L104.149 421.1L104.945 420.82L104.683 420.018L103.863 420.286ZM102.781 413.27H101.919V413.27L102.781 413.27ZM113.879 397L113.879 397.862C116.575 397.862 119.112 399.464 121.014 402.251C122.912 405.035 124.114 408.928 124.114 413.27H124.977H125.839C125.839 408.626 124.557 404.385 122.439 401.279C120.323 398.179 117.312 396.138 113.879 396.138L113.879 397ZM124.977 413.27L124.114 413.27C124.114 415.779 123.709 418.143 123 420.231L123.816 420.509L124.633 420.786C125.405 418.514 125.839 415.962 125.839 413.27L124.977 413.27ZM123.816 420.509L123.51 421.315C129.932 423.754 134.016 428.357 134.016 433.411H134.879H135.741C135.741 427.347 130.889 422.272 124.123 419.703L123.816 420.509ZM134.879 433.411H134.016C134.016 436.648 132.356 439.681 129.461 442.104L130.015 442.766L130.568 443.427C133.751 440.763 135.741 437.28 135.741 433.411H134.879ZM130.015 442.766L129.702 443.57C137.473 446.589 142.212 451.568 142.212 456.913H143.074H143.937C143.937 450.473 138.311 445.064 130.327 441.962L130.015 442.766ZM143.074 456.913L142.212 456.913C142.212 460.833 139.681 464.547 135.218 467.464C130.768 470.373 124.513 472.4 117.398 472.946L117.464 473.806L117.53 474.666C124.871 474.103 131.421 472.007 136.162 468.907C140.89 465.817 143.937 461.638 143.937 456.913L143.074 456.913ZM117.464 473.806H116.601V492.032H117.464H118.326V473.806H117.464ZM117.464 492.032V491.17H109.27V492.032V492.895H117.464V492.032ZM109.27 492.032H110.132V473.778H109.27H108.407V492.032H109.27ZM109.27 473.778L109.341 472.919C102.308 472.332 96.1377 470.294 91.7515 467.395C87.3534 464.488 84.8625 460.802 84.8624 456.913L84 456.913L83.1376 456.913C83.1377 461.601 86.1363 465.751 90.8003 468.834C95.4762 471.925 101.94 474.032 109.198 474.638L109.27 473.778ZM84 456.913H84.8624C84.8624 451.568 89.6006 446.589 97.371 443.569L97.0586 442.766L96.7462 441.962C88.7623 445.064 83.1376 450.473 83.1376 456.913H84ZM97.0586 442.766L97.6121 442.104C94.7176 439.682 93.0577 436.648 93.0577 433.411H92.1953H91.3329C91.3329 437.28 93.3228 440.763 96.505 443.427L97.0586 442.766ZM92.1953 433.411H93.0577C93.0578 428.204 97.3964 423.472 104.149 421.1L103.863 420.286L103.577 419.472C96.4801 421.966 91.3329 427.163 91.3329 433.411H92.1953ZM103.863 420.286L104.683 420.018C104.018 417.983 103.644 415.694 103.644 413.27L102.781 413.27L101.919 413.27C101.919 415.87 102.32 418.34 103.043 420.554L103.863 420.286ZM102.781 413.27H103.644C103.644 408.927 104.846 405.035 106.744 402.251C108.646 399.464 111.183 397.862 113.879 397.862V397V396.138C110.445 396.138 107.434 398.178 105.319 401.279C103.201 404.385 101.919 408.626 101.919 413.27H102.781Z" fill="black" mask="url(#path-13-inside-6_466_143)"/>
<path d="M165.994 156.469C165.994 170.535 153.907 181.938 138.997 181.938C124.087 181.938 112 170.535 112 156.469C112 142.403 124.087 131 138.997 131C153.907 131 165.994 142.403 165.994 156.469Z" fill="#FFF2C9"/>
<path d="M-263 455.557C-212.085 430.214 -77.7843 394.732 52.1017 455.557C151.521 502.115 255.345 574.133 339.54 614.19C435.927 618.607 493.968 625.853 469.745 637.268C438.276 652.097 392.841 639.548 339.54 614.19C177.508 606.765 -92.8861 607.334 -263 609.533V455.557Z" fill="#C0D6BB" stroke="black" stroke-width="0.862434"/>
<path d="M92.2344 525.022C92.373 524.987 92.5192 524.995 92.6533 525.045C92.7875 525.095 92.9035 525.185 92.9854 525.302C93.067 525.42 93.1111 525.56 93.1113 525.703V531.842C93.4001 531.238 93.7574 530.668 94.1768 530.145C94.6188 529.605 95.0344 529.269 95.3584 529.063C95.5202 528.96 95.6579 528.892 95.7627 528.846C95.8205 528.821 95.8795 528.799 95.9395 528.78L95.9561 528.774L95.9639 528.772H95.9668L95.9688 528.771H95.9707C96.0747 528.743 96.1842 528.739 96.29 528.759C96.3959 528.78 96.4953 528.826 96.5811 528.891C96.6667 528.957 96.7363 529.041 96.7842 529.137C96.8321 529.234 96.8573 529.341 96.8574 529.449V538.111H95.4521V530.818C95.3911 530.884 95.3291 530.956 95.2656 531.035C94.5679 531.886 93.669 533.523 93.0996 536.6C93.0683 536.773 92.9739 536.929 92.834 537.035C92.6942 537.141 92.5196 537.192 92.3447 537.175C92.1698 537.159 92.0068 537.078 91.8887 536.948C91.7706 536.818 91.7053 536.648 91.7061 536.472V527.847C91.5912 528.023 91.4788 528.201 91.3691 528.381C90.5141 529.776 89.562 531.69 89.1162 533.808C89.083 533.966 88.9962 534.107 88.8711 534.209C88.7459 534.31 88.5899 534.366 88.4287 534.366C88.2675 534.366 88.1115 534.31 87.9863 534.209C87.8612 534.107 87.7744 533.966 87.7412 533.808C87.2954 531.69 86.3433 529.776 85.4883 528.381C85.3734 528.193 85.2603 528.016 85.1504 527.847V536.472C85.1499 536.647 85.0848 536.816 84.9668 536.945C84.8488 537.074 84.6867 537.154 84.5127 537.17C84.3387 537.186 84.1649 537.136 84.0254 537.031C83.886 536.926 83.7902 536.772 83.7578 536.6C83.1875 533.522 82.2895 531.886 81.5918 531.035C81.5313 530.961 81.4692 530.888 81.4043 530.818V538.111H80V529.449C80 529.341 80.0246 529.234 80.0723 529.137C80.12 529.041 80.1897 528.956 80.2754 528.89C80.3612 528.825 80.4614 528.779 80.5674 528.759C80.6733 528.738 80.7826 528.742 80.8867 528.77H80.8887L80.8906 528.771L80.8936 528.772L80.9014 528.774L80.918 528.78C80.9787 528.798 81.0381 528.82 81.0957 528.846C81.1996 528.893 81.3372 528.961 81.498 529.063C81.823 529.269 82.2386 529.605 82.6807 530.145C83.0993 530.668 83.4566 531.238 83.7461 531.842V525.703C83.7461 525.56 83.7894 525.419 83.8711 525.301C83.9528 525.184 84.069 525.095 84.2031 525.045C84.3373 524.995 84.4834 524.987 84.6221 525.022C84.7608 525.058 84.8857 525.135 84.9795 525.243L84.9805 525.245L84.9834 525.248L84.9912 525.257L85.0205 525.292L85.127 525.42C85.2168 525.53 85.3447 525.691 85.5 525.898C85.8109 526.312 86.2333 526.908 86.6865 527.647C87.3772 528.767 87.9607 529.951 88.4287 531.181C88.8967 529.951 89.4802 528.767 90.1709 527.647C90.6241 526.908 91.0466 526.312 91.3574 525.898C91.5125 525.692 91.6725 525.49 91.8369 525.292L91.8652 525.257L91.877 525.245V525.243C91.9709 525.135 92.0956 525.058 92.2344 525.022Z" fill="#81916E"/>
<path d="M30.2031 486.044C30.3372 485.994 30.4834 485.986 30.6221 486.021C30.7607 486.057 30.8858 486.134 30.9795 486.242L30.9805 486.244L30.9834 486.247L30.9912 486.257L31.0205 486.291L31.127 486.42C31.2168 486.53 31.3447 486.692 31.5 486.898C31.8109 487.312 32.2333 487.909 32.6865 488.647C33.3771 489.768 33.9607 490.951 34.4287 492.181C34.8967 490.951 35.4803 489.768 36.1709 488.647C36.6241 487.908 37.0465 487.312 37.3574 486.898C37.5126 486.692 37.6725 486.49 37.8369 486.291L37.8652 486.257L37.874 486.247L37.877 486.244V486.242C37.9708 486.134 38.0957 486.058 38.2344 486.022C38.3731 485.987 38.5192 485.995 38.6533 486.045C38.7875 486.095 38.9035 486.184 38.9854 486.302C39.0671 486.419 39.111 486.559 39.1113 486.702V492.842C39.4 492.237 39.7576 491.668 40.1768 491.145C40.6188 490.605 41.0344 490.269 41.3584 490.063C41.5203 489.961 41.6579 489.893 41.7627 489.847C41.8205 489.822 41.8794 489.799 41.9395 489.78L41.9561 489.774L41.9639 489.772H41.9668L41.9688 489.771H41.9707C42.0748 489.743 42.1842 489.739 42.29 489.76C42.3958 489.78 42.4954 489.825 42.5811 489.891C42.6668 489.956 42.7363 490.041 42.7842 490.138C42.832 490.234 42.8573 490.34 42.8574 490.448V499.111H41.4521V491.817C41.391 491.884 41.3293 491.957 41.2656 492.035C40.5679 492.886 39.669 494.523 39.0996 497.601C39.0683 497.773 38.9739 497.929 38.834 498.035C38.6942 498.141 38.5195 498.191 38.3447 498.175C38.1698 498.159 38.0068 498.077 37.8887 497.947C37.7708 497.817 37.7053 497.648 37.7061 497.473V488.847C37.5911 489.023 37.4789 489.201 37.3691 489.381C36.5142 490.776 35.562 492.689 35.1162 494.808C35.0831 494.965 34.9963 495.107 34.8711 495.209C34.746 495.31 34.5898 495.366 34.4287 495.366C34.2676 495.366 34.1115 495.31 33.9863 495.209C33.8612 495.107 33.7743 494.965 33.7412 494.808C33.2954 492.689 32.3433 490.776 31.4883 489.381C31.3734 489.194 31.2603 489.015 31.1504 488.847V497.473C31.1498 497.647 31.0846 497.815 30.9668 497.944C30.8488 498.073 30.6868 498.154 30.5127 498.17C30.3387 498.186 30.1649 498.136 30.0254 498.031C29.8859 497.926 29.7902 497.772 29.7578 497.601C29.1875 494.522 28.2895 492.886 27.5918 492.035C27.5313 491.961 27.4693 491.888 27.4043 491.817V499.111H26V490.448C26 490.34 26.0245 490.233 26.0723 490.137C26.12 490.04 26.1899 489.956 26.2754 489.891C26.3612 489.825 26.4614 489.78 26.5674 489.759C26.6733 489.738 26.7826 489.742 26.8867 489.77H26.8887L26.8906 489.771L26.8936 489.772L26.9014 489.774L26.918 489.78C26.9787 489.798 27.0382 489.82 27.0957 489.847C27.1996 489.893 27.3372 489.962 27.498 490.063C27.823 490.269 28.2386 490.605 28.6807 491.145C29.0992 491.669 29.4567 492.238 29.7461 492.842V486.702C29.7461 486.559 29.7896 486.419 29.8711 486.302C29.9528 486.184 30.0689 486.094 30.2031 486.044Z" fill="#81916E"/>
<path d="M143.203 568.044C143.337 567.994 143.483 567.986 143.622 568.021C143.761 568.057 143.886 568.134 143.979 568.242L143.98 568.244L143.983 568.247L143.991 568.257L144.021 568.291L144.127 568.42C144.217 568.53 144.345 568.692 144.5 568.898C144.811 569.312 145.233 569.909 145.687 570.647C146.377 571.768 146.961 572.951 147.429 574.181C147.897 572.951 148.48 571.768 149.171 570.647C149.624 569.908 150.047 569.312 150.357 568.898C150.513 568.692 150.672 568.49 150.837 568.291L150.865 568.257L150.874 568.247L150.877 568.244V568.242C150.971 568.134 151.096 568.058 151.234 568.022C151.373 567.987 151.519 567.995 151.653 568.045C151.787 568.095 151.904 568.184 151.985 568.302C152.067 568.419 152.111 568.559 152.111 568.702V574.842C152.4 574.237 152.758 573.668 153.177 573.145C153.619 572.605 154.034 572.269 154.358 572.063C154.52 571.961 154.658 571.893 154.763 571.847C154.82 571.822 154.879 571.799 154.939 571.78L154.956 571.774L154.964 571.772H154.967L154.969 571.771H154.971C155.075 571.743 155.184 571.739 155.29 571.76C155.396 571.78 155.495 571.825 155.581 571.891C155.667 571.956 155.736 572.041 155.784 572.138C155.832 572.234 155.857 572.34 155.857 572.448V581.111H154.452V573.817C154.391 573.884 154.329 573.957 154.266 574.035C153.568 574.886 152.669 576.523 152.1 579.601C152.068 579.773 151.974 579.929 151.834 580.035C151.694 580.141 151.52 580.191 151.345 580.175C151.17 580.159 151.007 580.077 150.889 579.947C150.771 579.817 150.705 579.648 150.706 579.473V570.847C150.591 571.023 150.479 571.201 150.369 571.381C149.514 572.776 148.562 574.689 148.116 576.808C148.083 576.965 147.996 577.107 147.871 577.209C147.746 577.31 147.59 577.366 147.429 577.366C147.268 577.366 147.111 577.31 146.986 577.209C146.861 577.107 146.774 576.965 146.741 576.808C146.295 574.689 145.343 572.776 144.488 571.381C144.373 571.194 144.26 571.015 144.15 570.847V579.473C144.15 579.647 144.085 579.815 143.967 579.944C143.849 580.073 143.687 580.154 143.513 580.17C143.339 580.186 143.165 580.136 143.025 580.031C142.886 579.926 142.79 579.772 142.758 579.601C142.187 576.522 141.289 574.886 140.592 574.035C140.531 573.961 140.469 573.888 140.404 573.817V581.111H139V572.448C139 572.34 139.024 572.233 139.072 572.137C139.12 572.04 139.19 571.956 139.275 571.891C139.361 571.825 139.461 571.78 139.567 571.759C139.673 571.738 139.783 571.742 139.887 571.77H139.889L139.891 571.771L139.894 571.772L139.901 571.774L139.918 571.78C139.979 571.798 140.038 571.82 140.096 571.847C140.2 571.893 140.337 571.962 140.498 572.063C140.823 572.269 141.239 572.605 141.681 573.145C142.099 573.669 142.457 574.238 142.746 574.842V568.702C142.746 568.559 142.79 568.419 142.871 568.302C142.953 568.184 143.069 568.094 143.203 568.044Z" fill="#81916E"/>
<path d="M47.4883 575.158C47.6315 575.105 47.7875 575.097 47.9355 575.135C48.0837 575.173 48.2173 575.255 48.3174 575.37L48.3184 575.372L48.3213 575.375L48.3301 575.386L48.3613 575.422L48.4736 575.56C48.5696 575.678 48.7071 575.849 48.873 576.07C49.205 576.512 49.6557 577.15 50.1396 577.938C50.8771 579.135 51.5003 580.398 52 581.711C52.4997 580.398 53.1229 579.135 53.8604 577.938C54.3443 577.149 54.795 576.512 55.127 576.07C55.2926 575.85 55.4631 575.634 55.6387 575.422L55.6699 575.386L55.6787 575.375L55.6816 575.372V575.37C55.7819 575.255 55.9153 575.173 56.0635 575.135C56.2115 575.097 56.3675 575.106 56.5107 575.159C56.654 575.213 56.7779 575.308 56.8652 575.434C56.9526 575.559 56.9997 575.708 57 575.861V582.417C57.3083 581.771 57.6901 581.164 58.1377 580.605C58.6097 580.028 59.0534 579.67 59.3994 579.45C59.5722 579.34 59.7191 579.268 59.8311 579.219C59.8927 579.192 59.9555 579.168 60.0195 579.147L60.0381 579.142L60.0459 579.14H60.0488L60.0508 579.139H60.0527C60.1638 579.108 60.2806 579.104 60.3936 579.126C60.5066 579.148 60.6135 579.196 60.7051 579.266C60.7967 579.336 60.8707 579.426 60.9219 579.529C60.973 579.633 60.9999 579.746 61 579.861V589.111H59.5V581.323C59.4347 581.394 59.3678 581.472 59.2998 581.556C58.5549 582.465 57.5962 584.213 56.9883 587.498C56.9549 587.683 56.8534 587.848 56.7041 587.962C56.5549 588.075 56.3683 588.128 56.1816 588.111C55.9948 588.094 55.8204 588.008 55.6943 587.869C55.5683 587.73 55.4992 587.549 55.5 587.361V578.151C55.3772 578.34 55.2568 578.53 55.1396 578.722C54.2267 580.212 53.2103 582.255 52.7344 584.517C52.699 584.685 52.6062 584.836 52.4727 584.944C52.339 585.053 52.1721 585.112 52 585.112C51.8279 585.112 51.661 585.053 51.5273 584.944C51.3938 584.836 51.301 584.685 51.2656 584.517C50.7897 582.255 49.7733 580.212 48.8604 578.722C48.7377 578.522 48.6173 578.331 48.5 578.151V587.361C48.4995 587.548 48.4295 587.728 48.3037 587.865C48.1777 588.003 48.0042 588.089 47.8184 588.106C47.6328 588.123 47.4477 588.07 47.2988 587.958C47.1498 587.846 47.0473 587.681 47.0127 587.498C46.4038 584.212 45.4451 582.465 44.7002 581.556C44.6356 581.476 44.5694 581.399 44.5 581.323V589.111H43V579.861C42.9999 579.746 43.0263 579.633 43.0771 579.529C43.1282 579.426 43.2033 579.336 43.2949 579.266C43.3864 579.196 43.4924 579.147 43.6055 579.125C43.7186 579.103 43.836 579.107 43.9473 579.138H43.9492L43.9512 579.139L43.9541 579.14L43.9619 579.142L43.9805 579.147C44.0453 579.167 44.1085 579.191 44.1699 579.219C44.2808 579.269 44.4278 579.341 44.5996 579.45C44.9466 579.67 45.3903 580.028 45.8623 580.605C46.3092 581.164 46.6909 581.772 47 582.417V575.861C47 575.708 47.0466 575.559 47.1338 575.434C47.221 575.308 47.345 575.212 47.4883 575.158Z" fill="#81916E"/>
</svg>
