<svg width="390" height="602" viewBox="0 0 390 602" fill="none" xmlns="http://www.w3.org/2000/svg">
<g filter="url(#filter0_d_466_143)">
<ellipse cx="351.647" cy="249.215" rx="116.707" ry="98.7855" fill="#FCF7AF"/>
</g>
<path d="M223.949 111.521C224.029 111.56 224.144 111.638 224.295 111.775C224.621 112.071 225.041 112.571 225.544 113.273C226.546 114.671 227.83 116.801 229.311 119.509C232.269 124.921 235.986 132.603 239.759 141.269C243.532 149.935 246.643 157.936 248.621 163.862C249.611 166.828 250.314 169.262 250.676 170.996C250.858 171.867 250.948 172.539 250.953 173.004C250.955 173.218 250.938 173.365 250.915 173.458C250.835 173.419 250.719 173.343 250.568 173.206C250.242 172.909 249.823 172.41 249.32 171.708C248.318 170.31 247.034 168.181 245.554 165.473C242.595 160.06 238.878 152.378 235.105 143.712C231.332 135.046 228.221 127.046 226.243 121.119C225.253 118.154 224.55 115.719 224.188 113.985C224.007 113.114 223.915 112.442 223.91 111.977C223.908 111.762 223.926 111.614 223.949 111.521Z" fill="#FCF7AF" stroke="#FFC373" stroke-width="0.874208"/>
<path d="M152.088 203.498C152.176 203.484 152.315 203.483 152.517 203.51C152.954 203.568 153.584 203.74 154.397 204.031C156.016 204.611 158.284 205.631 161.042 207.016C166.554 209.784 173.982 213.986 182.015 218.966C190.049 223.946 197.159 228.755 202.158 232.503C204.659 234.379 206.622 235.981 207.907 237.201C208.551 237.814 209.008 238.315 209.277 238.695C209.401 238.87 209.47 239.001 209.504 239.09C209.416 239.104 209.277 239.106 209.075 239.08C208.638 239.022 208.009 238.849 207.197 238.558C205.577 237.978 203.31 236.958 200.551 235.573C195.039 232.806 187.612 228.603 179.578 223.623C171.545 218.643 164.435 213.834 159.435 210.086C156.934 208.21 154.971 206.608 153.687 205.388C153.042 204.775 152.584 204.275 152.316 203.895C152.191 203.719 152.122 203.588 152.088 203.498Z" fill="#FCF7AF" stroke="#FFC373" stroke-width="0.874208"/>
<path d="M341.884 65.7239C341.966 65.7992 342.071 65.936 342.193 66.1567C342.437 66.5967 342.697 67.2787 342.964 68.1989C343.496 70.0321 344.032 72.7175 344.539 76.0663C345.553 82.7591 346.447 92.0472 346.975 102.342C347.504 112.636 347.566 121.975 347.243 128.751C347.082 132.141 346.824 134.876 346.483 136.763C346.312 137.71 346.123 138.42 345.926 138.887C345.828 139.122 345.737 139.272 345.663 139.356C345.634 139.39 345.611 139.405 345.599 139.414C345.585 139.407 345.561 139.394 345.529 139.365C345.446 139.29 345.341 139.152 345.219 138.931C344.975 138.491 344.715 137.809 344.448 136.889C343.916 135.056 343.38 132.37 342.873 129.021C341.859 122.329 340.966 113.04 340.438 102.746C339.909 92.4518 339.846 83.1124 340.169 76.3368C340.33 72.9466 340.588 70.2121 340.929 68.3248C341.1 67.3776 341.289 66.6677 341.486 66.2005C341.584 65.9662 341.675 65.8172 341.749 65.7322C341.779 65.6985 341.801 65.6813 341.813 65.6725C341.827 65.6796 341.851 65.6939 341.884 65.7239Z" fill="#FCF7AF" stroke="#FFC373" stroke-width="0.874208"/>
<mask id="path-5-inside-1_466_143" fill="white">
<path d="M-186.698 62.626C-181.513 23.435 -144.855 -4.35169 -104.821 0.563455C-64.7884 5.47889 -36.5392 41.2341 -41.7246 80.4248L-33.5654 81.4267L-39.3359 125.038C-35.6973 125.496 -31.7929 125.508 -27.8408 125.306C-28.3909 106.992 -25.9696 87.7905 -20.001 84C-9.74905 77.4907 8.73674 104.147 16.5 119C22.6331 130.735 21.6266 153.221 15.8799 165.356C20.5906 164.544 25.5223 164.492 30.5176 165.316C54.3433 169.25 70.586 191.6 66.7959 215.237C65.9733 220.367 64.2729 225.135 61.874 229.418C72.4056 229.088 83.5694 231.76 94.2158 237.76C109.289 246.255 120.482 259.821 126.409 274.907C134.329 266.956 144.938 262.632 155.941 263.982C162.575 264.797 168.534 267.574 173.446 271.757C183.343 258.44 200.496 250.647 218.763 252.89C230.64 254.348 240.956 259.801 248.401 267.637C252.999 242.202 275.018 224.24 298.684 227.145C323.131 230.147 340.079 254.283 336.537 281.054C336.389 282.174 336.203 283.282 335.989 284.375C343.783 279.722 353.039 277.524 362.61 278.699C385.307 281.486 401.355 302.194 399.088 325.337C405.903 317.98 416.954 313.871 428.755 315.32C446.81 317.537 459.78 331.924 457.726 347.455C457.04 352.638 454.766 357.292 451.371 361.112C463.57 367.633 471.059 380.245 469.285 393.649C467.209 409.342 453.128 420.913 436.324 421.904L429.68 472.121L-212.001 393.338L-202.935 324.82L-202.268 324.902L-174.184 112.646C-184.214 98.609 -189.129 80.9947 -186.698 62.626Z"/>
</mask>
<path d="M-186.698 62.626C-181.513 23.435 -144.855 -4.35169 -104.821 0.563455C-64.7884 5.47889 -36.5392 41.2341 -41.7246 80.4248L-33.5654 81.4267L-39.3359 125.038C-35.6973 125.496 -31.7929 125.508 -27.8408 125.306C-28.3909 106.992 -25.9696 87.7905 -20.001 84C-9.74905 77.4907 8.73674 104.147 16.5 119C22.6331 130.735 21.6266 153.221 15.8799 165.356C20.5906 164.544 25.5223 164.492 30.5176 165.316C54.3433 169.25 70.586 191.6 66.7959 215.237C65.9733 220.367 64.2729 225.135 61.874 229.418C72.4056 229.088 83.5694 231.76 94.2158 237.76C109.289 246.255 120.482 259.821 126.409 274.907C134.329 266.956 144.938 262.632 155.941 263.982C162.575 264.797 168.534 267.574 173.446 271.757C183.343 258.44 200.496 250.647 218.763 252.89C230.64 254.348 240.956 259.801 248.401 267.637C252.999 242.202 275.018 224.24 298.684 227.145C323.131 230.147 340.079 254.283 336.537 281.054C336.389 282.174 336.203 283.282 335.989 284.375C343.783 279.722 353.039 277.524 362.61 278.699C385.307 281.486 401.355 302.194 399.088 325.337C405.903 317.98 416.954 313.871 428.755 315.32C446.81 317.537 459.78 331.924 457.726 347.455C457.04 352.638 454.766 357.292 451.371 361.112C463.57 367.633 471.059 380.245 469.285 393.649C467.209 409.342 453.128 420.913 436.324 421.904L429.68 472.121L-212.001 393.338L-202.935 324.82L-202.268 324.902L-174.184 112.646C-184.214 98.609 -189.129 80.9947 -186.698 62.626Z" fill="#FFD592"/>
<path d="M-186.698 62.626L-187.553 62.5128V62.5128L-186.698 62.626ZM-104.821 0.563455L-104.716 -0.292551L-104.716 -0.292552L-104.821 0.563455ZM-41.7246 80.4248L-42.5796 80.3117L-42.6938 81.1747L-41.8297 81.2808L-41.7246 80.4248ZM-33.5654 81.4267L-32.7104 81.5399L-32.5963 80.6768L-33.4603 80.5707L-33.5654 81.4267ZM-39.3359 125.038L-40.1909 124.925L-40.3048 125.785L-39.4437 125.894L-39.3359 125.038ZM-27.8408 125.306L-27.7968 126.167L-26.9534 126.124L-26.9788 125.28L-27.8408 125.306ZM-20.001 84L-20.4633 83.2719L-20.4633 83.2719L-20.001 84ZM16.5 119L17.2643 118.601L17.2643 118.6L16.5 119ZM15.8799 165.356L15.1004 164.987L14.3895 166.489L16.0265 166.206L15.8799 165.356ZM30.5176 165.316L30.6581 164.465H30.6581L30.5176 165.316ZM66.7959 215.237L67.6475 215.374V215.374L66.7959 215.237ZM61.874 229.418L61.1216 228.996L60.3759 230.328L61.901 230.28L61.874 229.418ZM94.2158 237.76L94.6393 237.008L94.2158 237.76ZM126.409 274.907L125.606 275.223L126.089 276.451L127.02 275.516L126.409 274.907ZM155.941 263.982L156.047 263.126H156.046L155.941 263.982ZM173.446 271.757L172.887 272.413L173.589 273.011L174.138 272.271L173.446 271.757ZM218.763 252.89L218.868 252.034L218.763 252.89ZM248.401 267.637L247.776 268.231L248.948 269.464L249.25 267.79L248.401 267.637ZM298.684 227.145L298.789 226.289L298.684 227.145ZM336.537 281.054L337.392 281.167V281.167L336.537 281.054ZM335.989 284.375L335.143 284.209L334.771 286.107L336.431 285.115L335.989 284.375ZM362.61 278.699L362.715 277.843L362.61 278.699ZM399.088 325.337L398.23 325.253L397.98 327.802L399.721 325.923L399.088 325.337ZM428.755 315.32L428.86 314.464L428.755 315.32ZM457.726 347.455L458.581 347.568L457.726 347.455ZM451.371 361.112L450.726 360.539L450 361.357L450.965 361.873L451.371 361.112ZM469.285 393.649L470.14 393.763V393.763L469.285 393.649ZM436.324 421.904L436.273 421.043L435.563 421.085L435.469 421.791L436.324 421.904ZM429.68 472.121L429.575 472.977L430.423 473.081L430.535 472.234L429.68 472.121ZM-212.001 393.338L-212.856 393.225L-212.97 394.088L-212.106 394.194L-212.001 393.338ZM-202.935 324.82L-202.829 323.964L-203.677 323.86L-203.79 324.707L-202.935 324.82ZM-202.268 324.902L-202.373 325.758L-201.525 325.863L-201.413 325.015L-202.268 324.902ZM-174.184 112.646L-173.329 112.76L-173.284 112.422L-173.482 112.145L-174.184 112.646ZM-186.698 62.626L-185.843 62.7391C-180.722 24.0331 -144.506 -3.44 -104.926 1.41946L-104.821 0.563455L-104.716 -0.292552C-145.203 -5.26339 -182.303 22.8369 -187.553 62.5128L-186.698 62.626ZM-104.821 0.563455L-104.926 1.41946C-65.3529 6.27849 -37.4592 41.6126 -42.5796 80.3117L-41.7246 80.4248L-40.8696 80.5379C-35.6191 40.8556 -64.2239 4.6793 -104.716 -0.292551L-104.821 0.563455ZM-41.7246 80.4248L-41.8297 81.2808L-33.6705 82.2827L-33.5654 81.4267L-33.4603 80.5707L-41.6195 79.5688L-41.7246 80.4248ZM-33.5654 81.4267L-34.4204 81.3136L-40.1909 124.925L-39.3359 125.038L-38.481 125.151L-32.7104 81.5399L-33.5654 81.4267ZM-39.3359 125.038L-39.4437 125.894C-35.7353 126.361 -31.7754 126.37 -27.7968 126.167L-27.8408 125.306L-27.8848 124.444C-31.8105 124.645 -35.6592 124.632 -39.2282 124.182L-39.3359 125.038ZM-27.8408 125.306L-26.9788 125.28C-27.2526 116.162 -26.7857 106.843 -25.5151 99.3508C-24.8795 95.6028 -24.0476 92.3413 -23.0216 89.8007C-21.9843 87.232 -20.7993 85.5286 -19.5386 84.728L-20.001 84L-20.4633 83.2719C-22.187 84.3666 -23.5428 86.4849 -24.621 89.1548C-25.7106 91.8529 -26.5687 95.247 -27.2157 99.0624C-28.5104 106.697 -28.9791 116.135 -28.7029 125.332L-27.8408 125.306ZM-20.001 84L-19.5387 84.7281C-17.3636 83.347 -14.656 83.64 -11.4805 85.3893C-8.31058 87.1356 -4.87285 90.2373 -1.46089 94.0631C5.35243 101.703 11.8767 112.016 15.7357 119.399L16.5 119L17.2643 118.6C13.3601 111.131 6.75978 100.689 -0.173584 92.9151C-3.63496 89.0339 -7.22614 85.7637 -10.6482 83.8785C-14.0648 81.9964 -17.5124 81.3983 -20.4633 83.2719L-20.001 84ZM16.5 119L15.7357 119.399C18.7059 125.083 19.9844 133.47 19.7827 142.007C19.5812 150.535 17.9064 159.062 15.1004 164.987L15.8799 165.356L16.6593 165.726C19.6 159.515 21.3019 150.731 21.507 142.048C21.712 133.375 20.4272 124.652 17.2643 118.601L16.5 119ZM15.8799 165.356L16.0265 166.206C20.6435 165.41 25.4781 165.359 30.3771 166.167L30.5176 165.316L30.6581 164.465C25.5664 163.625 20.5377 163.678 15.7333 164.507L15.8799 165.356ZM30.5176 165.316L30.3771 166.167C53.7414 170.025 69.6582 191.939 65.9443 215.101L66.7959 215.237L67.6475 215.374C71.5139 191.261 54.9452 168.475 30.6581 164.465L30.5176 165.316ZM66.7959 215.237L65.9443 215.101C65.1381 220.129 63.4717 224.801 61.1216 228.996L61.874 229.418L62.6265 229.839C65.074 225.47 66.8086 220.605 67.6475 215.374L66.7959 215.237ZM61.874 229.418L61.901 230.28C72.267 229.955 83.2758 232.584 93.7924 238.511L94.2158 237.76L94.6393 237.008C83.863 230.935 72.5443 228.221 61.847 228.556L61.874 229.418ZM94.2158 237.76L93.7924 238.511C108.684 246.904 119.748 260.312 125.606 275.223L126.409 274.907L127.212 274.592C121.216 259.331 109.894 245.606 94.6393 237.008L94.2158 237.76ZM126.409 274.907L127.02 275.516C134.781 267.725 145.134 263.525 155.836 264.838L155.941 263.982L156.046 263.126C144.741 261.739 133.878 266.188 125.798 274.299L126.409 274.907ZM155.941 263.982L155.836 264.838C162.292 265.631 168.095 268.333 172.887 272.413L173.446 271.757L174.005 271.1C168.972 266.815 162.858 263.963 156.047 263.126L155.941 263.982ZM173.446 271.757L174.138 272.271C183.849 259.205 200.697 251.541 218.658 253.746L218.763 252.89L218.868 252.034C200.295 249.753 182.837 257.675 172.754 271.242L173.446 271.757ZM218.763 252.89L218.658 253.746C230.334 255.179 240.467 260.538 247.776 268.231L248.401 267.637L249.027 267.043C241.445 259.063 230.945 253.516 218.868 252.034L218.763 252.89ZM248.401 267.637L249.25 267.79C253.78 242.734 275.436 225.16 298.578 228.001L298.684 227.145L298.789 226.289C274.601 223.32 252.219 241.671 247.553 267.483L248.401 267.637ZM298.684 227.145L298.578 228.001C322.477 230.936 339.171 254.569 335.682 280.941L336.537 281.054L337.392 281.167C340.987 253.998 323.786 229.359 298.789 226.289L298.684 227.145ZM336.537 281.054L335.682 280.941C335.536 282.042 335.354 283.131 335.143 284.209L335.989 284.375L336.836 284.541C337.053 283.432 337.241 282.307 337.392 281.167L336.537 281.054ZM335.989 284.375L336.431 285.115C344.069 280.555 353.134 278.405 362.505 279.555L362.61 278.699L362.715 277.843C352.945 276.644 343.497 278.888 335.547 283.634L335.989 284.375ZM362.61 278.699L362.505 279.555C384.717 282.283 400.453 302.555 398.23 325.253L399.088 325.337L399.946 325.421C402.257 301.833 385.898 280.69 362.715 277.843L362.61 278.699ZM399.088 325.337L399.721 325.923C406.333 318.785 417.102 314.759 428.65 316.176L428.755 315.32L428.86 314.464C416.806 312.984 405.473 317.175 398.455 324.751L399.088 325.337ZM428.755 315.32L428.65 316.176C446.355 318.35 458.847 332.404 456.871 347.342L457.726 347.455L458.581 347.568C460.714 331.445 447.264 316.724 428.86 314.464L428.755 315.32ZM457.726 347.455L456.871 347.342C456.209 352.341 454.016 356.838 450.726 360.539L451.371 361.112L452.016 361.685C455.516 357.747 457.87 352.935 458.581 347.568L457.726 347.455ZM451.371 361.112L450.965 361.873C462.895 368.251 470.15 380.54 468.43 393.536L469.285 393.649L470.14 393.763C471.968 379.95 464.245 367.016 451.778 360.352L451.371 361.112ZM469.285 393.649L468.43 393.536C466.417 408.752 452.736 420.072 436.273 421.043L436.324 421.904L436.375 422.765C453.52 421.754 468 409.931 470.14 393.763L469.285 393.649ZM436.324 421.904L435.469 421.791L428.825 472.008L429.68 472.121L430.535 472.234L437.179 422.017L436.324 421.904ZM429.68 472.121L429.785 471.265L-211.896 392.482L-212.001 393.338L-212.106 394.194L429.575 472.977L429.68 472.121ZM-212.001 393.338L-211.146 393.451L-202.08 324.933L-202.935 324.82L-203.79 324.707L-212.856 393.225L-212.001 393.338ZM-202.935 324.82L-203.04 325.676L-202.373 325.758L-202.268 324.902L-202.162 324.046L-202.829 323.964L-202.935 324.82ZM-202.268 324.902L-201.413 325.015L-173.329 112.76L-174.184 112.646L-175.039 112.533L-203.123 324.789L-202.268 324.902ZM-174.184 112.646L-173.482 112.145C-183.391 98.2776 -188.244 80.8815 -185.843 62.7391L-186.698 62.626L-187.553 62.5128C-190.014 81.1079 -185.037 98.9403 -174.885 113.148L-174.184 112.646Z" fill="#FFC373" mask="url(#path-5-inside-1_466_143)"/>
<mask id="path-7-inside-2_466_143" fill="white">
<path d="M57.3974 277.83C71.0545 278.944 81.4095 289.438 81.0039 301.502C85.261 305.91 87.5861 311.241 87.1328 316.8C86.1261 329.138 71.7952 338.162 54.4928 337.812L53.6034 348.714L55.7211 351.448L44.7965 350.557L47.4916 348.051L48.3686 337.301C31.3305 334.789 18.7442 323.597 19.7473 311.302C20.2677 304.924 24.3496 299.433 30.5606 295.663C32.9692 284.582 44.3959 276.769 57.3974 277.83Z"/>
</mask>
<path d="M57.3974 277.83C71.0545 278.944 81.4095 289.438 81.0039 301.502C85.261 305.91 87.5861 311.241 87.1328 316.8C86.1261 329.138 71.7952 338.162 54.4928 337.812L53.6034 348.714L55.7211 351.448L44.7965 350.557L47.4916 348.051L48.3686 337.301C31.3305 334.789 18.7442 323.597 19.7473 311.302C20.2677 304.924 24.3496 299.433 30.5606 295.663C32.9692 284.582 44.3959 276.769 57.3974 277.83Z" fill="#A8747B"/>
<path d="M57.3974 277.83L57.4788 276.833L57.4787 276.833L57.3974 277.83ZM81.0039 301.502L80.0044 301.468L79.9902 301.892L80.2846 302.197L81.0039 301.502ZM87.1328 316.8L88.1295 316.881L88.1295 316.881L87.1328 316.8ZM54.4928 337.812L54.5131 336.812L53.5726 336.793L53.4962 337.731L54.4928 337.812ZM53.6034 348.714L52.6067 348.633L52.5751 349.02L52.8128 349.327L53.6034 348.714ZM55.7211 351.448L55.6398 352.445L57.9009 352.629L56.5117 350.836L55.7211 351.448ZM44.7965 350.557L44.1155 349.825L42.4543 351.369L44.7151 351.554L44.7965 350.557ZM47.4916 348.051L48.1725 348.783L48.4567 348.519L48.4883 348.132L47.4916 348.051ZM48.3686 337.301L49.3653 337.382L49.4415 336.448L48.5145 336.311L48.3686 337.301ZM19.7473 311.302L18.7506 311.221L18.7506 311.221L19.7473 311.302ZM30.5606 295.663L31.0795 296.518L31.4466 296.295L31.5378 295.875L30.5606 295.663ZM57.3974 277.83L57.3161 278.827C70.5441 279.906 80.3889 290.035 80.0044 301.468L81.0039 301.502L82.0033 301.535C82.4302 288.841 71.5648 277.983 57.4788 276.833L57.3974 277.83ZM81.0039 301.502L80.2846 302.197C84.3907 306.448 86.5609 311.51 86.1361 316.719L87.1328 316.8L88.1295 316.881C88.6113 310.973 86.1313 305.371 81.7232 300.807L81.0039 301.502ZM87.1328 316.8L86.1361 316.719C85.6646 322.497 82.0682 327.588 76.385 331.222C70.702 334.856 62.9939 336.984 54.5131 336.812L54.4928 337.812L54.4726 338.812C63.2941 338.99 71.4027 336.782 77.4624 332.907C83.522 329.032 87.5943 323.441 88.1295 316.881L87.1328 316.8ZM54.4928 337.812L53.4962 337.731L52.6067 348.633L53.6034 348.714L54.6001 348.796L55.4895 337.893L54.4928 337.812ZM53.6034 348.714L52.8128 349.327L54.9305 352.061L55.7211 351.448L56.5117 350.836L54.394 348.102L53.6034 348.714ZM55.7211 351.448L55.8024 350.452L44.8778 349.56L44.7965 350.557L44.7151 351.554L55.6398 352.445L55.7211 351.448ZM44.7965 350.557L45.4774 351.289L48.1725 348.783L47.4916 348.051L46.8106 347.319L44.1155 349.825L44.7965 350.557ZM47.4916 348.051L48.4883 348.132L49.3653 337.382L48.3686 337.301L47.372 337.219L46.4949 347.97L47.4916 348.051ZM48.3686 337.301L48.5145 336.311C40.1634 335.08 32.9477 331.727 27.9625 327.228C22.9772 322.728 20.2742 317.142 20.744 311.384L19.7473 311.302L18.7506 311.221C18.2173 317.757 21.3059 323.914 26.6225 328.712C31.9392 333.511 39.5358 337.009 48.2228 338.29L48.3686 337.301ZM19.7473 311.302L20.744 311.384C21.2314 305.41 25.0604 300.172 31.0795 296.518L30.5606 295.663L30.0418 294.808C23.6389 298.695 19.3041 304.438 18.7506 311.221L19.7473 311.302ZM30.5606 295.663L31.5378 295.875C33.8227 285.364 44.7285 277.8 57.3161 278.827L57.3974 277.83L57.4787 276.833C44.0632 275.739 32.1158 283.801 29.5835 295.451L30.5606 295.663Z" fill="black" mask="url(#path-7-inside-2_466_143)"/>
<path d="M418.913 282.595C330.485 292.981 244.126 410.858 212 468.497H1108.8L1132.22 145.676C1120.42 129.938 1078.75 100.705 1006.44 109.675C916.048 120.889 846.895 261.348 771.753 306.201C711.64 342.083 637.805 321.152 608.401 306.201C582.083 294.004 507.341 272.208 418.913 282.595Z" fill="#678A64" stroke="black" stroke-width="1.01875"/>
<mask id="path-10-inside-3_466_143" fill="white">
<path d="M332.401 377.308C347.362 380.792 356.406 396.858 352.603 413.193C349.254 427.576 337.06 437.37 323.98 437.127L320.424 452.401L323.186 458.067L304.992 453.831L310.294 449.718L313.767 434.804C301.777 429.322 295.053 415.056 298.424 400.577C302.228 384.242 317.44 373.824 332.401 377.308Z"/>
</mask>
<path d="M332.401 377.308C347.362 380.792 356.406 396.858 352.603 413.193C349.254 427.576 337.06 437.37 323.98 437.127L320.424 452.401L323.186 458.067L304.992 453.831L310.294 449.718L313.767 434.804C301.777 429.322 295.053 415.056 298.424 400.577C302.228 384.242 317.44 373.824 332.401 377.308Z" fill="#A8747B"/>
<path d="M332.401 377.308L332.597 376.468L332.597 376.468L332.401 377.308ZM352.603 413.193L353.443 413.388L353.443 413.388L352.603 413.193ZM323.98 437.127L323.996 436.264L323.298 436.252L323.14 436.931L323.98 437.127ZM320.424 452.401L319.584 452.205L319.514 452.503L319.648 452.779L320.424 452.401ZM323.186 458.067L322.99 458.907L324.755 459.318L323.961 457.69L323.186 458.067ZM304.992 453.831L304.463 453.149L303.032 454.26L304.796 454.671L304.992 453.831ZM310.294 449.718L310.823 450.4L311.065 450.212L311.134 449.914L310.294 449.718ZM313.767 434.804L314.607 434.999L314.767 434.313L314.126 434.019L313.767 434.804ZM298.424 400.577L297.585 400.381L297.585 400.381L298.424 400.577ZM332.401 377.308L332.206 378.148C346.635 381.508 355.475 397.055 351.763 412.997L352.603 413.193L353.443 413.388C357.338 396.661 348.089 380.076 332.597 376.468L332.401 377.308ZM352.603 413.193L351.763 412.997C348.496 427.026 336.627 436.499 323.996 436.264L323.98 437.127L323.964 437.989C337.493 438.24 350.011 428.126 353.443 413.388L352.603 413.193ZM323.98 437.127L323.14 436.931L319.584 452.205L320.424 452.401L321.263 452.596L324.82 437.322L323.98 437.127ZM320.424 452.401L319.648 452.779L322.411 458.445L323.186 458.067L323.961 457.69L321.199 452.023L320.424 452.401ZM323.186 458.067L323.382 457.227L305.188 452.991L304.992 453.831L304.796 454.671L322.99 458.907L323.186 458.067ZM304.992 453.831L305.521 454.512L310.823 450.4L310.294 449.718L309.766 449.037L304.463 453.149L304.992 453.831ZM310.294 449.718L311.134 449.914L314.607 434.999L313.767 434.804L312.927 434.608L309.454 449.523L310.294 449.718ZM313.767 434.804L314.126 434.019C302.548 428.727 295.976 414.896 299.264 400.773L298.424 400.577L297.585 400.381C294.13 415.217 301.006 429.918 313.409 435.588L313.767 434.804ZM298.424 400.577L299.264 400.773C302.977 384.831 317.777 374.788 332.206 378.148L332.401 377.308L332.597 376.468C317.104 372.861 301.48 383.654 297.585 400.381L298.424 400.577Z" fill="black" mask="url(#path-10-inside-3_466_143)"/>
<mask id="path-12-inside-4_466_143" fill="white">
<path d="M203.154 337.105C225.533 339.488 242.76 349.999 241.634 360.584C240.595 370.339 224.328 376.752 204.264 375.832L202.929 388.377L206.262 393.507L188.242 391.588L192.858 387L194.16 374.769C174.228 371.484 159.55 361.752 160.592 351.956C161.719 341.372 180.775 334.723 203.154 337.105Z"/>
</mask>
<path d="M203.154 337.105C225.533 339.488 242.76 349.999 241.634 360.584C240.595 370.339 224.328 376.752 204.264 375.832L202.929 388.377L206.262 393.507L188.242 391.588L192.858 387L194.16 374.769C174.228 371.484 159.55 361.752 160.592 351.956C161.719 341.372 180.775 334.723 203.154 337.105Z" fill="#57894B"/>
<path d="M203.154 337.105L203.245 336.247L203.245 336.247L203.154 337.105ZM241.634 360.584L242.491 360.675L242.491 360.675L241.634 360.584ZM204.264 375.832L204.304 374.97L203.493 374.933L203.407 375.741L204.264 375.832ZM202.929 388.377L202.071 388.286L202.039 388.59L202.206 388.847L202.929 388.377ZM206.262 393.507L206.171 394.364L207.972 394.556L206.985 393.037L206.262 393.507ZM188.242 391.588L187.634 390.977L186.349 392.254L188.15 392.446L188.242 391.588ZM192.858 387L193.466 387.611L193.683 387.395L193.715 387.091L192.858 387ZM194.16 374.769L195.018 374.86L195.104 374.05L194.3 373.918L194.16 374.769ZM160.592 351.956L159.735 351.865L159.735 351.865L160.592 351.956ZM203.154 337.105L203.063 337.963C214.154 339.144 223.927 342.336 230.759 346.505C237.654 350.712 241.283 355.725 240.776 360.493L241.634 360.584L242.491 360.675C243.11 354.858 238.69 349.323 231.657 345.033C224.563 340.704 214.532 337.449 203.245 336.247L203.154 337.105ZM241.634 360.584L240.776 360.493C240.308 364.884 236.372 368.742 229.76 371.412C223.198 374.062 214.245 375.426 204.304 374.97L204.264 375.832L204.225 376.693C214.347 377.158 223.559 375.776 230.406 373.011C237.204 370.266 241.92 366.04 242.491 360.675L241.634 360.584ZM204.264 375.832L203.407 375.741L202.071 388.286L202.929 388.377L203.786 388.468L205.122 375.923L204.264 375.832ZM202.929 388.377L202.206 388.847L205.539 393.977L206.262 393.507L206.985 393.037L203.652 387.907L202.929 388.377ZM206.262 393.507L206.353 392.649L188.333 390.731L188.242 391.588L188.15 392.446L206.171 394.364L206.262 393.507ZM188.242 391.588L188.85 392.2L193.466 387.611L192.858 387L192.25 386.388L187.634 390.977L188.242 391.588ZM192.858 387L193.715 387.091L195.018 374.86L194.16 374.769L193.302 374.678L192 386.908L192.858 387ZM194.16 374.769L194.3 373.918C184.424 372.29 175.896 369.071 169.993 365.089C164.045 361.077 160.981 356.457 161.45 352.048L160.592 351.956L159.735 351.865C159.161 357.251 162.915 362.395 169.028 366.519C175.186 370.673 183.964 373.963 194.02 375.62L194.16 374.769ZM160.592 351.956L161.45 352.048C161.958 347.28 166.562 343.143 174.188 340.482C181.745 337.845 191.971 336.782 203.063 337.963L203.154 337.105L203.245 336.247C191.958 335.046 181.467 336.116 173.62 338.854C165.841 341.568 160.354 346.048 159.735 351.865L160.592 351.956Z" fill="black" mask="url(#path-12-inside-4_466_143)"/>
<path d="M-260 333.335C-135.279 319.987 153.44 324.649 310.548 450.083C314 452.839 441.608 486.179 525.537 450.083C578.078 444.067 710.034 454.82 817.529 545.963C826.594 553.649 834.564 560.405 841.537 566.315L841.819 566.267C875.417 594.843 917.248 630.481 841.537 566.315L391.5 643.5L-260 566.267V333.335Z" fill="#80A177" stroke="black" stroke-width="1.01875"/>
<mask id="path-15-inside-5_466_143" fill="white">
<path d="M252.877 486C258.873 486 263.733 492.934 263.733 501.486C263.733 503.963 263.323 506.303 262.599 508.379C269.05 510.763 273.422 515.369 273.422 520.66C273.422 524.042 271.636 527.143 268.663 529.563C276.37 532.477 281.439 537.422 281.439 543.03C281.439 551.259 270.527 558.055 256.385 559.11V576.458H248.367V559.085C234.386 557.949 223.646 551.194 223.646 543.03C223.646 537.422 228.715 532.477 236.421 529.563C233.449 527.143 231.663 524.042 231.663 520.66C231.663 515.208 236.304 510.482 243.079 508.166C242.4 506.144 242.02 503.878 242.02 501.486C242.02 492.933 246.881 486 252.877 486Z"/>
</mask>
<path d="M252.877 486C258.873 486 263.733 492.934 263.733 501.486C263.733 503.963 263.323 506.303 262.599 508.379C269.05 510.763 273.422 515.369 273.422 520.66C273.422 524.042 271.636 527.143 268.663 529.563C276.37 532.477 281.439 537.422 281.439 543.03C281.439 551.259 270.527 558.055 256.385 559.11V576.458H248.367V559.085C234.386 557.949 223.646 551.194 223.646 543.03C223.646 537.422 228.715 532.477 236.421 529.563C233.449 527.143 231.663 524.042 231.663 520.66C231.663 515.208 236.304 510.482 243.079 508.166C242.4 506.144 242.02 503.878 242.02 501.486C242.02 492.933 246.881 486 252.877 486Z" fill="#78925A"/>
<path d="M252.877 486L252.877 485.138H252.877V486ZM263.733 501.486L264.596 501.486V501.486H263.733ZM262.599 508.379L261.784 508.095L261.505 508.894L262.3 509.188L262.599 508.379ZM273.422 520.66L274.284 520.66V520.66H273.422ZM268.663 529.563L268.118 528.895L266.957 529.841L268.358 530.37L268.663 529.563ZM281.439 543.03L282.302 543.03V543.03H281.439ZM256.385 559.11L256.321 558.25L255.522 558.31V559.11H256.385ZM256.385 576.458V577.32H257.247V576.458H256.385ZM248.367 576.458H247.505V577.32H248.367V576.458ZM248.367 559.085H249.23V558.29L248.437 558.225L248.367 559.085ZM223.646 543.03H222.783V543.03L223.646 543.03ZM236.421 529.563L236.726 530.37L238.127 529.841L236.966 528.895L236.421 529.563ZM231.663 520.66H230.801V520.66L231.663 520.66ZM243.079 508.166L243.358 508.982L244.17 508.705L243.897 507.892L243.079 508.166ZM242.02 501.486H241.157V501.486L242.02 501.486ZM252.877 486L252.877 486.862C255.517 486.863 257.994 488.388 259.848 491.031C261.699 493.672 262.871 497.366 262.871 501.486H263.733H264.596C264.596 497.054 263.338 493.005 261.26 490.041C259.184 487.079 256.233 485.138 252.877 485.138L252.877 486ZM263.733 501.486L262.871 501.486C262.871 503.869 262.476 506.112 261.784 508.095L262.599 508.379L263.413 508.663C264.17 506.493 264.596 504.057 264.596 501.486L263.733 501.486ZM262.599 508.379L262.3 509.188C268.59 511.512 272.559 515.888 272.559 520.66H273.422H274.284C274.284 514.849 269.51 510.013 262.898 507.57L262.599 508.379ZM273.422 520.66L272.559 520.66C272.559 523.716 270.948 526.591 268.118 528.895L268.663 529.563L269.208 530.232C272.323 527.695 274.284 524.368 274.284 520.66L273.422 520.66ZM268.663 529.563L268.358 530.37C275.97 533.248 280.577 537.982 280.577 543.03H281.439H282.302C282.302 536.861 276.77 531.706 268.968 528.757L268.663 529.563ZM281.439 543.03L280.577 543.03C280.577 546.731 278.12 550.255 273.753 553.033C269.401 555.8 263.282 557.731 256.321 558.25L256.385 559.11L256.449 559.97C263.63 559.435 270.038 557.44 274.678 554.488C279.303 551.547 282.302 547.558 282.302 543.03L281.439 543.03ZM256.385 559.11H255.522V576.458H256.385H257.247V559.11H256.385ZM256.385 576.458V575.596H248.367V576.458V577.32H256.385V576.458ZM248.367 576.458H249.23V559.085H248.367H247.505V576.458H248.367ZM248.367 559.085L248.437 558.225C241.556 557.666 235.519 555.726 231.23 552.968C226.926 550.199 224.508 546.702 224.508 543.03L223.646 543.03L222.783 543.03C222.783 547.523 225.735 551.484 230.297 554.418C234.874 557.362 241.198 559.368 248.297 559.945L248.367 559.085ZM223.646 543.03H224.508C224.508 537.983 229.114 533.248 236.726 530.37L236.421 529.563L236.116 528.757C228.315 531.706 222.783 536.861 222.783 543.03H223.646ZM236.421 529.563L236.966 528.895C234.137 526.591 232.526 523.716 232.526 520.66L231.663 520.66L230.801 520.66C230.801 524.367 232.761 527.695 235.876 530.232L236.421 529.563ZM231.663 520.66H232.526C232.526 515.743 236.743 511.243 243.358 508.982L243.079 508.166L242.8 507.35C235.864 509.72 230.801 514.673 230.801 520.66H231.663ZM243.079 508.166L243.897 507.892C243.248 505.96 242.882 503.788 242.882 501.486L242.02 501.486L241.157 501.486C241.157 503.969 241.552 506.327 242.262 508.44L243.079 508.166ZM242.02 501.486H242.882C242.882 497.365 244.054 493.672 245.906 491.031C247.759 488.388 250.237 486.862 252.877 486.862V486V485.138C249.521 485.138 246.57 487.079 244.493 490.041C242.415 493.005 241.157 497.054 241.157 501.486H242.02Z" fill="black" mask="url(#path-15-inside-5_466_143)"/>
<mask id="path-17-inside-6_466_143" fill="white">
<path d="M128.524 407C134.654 407 139.622 414.284 139.622 423.27C139.622 425.871 139.203 428.328 138.463 430.509C145.057 433.013 149.524 437.852 149.524 443.411C149.524 446.964 147.699 450.222 144.66 452.766C152.538 455.827 157.72 461.021 157.72 466.913C157.72 475.558 146.566 482.697 132.11 483.806V502.032H123.915V483.778C109.625 482.585 98.6457 475.49 98.6455 466.913C98.6455 461.021 103.827 455.827 111.704 452.766C108.666 450.222 106.841 446.964 106.841 443.411C106.841 437.683 111.584 432.719 118.51 430.286C117.816 428.162 117.427 425.782 117.427 423.27C117.427 414.284 122.395 407 128.524 407Z"/>
</mask>
<path d="M128.524 407C134.654 407 139.622 414.284 139.622 423.27C139.622 425.871 139.203 428.328 138.463 430.509C145.057 433.013 149.524 437.852 149.524 443.411C149.524 446.964 147.699 450.222 144.66 452.766C152.538 455.827 157.72 461.021 157.72 466.913C157.72 475.558 146.566 482.697 132.11 483.806V502.032H123.915V483.778C109.625 482.585 98.6457 475.49 98.6455 466.913C98.6455 461.021 103.827 455.827 111.704 452.766C108.666 450.222 106.841 446.964 106.841 443.411C106.841 437.683 111.584 432.719 118.51 430.286C117.816 428.162 117.427 425.782 117.427 423.27C117.427 414.284 122.395 407 128.524 407Z" fill="#507647"/>
<path d="M128.524 407V406.138H128.524L128.524 407ZM139.622 423.27L140.485 423.27V423.27H139.622ZM138.463 430.509L137.646 430.231L137.379 431.02L138.157 431.315L138.463 430.509ZM149.524 443.411H150.387H149.524ZM144.66 452.766L144.107 452.104L142.987 453.041L144.348 453.57L144.66 452.766ZM157.72 466.913L158.582 466.913V466.913H157.72ZM132.11 483.806L132.044 482.946L131.248 483.007V483.806H132.11ZM132.11 502.032V502.895H132.973V502.032H132.11ZM123.915 502.032H123.053V502.895H123.915V502.032ZM123.915 483.778H124.777V482.985L123.987 482.919L123.915 483.778ZM98.6455 466.913H97.7831V466.913L98.6455 466.913ZM111.704 452.766L112.016 453.569L113.377 453.041L112.258 452.104L111.704 452.766ZM106.841 443.411H105.978H106.841ZM118.51 430.286L118.796 431.1L119.591 430.82L119.33 430.018L118.51 430.286ZM117.427 423.27H116.564V423.27L117.427 423.27ZM128.524 407V407.862C131.22 407.862 133.758 409.464 135.659 412.251C137.558 415.035 138.76 418.927 138.76 423.27H139.622H140.485C140.485 418.626 139.202 414.385 137.084 411.279C134.969 408.178 131.958 406.138 128.524 406.138V407ZM139.622 423.27L138.76 423.27C138.76 425.779 138.355 428.143 137.646 430.231L138.463 430.509L139.28 430.786C140.051 428.514 140.484 425.962 140.485 423.27L139.622 423.27ZM138.463 430.509L138.157 431.315C144.578 433.754 148.662 438.357 148.662 443.411H149.524H150.387C150.387 437.347 145.535 432.273 138.769 429.703L138.463 430.509ZM149.524 443.411H148.662C148.662 446.648 147.002 449.681 144.107 452.104L144.66 452.766L145.214 453.427C148.396 450.763 150.387 447.28 150.387 443.411H149.524ZM144.66 452.766L144.348 453.57C152.119 456.589 156.857 461.568 156.857 466.913H157.72H158.582C158.582 460.473 152.957 455.064 144.973 451.962L144.66 452.766ZM157.72 466.913L156.857 466.913C156.857 470.833 154.326 474.546 149.864 477.464C145.414 480.372 139.159 482.4 132.044 482.946L132.11 483.806L132.176 484.666C139.518 484.103 146.067 482.006 150.808 478.907C155.536 475.816 158.582 471.638 158.582 466.913L157.72 466.913ZM132.11 483.806H131.248V502.032H132.11H132.973V483.806H132.11ZM132.11 502.032V501.17H123.915V502.032V502.895H132.11V502.032ZM123.915 502.032H124.777V483.778H123.915H123.053V502.032H123.915ZM123.915 483.778L123.987 482.919C116.954 482.332 110.783 480.294 106.397 477.395C101.999 474.488 99.508 470.802 99.5079 466.913L98.6455 466.913L97.7831 466.913C97.7832 471.601 100.782 475.751 105.446 478.834C110.122 481.925 116.586 484.032 123.843 484.638L123.915 483.778ZM98.6455 466.913H99.5079C99.5079 461.568 104.246 456.589 112.016 453.569L111.704 452.766L111.392 451.962C103.408 455.064 97.7831 460.473 97.7831 466.913H98.6455ZM111.704 452.766L112.258 452.104C109.363 449.682 107.703 446.648 107.703 443.411H106.841H105.978C105.978 447.28 107.968 450.763 111.151 453.427L111.704 452.766ZM106.841 443.411H107.703C107.703 438.204 112.042 433.472 118.796 431.1L118.51 430.286L118.224 429.472C111.126 431.966 105.978 437.162 105.978 443.411H106.841ZM118.51 430.286L119.33 430.018C118.665 427.983 118.289 425.694 118.289 423.27L117.427 423.27L116.564 423.27C116.564 425.87 116.967 428.34 117.69 430.554L118.51 430.286ZM117.427 423.27H118.289C118.289 418.928 119.491 415.035 121.39 412.251C123.291 409.464 125.829 407.862 128.524 407.862L128.524 407L128.524 406.138C125.091 406.138 122.08 408.179 119.965 411.279C117.847 414.385 116.564 418.626 116.564 423.27H117.427Z" fill="black" mask="url(#path-17-inside-6_466_143)"/>
<mask id="path-19-inside-7_466_143" fill="white">
<path d="M-48.5602 315.369C-26.6117 317.16 -9.99193 334.293 -10.6684 354.018C-3.83459 361.217 -0.108963 369.931 -0.8506 379.022C-2.49681 399.2 -25.5538 413.989 -53.3655 413.455L-54.8205 431.29L-51.4233 435.754L-68.9811 434.322L-64.6428 430.218L-63.2082 412.634C-90.5911 408.565 -110.797 390.292 -109.157 370.186C-108.306 359.755 -101.732 350.765 -91.7391 344.585C-87.8396 326.464 -69.4553 313.664 -48.5602 315.369Z"/>
</mask>
<path d="M-48.5602 315.369C-26.6117 317.16 -9.99193 334.293 -10.6684 354.018C-3.83459 361.217 -0.108963 369.931 -0.8506 379.022C-2.49681 399.2 -25.5538 413.989 -53.3655 413.455L-54.8205 431.29L-51.4233 435.754L-68.9811 434.322L-64.6428 430.218L-63.2082 412.634C-90.5911 408.565 -110.797 390.292 -109.157 370.186C-108.306 359.755 -101.732 350.765 -91.7391 344.585C-87.8396 326.464 -69.4553 313.664 -48.5602 315.369Z" fill="#F1C8D0"/>
<path d="M-48.5602 315.369L-48.4901 314.509L-48.4901 314.509L-48.5602 315.369ZM-10.6684 354.018L-11.5303 353.989L-11.5427 354.35L-11.2938 354.612L-10.6684 354.018ZM-0.8506 379.022L0.00897809 379.092L-0.8506 379.022ZM-53.3655 413.455L-53.3489 412.593L-54.1592 412.578L-54.225 413.385L-53.3655 413.455ZM-54.8205 431.29L-55.6801 431.22L-55.7069 431.549L-55.5068 431.812L-54.8205 431.29ZM-51.4233 435.754L-51.4934 436.614L-49.5659 436.771L-50.7369 435.232L-51.4233 435.754ZM-68.9811 434.322L-69.5738 433.696L-70.9785 435.024L-69.0513 435.182L-68.9811 434.322ZM-64.6428 430.218L-64.0501 430.844L-63.8101 430.617L-63.7832 430.288L-64.6428 430.218ZM-63.2082 412.634L-62.3486 412.704L-62.283 411.899L-63.0815 411.781L-63.2082 412.634ZM-109.157 370.186L-110.016 370.115L-109.157 370.186ZM-91.7391 344.585L-91.2855 345.319L-90.9732 345.126L-90.896 344.767L-91.7391 344.585ZM-48.5602 315.369L-48.6304 316.228C-27.0657 317.988 -10.8721 334.796 -11.5303 353.989L-10.6684 354.018L-9.80643 354.048C-9.11175 333.791 -26.1577 316.331 -48.4901 314.509L-48.5602 315.369ZM-10.6684 354.018L-11.2938 354.612C-4.58997 361.674 -0.992676 370.157 -1.71018 378.952L-0.8506 379.022L0.00897809 379.092C0.774751 369.705 -3.07922 360.76 -10.0429 353.425L-10.6684 354.018ZM-0.8506 379.022L-1.71018 378.952C-2.50633 388.71 -8.48341 397.236 -17.7667 403.283C-27.0504 409.329 -39.593 412.857 -53.3489 412.593L-53.3655 413.455L-53.382 414.318C-39.3262 414.587 -26.4345 410.987 -16.8253 404.728C-7.21559 398.469 -0.841079 389.511 0.00897809 379.092L-0.8506 379.022ZM-53.3655 413.455L-54.225 413.385L-55.6801 431.22L-54.8205 431.29L-53.9609 431.36L-52.5059 413.525L-53.3655 413.455ZM-54.8205 431.29L-55.5068 431.812L-52.1096 436.277L-51.4233 435.754L-50.7369 435.232L-54.1341 430.767L-54.8205 431.29ZM-51.4233 435.754L-51.3531 434.895L-68.911 433.462L-68.9811 434.322L-69.0513 435.182L-51.4934 436.614L-51.4233 435.754ZM-68.9811 434.322L-68.3884 434.949L-64.0501 430.844L-64.6428 430.218L-65.2355 429.591L-69.5738 433.696L-68.9811 434.322ZM-64.6428 430.218L-63.7832 430.288L-62.3486 412.704L-63.2082 412.634L-64.0678 412.564L-65.5024 430.148L-64.6428 430.218ZM-63.2082 412.634L-63.0815 411.781C-76.6251 409.768 -88.3566 404.248 -96.4831 396.789C-104.609 389.33 -109.091 379.98 -108.297 370.256L-109.157 370.186L-110.016 370.115C-110.863 380.498 -106.062 390.338 -97.6494 398.059C-89.2372 405.781 -77.1743 411.431 -63.3349 413.487L-63.2082 412.634ZM-109.157 370.186L-108.297 370.256C-107.474 360.167 -101.112 351.395 -91.2855 345.319L-91.7391 344.585L-92.1927 343.852C-102.353 350.134 -109.137 359.342 -110.016 370.115L-109.157 370.186ZM-91.7391 344.585L-90.896 344.767C-87.1001 327.127 -69.1561 314.554 -48.6304 316.228L-48.5602 315.369L-48.4901 314.509C-69.7545 312.775 -88.5792 325.801 -92.5822 344.404L-91.7391 344.585Z" fill="black" mask="url(#path-19-inside-7_466_143)"/>
<path d="M-270 455.557C-219.085 430.214 -84.7843 394.732 45.1017 455.557C144.521 502.115 248.345 574.133 332.54 614.19C428.927 618.607 486.968 625.853 462.745 637.268C431.276 652.097 385.841 639.548 332.54 614.19C170.508 606.765 -99.8861 607.334 -270 609.533V455.557Z" fill="#9CBF94" stroke="black" stroke-width="0.862434"/>
<path d="M103.752 525C108.036 525 111.508 527.53 111.508 530.649C111.508 531.47 111.265 532.248 110.833 532.951C113.503 533.844 115.356 535.807 115.356 538.087C115.356 541.207 111.884 543.735 107.601 543.735C107.344 543.735 107.091 543.725 106.841 543.707C106.841 543.716 106.842 543.726 106.842 543.735C106.842 546.855 103.369 549.384 99.0859 549.384C95.0937 549.384 91.8074 547.187 91.3789 544.362C90.8555 544.443 90.3125 544.487 89.7559 544.487C85.4726 544.487 82.0003 541.958 82 538.839C82 536.823 83.4503 535.054 85.6318 534.055C85.2458 533.384 85.0323 532.647 85.0322 531.874C85.0322 528.754 88.5046 526.225 92.7881 526.225C94.5375 526.225 96.1517 526.647 97.4492 527.358C98.8568 525.931 101.155 525 103.752 525Z" fill="#FFEDAC"/>
<ellipse cx="98.7469" cy="537.088" rx="4.95688" ry="3.29522" fill="#FDD657"/>
<path d="M30.1572 490C34.5204 490 38.0574 492.576 38.0576 495.754C38.0576 496.59 37.8103 497.383 37.3701 498.1C40.0891 499.009 41.9773 501.008 41.9775 503.33C41.9775 506.508 38.4405 509.085 34.0771 509.085C33.8161 509.085 33.5582 509.074 33.3037 509.056C33.3038 509.065 33.3047 509.075 33.3047 509.084C33.3047 512.262 29.7676 514.839 25.4043 514.839C21.3383 514.839 17.991 512.601 17.5537 509.725C17.0205 509.807 16.4675 509.852 15.9004 509.852C11.5371 509.852 8 507.276 8 504.098C8.00012 502.044 9.47797 500.242 11.7012 499.224C11.3072 498.539 11.0889 497.788 11.0889 497C11.089 493.822 14.6261 491.246 18.9893 491.246C20.7714 491.246 22.4155 491.676 23.7373 492.401C25.1712 490.948 27.512 490 30.1572 490Z" fill="#FDD657"/>
<ellipse cx="25.059" cy="502.314" rx="5.04919" ry="3.35659" fill="#FFEDAC"/>
<ellipse cx="25.059" cy="502.314" rx="5.04919" ry="3.35659" fill="#FFEDAC"/>
<path d="M173.157 568C177.52 568 181.057 570.576 181.058 573.754C181.058 574.59 180.81 575.383 180.37 576.1C183.089 577.009 184.977 579.008 184.978 581.33C184.978 584.508 181.44 587.085 177.077 587.085C176.816 587.085 176.558 587.074 176.304 587.056C176.304 587.065 176.305 587.075 176.305 587.084C176.305 590.262 172.768 592.839 168.404 592.839C164.338 592.839 160.991 590.601 160.554 587.725C160.02 587.807 159.467 587.852 158.9 587.852C154.537 587.852 151 585.276 151 582.098C151 580.044 152.478 578.242 154.701 577.224C154.307 576.539 154.089 575.788 154.089 575C154.089 571.822 157.626 569.246 161.989 569.246C163.771 569.246 165.416 569.676 166.737 570.401C168.171 568.948 170.512 568 173.157 568Z" fill="#FDD657"/>
<ellipse cx="168.059" cy="580.314" rx="5.04919" ry="3.35659" fill="#FFEDAC"/>
<ellipse cx="168.059" cy="580.314" rx="5.04919" ry="3.35659" fill="#FFEDAC"/>
<path d="M41.752 568C46.0355 568 49.5078 570.53 49.5078 573.649C49.5077 574.47 49.265 575.248 48.833 575.951C51.5026 576.844 53.3564 578.807 53.3564 581.087C53.3561 584.207 49.8839 586.735 45.6006 586.735C45.3442 586.735 45.0908 586.725 44.8408 586.707C44.8409 586.716 44.8418 586.726 44.8418 586.735C44.8416 589.855 41.3694 592.384 37.0859 592.384C33.0937 592.384 29.8074 590.187 29.3789 587.362C28.8555 587.443 28.3125 587.487 27.7559 587.487C23.4726 587.487 20.0003 584.958 20 581.839C20 579.823 21.4503 578.054 23.6318 577.055C23.2458 576.384 23.0323 575.647 23.0322 574.874C23.0322 571.754 26.5046 569.225 30.7881 569.225C32.5375 569.225 34.1517 569.647 35.4492 570.358C36.8568 568.931 39.1548 568 41.752 568Z" fill="#FFEDAC"/>
<ellipse cx="36.7469" cy="580.088" rx="4.95688" ry="3.29522" fill="#FDD657"/>
<defs>
<filter id="filter0_d_466_143" x="191.23" y="110.216" width="320.834" height="284.992" filterUnits="userSpaceOnUse" color-interpolation-filters="sRGB">
<feFlood flood-opacity="0" result="BackgroundImageFix"/>
<feColorMatrix in="SourceAlpha" type="matrix" values="0 0 0 0 0 0 0 0 0 0 0 0 0 0 0 0 0 0 127 0" result="hardAlpha"/>
<feOffset dy="3.49683"/>
<feGaussianBlur stdDeviation="21.8552"/>
<feComposite in2="hardAlpha" operator="out"/>
<feColorMatrix type="matrix" values="0 0 0 0 0.988235 0 0 0 0 0.968627 0 0 0 0 0.686275 0 0 0 1 0"/>
<feBlend mode="normal" in2="BackgroundImageFix" result="effect1_dropShadow_466_143"/>
<feBlend mode="normal" in="SourceGraphic" in2="effect1_dropShadow_466_143" result="shape"/>
</filter>
</defs>
</svg>
