<svg width="1509" height="764" viewBox="0 0 1509 764" fill="none" xmlns="http://www.w3.org/2000/svg">
<mask id="path-1-inside-1_0_1" fill="white">
<path fill-rule="evenodd" clip-rule="evenodd" d="M100.408 121.322C110.692 117.771 121.821 117.592 132.492 121.549C160.702 132.011 175.026 167.424 164.485 200.647C163.901 202.487 163.253 204.282 162.545 206.028C171.418 204.638 179.355 207.644 182.918 214.721C186.576 221.985 184.679 231.66 178.827 239.887C183.995 239.28 189.335 239.396 194.731 240.321C225.965 245.674 247.257 276.091 242.288 308.26C241.21 315.241 238.984 321.73 235.839 327.558C249.645 327.109 264.278 330.744 278.234 338.909C297.994 350.47 312.666 368.931 320.437 389.461C330.819 378.642 344.729 372.759 359.153 374.597C367.847 375.706 375.657 379.483 382.097 385.173C395.07 367.05 417.56 356.448 441.505 359.5C457.075 361.484 470.6 368.902 480.36 379.566C486.389 344.954 515.253 320.511 546.276 324.465C578.325 328.55 600.542 361.396 595.898 397.828C595.704 399.35 595.466 400.855 595.186 402.34C605.401 396.011 617.534 393.025 630.078 394.624C659.83 398.416 680.872 426.594 677.904 458.086C686.838 448.079 701.322 442.491 716.788 444.462C740.457 447.479 757.461 467.059 754.767 488.195C753.868 495.248 750.89 501.582 746.441 506.781C762.431 515.656 772.246 532.819 769.921 551.06C767.199 572.416 748.741 588.167 726.712 589.515L718.002 657.853L-123.193 550.637L-111.308 457.391L-72.3901 462.351L-72.39 462.35L-110.434 457.501L-73.617 168.645C-86.7662 149.541 -93.209 125.57 -90.0228 100.571C-83.2249 47.2365 -35.1702 9.42254 17.3104 16.1115C68.6497 22.6551 105.206 69.363 100.408 121.322Z"/>
</mask>
<path fill-rule="evenodd" clip-rule="evenodd" d="M100.408 121.322C110.692 117.771 121.821 117.592 132.492 121.549C160.702 132.011 175.026 167.424 164.485 200.647C163.901 202.487 163.253 204.282 162.545 206.028C171.418 204.638 179.355 207.644 182.918 214.721C186.576 221.985 184.679 231.66 178.827 239.887C183.995 239.28 189.335 239.396 194.731 240.321C225.965 245.674 247.257 276.091 242.288 308.26C241.21 315.241 238.984 321.73 235.839 327.558C249.645 327.109 264.278 330.744 278.234 338.909C297.994 350.47 312.666 368.931 320.437 389.461C330.819 378.642 344.729 372.759 359.153 374.597C367.847 375.706 375.657 379.483 382.097 385.173C395.07 367.05 417.56 356.448 441.505 359.5C457.075 361.484 470.6 368.902 480.36 379.566C486.389 344.954 515.253 320.511 546.276 324.465C578.325 328.55 600.542 361.396 595.898 397.828C595.704 399.35 595.466 400.855 595.186 402.34C605.401 396.011 617.534 393.025 630.078 394.624C659.83 398.416 680.872 426.594 677.904 458.086C686.838 448.079 701.322 442.491 716.788 444.462C740.457 447.479 757.461 467.059 754.767 488.195C753.868 495.248 750.89 501.582 746.441 506.781C762.431 515.656 772.246 532.819 769.921 551.06C767.199 572.416 748.741 588.167 726.712 589.515L718.002 657.853L-123.193 550.637L-111.308 457.391L-72.3901 462.351L-72.39 462.35L-110.434 457.501L-73.617 168.645C-86.7662 149.541 -93.209 125.57 -90.0228 100.571C-83.2249 47.2365 -35.1702 9.42254 17.3104 16.1115C68.6497 22.6551 105.206 69.363 100.408 121.322Z" fill="#FFFEF8"/>
<path d="M132.492 121.549L132.144 122.486V122.486L132.492 121.549ZM100.408 121.322L99.4122 121.23L99.2697 122.773L100.734 122.267L100.408 121.322ZM164.485 200.647L165.438 200.95L164.485 200.647ZM162.545 206.028L161.619 205.653L160.955 207.29L162.7 207.016L162.545 206.028ZM182.918 214.721L182.025 215.171L182.918 214.721ZM178.827 239.887L178.012 239.307L176.707 241.142L178.944 240.88L178.827 239.887ZM194.731 240.321L194.563 241.307L194.731 240.321ZM242.288 308.26L241.3 308.107L242.288 308.26ZM235.839 327.558L234.959 327.083L234.133 328.614L235.872 328.558L235.839 327.558ZM278.234 338.909L278.739 338.046L278.234 338.909ZM320.437 389.461L319.501 389.815L320.062 391.296L321.158 390.154L320.437 389.461ZM359.153 374.597L359.279 373.605L359.153 374.597ZM382.097 385.173L381.435 385.922L382.265 386.656L382.91 385.755L382.097 385.173ZM441.505 359.5L441.632 358.508H441.632L441.505 359.5ZM480.36 379.566L479.622 380.241L480.996 381.742L481.345 379.737L480.36 379.566ZM546.276 324.465L546.149 325.457H546.149L546.276 324.465ZM595.898 397.828L594.906 397.702L595.898 397.828ZM595.186 402.34L594.204 402.155L593.783 404.386L595.713 403.19L595.186 402.34ZM630.078 394.624L629.951 395.616H629.951L630.078 394.624ZM677.904 458.086L676.908 457.992L676.622 461.023L678.649 458.752L677.904 458.086ZM716.788 444.462L716.915 443.47L716.788 444.462ZM754.767 488.195L753.775 488.069L754.767 488.195ZM746.441 506.781L745.681 506.131L744.885 507.061L745.955 507.655L746.441 506.781ZM769.921 551.06L770.913 551.186L769.921 551.06ZM726.712 589.515L726.651 588.517L725.825 588.568L725.72 589.389L726.712 589.515ZM718.002 657.853L717.876 658.845L718.868 658.971L718.994 657.979L718.002 657.853ZM-123.193 550.637L-124.184 550.51L-124.311 551.502L-123.319 551.629L-123.193 550.637ZM-111.308 457.391L-111.181 456.399L-112.173 456.273L-112.3 457.265L-111.308 457.391ZM-72.3901 462.351L-72.5166 463.343L-71.5222 463.47L-71.3978 462.475L-72.3901 462.351ZM-72.39 462.35L-71.3977 462.474L-71.274 461.484L-72.2636 461.358L-72.39 462.35ZM-110.434 457.501L-111.426 457.375L-111.552 458.367L-110.56 458.493L-110.434 457.501ZM-73.617 168.645L-72.625 168.771L-72.5767 168.392L-72.7933 168.078L-73.617 168.645ZM-90.0228 100.571L-91.0147 100.445L-90.0228 100.571ZM17.3104 16.1115L17.184 17.1035L17.3104 16.1115ZM132.839 120.611C121.938 116.568 110.571 116.755 100.082 120.376L100.734 122.267C110.814 118.787 121.704 118.615 132.144 122.486L132.839 120.611ZM165.438 200.95C176.1 167.345 161.666 131.302 132.839 120.611L132.144 122.486C159.738 132.72 173.951 167.504 163.531 200.345L165.438 200.95ZM163.472 206.404C164.19 204.633 164.846 202.814 165.438 200.95L163.531 200.345C162.955 202.16 162.316 203.93 161.619 205.653L163.472 206.404ZM183.812 214.271C179.995 206.691 171.55 203.605 162.391 205.041L162.7 207.016C171.285 205.671 178.715 208.596 182.025 215.171L183.812 214.271ZM179.642 240.466C185.617 232.066 187.696 221.987 183.812 214.271L182.025 215.171C185.455 221.983 183.741 231.254 178.012 239.307L179.642 240.466ZM194.9 239.335C189.409 238.394 183.973 238.276 178.71 238.893L178.944 240.88C184.017 240.284 189.261 240.398 194.563 241.307L194.9 239.335ZM243.277 308.413C248.325 275.729 226.697 244.785 194.9 239.335L194.563 241.307C225.234 246.563 246.19 276.454 241.3 308.107L243.277 308.413ZM236.719 328.033C239.918 322.105 242.181 315.507 243.277 308.413L241.3 308.107C240.239 314.974 238.05 321.355 234.959 327.083L236.719 328.033ZM278.739 338.046C264.631 329.792 249.812 326.103 235.807 326.559L235.872 328.558C249.477 328.115 263.926 331.696 277.729 339.772L278.739 338.046ZM321.372 389.107C313.527 368.38 298.711 349.731 278.739 338.046L277.729 339.772C297.276 351.209 311.806 369.483 319.501 389.815L321.372 389.107ZM359.279 373.605C344.49 371.72 330.278 377.761 319.715 388.769L321.158 390.154C331.36 379.523 344.967 373.797 359.026 375.589L359.279 373.605ZM382.759 384.423C376.181 378.611 368.188 374.741 359.279 373.605L359.026 375.589C367.507 376.67 375.133 380.354 381.435 385.922L382.759 384.423ZM441.632 358.508C417.313 355.408 394.466 366.176 381.284 384.591L382.91 385.755C395.675 367.924 417.807 357.487 441.379 360.492L441.632 358.508ZM481.098 378.891C471.183 368.058 457.443 360.523 441.632 358.508L441.379 360.492C456.706 362.445 470.017 369.747 479.622 380.241L481.098 378.891ZM546.402 323.473C514.739 319.438 485.475 344.373 479.375 379.394L481.345 379.737C487.303 345.535 515.767 321.585 546.149 325.457L546.402 323.473ZM596.89 397.954C601.588 361.098 579.115 327.643 546.402 323.473L546.149 325.457C577.535 329.458 599.496 361.694 594.906 397.702L596.89 397.954ZM596.169 402.525C596.453 401.021 596.694 399.496 596.89 397.954L594.906 397.702C594.715 399.204 594.48 400.689 594.204 402.155L596.169 402.525ZM630.204 393.632C617.419 392.002 605.058 395.047 594.66 401.49L595.713 403.19C605.745 396.974 617.649 394.048 629.951 395.616L630.204 393.632ZM678.899 458.18C681.913 426.208 660.547 397.499 630.204 393.632L629.951 395.616C659.113 399.332 679.831 426.98 676.908 457.992L678.899 458.18ZM716.915 443.47C701.14 441.46 686.323 447.154 677.158 457.42L678.649 458.752C687.352 449.004 701.505 443.522 716.662 445.454L716.915 443.47ZM755.759 488.322C758.536 466.535 741.023 446.543 716.915 443.47L716.662 445.454C739.892 448.415 756.386 467.583 753.775 488.069L755.759 488.322ZM747.2 507.431C751.769 502.093 754.834 495.579 755.759 488.322L753.775 488.069C752.902 494.916 750.011 501.071 745.681 506.131L747.2 507.431ZM770.913 551.186C773.295 532.495 763.234 514.958 746.926 505.906L745.955 507.655C761.628 516.354 771.197 533.142 768.929 550.934L770.913 551.186ZM726.773 590.514C749.226 589.139 768.124 573.072 770.913 551.186L768.929 550.934C766.275 571.76 748.256 587.195 726.651 588.517L726.773 590.514ZM718.994 657.979L727.704 589.642L725.72 589.389L717.01 657.726L718.994 657.979ZM-123.319 551.629L717.876 658.845L718.129 656.861L-123.066 549.645L-123.319 551.629ZM-112.3 457.265L-124.184 550.51L-122.201 550.763L-110.316 457.518L-112.3 457.265ZM-72.2637 461.359L-111.181 456.399L-111.434 458.383L-72.5166 463.343L-72.2637 461.359ZM-73.3823 462.226L-73.3824 462.227L-71.3978 462.475L-71.3977 462.474L-73.3823 462.226ZM-110.56 458.493L-72.5164 463.342L-72.2636 461.358L-110.307 456.509L-110.56 458.493ZM-74.609 168.518L-111.426 457.375L-109.442 457.628L-72.625 168.771L-74.609 168.518ZM-91.0147 100.445C-94.233 125.695 -87.725 149.911 -74.4407 169.211L-72.7933 168.078C-85.8073 149.17 -92.1849 125.445 -89.0308 100.698L-91.0147 100.445ZM17.4369 15.1196C-35.6066 8.35882 -84.1489 46.5773 -91.0147 100.445L-89.0308 100.698C-82.3008 47.8956 -34.7337 10.4863 17.184 17.1035L17.4369 15.1196ZM101.404 121.414C106.25 68.9348 69.3268 21.7333 17.4369 15.1196L17.184 17.1035C67.9727 23.5769 104.162 69.7912 99.4122 121.23L101.404 121.414Z" fill="#66A0D2" mask="url(#path-1-inside-1_0_1)"/>
<mask id="path-3-inside-2_0_1" fill="white">
<path fill-rule="evenodd" clip-rule="evenodd" d="M1547.59 103.274C1547.59 111.101 1546.98 118.725 1545.82 126.053C1554.54 114.894 1569.76 107.502 1587.08 107.502C1614.16 107.502 1636.11 125.563 1636.11 147.842C1636.11 163.926 1624.67 177.811 1608.12 184.29L1667.61 187.611V413.946H1668V504.081H1601.82C1537.68 523.301 1381.17 550.504 1197.49 573.035C955.346 602.738 757.691 613.076 756.011 596.126C755.171 587.651 803.494 573.956 882.299 558.668C878.224 553.528 875.596 547.409 874.927 540.652C872.749 518.687 892.088 498.292 918.121 495.098C924.085 494.367 929.882 494.601 935.303 495.662L935.29 495.538L935.277 495.405C932.363 466.003 953.103 439.333 981.602 435.837C1008.7 432.513 1033.06 451.342 1037.89 478.482C1044.46 464.058 1063.67 451.732 1087.44 448.297C1114.42 444.397 1138.37 453.244 1145.57 468.591C1150.26 466.576 1155.51 465.135 1161.11 464.449C1170.62 463.282 1179.59 464.49 1186.82 467.455C1187.33 467.175 1187.85 466.9 1188.38 466.63C1200.65 460.295 1213.16 457.66 1223.78 458.456C1214.63 445.348 1209 427.559 1209 407.966C1209 367.668 1232.8 335 1262.16 335C1263.9 335 1265.68 335.263 1267.5 335.767C1261.56 328.841 1258 320.057 1258 310.5C1258 290.87 1273 274.502 1292.91 270.79C1282.53 260.017 1276.19 245.638 1276.19 229.846C1276.19 197.532 1302.73 171.135 1336.14 169.44L1336.12 169.104L1339.97 169.319C1339.94 168.446 1339.93 167.569 1339.93 166.688C1339.93 131.999 1361.25 103.878 1387.56 103.878C1392.9 103.878 1398.05 105.041 1402.85 107.185C1402.81 105.888 1402.8 104.584 1402.8 103.274C1402.8 46.2374 1435.21 0 1475.19 0C1515.17 0 1547.59 46.2374 1547.59 103.274ZM1255.86 504.081H1245.67C1245.43 504.494 1245.18 504.906 1244.93 505.318C1248.59 504.901 1252.23 504.488 1255.86 504.081Z"/>
</mask>
<path fill-rule="evenodd" clip-rule="evenodd" d="M1547.59 103.274C1547.59 111.101 1546.98 118.725 1545.82 126.053C1554.54 114.894 1569.76 107.502 1587.08 107.502C1614.16 107.502 1636.11 125.563 1636.11 147.842C1636.11 163.926 1624.67 177.811 1608.12 184.29L1667.61 187.611V413.946H1668V504.081H1601.82C1537.68 523.301 1381.17 550.504 1197.49 573.035C955.346 602.738 757.691 613.076 756.011 596.126C755.171 587.651 803.494 573.956 882.299 558.668C878.224 553.528 875.596 547.409 874.927 540.652C872.749 518.687 892.088 498.292 918.121 495.098C924.085 494.367 929.882 494.601 935.303 495.662L935.29 495.538L935.277 495.405C932.363 466.003 953.103 439.333 981.602 435.837C1008.7 432.513 1033.06 451.342 1037.89 478.482C1044.46 464.058 1063.67 451.732 1087.44 448.297C1114.42 444.397 1138.37 453.244 1145.57 468.591C1150.26 466.576 1155.51 465.135 1161.11 464.449C1170.62 463.282 1179.59 464.49 1186.82 467.455C1187.33 467.175 1187.85 466.9 1188.38 466.63C1200.65 460.295 1213.16 457.66 1223.78 458.456C1214.63 445.348 1209 427.559 1209 407.966C1209 367.668 1232.8 335 1262.16 335C1263.9 335 1265.68 335.263 1267.5 335.767C1261.56 328.841 1258 320.057 1258 310.5C1258 290.87 1273 274.502 1292.91 270.79C1282.53 260.017 1276.19 245.638 1276.19 229.846C1276.19 197.532 1302.73 171.135 1336.14 169.44L1336.12 169.104L1339.97 169.319C1339.94 168.446 1339.93 167.569 1339.93 166.688C1339.93 131.999 1361.25 103.878 1387.56 103.878C1392.9 103.878 1398.05 105.041 1402.85 107.185C1402.81 105.888 1402.8 104.584 1402.8 103.274C1402.8 46.2374 1435.21 0 1475.19 0C1515.17 0 1547.59 46.2374 1547.59 103.274ZM1255.86 504.081H1245.67C1245.43 504.494 1245.18 504.906 1244.93 505.318C1248.59 504.901 1252.23 504.488 1255.86 504.081Z" fill="#FFFEF8"/>
<path d="M1545.82 126.053L1544.83 125.897L1544.23 129.712L1546.61 126.669L1545.82 126.053ZM1608.12 184.29L1607.76 183.359L1608.06 185.288L1608.12 184.29ZM1667.61 187.611H1668.61V186.666L1667.67 186.613L1667.61 187.611ZM1667.61 413.946H1666.61V414.946H1667.61V413.946ZM1668 413.946H1669V412.946H1668V413.946ZM1668 504.081V505.081H1669V504.081H1668ZM1601.82 504.081V503.081H1601.67L1601.53 503.123L1601.82 504.081ZM1197.49 573.035L1197.61 574.028L1197.49 573.035ZM756.011 596.126L757.006 596.028H757.006L756.011 596.126ZM882.299 558.668L882.49 559.65L884.105 559.336L883.083 558.047L882.299 558.668ZM874.927 540.652L873.932 540.751L874.927 540.652ZM918.121 495.098L917.999 494.106L918.121 495.098ZM935.303 495.662L935.111 496.643L936.436 496.903L936.298 495.56L935.303 495.662ZM935.29 495.538L934.295 495.637L934.295 495.64L935.29 495.538ZM935.277 495.405L934.282 495.504L934.282 495.505L935.277 495.405ZM981.602 435.837L981.724 436.83L981.602 435.837ZM1037.89 478.482L1036.91 478.657L1037.47 481.82L1038.8 478.896L1037.89 478.482ZM1087.44 448.297L1087.29 447.307L1087.44 448.297ZM1145.57 468.591L1144.67 469.016L1145.08 469.892L1145.97 469.51L1145.57 468.591ZM1161.11 464.449L1160.98 463.457L1161.11 464.449ZM1186.82 467.455L1186.44 468.38L1186.88 468.56L1187.3 468.334L1186.82 467.455ZM1188.38 466.63L1188.84 467.518L1188.84 467.518L1188.38 466.63ZM1223.78 458.456L1223.71 459.453L1225.81 459.61L1224.6 457.883L1223.78 458.456ZM1267.5 335.767L1267.23 336.731L1270.4 337.609L1268.26 335.116L1267.5 335.767ZM1292.91 270.79L1293.09 271.773L1294.92 271.432L1293.63 270.096L1292.91 270.79ZM1336.14 169.44L1336.19 170.439L1337.19 170.388L1337.13 169.381L1336.14 169.44ZM1336.12 169.104L1336.17 168.105L1335.05 168.043L1335.12 169.163L1336.12 169.104ZM1339.97 169.319L1339.91 170.317L1341 170.378L1340.97 169.288L1339.97 169.319ZM1402.85 107.185L1402.44 108.098L1403.89 108.746L1403.85 107.159L1402.85 107.185ZM1245.67 504.081V503.081H1245.1L1244.81 503.577L1245.67 504.081ZM1255.86 504.081L1255.97 505.075L1255.86 503.081V504.081ZM1244.93 505.318L1244.08 504.791L1242.99 506.545L1245.04 506.311L1244.93 505.318ZM1546.81 126.209C1547.97 118.829 1548.59 111.153 1548.59 103.274H1546.59C1546.59 111.049 1545.98 118.62 1544.83 125.897L1546.81 126.209ZM1587.08 106.502C1569.49 106.502 1553.96 114.009 1545.03 125.437L1546.61 126.669C1555.12 115.778 1570.04 108.502 1587.08 108.502V106.502ZM1637.11 147.842C1637.11 124.837 1614.52 106.502 1587.08 106.502V108.502C1613.8 108.502 1635.11 126.288 1635.11 147.842H1637.11ZM1608.49 185.221C1625.31 178.633 1637.11 164.438 1637.11 147.842H1635.11C1635.11 163.413 1624.02 176.99 1607.76 183.359L1608.49 185.221ZM1667.67 186.613L1608.18 183.292L1608.06 185.288L1667.56 188.61L1667.67 186.613ZM1668.61 413.946V187.611H1666.61V413.946H1668.61ZM1668 412.946H1667.61V414.946H1668V412.946ZM1669 504.081V413.946H1667V504.081H1669ZM1601.82 505.081H1668V503.081H1601.82V505.081ZM1197.61 574.028C1381.29 551.497 1537.88 524.286 1602.11 505.039L1601.53 503.123C1537.49 522.316 1381.05 549.511 1197.36 572.043L1197.61 574.028ZM755.016 596.225C755.172 597.804 756.439 598.98 758.117 599.87C759.837 600.782 762.27 601.549 765.324 602.197C771.445 603.496 780.316 604.369 791.607 604.845C814.204 605.797 846.672 605.164 886.628 603.074C966.549 598.894 1076.52 588.881 1197.61 574.028L1197.36 572.043C1076.31 586.892 966.385 596.9 886.524 601.077C846.588 603.166 814.194 603.795 791.691 602.847C780.432 602.372 771.694 601.504 765.739 600.241C762.754 599.607 760.532 598.887 759.054 598.103C757.533 597.297 757.059 596.567 757.006 596.028L755.016 596.225ZM882.109 557.686C842.696 565.332 810.878 572.585 789.007 578.992C778.078 582.194 769.592 585.196 763.873 587.947C761.02 589.319 758.801 590.655 757.307 591.956C755.852 593.224 754.86 594.659 755.016 596.225L757.006 596.028C756.951 595.474 757.286 594.628 758.621 593.464C759.916 592.335 761.95 591.091 764.74 589.749C770.309 587.07 778.671 584.104 789.569 580.911C811.351 574.531 843.097 567.292 882.49 559.65L882.109 557.686ZM873.932 540.751C874.621 547.71 877.329 554.008 881.516 559.289L883.083 558.047C879.12 553.048 876.572 547.108 875.922 540.554L873.932 540.751ZM917.999 494.106C891.589 497.345 871.686 518.096 873.932 540.751L875.922 540.554C873.813 519.278 892.588 499.238 918.243 496.091L917.999 494.106ZM935.495 494.681C929.97 493.6 924.066 493.361 917.999 494.106L918.243 496.091C924.103 495.372 929.795 495.603 935.111 496.643L935.495 494.681ZM934.295 495.64L934.308 495.764L936.298 495.56L936.285 495.435L934.295 495.64ZM934.282 495.505L934.295 495.637L936.285 495.438L936.272 495.305L934.282 495.505ZM981.48 434.845C952.416 438.41 931.316 465.587 934.282 495.504L936.272 495.307C933.409 466.418 953.79 440.256 981.724 436.83L981.48 434.845ZM1038.88 478.307C1033.96 450.671 1009.14 431.452 981.48 434.845L981.724 436.83C1008.27 433.573 1032.17 452.013 1036.91 478.657L1038.88 478.307ZM1087.29 447.307C1063.33 450.77 1043.74 463.22 1036.98 478.067L1038.8 478.896C1045.18 464.896 1064 452.694 1087.58 449.287L1087.29 447.307ZM1146.48 468.166C1142.73 460.173 1134.68 453.982 1124.26 450.284C1113.83 446.58 1100.93 445.337 1087.29 447.307L1087.58 449.287C1100.93 447.357 1113.5 448.587 1123.59 452.169C1133.69 455.756 1141.22 461.662 1144.67 469.016L1146.48 468.166ZM1160.98 463.457C1155.3 464.154 1149.96 465.619 1145.18 467.672L1145.97 469.51C1150.57 467.533 1155.73 466.117 1161.23 465.442L1160.98 463.457ZM1187.2 466.53C1179.79 463.494 1170.65 462.27 1160.98 463.457L1161.23 465.442C1170.59 464.293 1179.38 465.487 1186.44 468.38L1187.2 466.53ZM1187.92 465.741C1187.39 466.015 1186.86 466.293 1186.34 466.576L1187.3 468.334C1187.81 468.057 1188.32 467.786 1188.84 467.518L1187.92 465.741ZM1223.86 457.459C1213.02 456.647 1200.33 459.335 1187.92 465.741L1188.84 467.518C1200.97 461.254 1213.3 458.673 1223.71 459.453L1223.86 457.459ZM1208 407.966C1208 427.743 1213.68 445.737 1222.96 459.028L1224.6 457.883C1215.57 444.959 1210 427.374 1210 407.966H1208ZM1262.16 334C1247.08 334 1233.52 342.39 1223.76 355.782C1214 369.175 1208 387.628 1208 407.966H1210C1210 388.006 1215.9 369.976 1225.38 356.96C1234.86 343.944 1247.88 336 1262.16 336V334ZM1267.77 334.804C1265.88 334.279 1264 334 1262.16 334V336C1263.8 336 1265.49 336.248 1267.23 336.731L1267.77 334.804ZM1257 310.5C1257 320.312 1260.65 329.323 1266.74 336.419L1268.26 335.116C1262.46 328.358 1259 319.802 1259 310.5H1257ZM1292.73 269.806C1272.4 273.597 1257 290.331 1257 310.5H1259C1259 291.41 1273.6 275.408 1293.09 271.773L1292.73 269.806ZM1275.19 229.846C1275.19 245.913 1281.64 260.536 1292.19 271.483L1293.63 270.096C1283.42 259.497 1277.19 245.363 1277.19 229.846H1275.19ZM1336.09 168.442C1302.19 170.161 1275.19 196.956 1275.19 229.846H1277.19C1277.19 198.107 1303.27 172.109 1336.19 170.439L1336.09 168.442ZM1335.12 169.163L1335.14 169.5L1337.13 169.381L1337.11 169.044L1335.12 169.163ZM1340.02 168.32L1336.17 168.105L1336.06 170.102L1339.91 170.317L1340.02 168.32ZM1338.93 166.688C1338.93 167.58 1338.94 168.467 1338.97 169.35L1340.97 169.288C1340.94 168.426 1340.93 167.559 1340.93 166.688H1338.93ZM1387.56 102.878C1374.02 102.878 1361.84 110.114 1353.08 121.67C1344.32 133.226 1338.93 149.145 1338.93 166.688H1340.93C1340.93 149.542 1346.2 134.056 1354.67 122.879C1363.15 111.702 1374.78 104.878 1387.56 104.878V102.878ZM1403.26 106.272C1398.33 104.074 1393.05 102.878 1387.56 102.878V104.878C1392.76 104.878 1397.76 106.008 1402.44 108.098L1403.26 106.272ZM1401.8 103.274C1401.8 104.592 1401.81 105.905 1401.85 107.212L1403.85 107.159C1403.81 105.87 1403.8 104.575 1403.8 103.274H1401.8ZM1475.19 -1C1454.79 -1 1436.41 10.8008 1423.18 29.6743C1409.95 48.5508 1401.8 74.5754 1401.8 103.274H1403.8C1403.8 74.9361 1411.85 49.3236 1424.82 30.8223C1437.79 12.3179 1455.62 1 1475.19 1V-1ZM1548.59 103.274C1548.59 74.5754 1540.43 48.5508 1527.2 29.6743C1513.97 10.8008 1495.6 -1 1475.19 -1V1C1494.77 1 1512.59 12.3179 1525.56 30.8223C1538.53 49.3236 1546.59 74.9361 1546.59 103.274H1548.59ZM1245.67 505.081H1255.86V503.081H1245.67V505.081ZM1245.78 505.844C1246.04 505.425 1246.29 505.006 1246.54 504.585L1244.81 503.577C1244.57 503.982 1244.33 504.387 1244.08 504.791L1245.78 505.844ZM1255.75 503.087C1252.12 503.495 1248.47 503.907 1244.82 504.324L1245.04 506.311C1248.7 505.894 1252.34 505.482 1255.97 505.075L1255.75 503.087Z" fill="#66A0D2" mask="url(#path-3-inside-2_0_1)"/>
<path d="M745.917 522.444C643.384 534.488 543.25 671.166 506 738H1545.85L1573 363.685C1559.32 345.437 1511 311.541 1427.16 321.943C1322.35 334.944 1242.17 497.809 1155.04 549.816C1085.34 591.422 999.724 567.152 965.631 549.816C935.115 535.674 848.45 510.4 745.917 522.444Z" fill="#81916E" stroke="black" stroke-width="1.18125"/>
<mask id="path-6-inside-3_0_1" fill="white">
<path fill-rule="evenodd" clip-rule="evenodd" d="M622.574 531.331C616.673 556.67 595.191 573.928 572.148 573.5L565.883 600.405L570.749 610.388L538.698 602.924L548.038 595.68L554.156 569.406C533.032 559.75 521.188 534.614 527.127 509.106C533.828 480.329 560.627 461.975 586.984 468.112C613.34 474.25 629.275 502.554 622.574 531.331Z"/>
</mask>
<path fill-rule="evenodd" clip-rule="evenodd" d="M622.574 531.331C616.673 556.67 595.191 573.928 572.148 573.5L565.883 600.405L570.749 610.388L538.698 602.924L548.038 595.68L554.156 569.406C533.032 559.75 521.188 534.614 527.127 509.106C533.828 480.329 560.627 461.975 586.984 468.112C613.34 474.25 629.275 502.554 622.574 531.331Z" fill="#F1C8D0"/>
<path d="M572.148 573.5L572.166 572.5L571.357 572.485L571.174 573.273L572.148 573.5ZM565.883 600.405L564.909 600.178L564.828 600.524L564.984 600.843L565.883 600.405ZM570.749 610.388L570.522 611.362L572.569 611.838L571.648 609.95L570.749 610.388ZM538.698 602.924L538.085 602.134L536.424 603.422L538.471 603.898L538.698 602.924ZM548.038 595.68L548.651 596.47L548.932 596.253L549.012 595.907L548.038 595.68ZM554.156 569.406L555.13 569.633L555.316 568.837L554.572 568.497L554.156 569.406ZM572.129 574.499C595.692 574.937 617.552 557.308 623.548 531.558L621.6 531.104C615.795 556.033 594.689 572.918 572.166 572.5L572.129 574.499ZM566.857 600.632L573.122 573.726L571.174 573.273L564.909 600.178L566.857 600.632ZM564.984 600.843L569.85 610.826L571.648 609.95L566.782 599.967L564.984 600.843ZM570.976 609.414L538.924 601.951L538.471 603.898L570.522 611.362L570.976 609.414ZM539.31 603.715L548.651 596.47L547.426 594.89L538.085 602.134L539.31 603.715ZM553.182 569.18L547.064 595.453L549.012 595.907L555.13 569.633L553.182 569.18ZM526.153 508.879C520.118 534.8 532.138 560.441 553.74 570.316L554.572 568.497C533.926 559.059 522.258 534.428 528.101 509.333L526.153 508.879ZM587.21 467.139C560.237 460.858 532.96 479.646 526.153 508.879L528.101 509.333C534.696 481.011 561.017 463.093 586.757 469.086L587.21 467.139ZM623.548 531.558C630.355 502.325 614.184 473.419 587.21 467.139L586.757 469.086C612.497 475.08 628.195 502.782 621.6 531.104L623.548 531.558Z" fill="black" mask="url(#path-6-inside-3_0_1)"/>
<mask id="path-8-inside-4_0_1" fill="white">
<path fill-rule="evenodd" clip-rule="evenodd" d="M414.182 463.471C412.296 481.187 382.754 492.831 346.32 491.16L343.894 513.945L349.946 523.257L317.222 519.773L325.606 511.44L327.97 489.233C291.774 483.267 265.12 465.592 267.014 447.803C269.06 428.582 303.664 416.507 344.303 420.834C384.942 425.16 416.228 444.25 414.182 463.471Z"/>
</mask>
<path fill-rule="evenodd" clip-rule="evenodd" d="M414.182 463.471C412.296 481.187 382.754 492.831 346.32 491.16L343.894 513.945L349.946 523.257L317.222 519.773L325.606 511.44L327.97 489.233C291.774 483.267 265.12 465.592 267.014 447.803C269.06 428.582 303.664 416.507 344.303 420.834C384.942 425.16 416.228 444.25 414.182 463.471Z" fill="#C8E6C1"/>
<path d="M346.32 491.16L346.366 490.161L345.425 490.118L345.326 491.054L346.32 491.16ZM343.894 513.945L342.9 513.839L342.862 514.192L343.056 514.49L343.894 513.945ZM349.946 523.257L349.84 524.251L351.93 524.474L350.785 522.712L349.946 523.257ZM317.222 519.773L316.517 519.064L315.027 520.545L317.116 520.767L317.222 519.773ZM325.606 511.44L326.311 512.149L326.563 511.899L326.6 511.546L325.606 511.44ZM327.97 489.233L328.965 489.339L329.065 488.4L328.133 488.246L327.97 489.233ZM346.274 492.159C364.596 492.999 381.24 490.496 393.581 485.513C405.864 480.552 414.173 472.999 415.176 463.577L413.187 463.365C412.305 471.659 404.899 478.785 392.832 483.658C380.822 488.508 364.478 490.992 346.366 490.161L346.274 492.159ZM344.889 514.051L347.315 491.266L345.326 491.054L342.9 513.839L344.889 514.051ZM343.056 514.49L349.108 523.802L350.785 522.712L344.733 513.4L343.056 514.49ZM350.052 522.262L317.328 518.779L317.116 520.767L349.84 524.251L350.052 522.262ZM317.927 520.482L326.311 512.149L324.901 510.73L316.517 519.064L317.927 520.482ZM326.976 489.127L324.612 511.334L326.6 511.546L328.965 489.339L326.976 489.127ZM266.019 447.697C265.012 457.158 271.602 466.328 282.649 473.781C293.748 481.269 309.606 487.22 327.808 490.22L328.133 488.246C310.139 485.281 294.571 479.411 283.767 472.123C272.912 464.799 267.121 456.237 268.008 447.909L266.019 447.697ZM344.409 419.84C323.976 417.664 305.011 419.605 290.856 424.544C276.782 429.455 267.107 437.478 266.019 447.697L268.008 447.909C268.966 438.907 277.617 431.282 291.515 426.432C305.334 421.611 323.991 419.677 344.197 421.828L344.409 419.84ZM415.176 463.577C416.264 453.358 408.496 443.478 395.77 435.713C382.973 427.905 364.842 422.015 344.409 419.84L344.197 421.828C364.403 423.979 382.235 429.798 394.729 437.421C407.295 445.088 414.146 454.363 413.187 463.365L415.176 463.577Z" fill="black" mask="url(#path-8-inside-4_0_1)"/>
<path d="M-46.0686 494.487C98.5467 479.01 433.319 484.416 615.487 629.858C658.032 647.297 767.453 671.711 864.768 629.858C925.691 622.882 1078.7 635.351 1203.34 741.031C1213.82 749.919 1223.04 757.735 1231.11 764.574H1231.5C1270.47 797.717 1318.99 839.051 1231.11 764.574H-46.0686V494.487Z" fill="#A9BFA0" stroke="black" stroke-width="1.18125"/>
<mask id="path-11-inside-5_0_1" fill="white">
<path fill-rule="evenodd" clip-rule="evenodd" d="M46.2543 422.356C46.2543 427.53 45.3167 432.42 43.6494 436.757C58.4926 441.738 68.5491 451.361 68.5491 462.416C68.5491 469.48 64.442 475.96 57.6031 481.018C75.3359 487.106 87 497.435 87 509.152C87 526.345 61.8887 540.548 29.3415 542.752V579H10.8906V542.698C-21.2828 540.324 -46 526.209 -46 509.152C-46 497.435 -34.3359 487.106 -16.6031 481.018C-23.442 475.96 -27.5491 469.48 -27.5491 462.416C-27.5491 451.024 -16.8701 441.153 -1.2787 436.314C-2.84153 432.088 -3.71676 427.354 -3.71676 422.356C-3.71676 404.486 7.46965 390 21.2688 390C35.0679 390 46.2543 404.486 46.2543 422.356Z"/>
</mask>
<path fill-rule="evenodd" clip-rule="evenodd" d="M46.2543 422.356C46.2543 427.53 45.3167 432.42 43.6494 436.757C58.4926 441.738 68.5491 451.361 68.5491 462.416C68.5491 469.48 64.442 475.96 57.6031 481.018C75.3359 487.106 87 497.435 87 509.152C87 526.345 61.8887 540.548 29.3415 542.752V579H10.8906V542.698C-21.2828 540.324 -46 526.209 -46 509.152C-46 497.435 -34.3359 487.106 -16.6031 481.018C-23.442 475.96 -27.5491 469.48 -27.5491 462.416C-27.5491 451.024 -16.8701 441.153 -1.2787 436.314C-2.84153 432.088 -3.71676 427.354 -3.71676 422.356C-3.71676 404.486 7.46965 390 21.2688 390C35.0679 390 46.2543 404.486 46.2543 422.356Z" fill="#A9BFA0"/>
<path d="M43.6494 436.757L42.716 436.398L42.3413 437.372L43.3312 437.705L43.6494 436.757ZM57.6031 481.018L57.0085 480.214L55.4781 481.346L57.2784 481.964L57.6031 481.018ZM29.3415 542.752L29.2739 541.754L28.3415 541.817V542.752H29.3415ZM29.3415 579V580H30.3415V579H29.3415ZM10.8906 579H9.89062V580H10.8906V579ZM10.8906 542.698H11.8906V541.769L10.9642 541.7L10.8906 542.698ZM-16.6031 481.018L-16.2784 481.964L-14.4781 481.346L-16.0085 480.214L-16.6031 481.018ZM-1.2787 436.314L-0.982307 437.269L0.0250702 436.957L-0.340782 435.967L-1.2787 436.314ZM44.5828 437.115C46.295 432.662 47.2543 427.65 47.2543 422.356H45.2543C45.2543 427.41 44.3383 432.178 42.716 436.398L44.5828 437.115ZM69.5491 462.416C69.5491 450.703 58.9475 440.836 43.9676 435.809L43.3312 437.705C58.0376 442.64 67.5491 452.02 67.5491 462.416H69.5491ZM58.1977 481.822C65.1969 476.646 69.5491 469.899 69.5491 462.416H67.5491C67.5491 469.061 63.687 475.275 57.0085 480.214L58.1977 481.822ZM88 509.152C88 502.937 84.9026 497.178 79.635 492.244C74.3703 487.312 66.8841 483.147 57.9278 480.072L57.2784 481.964C66.0548 484.977 73.2672 489.02 78.2677 493.704C83.2653 498.385 86 503.65 86 509.152H88ZM29.409 543.75C45.7964 542.64 60.3677 538.508 70.8761 532.439C81.3487 526.39 88 518.276 88 509.152H86C86 517.221 80.0956 524.805 69.8758 530.707C59.6917 536.589 45.4338 540.66 29.2739 541.754L29.409 543.75ZM28.3415 542.752V579H30.3415V542.752H28.3415ZM29.3415 578H10.8906V580H29.3415V578ZM11.8906 579V542.698H9.89062V579H11.8906ZM-47 509.152C-47 518.204 -40.4524 526.263 -30.124 532.295C-19.7615 538.347 -5.38252 542.5 10.817 543.695L10.9642 541.7C-5.00968 540.522 -19.076 536.431 -29.1154 530.568C-39.189 524.685 -45 517.157 -45 509.152H-47ZM-16.9278 480.072C-25.8841 483.147 -33.3703 487.312 -38.635 492.244C-43.9026 497.178 -47 502.937 -47 509.152H-45C-45 503.65 -42.2653 498.385 -37.2677 493.704C-32.2672 489.02 -25.0548 484.977 -16.2784 481.964L-16.9278 480.072ZM-28.5491 462.416C-28.5491 469.899 -24.1969 476.646 -17.1977 481.822L-16.0085 480.214C-22.687 475.275 -26.5491 469.061 -26.5491 462.416H-28.5491ZM-1.5751 435.359C-17.2981 440.239 -28.5491 450.346 -28.5491 462.416H-26.5491C-26.5491 451.703 -16.442 442.067 -0.982307 437.269L-1.5751 435.359ZM-4.71676 422.356C-4.71676 427.471 -3.82129 432.322 -2.21662 436.661L-0.340782 435.967C-1.86177 431.854 -2.71676 427.238 -2.71676 422.356H-4.71676ZM21.2688 389C6.69236 389 -4.71676 404.19 -4.71676 422.356H-2.71676C-2.71676 404.783 8.24694 391 21.2688 391V389ZM47.2543 422.356C47.2543 404.19 35.8452 389 21.2688 389V391C34.2906 391 45.2543 404.783 45.2543 422.356H47.2543Z" fill="black" mask="url(#path-11-inside-5_0_1)"/>
<mask id="path-13-inside-6_0_1" fill="white">
<path fill-rule="evenodd" clip-rule="evenodd" d="M1035.83 510.851C1035.83 514.984 1035.09 518.891 1033.78 522.355C1045.49 526.335 1053.43 534.024 1053.43 542.855C1053.43 548.5 1050.19 553.677 1044.79 557.718C1058.79 562.582 1068 570.834 1068 580.196C1068 593.932 1048.18 605.279 1022.48 607.04V636H1007.91V606.997C982.514 605.1 963 593.824 963 580.196C963 570.834 972.209 562.582 986.209 557.718C980.809 553.677 977.566 548.5 977.566 542.855C977.566 533.754 985.997 525.868 998.306 522.002C997.072 518.626 996.381 514.844 996.381 510.851C996.381 496.574 1005.21 485 1016.11 485C1027 485 1035.83 496.574 1035.83 510.851Z"/>
</mask>
<path fill-rule="evenodd" clip-rule="evenodd" d="M1035.83 510.851C1035.83 514.984 1035.09 518.891 1033.78 522.355C1045.49 526.335 1053.43 534.024 1053.43 542.855C1053.43 548.5 1050.19 553.677 1044.79 557.718C1058.79 562.582 1068 570.834 1068 580.196C1068 593.932 1048.18 605.279 1022.48 607.04V636H1007.91V606.997C982.514 605.1 963 593.824 963 580.196C963 570.834 972.209 562.582 986.209 557.718C980.809 553.677 977.566 548.5 977.566 542.855C977.566 533.754 985.997 525.868 998.306 522.002C997.072 518.626 996.381 514.844 996.381 510.851C996.381 496.574 1005.21 485 1016.11 485C1027 485 1035.83 496.574 1035.83 510.851Z" fill="#A9BFA0"/>
<path d="M1033.78 522.355L1032.84 522L1032.47 522.969L1033.45 523.302L1033.78 522.355ZM1044.79 557.718L1044.19 556.917L1042.69 558.045L1044.46 558.663L1044.79 557.718ZM1022.48 607.04L1022.41 606.043L1021.48 606.106V607.04H1022.48ZM1022.48 636V637H1023.48V636H1022.48ZM1007.91 636H1006.91V637H1007.91V636ZM1007.91 606.997H1008.91V606.069L1007.99 606L1007.91 606.997ZM986.209 557.718L986.537 558.663L988.315 558.045L986.808 556.917L986.209 557.718ZM998.306 522.002L998.606 522.956L999.605 522.642L999.245 521.659L998.306 522.002ZM1034.71 522.711C1036.07 519.13 1036.83 515.102 1036.83 510.851H1034.83C1034.83 514.865 1034.11 518.651 1032.84 522L1034.71 522.711ZM1054.43 542.855C1054.43 533.372 1045.96 525.437 1034.1 521.409L1033.45 523.302C1045.03 527.234 1052.43 534.675 1052.43 542.855H1054.43ZM1045.39 558.519C1050.95 554.357 1054.43 548.913 1054.43 542.855H1052.43C1052.43 548.086 1049.43 552.997 1044.19 556.917L1045.39 558.519ZM1069 580.196C1069 575.163 1066.52 570.514 1062.33 566.545C1058.15 562.578 1052.21 559.237 1045.12 556.773L1044.46 558.663C1051.37 561.063 1057.04 564.28 1060.96 567.996C1064.87 571.709 1067 575.867 1067 580.196H1069ZM1022.55 608.038C1035.51 607.15 1047.05 603.841 1055.38 598.972C1063.68 594.122 1069 587.585 1069 580.196H1067C1067 586.543 1062.41 592.547 1054.37 597.245C1046.37 601.924 1035.14 605.17 1022.41 606.043L1022.55 608.038ZM1021.48 607.04V636H1023.48V607.04H1021.48ZM1022.48 635H1007.91V637H1022.48V635ZM1008.91 636V606.997H1006.91V636H1008.91ZM962 580.196C962 587.527 967.239 594.02 975.423 598.857C983.639 603.712 995.025 607.037 1007.84 607.994L1007.99 606C995.402 605.06 984.332 601.799 976.441 597.135C968.518 592.452 964 586.493 964 580.196H962ZM985.881 556.773C978.79 559.237 972.85 562.578 968.666 566.545C964.479 570.514 962 575.163 962 580.196H964C964 575.867 966.125 571.709 970.042 567.996C973.963 564.28 979.628 561.063 986.537 558.663L985.881 556.773ZM976.566 542.855C976.566 548.913 980.049 554.357 985.61 558.519L986.808 556.917C981.57 552.997 978.566 548.086 978.566 542.855H976.566ZM998.006 521.048C985.559 524.957 976.566 533.083 976.566 542.855H978.566C978.566 534.425 986.435 526.778 998.606 522.956L998.006 521.048ZM995.381 510.851C995.381 514.958 996.092 518.857 997.367 522.345L999.245 521.659C998.053 518.395 997.381 514.729 997.381 510.851H995.381ZM1016.11 484C1010.28 484 1005.08 487.097 1001.36 491.965C997.65 496.832 995.381 503.513 995.381 510.851H997.381C997.381 503.912 999.529 497.667 1002.95 493.178C1006.38 488.69 1011.04 486 1016.11 486V484ZM1036.83 510.851C1036.83 503.513 1034.56 496.832 1030.85 491.965C1027.14 487.097 1021.93 484 1016.11 484V486C1021.18 486 1025.84 488.69 1029.26 493.178C1032.69 497.667 1034.83 503.912 1034.83 510.851H1036.83Z" fill="black" mask="url(#path-13-inside-6_0_1)"/>
<mask id="path-15-inside-7_0_1" fill="white">
<path fill-rule="evenodd" clip-rule="evenodd" d="M1373.04 380.573C1373.41 385.675 1372.89 390.559 1371.68 394.945C1385.59 398.889 1395.46 407.723 1396.24 418.626C1396.74 425.594 1393.44 432.254 1387.55 437.69C1404.19 442.535 1415.58 451.961 1416.4 463.518C1417.62 480.475 1395.67 496.125 1366.07 500.426L1368.63 536.178L1351.77 537.384L1349.21 501.578C1319.63 501.34 1296.05 489.034 1294.84 472.21C1294.02 460.653 1303.95 449.703 1319.73 442.539C1313.12 437.998 1308.91 431.875 1308.41 424.906C1307.61 413.671 1316.67 403.237 1330.58 397.446C1328.85 393.38 1327.72 388.768 1327.37 383.839C1326.11 366.214 1335.31 351.195 1347.92 350.293C1360.53 349.391 1371.78 362.948 1373.04 380.573Z"/>
</mask>
<path fill-rule="evenodd" clip-rule="evenodd" d="M1373.04 380.573C1373.41 385.675 1372.89 390.559 1371.68 394.945C1385.59 398.889 1395.46 407.723 1396.24 418.626C1396.74 425.594 1393.44 432.254 1387.55 437.69C1404.19 442.535 1415.58 451.961 1416.4 463.518C1417.62 480.475 1395.67 496.125 1366.07 500.426L1368.63 536.178L1351.77 537.384L1349.21 501.578C1319.63 501.34 1296.05 489.034 1294.84 472.21C1294.02 460.653 1303.95 449.703 1319.73 442.539C1313.12 437.998 1308.91 431.875 1308.41 424.906C1307.61 413.671 1316.67 403.237 1330.58 397.446C1328.85 393.38 1327.72 388.768 1327.37 383.839C1326.11 366.214 1335.31 351.195 1347.92 350.293C1360.53 349.391 1371.78 362.948 1373.04 380.573Z" fill="#A9BFA0"/>
<path d="M1371.68 394.945L1370.71 394.678L1370.45 395.636L1371.4 395.908L1371.68 394.945ZM1387.55 437.69L1386.87 436.955L1385.57 438.155L1387.27 438.65L1387.55 437.69ZM1366.07 500.426L1365.93 499.436L1365.01 499.57L1365.08 500.497L1366.07 500.426ZM1368.63 536.178L1368.7 537.175L1369.7 537.104L1369.63 536.106L1368.63 536.178ZM1351.77 537.384L1350.77 537.455L1350.84 538.452L1351.84 538.381L1351.77 537.384ZM1349.21 501.578L1350.2 501.507L1350.14 500.586L1349.21 500.578L1349.21 501.578ZM1319.73 442.539L1320.14 443.45L1321.75 442.718L1320.3 441.715L1319.73 442.539ZM1330.58 397.446L1330.96 398.369L1331.89 397.982L1331.5 397.055L1330.58 397.446ZM1372.64 395.213C1373.89 390.713 1374.41 385.714 1374.04 380.502L1372.04 380.644C1372.4 385.636 1371.9 390.405 1370.71 394.678L1372.64 395.213ZM1397.24 418.554C1396.42 407.039 1386.05 397.978 1371.95 393.983L1371.4 395.908C1385.14 399.799 1394.51 408.407 1395.25 418.697L1397.24 418.554ZM1388.23 438.425C1394.28 432.846 1397.77 425.908 1397.24 418.554L1395.25 418.697C1395.72 425.28 1392.61 431.663 1386.87 436.955L1388.23 438.425ZM1417.4 463.447C1416.53 451.229 1404.57 441.605 1387.83 436.73L1387.27 438.65C1403.81 443.466 1414.63 452.692 1415.41 463.589L1417.4 463.447ZM1366.22 501.416C1381.14 499.247 1394.18 494.212 1403.38 487.527C1412.55 480.857 1418.04 472.414 1417.4 463.447L1415.41 463.589C1415.98 471.58 1411.1 479.44 1402.2 485.909C1393.33 492.364 1380.6 497.304 1365.93 499.436L1366.22 501.416ZM1365.08 500.497L1367.63 536.249L1369.63 536.106L1367.07 500.355L1365.08 500.497ZM1368.56 535.18L1351.7 536.386L1351.84 538.381L1368.7 537.175L1368.56 535.18ZM1352.76 537.312L1350.2 501.507L1348.21 501.65L1350.77 537.455L1352.76 537.312ZM1293.85 472.282C1294.48 481.178 1301.02 488.705 1310.91 493.996C1320.83 499.297 1334.29 502.458 1349.2 502.578L1349.21 500.578C1334.55 500.46 1321.43 497.349 1311.86 492.232C1302.27 487.104 1296.41 480.066 1295.84 472.139L1293.85 472.282ZM1319.32 441.629C1303.44 448.836 1292.97 460.064 1293.85 472.282L1295.84 472.139C1295.06 461.242 1304.46 450.57 1320.14 443.45L1319.32 441.629ZM1307.41 424.978C1307.94 432.331 1312.38 438.702 1319.16 443.364L1320.3 441.715C1313.86 437.294 1309.88 431.418 1309.41 424.835L1307.41 424.978ZM1330.2 396.522C1316.12 402.385 1306.56 413.111 1307.41 424.978L1309.41 424.835C1308.65 414.231 1317.23 404.089 1330.96 398.369L1330.2 396.522ZM1326.37 383.91C1326.73 388.947 1327.89 393.666 1329.66 397.836L1331.5 397.055C1329.82 393.093 1328.71 388.59 1328.37 383.767L1326.37 383.91ZM1347.85 349.296C1341.14 349.775 1335.43 354.006 1331.59 360.272C1327.75 366.54 1325.73 374.913 1326.37 383.91L1328.37 383.767C1327.75 375.139 1329.7 367.19 1333.3 361.317C1336.9 355.442 1342.09 351.712 1347.99 351.29L1347.85 349.296ZM1374.04 380.502C1373.39 371.505 1370.2 363.505 1365.51 357.847C1360.82 352.191 1354.56 348.816 1347.85 349.296L1347.99 351.29C1353.89 350.868 1359.57 353.821 1363.97 359.124C1368.37 364.425 1371.43 372.016 1372.04 380.644L1374.04 380.502Z" fill="black" mask="url(#path-15-inside-7_0_1)"/>
<mask id="path-17-inside-8_0_1" fill="white">
<path fill-rule="evenodd" clip-rule="evenodd" d="M634.815 659.652C634.815 663.594 634.166 667.319 633.013 670.624C643.281 674.419 650.237 681.751 650.237 690.173C650.237 695.556 647.396 700.493 642.665 704.347C654.931 708.985 663 716.855 663 725.783C663 738.882 645.63 749.704 623.116 751.383V779H610.353V751.341C588.098 749.533 571 738.779 571 725.783C571 716.855 579.069 708.985 591.335 704.347C586.604 700.494 583.763 695.556 583.763 690.173C583.763 681.494 591.15 673.973 601.935 670.286C600.854 667.067 600.249 663.46 600.249 659.652C600.249 646.037 607.986 635 617.532 635C627.077 635 634.815 646.037 634.815 659.652Z"/>
</mask>
<path fill-rule="evenodd" clip-rule="evenodd" d="M634.815 659.652C634.815 663.594 634.166 667.319 633.013 670.624C643.281 674.419 650.237 681.751 650.237 690.173C650.237 695.556 647.396 700.493 642.665 704.347C654.931 708.985 663 716.855 663 725.783C663 738.882 645.63 749.704 623.116 751.383V779H610.353V751.341C588.098 749.533 571 738.779 571 725.783C571 716.855 579.069 708.985 591.335 704.347C586.604 700.494 583.763 695.556 583.763 690.173C583.763 681.494 591.15 673.973 601.935 670.286C600.854 667.067 600.249 663.46 600.249 659.652C600.249 646.037 607.986 635 617.532 635C627.077 635 634.815 646.037 634.815 659.652Z" fill="#C8E6C1"/>
<path d="M633.013 670.624L632.069 670.294L631.746 671.221L632.667 671.562L633.013 670.624ZM642.665 704.347L642.033 703.572L640.687 704.668L642.311 705.282L642.665 704.347ZM623.116 751.383L623.042 750.386L622.116 750.455V751.383H623.116ZM623.116 779V780H624.116V779H623.116ZM610.353 779H609.353V780H610.353V779ZM610.353 751.341H611.353V750.419L610.434 750.345L610.353 751.341ZM591.335 704.347L591.689 705.282L593.313 704.668L591.967 703.572L591.335 704.347ZM601.935 670.286L602.258 671.233L603.199 670.911L602.883 669.968L601.935 670.286ZM633.957 670.953C635.149 667.54 635.815 663.702 635.815 659.652H633.815C633.815 663.485 633.184 667.099 632.069 670.294L633.957 670.953ZM651.237 690.173C651.237 681.149 643.814 673.55 633.36 669.686L632.667 671.562C642.747 675.288 649.237 682.353 649.237 690.173H651.237ZM643.296 705.122C648.193 701.133 651.237 695.934 651.237 690.173H649.237C649.237 695.179 646.598 699.853 642.033 703.572L643.296 705.122ZM664 725.783C664 716.205 655.395 708.092 643.018 703.412L642.311 705.282C654.468 709.879 662 717.505 662 725.783H664ZM623.19 752.38C634.574 751.531 644.713 748.368 652.037 743.709C659.343 739.062 664 732.812 664 725.783H662C662 731.853 657.972 737.564 650.964 742.022C643.975 746.468 634.171 749.555 623.042 750.386L623.19 752.38ZM622.116 751.383V779H624.116V751.383H622.116ZM623.116 778H610.353V780H623.116V778ZM611.353 779V751.341H609.353V779H611.353ZM570 725.783C570 732.757 574.584 738.963 581.79 743.598C589.013 748.245 599.018 751.424 610.272 752.338L610.434 750.345C599.433 749.451 589.761 746.348 582.872 741.916C575.965 737.473 572 731.805 572 725.783H570ZM590.982 703.412C578.605 708.092 570 716.205 570 725.783H572C572 717.505 579.532 709.879 591.689 705.282L590.982 703.412ZM582.763 690.173C582.763 695.934 585.806 701.133 590.704 705.122L591.967 703.572C587.402 699.854 584.763 695.179 584.763 690.173H582.763ZM601.611 669.34C590.641 673.09 582.763 680.874 582.763 690.173H584.763C584.763 682.115 591.659 674.856 602.258 671.233L601.611 669.34ZM599.249 659.652C599.249 663.565 599.87 667.279 600.987 670.605L602.883 669.968C601.837 666.854 601.249 663.355 601.249 659.652H599.249ZM617.532 634C612.344 634 607.749 637.001 604.492 641.646C601.233 646.295 599.249 652.664 599.249 659.652H601.249C601.249 653.025 603.133 647.068 606.129 642.795C609.128 638.518 613.174 636 617.532 636V634ZM635.815 659.652C635.815 652.664 633.831 646.295 630.572 641.646C627.315 637.001 622.72 634 617.532 634V636C621.889 636 625.936 638.518 628.934 642.795C631.93 647.068 633.815 653.025 633.815 659.652H635.815Z" fill="black" mask="url(#path-17-inside-8_0_1)"/>
<mask id="path-19-inside-9_0_1" fill="white">
<path fill-rule="evenodd" clip-rule="evenodd" d="M427.815 539.337C427.815 543.388 427.166 547.217 426.013 550.613C436.281 554.514 443.237 562.05 443.237 570.706C443.237 576.238 440.396 581.313 435.664 585.273C447.931 590.041 456 598.129 456 607.305C456 620.768 438.63 631.89 416.116 633.616V662H403.353V633.573C381.098 631.715 364 620.662 364 607.305C364 598.129 372.069 590.041 384.335 585.273C379.604 581.313 376.763 576.238 376.763 570.706C376.763 561.786 384.15 554.056 394.935 550.267C393.854 546.958 393.249 543.251 393.249 539.337C393.249 525.344 400.986 514 410.532 514C420.077 514 427.815 525.344 427.815 539.337Z"/>
</mask>
<path fill-rule="evenodd" clip-rule="evenodd" d="M427.815 539.337C427.815 543.388 427.166 547.217 426.013 550.613C436.281 554.514 443.237 562.05 443.237 570.706C443.237 576.238 440.396 581.313 435.664 585.273C447.931 590.041 456 598.129 456 607.305C456 620.768 438.63 631.89 416.116 633.616V662H403.353V633.573C381.098 631.715 364 620.662 364 607.305C364 598.129 372.069 590.041 384.335 585.273C379.604 581.313 376.763 576.238 376.763 570.706C376.763 561.786 384.15 554.056 394.935 550.267C393.854 546.958 393.249 543.251 393.249 539.337C393.249 525.344 400.986 514 410.532 514C420.077 514 427.815 525.344 427.815 539.337Z" fill="#A9BFA0"/>
<path d="M426.013 550.613L425.066 550.292L424.756 551.205L425.658 551.548L426.013 550.613ZM435.664 585.273L435.023 584.507L433.725 585.593L435.302 586.205L435.664 585.273ZM416.116 633.616L416.039 632.619L415.116 632.69V633.616H416.116ZM416.116 662V663H417.116V662H416.116ZM403.353 662H402.353V663H403.353V662ZM403.353 633.573H404.353V632.653L403.436 632.577L403.353 633.573ZM384.335 585.273L384.698 586.205L386.275 585.593L384.977 584.507L384.335 585.273ZM394.935 550.267L395.266 551.21L396.189 550.886L395.885 549.956L394.935 550.267ZM426.96 550.935C428.15 547.432 428.815 543.494 428.815 539.337H426.815C426.815 543.283 426.183 547.003 425.066 550.292L426.96 550.935ZM444.237 570.706C444.237 561.464 436.836 553.655 426.368 549.679L425.658 551.548C435.726 555.373 442.237 562.636 442.237 570.706H444.237ZM436.306 586.04C441.204 581.94 444.237 576.605 444.237 570.706H442.237C442.237 575.872 439.587 580.686 435.023 584.507L436.306 586.04ZM457 607.305C457 597.494 448.417 589.157 436.027 584.341L435.302 586.205C447.445 590.925 455 598.764 455 607.305H457ZM416.192 634.613C427.581 633.74 437.722 630.488 445.048 625.699C452.359 620.919 457 614.503 457 607.305H455C455 613.57 450.956 619.446 443.953 624.025C436.965 628.594 427.165 631.766 416.039 632.619L416.192 634.613ZM415.116 633.616V662H417.116V633.616H415.116ZM416.116 661H403.353V663H416.116V661ZM404.353 662V633.573H402.353V662H404.353ZM363 607.305C363 614.446 367.569 620.818 374.779 625.585C382.003 630.361 392.012 633.63 403.27 634.57L403.436 632.577C392.439 631.658 382.771 628.471 375.882 623.917C368.98 619.354 365 613.521 365 607.305H363ZM383.973 584.341C371.583 589.157 363 597.494 363 607.305H365C365 598.764 372.555 590.925 384.698 586.205L383.973 584.341ZM375.763 570.706C375.763 576.605 378.796 581.94 383.694 586.04L384.977 584.507C380.413 580.686 377.763 575.872 377.763 570.706H375.763ZM394.603 549.323C383.619 553.182 375.763 561.182 375.763 570.706H377.763C377.763 562.39 384.681 554.929 395.266 551.21L394.603 549.323ZM392.249 539.337C392.249 543.353 392.87 547.165 393.984 550.577L395.885 549.956C394.838 546.751 394.249 543.149 394.249 539.337H392.249ZM410.532 513C405.331 513 400.736 516.091 397.485 520.858C394.23 525.629 392.249 532.166 392.249 539.337H394.249C394.249 532.515 396.136 526.383 399.137 521.985C402.141 517.581 406.187 515 410.532 515V513ZM428.815 539.337C428.815 532.166 426.834 525.629 423.579 520.858C420.327 516.091 415.732 513 410.532 513V515C414.877 515 418.923 517.581 421.927 521.985C424.927 526.383 426.815 532.515 426.815 539.337H428.815Z" fill="black" mask="url(#path-19-inside-9_0_1)"/>
<ellipse cx="364.303" cy="301.531" rx="31.3031" ry="29.5312" fill="#FFF2C9"/>
<mask id="path-22-inside-10_0_1" fill="white">
<path fill-rule="evenodd" clip-rule="evenodd" d="M242.728 472.092C243.514 449.219 224.238 429.351 198.787 427.274C174.558 425.297 153.238 440.14 148.717 461.153C137.131 468.318 129.511 478.744 128.524 490.838C126.622 514.152 150.051 535.343 181.802 540.06L180.139 560.443L175.108 565.201L195.467 566.862L191.528 561.685L193.214 541.013C225.462 541.632 252.198 524.48 254.107 501.083C254.967 490.544 250.65 480.438 242.728 472.092Z"/>
</mask>
<path fill-rule="evenodd" clip-rule="evenodd" d="M242.728 472.092C243.514 449.219 224.238 429.351 198.787 427.274C174.558 425.297 153.238 440.14 148.717 461.153C137.131 468.318 129.511 478.744 128.524 490.838C126.622 514.152 150.051 535.343 181.802 540.06L180.139 560.443L175.108 565.201L195.467 566.862L191.528 561.685L193.214 541.013C225.462 541.632 252.198 524.48 254.107 501.083C254.967 490.544 250.65 480.438 242.728 472.092Z" fill="#F1C8D0"/>
<path d="M242.728 472.092L241.728 472.058L241.714 472.477L242.002 472.78L242.728 472.092ZM148.717 461.153L149.243 462.004L149.605 461.78L149.695 461.364L148.717 461.153ZM181.802 540.06L182.798 540.141L182.875 539.208L181.949 539.071L181.802 540.06ZM180.139 560.443L180.826 561.169L181.104 560.906L181.135 560.524L180.139 560.443ZM175.108 565.201L174.421 564.474L172.792 566.015L175.027 566.198L175.108 565.201ZM195.467 566.862L195.385 567.859L197.62 568.041L196.263 566.256L195.467 566.862ZM191.528 561.685L190.531 561.604L190.5 561.985L190.732 562.29L191.528 561.685ZM193.214 541.013L193.233 540.013L192.294 539.995L192.218 540.932L193.214 541.013ZM243.727 472.126C244.534 448.636 224.764 428.39 198.869 426.278L198.706 428.271C223.712 430.311 242.493 449.802 241.728 472.058L243.727 472.126ZM198.869 426.278C174.211 424.266 152.38 439.371 147.74 460.943L149.695 461.364C154.095 440.908 174.905 426.329 198.706 428.271L198.869 426.278ZM129.521 490.919C130.475 479.222 137.851 469.049 149.243 462.004L148.191 460.303C136.412 467.587 128.546 478.265 127.527 490.756L129.521 490.919ZM181.949 539.071C166.245 536.738 152.642 530.336 143.219 521.686C133.797 513.037 128.601 502.194 129.521 490.919L127.527 490.756C126.545 502.795 132.112 514.205 141.867 523.159C151.621 532.113 165.608 538.665 181.655 541.049L181.949 539.071ZM181.135 560.524L182.798 540.141L180.805 539.979L179.142 560.361L181.135 560.524ZM175.795 565.927L180.826 561.169L179.452 559.716L174.421 564.474L175.795 565.927ZM195.548 565.865L175.189 564.204L175.027 566.198L195.385 567.859L195.548 565.865ZM190.732 562.29L194.671 567.467L196.263 566.256L192.324 561.079L190.732 562.29ZM192.218 540.932L190.531 561.604L192.524 561.766L194.211 541.094L192.218 540.932ZM253.11 501.002C252.187 512.317 245.256 522.204 234.492 529.216C223.727 536.228 209.184 540.319 193.233 540.013L193.195 542.013C209.493 542.325 224.441 538.15 235.584 530.892C246.726 523.633 254.118 513.246 255.103 501.164L253.11 501.002ZM242.002 472.78C249.774 480.968 253.942 490.805 253.11 501.002L255.103 501.164C255.991 490.282 251.526 479.908 243.453 471.404L242.002 472.78Z" fill="black" mask="url(#path-22-inside-10_0_1)"/>
<mask id="path-24-inside-11_0_1" fill="white">
<path fill-rule="evenodd" clip-rule="evenodd" d="M911.447 668.778C909.707 646.351 888.358 629.054 862.834 629.81C838.534 630.529 818.981 647.358 816.806 668.377C806.08 676.642 799.656 687.659 800.009 699.579C800.69 722.558 826.312 740.693 858.389 741.828L858.984 761.918L854.509 767.116L874.926 766.511L870.44 761.885L869.837 741.51C901.956 738.587 926.637 718.91 925.954 695.85C925.646 685.461 920.241 676.063 911.447 668.778Z"/>
</mask>
<path fill-rule="evenodd" clip-rule="evenodd" d="M911.447 668.778C909.707 646.351 888.358 629.054 862.834 629.81C838.534 630.529 818.981 647.358 816.806 668.377C806.08 676.642 799.656 687.659 800.009 699.579C800.69 722.558 826.312 740.693 858.389 741.828L858.984 761.918L854.509 767.116L874.926 766.511L870.44 761.885L869.837 741.51C901.956 738.587 926.637 718.91 925.954 695.85C925.646 685.461 920.241 676.063 911.447 668.778Z" fill="#F1C8D0"/>
<path d="M911.447 668.778L910.45 668.855L910.483 669.278L910.809 669.548L911.447 668.778ZM816.806 668.377L817.416 669.169L817.756 668.907L817.8 668.48L816.806 668.377ZM858.389 741.828L859.388 741.798L859.361 740.861L858.424 740.828L858.389 741.828ZM858.984 761.918L859.742 762.57L859.995 762.276L859.983 761.888L858.984 761.918ZM854.509 767.116L853.751 766.463L852.27 768.182L854.538 768.115L854.509 767.116ZM874.926 766.511L874.955 767.51L877.223 767.443L875.644 765.815L874.926 766.511ZM870.44 761.885L869.441 761.915L869.452 762.303L869.722 762.582L870.44 761.885ZM869.837 741.51L869.746 740.514L868.809 740.6L868.837 741.54L869.837 741.51ZM912.444 668.701C910.655 645.645 888.758 628.042 862.804 628.81L862.863 630.809C887.957 630.066 908.758 647.058 910.45 668.855L912.444 668.701ZM862.804 628.81C838.09 629.542 818.046 646.676 815.811 668.274L817.8 668.48C819.916 648.041 838.979 631.516 862.863 630.809L862.804 628.81ZM801.009 699.549C800.668 688.035 806.869 677.297 817.416 669.169L816.195 667.585C805.292 675.987 798.645 687.283 799.01 699.608L801.009 699.549ZM858.424 740.828C842.556 740.267 828.328 735.501 818.009 728.083C807.69 720.665 801.337 710.649 801.009 699.549L799.01 699.608C799.361 711.488 806.16 722.029 816.842 729.707C827.523 737.385 842.145 742.254 858.354 742.827L858.424 740.828ZM859.983 761.888L859.388 741.798L857.389 741.857L857.984 761.947L859.983 761.888ZM855.266 767.768L859.742 762.57L858.226 761.265L853.751 766.463L855.266 767.768ZM874.896 765.511L854.479 766.116L854.538 768.115L874.955 767.51L874.896 765.511ZM869.722 762.582L874.208 767.207L875.644 765.815L871.158 761.189L869.722 762.582ZM868.837 741.54L869.441 761.915L871.44 761.856L870.836 741.481L868.837 741.54ZM924.954 695.879C925.284 707.018 919.493 717.427 909.567 725.454C899.641 733.48 885.636 739.068 869.746 740.514L869.927 742.506C886.157 741.029 900.551 735.317 910.825 727.009C921.098 718.701 927.306 707.742 926.953 695.82L924.954 695.879ZM910.809 669.548C919.436 676.694 924.657 685.841 924.954 695.879L926.953 695.82C926.635 685.081 921.047 675.432 912.085 668.008L910.809 669.548Z" fill="black" mask="url(#path-24-inside-11_0_1)"/>
<mask id="path-26-inside-12_0_1" fill="white">
<path fill-rule="evenodd" clip-rule="evenodd" d="M1563.79 339.388C1564.54 316.907 1545.24 297.351 1519.79 295.274C1495.56 293.297 1474.26 307.857 1469.77 328.505C1458.2 335.532 1450.59 345.768 1449.62 357.654C1447.75 380.568 1471.21 401.43 1502.96 406.11L1501.33 426.143L1496.3 430.813L1516.66 432.474L1512.72 427.38L1514.37 407.063C1546.62 407.716 1573.33 390.894 1575.2 367.9C1576.05 357.542 1571.72 347.603 1563.79 339.388Z"/>
</mask>
<path fill-rule="evenodd" clip-rule="evenodd" d="M1563.79 339.388C1564.54 316.907 1545.24 297.351 1519.79 295.274C1495.56 293.297 1474.26 307.857 1469.77 328.505C1458.2 335.532 1450.59 345.768 1449.62 357.654C1447.75 380.568 1471.21 401.43 1502.96 406.11L1501.33 426.143L1496.3 430.813L1516.66 432.474L1512.72 427.38L1514.37 407.063C1546.62 407.716 1573.33 390.894 1575.2 367.9C1576.05 357.542 1571.72 347.603 1563.79 339.388Z" fill="#F1C8D0"/>
<path d="M1563.79 339.388L1562.79 339.355L1562.77 339.778L1563.07 340.083L1563.79 339.388ZM1469.77 328.505L1470.29 329.36L1470.66 329.137L1470.75 328.718L1469.77 328.505ZM1502.96 406.11L1503.96 406.192L1504.03 405.258L1503.11 405.121L1502.96 406.11ZM1501.33 426.143L1502.01 426.875L1502.29 426.611L1502.32 426.224L1501.33 426.143ZM1496.3 430.813L1495.62 430.08L1493.96 431.625L1496.22 431.809L1496.3 430.813ZM1516.66 432.474L1516.58 433.47L1518.84 433.655L1517.45 431.861L1516.66 432.474ZM1512.72 427.38L1511.72 427.298L1511.69 427.685L1511.93 427.992L1512.72 427.38ZM1514.37 407.063L1514.39 406.063L1513.45 406.044L1513.38 406.982L1514.37 407.063ZM1564.78 339.422C1565.56 316.309 1545.75 296.389 1519.87 294.278L1519.71 296.271C1544.73 298.312 1563.52 317.504 1562.79 339.355L1564.78 339.422ZM1519.87 294.278C1495.23 292.267 1473.41 307.075 1468.79 328.293L1470.75 328.718C1475.11 308.638 1495.89 294.328 1519.71 296.271L1519.87 294.278ZM1450.62 357.736C1451.55 346.254 1458.91 336.27 1470.29 329.36L1469.25 327.65C1457.48 334.793 1449.63 345.283 1448.62 357.573L1450.62 357.736ZM1503.11 405.121C1487.4 402.805 1473.79 396.492 1464.35 387.977C1454.92 379.462 1449.71 368.803 1450.62 357.736L1448.62 357.573C1447.66 369.419 1453.25 380.648 1463.01 389.462C1472.78 398.276 1486.77 404.735 1502.81 407.1L1503.11 405.121ZM1502.32 426.224L1503.96 406.192L1501.96 406.029L1500.33 426.061L1502.32 426.224ZM1496.98 431.545L1502.01 426.875L1500.65 425.41L1495.62 430.08L1496.98 431.545ZM1516.74 431.477L1496.38 429.816L1496.22 431.809L1516.58 433.47L1516.74 431.477ZM1511.93 427.992L1515.87 433.086L1517.45 431.861L1513.51 426.767L1511.93 427.992ZM1513.38 406.982L1511.72 427.298L1513.71 427.461L1515.37 407.144L1513.38 406.982ZM1574.21 367.819C1573.3 378.925 1566.39 388.629 1555.64 395.507C1544.88 402.384 1530.35 406.386 1514.39 406.063L1514.35 408.063C1530.65 408.393 1545.58 404.31 1556.72 397.192C1567.85 390.073 1575.23 379.869 1576.2 367.981L1574.21 367.819ZM1563.07 340.083C1570.85 348.141 1575.02 357.81 1574.21 367.819L1576.2 367.981C1577.07 357.274 1572.59 347.064 1564.5 338.693L1563.07 340.083Z" fill="black" mask="url(#path-26-inside-12_0_1)"/>
<mask id="path-28-inside-13_0_1" fill="white">
<path fill-rule="evenodd" clip-rule="evenodd" d="M1280.09 543C1280.14 560.815 1252.03 575.595 1215.63 577.884L1215.69 600.798L1222.72 609.399L1189.81 609.484L1197.24 600.291L1197.18 577.959C1160.55 575.953 1132.14 561.273 1132.09 543.384C1132.04 524.054 1165.13 508.298 1206 508.192C1246.87 508.086 1280.04 523.67 1280.09 543Z"/>
</mask>
<path fill-rule="evenodd" clip-rule="evenodd" d="M1280.09 543C1280.14 560.815 1252.03 575.595 1215.63 577.884L1215.69 600.798L1222.72 609.399L1189.81 609.484L1197.24 600.291L1197.18 577.959C1160.55 575.953 1132.14 561.273 1132.09 543.384C1132.04 524.054 1165.13 508.298 1206 508.192C1246.87 508.086 1280.04 523.67 1280.09 543Z" fill="#C8E6C1"/>
<path d="M1215.63 577.884L1215.57 576.886L1214.63 576.945L1214.63 577.887L1215.63 577.884ZM1215.69 600.798L1214.69 600.801L1214.69 601.156L1214.92 601.431L1215.69 600.798ZM1222.72 609.399L1222.72 610.399L1224.82 610.393L1223.49 608.766L1222.72 609.399ZM1189.81 609.484L1189.03 608.856L1187.71 610.49L1189.81 610.484L1189.81 609.484ZM1197.24 600.291L1198.02 600.92L1198.24 600.643L1198.24 600.288L1197.24 600.291ZM1197.18 577.959L1198.18 577.956L1198.18 577.012L1197.24 576.96L1197.18 577.959ZM1215.69 578.882C1234 577.731 1250.27 573.438 1262 567.146C1273.67 560.882 1281.11 552.472 1281.09 542.997L1279.09 543.002C1279.11 551.343 1272.52 559.23 1261.06 565.383C1249.64 571.507 1233.66 575.748 1215.57 576.886L1215.69 578.882ZM1216.69 600.795L1216.63 577.882L1214.63 577.887L1214.69 600.801L1216.69 600.795ZM1214.92 601.431L1221.94 610.031L1223.49 608.766L1216.47 600.165L1214.92 601.431ZM1222.71 608.399L1189.81 608.484L1189.81 610.484L1222.72 610.399L1222.71 608.399ZM1190.59 610.113L1198.02 600.92L1196.46 599.662L1189.03 608.856L1190.59 610.113ZM1196.18 577.961L1196.24 600.294L1198.24 600.288L1198.18 577.956L1196.18 577.961ZM1131.09 543.386C1131.12 552.9 1138.66 561.302 1150.45 567.512C1162.3 573.752 1178.71 577.949 1197.13 578.957L1197.24 576.96C1179.03 575.963 1162.91 571.817 1151.38 565.743C1139.8 559.64 1133.11 551.756 1133.09 543.381L1131.09 543.386ZM1206 507.192C1185.45 507.245 1166.81 511.231 1153.27 517.676C1139.81 524.085 1131.06 533.109 1131.09 543.386L1133.09 543.381C1133.07 534.328 1140.84 525.81 1154.13 519.482C1167.34 513.19 1185.68 509.245 1206 509.192L1206 507.192ZM1281.09 542.997C1281.06 532.72 1272.27 523.741 1258.78 517.402C1245.21 511.028 1226.55 507.139 1206 507.192L1206 509.192C1226.32 509.139 1244.68 512.989 1257.93 519.212C1271.25 525.472 1279.07 533.95 1279.09 543.002L1281.09 542.997Z" fill="black" mask="url(#path-28-inside-13_0_1)"/>
<path d="M1159.25 597.855C1043.57 578.661 913.878 701.275 863.494 764.981H1517.18C1532.88 663.216 1554.87 453.73 1517.18 429.902C1470.06 400.118 1303.86 621.849 1159.25 597.855Z" fill="#C0D6BB" stroke="black"/>
<path d="M-68 597.942C-8.9639 568.555 146.759 527.414 297.363 597.942C412.64 651.926 533.026 735.432 630.651 781.878C742.412 786.999 809.711 795.401 781.624 808.637C745.135 825.832 692.454 811.281 630.651 781.878C442.774 773.268 129.249 773.928 -68 776.478V597.942Z" fill="#C0D6BB" stroke="black"/>
<path fill-rule="evenodd" clip-rule="evenodd" d="M132.159 705.338L132.157 705.335C131.985 705.136 131.756 704.994 131.5 704.929C131.245 704.864 130.976 704.878 130.729 704.97C130.483 705.062 130.27 705.227 130.12 705.444C129.969 705.66 129.889 705.917 129.889 706.18V717.471C129.356 716.36 128.699 715.313 127.929 714.351C127.116 713.357 126.353 712.74 125.756 712.362C125.459 712.174 125.206 712.048 125.015 711.962C124.909 711.913 124.8 711.872 124.688 711.84L124.657 711.829L124.643 711.826L124.638 711.824L124.634 711.822H124.631C124.439 711.77 124.238 711.763 124.043 711.801C123.848 711.839 123.665 711.922 123.507 712.043C123.349 712.163 123.222 712.319 123.134 712.497C123.046 712.675 123 712.871 123 713.069V729H125.583V715.587C125.703 715.717 125.817 715.85 125.928 715.987C127.211 717.552 128.862 720.561 129.911 726.222C129.971 726.538 130.146 726.82 130.403 727.014C130.659 727.207 130.979 727.298 131.299 727.269C131.619 727.239 131.917 727.091 132.134 726.854C132.351 726.617 132.471 726.307 132.472 725.986V710.124C132.674 710.434 132.881 710.762 133.092 711.106C134.665 713.672 136.416 717.191 137.236 721.086C137.297 721.376 137.456 721.637 137.686 721.824C137.916 722.011 138.204 722.113 138.5 722.113C138.796 722.113 139.084 722.011 139.314 721.824C139.544 721.637 139.703 721.376 139.764 721.086C140.584 717.191 142.335 713.672 143.908 711.106C144.11 710.776 144.316 710.449 144.528 710.124V725.986C144.526 726.309 144.646 726.621 144.863 726.86C145.08 727.099 145.379 727.249 145.701 727.278C146.023 727.308 146.344 727.216 146.601 727.02C146.858 726.825 147.033 726.54 147.09 726.222C148.138 720.563 149.789 717.552 151.072 715.987C151.189 715.842 151.304 715.709 151.417 715.587V729H154V713.069C154 712.871 153.954 712.675 153.866 712.497C153.778 712.319 153.65 712.164 153.492 712.044C153.334 711.923 153.151 711.841 152.956 711.803C152.761 711.765 152.561 711.772 152.369 711.824H152.366L152.362 711.826H152.357L152.343 711.829L152.312 711.84C152.202 711.875 152.093 711.916 151.987 711.962C151.794 712.046 151.541 712.172 151.243 712.362C150.647 712.74 149.884 713.357 149.071 714.351C148.3 715.312 147.642 716.359 147.111 717.471V706.18C147.111 705.917 147.03 705.66 146.879 705.444C146.729 705.228 146.516 705.063 146.269 704.971C146.022 704.879 145.754 704.865 145.498 704.93C145.243 704.995 145.014 705.136 144.841 705.335V705.338L144.836 705.343L144.821 705.361L144.767 705.424C144.465 705.79 144.171 706.162 143.885 706.54C143.314 707.302 142.537 708.397 141.703 709.758C140.433 711.818 139.361 713.993 138.5 716.255C137.639 713.993 136.567 711.818 135.297 709.758C134.463 708.399 133.686 707.302 133.115 706.54C132.829 706.16 132.593 705.864 132.427 705.66L132.233 705.424L132.179 705.361L132.164 705.343L132.159 705.338Z" fill="#81916E"/>
<path fill-rule="evenodd" clip-rule="evenodd" d="M270.159 662.45L270.157 662.446C269.985 662.247 269.756 662.105 269.5 662.04C269.245 661.975 268.976 661.989 268.729 662.081C268.483 662.173 268.27 662.339 268.12 662.555C267.969 662.771 267.889 663.028 267.889 663.292V674.583C267.356 673.471 266.699 672.424 265.929 671.462C265.116 670.468 264.353 669.852 263.756 669.473C263.459 669.285 263.206 669.159 263.015 669.073C262.909 669.025 262.8 668.984 262.688 668.951L262.657 668.941L262.643 668.937L262.638 668.936L262.634 668.934H262.631C262.439 668.882 262.238 668.874 262.043 668.913C261.848 668.951 261.665 669.033 261.507 669.154C261.349 669.275 261.222 669.43 261.134 669.608C261.046 669.786 261 669.982 261 670.181V686.111H263.583V672.699C263.703 672.828 263.817 672.961 263.928 673.098C265.211 674.664 266.862 677.672 267.911 683.333C267.971 683.649 268.146 683.931 268.403 684.125C268.659 684.319 268.979 684.41 269.299 684.38C269.619 684.351 269.917 684.203 270.134 683.966C270.351 683.728 270.471 683.419 270.472 683.097V667.236C270.674 667.546 270.881 667.873 271.092 668.217C272.665 670.783 274.416 674.302 275.236 678.198C275.297 678.488 275.456 678.748 275.686 678.935C275.916 679.122 276.204 679.224 276.5 679.224C276.796 679.224 277.084 679.122 277.314 678.935C277.544 678.748 277.703 678.488 277.764 678.198C278.584 674.302 280.335 670.783 281.908 668.217C282.11 667.887 282.316 667.56 282.528 667.236V683.097C282.526 683.42 282.646 683.732 282.863 683.972C283.08 684.211 283.379 684.36 283.701 684.389C284.023 684.419 284.344 684.327 284.601 684.132C284.858 683.936 285.033 683.651 285.09 683.333C286.138 677.674 287.789 674.664 289.072 673.098C289.189 672.953 289.304 672.82 289.417 672.699V686.111H292V670.181C292 669.982 291.954 669.786 291.866 669.609C291.778 669.431 291.65 669.276 291.492 669.155C291.334 669.035 291.151 668.952 290.956 668.914C290.761 668.876 290.561 668.883 290.369 668.936H290.366L290.362 668.937H290.357L290.343 668.941L290.312 668.951C290.202 668.986 290.093 669.027 289.987 669.073C289.794 669.158 289.541 669.283 289.243 669.473C288.647 669.852 287.884 670.468 287.071 671.462C286.3 672.423 285.642 673.471 285.111 674.583V663.292C285.111 663.028 285.03 662.772 284.879 662.555C284.729 662.339 284.516 662.174 284.269 662.082C284.022 661.99 283.754 661.976 283.498 662.041C283.243 662.106 283.014 662.247 282.841 662.446V662.45L282.836 662.455L282.821 662.472L282.767 662.536C282.465 662.901 282.171 663.273 281.885 663.652C281.314 664.413 280.537 665.508 279.703 666.869C278.433 668.929 277.361 671.105 276.5 673.367C275.639 671.105 274.567 668.929 273.297 666.869C272.463 665.51 271.686 664.413 271.115 663.652C270.829 663.271 270.593 662.975 270.427 662.772L270.233 662.536L270.179 662.472L270.164 662.455L270.159 662.45Z" fill="#81916E"/>
<path fill-rule="evenodd" clip-rule="evenodd" d="M1376.16 696.45L1376.16 696.446C1375.98 696.247 1375.76 696.105 1375.5 696.04C1375.25 695.975 1374.98 695.989 1374.73 696.081C1374.48 696.173 1374.27 696.339 1374.12 696.555C1373.97 696.771 1373.89 697.028 1373.89 697.292V708.583C1373.36 707.471 1372.7 706.424 1371.93 705.462C1371.12 704.468 1370.35 703.852 1369.76 703.473C1369.46 703.285 1369.21 703.159 1369.02 703.073C1368.91 703.025 1368.8 702.984 1368.69 702.951L1368.66 702.941L1368.64 702.937L1368.64 702.936L1368.63 702.934H1368.63C1368.44 702.882 1368.24 702.874 1368.04 702.913C1367.85 702.951 1367.66 703.033 1367.51 703.154C1367.35 703.275 1367.22 703.43 1367.13 703.608C1367.05 703.786 1367 703.982 1367 704.181V720.111H1369.58V706.699C1369.7 706.828 1369.82 706.961 1369.93 707.098C1371.21 708.664 1372.86 711.672 1373.91 717.333C1373.97 717.649 1374.15 717.931 1374.4 718.125C1374.66 718.319 1374.98 718.41 1375.3 718.38C1375.62 718.351 1375.92 718.203 1376.13 717.966C1376.35 717.728 1376.47 717.419 1376.47 717.097V701.236C1376.67 701.546 1376.88 701.873 1377.09 702.217C1378.66 704.783 1380.42 708.302 1381.24 712.198C1381.3 712.488 1381.46 712.748 1381.69 712.935C1381.92 713.122 1382.2 713.224 1382.5 713.224C1382.8 713.224 1383.08 713.122 1383.31 712.935C1383.54 712.748 1383.7 712.488 1383.76 712.198C1384.58 708.302 1386.34 704.783 1387.91 702.217C1388.11 701.887 1388.32 701.56 1388.53 701.236V717.097C1388.53 717.42 1388.65 717.732 1388.86 717.972C1389.08 718.211 1389.38 718.36 1389.7 718.389C1390.02 718.419 1390.34 718.327 1390.6 718.132C1390.86 717.936 1391.03 717.651 1391.09 717.333C1392.14 711.674 1393.79 708.664 1395.07 707.098C1395.19 706.953 1395.3 706.82 1395.42 706.699V720.111H1398V704.181C1398 703.982 1397.95 703.786 1397.87 703.609C1397.78 703.431 1397.65 703.276 1397.49 703.155C1397.33 703.035 1397.15 702.952 1396.96 702.914C1396.76 702.876 1396.56 702.883 1396.37 702.936H1396.37L1396.36 702.937H1396.36L1396.34 702.941L1396.31 702.951C1396.2 702.986 1396.09 703.027 1395.99 703.073C1395.79 703.158 1395.54 703.283 1395.24 703.473C1394.65 703.852 1393.88 704.468 1393.07 705.462C1392.3 706.423 1391.64 707.471 1391.11 708.583V697.292C1391.11 697.028 1391.03 696.772 1390.88 696.555C1390.73 696.339 1390.52 696.174 1390.27 696.082C1390.02 695.99 1389.75 695.976 1389.5 696.041C1389.24 696.106 1389.01 696.247 1388.84 696.446V696.45L1388.84 696.455L1388.82 696.472L1388.77 696.536C1388.46 696.901 1388.17 697.273 1387.89 697.652C1387.31 698.413 1386.54 699.508 1385.7 700.869C1384.43 702.929 1383.36 705.105 1382.5 707.367C1381.64 705.105 1380.57 702.929 1379.3 700.869C1378.46 699.51 1377.69 698.413 1377.11 697.652C1376.83 697.271 1376.59 696.975 1376.43 696.772L1376.23 696.536L1376.18 696.472L1376.16 696.455L1376.16 696.45Z" fill="#81916E"/>
<path fill-rule="evenodd" clip-rule="evenodd" d="M1438.16 623.45L1438.16 623.446C1437.98 623.247 1437.76 623.105 1437.5 623.04C1437.25 622.975 1436.98 622.989 1436.73 623.081C1436.48 623.173 1436.27 623.339 1436.12 623.555C1435.97 623.771 1435.89 624.028 1435.89 624.292V635.583C1435.36 634.471 1434.7 633.424 1433.93 632.462C1433.12 631.468 1432.35 630.852 1431.76 630.473C1431.46 630.285 1431.21 630.159 1431.02 630.073C1430.91 630.025 1430.8 629.984 1430.69 629.951L1430.66 629.941L1430.64 629.937L1430.64 629.936L1430.63 629.934H1430.63C1430.44 629.882 1430.24 629.874 1430.04 629.913C1429.85 629.951 1429.66 630.033 1429.51 630.154C1429.35 630.275 1429.22 630.43 1429.13 630.608C1429.05 630.786 1429 630.982 1429 631.181V647.111H1431.58V633.699C1431.7 633.828 1431.82 633.961 1431.93 634.098C1433.21 635.664 1434.86 638.672 1435.91 644.333C1435.97 644.649 1436.15 644.931 1436.4 645.125C1436.66 645.319 1436.98 645.41 1437.3 645.38C1437.62 645.351 1437.92 645.203 1438.13 644.966C1438.35 644.728 1438.47 644.419 1438.47 644.097V628.236C1438.67 628.546 1438.88 628.873 1439.09 629.217C1440.66 631.783 1442.42 635.302 1443.24 639.198C1443.3 639.488 1443.46 639.748 1443.69 639.935C1443.92 640.122 1444.2 640.224 1444.5 640.224C1444.8 640.224 1445.08 640.122 1445.31 639.935C1445.54 639.748 1445.7 639.488 1445.76 639.198C1446.58 635.302 1448.34 631.783 1449.91 629.217C1450.11 628.887 1450.32 628.56 1450.53 628.236V644.097C1450.53 644.42 1450.65 644.732 1450.86 644.972C1451.08 645.211 1451.38 645.36 1451.7 645.389C1452.02 645.419 1452.34 645.327 1452.6 645.132C1452.86 644.936 1453.03 644.651 1453.09 644.333C1454.14 638.674 1455.79 635.664 1457.07 634.098C1457.19 633.953 1457.3 633.82 1457.42 633.699V647.111H1460V631.181C1460 630.982 1459.95 630.786 1459.87 630.609C1459.78 630.431 1459.65 630.276 1459.49 630.155C1459.33 630.035 1459.15 629.952 1458.96 629.914C1458.76 629.876 1458.56 629.883 1458.37 629.936H1458.37L1458.36 629.937H1458.36L1458.34 629.941L1458.31 629.951C1458.2 629.986 1458.09 630.027 1457.99 630.073C1457.79 630.158 1457.54 630.283 1457.24 630.473C1456.65 630.852 1455.88 631.468 1455.07 632.462C1454.3 633.423 1453.64 634.471 1453.11 635.583V624.292C1453.11 624.028 1453.03 623.772 1452.88 623.555C1452.73 623.339 1452.52 623.174 1452.27 623.082C1452.02 622.99 1451.75 622.976 1451.5 623.041C1451.24 623.106 1451.01 623.247 1450.84 623.446V623.45L1450.84 623.455L1450.82 623.472L1450.77 623.536C1450.46 623.901 1450.17 624.273 1449.89 624.652C1449.31 625.413 1448.54 626.508 1447.7 627.869C1446.43 629.929 1445.36 632.105 1444.5 634.367C1443.64 632.105 1442.57 629.929 1441.3 627.869C1440.46 626.51 1439.69 625.413 1439.11 624.652C1438.83 624.271 1438.59 623.975 1438.43 623.772L1438.23 623.536L1438.18 623.472L1438.16 623.455L1438.16 623.45Z" fill="#81916E"/>
<path fill-rule="evenodd" clip-rule="evenodd" d="M1063.74 675.996L1063.74 675.993C1063.6 675.825 1063.4 675.705 1063.19 675.65C1062.97 675.595 1062.74 675.607 1062.53 675.685C1062.33 675.763 1062.15 675.902 1062.02 676.085C1061.89 676.268 1061.82 676.486 1061.82 676.708V686.254C1061.37 685.314 1060.82 684.429 1060.17 683.615C1059.48 682.775 1058.83 682.254 1058.33 681.934C1058.08 681.775 1057.87 681.669 1057.7 681.596C1057.61 681.555 1057.52 681.52 1057.43 681.493L1057.4 681.484L1057.39 681.481L1057.38 681.48L1057.38 681.478H1057.38C1057.22 681.434 1057.05 681.428 1056.88 681.46C1056.72 681.492 1056.56 681.562 1056.43 681.664C1056.3 681.766 1056.19 681.898 1056.11 682.048C1056.04 682.199 1056 682.364 1056 682.532V696H1058.18V684.661C1058.28 684.77 1058.38 684.883 1058.48 684.999C1059.56 686.322 1060.96 688.866 1061.84 693.651C1061.89 693.918 1062.04 694.157 1062.26 694.321C1062.48 694.484 1062.75 694.561 1063.02 694.536C1063.29 694.511 1063.54 694.386 1063.72 694.186C1063.91 693.985 1064.01 693.724 1064.01 693.452V680.042C1064.18 680.305 1064.35 680.581 1064.53 680.872C1065.86 683.042 1067.34 686.016 1068.04 689.31C1068.09 689.555 1068.22 689.775 1068.42 689.933C1068.61 690.091 1068.85 690.177 1069.1 690.177C1069.35 690.177 1069.6 690.091 1069.79 689.933C1069.99 689.775 1070.12 689.555 1070.17 689.31C1070.87 686.016 1072.35 683.042 1073.68 680.872C1073.85 680.593 1074.02 680.317 1074.2 680.042V693.452C1074.2 693.725 1074.3 693.989 1074.48 694.191C1074.67 694.393 1074.92 694.519 1075.19 694.544C1075.46 694.569 1075.73 694.492 1075.95 694.326C1076.17 694.161 1076.32 693.92 1076.37 693.651C1077.25 688.867 1078.65 686.322 1079.73 684.999C1079.83 684.876 1079.93 684.764 1080.02 684.661V696H1082.21V682.532C1082.21 682.364 1082.17 682.199 1082.09 682.049C1082.02 681.898 1081.91 681.767 1081.78 681.665C1081.64 681.563 1081.49 681.494 1081.33 681.461C1081.16 681.429 1080.99 681.435 1080.83 681.48H1080.83L1080.82 681.481H1080.82L1080.81 681.484L1080.78 681.493C1080.69 681.522 1080.6 681.557 1080.51 681.596C1080.34 681.667 1080.13 681.774 1079.88 681.934C1079.37 682.254 1078.73 682.775 1078.04 683.615C1077.39 684.428 1076.83 685.313 1076.38 686.254V676.708C1076.38 676.486 1076.31 676.268 1076.19 676.086C1076.06 675.903 1075.88 675.763 1075.67 675.686C1075.46 675.608 1075.24 675.596 1075.02 675.651C1074.8 675.706 1074.61 675.825 1074.46 675.993V675.996L1074.46 676.001L1074.45 676.015L1074.4 676.069C1074.15 676.378 1073.9 676.692 1073.66 677.013C1073.17 677.656 1072.52 678.582 1071.81 679.732C1070.74 681.474 1069.83 683.313 1069.1 685.226C1068.38 683.313 1067.47 681.474 1066.4 679.732C1065.69 678.584 1065.03 677.656 1064.55 677.013C1064.31 676.691 1064.11 676.44 1063.97 676.269L1063.81 676.069L1063.76 676.015L1063.75 676.001L1063.74 675.996Z" fill="#81916E"/>
<path fill-rule="evenodd" clip-rule="evenodd" d="M1106.6 648.515L1106.6 648.511C1106.4 648.283 1106.14 648.121 1105.85 648.046C1105.55 647.971 1105.25 647.988 1104.96 648.093C1104.68 648.199 1104.44 648.388 1104.26 648.636C1104.09 648.883 1104 649.178 1104 649.48V662.412C1103.39 661.139 1102.64 659.94 1101.76 658.838C1100.82 657.699 1099.95 656.993 1099.27 656.559C1098.93 656.344 1098.64 656.2 1098.42 656.102C1098.3 656.046 1098.17 655.999 1098.04 655.962L1098.01 655.95L1097.99 655.946L1097.99 655.944L1097.98 655.942H1097.98C1097.76 655.882 1097.53 655.874 1097.3 655.917C1097.08 655.961 1096.87 656.056 1096.69 656.194C1096.51 656.332 1096.36 656.51 1096.26 656.714C1096.16 656.918 1096.11 657.143 1096.11 657.37V675.616H1099.07V660.254C1099.21 660.402 1099.34 660.555 1099.46 660.712C1100.93 662.505 1102.82 665.951 1104.03 672.435C1104.09 672.797 1104.29 673.12 1104.59 673.342C1104.88 673.563 1105.25 673.668 1105.62 673.634C1105.98 673.6 1106.32 673.431 1106.57 673.159C1106.82 672.887 1106.96 672.533 1106.96 672.165V653.997C1107.19 654.352 1107.43 654.727 1107.67 655.121C1109.47 658.06 1111.48 662.09 1112.42 666.552C1112.48 666.885 1112.67 667.183 1112.93 667.397C1113.19 667.611 1113.52 667.728 1113.86 667.728C1114.2 667.728 1114.53 667.611 1114.8 667.397C1115.06 667.183 1115.24 666.885 1115.31 666.552C1116.25 662.09 1118.26 658.06 1120.06 655.121C1120.29 654.743 1120.52 654.368 1120.77 653.997V672.165C1120.77 672.535 1120.9 672.892 1121.15 673.166C1121.4 673.44 1121.74 673.611 1122.11 673.644C1122.48 673.678 1122.85 673.573 1123.14 673.349C1123.44 673.125 1123.64 672.799 1123.7 672.435C1124.9 665.953 1126.79 662.505 1128.26 660.712C1128.4 660.546 1128.53 660.393 1128.66 660.254V675.616H1131.62V657.37C1131.62 657.143 1131.56 656.918 1131.46 656.715C1131.36 656.511 1131.22 656.333 1131.03 656.195C1130.85 656.057 1130.64 655.963 1130.42 655.919C1130.2 655.876 1129.97 655.884 1129.75 655.944H1129.74L1129.74 655.946H1129.73L1129.72 655.95L1129.68 655.962C1129.56 656.002 1129.43 656.049 1129.31 656.102C1129.09 656.198 1128.8 656.342 1128.46 656.559C1127.78 656.993 1126.9 657.699 1125.97 658.838C1125.09 659.939 1124.33 661.138 1123.73 662.412V649.48C1123.73 649.178 1123.63 648.884 1123.46 648.636C1123.29 648.389 1123.04 648.2 1122.76 648.094C1122.48 647.989 1122.17 647.972 1121.88 648.047C1121.59 648.121 1121.32 648.283 1121.13 648.511V648.515L1121.12 648.521L1121.1 648.541L1121.04 648.614C1120.69 649.032 1120.36 649.458 1120.03 649.892C1119.38 650.764 1118.49 652.018 1117.53 653.577C1116.08 655.936 1114.85 658.428 1113.86 661.019C1112.88 658.428 1111.65 655.936 1110.19 653.577C1109.24 652.02 1108.35 650.764 1107.69 649.892C1107.37 649.456 1107.1 649.117 1106.91 648.884L1106.68 648.614L1106.62 648.541L1106.61 648.521L1106.6 648.515Z" fill="#81916E"/>
</svg>
