<svg width="1512" height="764" viewBox="0 0 1512 764" fill="none" xmlns="http://www.w3.org/2000/svg">
<path d="M423.674 382.788C423.68 382.815 423.692 382.858 423.72 382.919C423.799 383.093 423.962 383.333 424.234 383.642C424.773 384.256 425.658 385.05 426.874 386.006C429.3 387.914 432.968 390.409 437.611 393.322C446.895 399.146 460.033 406.613 474.825 414.338C489.616 422.064 503.25 428.58 513.334 432.872C518.378 435.018 522.521 436.603 525.473 437.504C526.952 437.956 528.11 438.229 528.922 438.321C529.331 438.367 529.621 438.363 529.808 438.329C529.874 438.316 529.916 438.302 529.941 438.291C529.935 438.264 529.924 438.222 529.896 438.161C529.817 437.987 529.655 437.747 529.383 437.438C528.844 436.824 527.959 436.03 526.742 435.073C524.316 433.166 520.648 430.671 516.005 427.758C506.722 421.934 493.584 414.467 478.792 406.742C464.001 399.016 450.366 392.499 440.282 388.208C435.239 386.062 431.095 384.477 428.144 383.576C426.664 383.124 425.507 382.851 424.695 382.76C424.286 382.713 423.996 382.717 423.808 382.751C423.741 382.763 423.7 382.778 423.674 382.788Z" fill="#FFFED8" stroke="#F3FF73"/>
<g filter="url(#filter0_d_0_1)">
<ellipse cx="794.5" cy="473.807" rx="210.5" ry="162.5" fill="#FCF7AF"/>
</g>
<path d="M564.108 247.097C564.109 247.097 564.121 247.091 564.155 247.093C564.191 247.094 564.251 247.105 564.338 247.139C564.517 247.209 564.757 247.357 565.061 247.608C565.667 248.109 566.432 248.942 567.342 250.098C569.155 252.403 571.475 255.906 574.145 260.355C579.482 269.247 586.186 281.864 592.99 296.095C599.793 310.327 605.403 323.467 608.972 333.204C610.758 338.075 612.028 342.081 612.683 344.94C613.012 346.373 613.18 347.492 613.189 348.277C613.194 348.672 613.158 348.952 613.1 349.135C613.072 349.224 613.043 349.277 613.021 349.307C613.001 349.334 612.989 349.34 612.988 349.34C612.986 349.341 612.975 349.346 612.943 349.345C612.906 349.343 612.846 349.332 612.759 349.298C612.58 349.228 612.34 349.08 612.036 348.829C611.43 348.328 610.664 347.496 609.755 346.34C607.941 344.035 605.621 340.531 602.951 336.083C597.615 327.19 590.911 314.574 584.107 300.342C577.303 286.11 571.693 272.971 568.124 263.234C566.338 258.362 565.068 254.357 564.413 251.498C564.084 250.065 563.917 248.945 563.908 248.16C563.903 247.765 563.939 247.485 563.997 247.302C564.025 247.213 564.054 247.16 564.076 247.13C564.095 247.104 564.106 247.098 564.108 247.097Z" fill="#FCF7AF" stroke="#FFC373"/>
<path d="M776.707 171.876C776.771 171.872 776.886 171.893 777.06 172.039C777.238 172.186 777.443 172.434 777.668 172.805C778.118 173.546 778.591 174.681 779.074 176.196C780.037 179.217 781.005 183.634 781.92 189.135C783.75 200.13 785.358 215.384 786.311 232.288C787.264 249.193 787.379 264.532 786.797 275.663C786.505 281.231 786.04 285.729 785.423 288.839C785.113 290.398 784.771 291.58 784.407 292.367C784.224 292.761 784.049 293.031 783.889 293.197C783.732 293.361 783.621 293.395 783.556 293.399C783.492 293.402 783.378 293.381 783.204 293.236C783.026 293.088 782.821 292.84 782.595 292.469C782.145 291.728 781.673 290.592 781.19 289.078C780.227 286.057 779.259 281.64 778.343 276.139C776.514 265.144 774.905 249.889 773.952 232.985C772.999 216.081 772.884 200.742 773.466 189.612C773.758 184.043 774.224 179.544 774.841 176.434C775.151 174.875 775.492 173.694 775.856 172.907C776.039 172.513 776.215 172.244 776.375 172.077C776.532 171.914 776.642 171.879 776.707 171.876Z" fill="#FCF7AF" stroke="#FFC373"/>
<path d="M1023 241.257C1023.16 241.35 1023.36 241.665 1023.35 242.529C1023.35 243.346 1023.16 244.481 1022.78 245.914C1022.02 248.773 1020.53 252.706 1018.43 257.443C1014.23 266.909 1007.6 279.515 999.554 293.012C991.504 306.508 983.559 318.326 977.227 326.521C974.058 330.621 971.305 333.8 969.151 335.827C968.071 336.844 967.163 337.55 966.445 337.942C965.688 338.356 965.315 338.329 965.159 338.236C965.003 338.143 964.801 337.828 964.805 336.964C964.81 336.146 965 335.012 965.381 333.579C966.142 330.72 967.63 326.787 969.732 322.051C973.934 312.584 980.557 299.979 988.607 286.482C996.657 272.986 1004.6 261.168 1010.93 252.972C1014.1 248.872 1016.86 245.693 1019.01 243.666C1020.09 242.65 1021 241.943 1021.72 241.551C1022.47 241.136 1022.85 241.164 1023 241.257Z" fill="#FCF7AF" stroke="#FFC373"/>
<path d="M1162.42 393.596C1162.42 393.623 1162.42 393.667 1162.4 393.734C1162.37 393.922 1162.28 394.196 1162.09 394.565C1161.73 395.297 1161.08 396.291 1160.15 397.527C1158.29 399.993 1155.39 403.346 1151.65 407.353C1144.17 415.365 1133.39 425.953 1121.07 437.215C1108.76 448.478 1097.25 458.275 1088.61 465.01C1084.29 468.379 1080.69 470.974 1078.07 472.603C1076.75 473.419 1075.7 473.98 1074.94 474.277C1074.56 474.426 1074.28 474.497 1074.09 474.512C1074.02 474.517 1073.98 474.514 1073.95 474.51C1073.95 474.482 1073.95 474.438 1073.96 474.372C1073.99 474.184 1074.09 473.91 1074.27 473.542C1074.63 472.81 1075.29 471.815 1076.22 470.579C1078.07 468.113 1080.98 464.76 1084.72 460.753C1092.19 452.742 1102.98 442.154 1115.29 430.891C1127.6 419.629 1139.11 409.831 1147.75 403.096C1152.08 399.727 1155.68 397.132 1158.3 395.504C1159.61 394.687 1160.66 394.127 1161.42 393.83C1161.8 393.68 1162.09 393.609 1162.28 393.594C1162.34 393.589 1162.39 393.592 1162.42 393.596Z" fill="#FCF7AF" stroke="#FFC373"/>
<mask id="path-7-inside-1_0_1" fill="white">
<path fill-rule="evenodd" clip-rule="evenodd" d="M100.408 121.322C110.692 117.771 121.821 117.592 132.492 121.549C160.702 132.011 175.026 167.424 164.485 200.647C163.901 202.487 163.253 204.282 162.545 206.028C171.418 204.638 179.355 207.644 182.919 214.721C186.576 221.985 184.679 231.66 178.827 239.887C183.995 239.28 189.335 239.396 194.732 240.321C225.966 245.674 247.258 276.091 242.289 308.26C241.21 315.241 238.984 321.73 235.84 327.558C249.645 327.109 264.279 330.744 278.234 338.909C297.994 350.47 312.667 368.932 320.437 389.461C330.819 378.642 344.729 372.759 359.153 374.598C367.848 375.706 375.657 379.483 382.097 385.173C395.07 367.05 417.56 356.448 441.505 359.5C457.075 361.484 470.6 368.902 480.36 379.566C486.389 344.954 515.253 320.511 546.276 324.465C578.325 328.55 600.542 361.396 595.898 397.828C595.704 399.35 595.467 400.855 595.187 402.34C605.401 396.011 617.534 393.025 630.078 394.624C659.83 398.416 680.872 426.594 677.904 458.086C686.838 448.079 701.323 442.491 716.788 444.462C740.457 447.479 757.461 467.059 754.767 488.195C753.868 495.248 750.89 501.582 746.441 506.781C762.431 515.656 772.246 532.819 769.921 551.06C767.199 572.416 748.741 588.167 726.712 589.515L718.002 657.853L-123.192 550.637L-111.308 457.391L-72.39 462.351L-72.3899 462.35L-110.434 457.501L-73.6169 168.645C-86.7661 149.541 -93.2088 125.57 -90.0226 100.571C-83.2247 47.2365 -35.17 9.42254 17.3106 16.1115C68.6499 22.6551 105.206 69.363 100.408 121.322Z"/>
</mask>
<path fill-rule="evenodd" clip-rule="evenodd" d="M100.408 121.322C110.692 117.771 121.821 117.592 132.492 121.549C160.702 132.011 175.026 167.424 164.485 200.647C163.901 202.487 163.253 204.282 162.545 206.028C171.418 204.638 179.355 207.644 182.919 214.721C186.576 221.985 184.679 231.66 178.827 239.887C183.995 239.28 189.335 239.396 194.732 240.321C225.966 245.674 247.258 276.091 242.289 308.26C241.21 315.241 238.984 321.73 235.84 327.558C249.645 327.109 264.279 330.744 278.234 338.909C297.994 350.47 312.667 368.932 320.437 389.461C330.819 378.642 344.729 372.759 359.153 374.598C367.848 375.706 375.657 379.483 382.097 385.173C395.07 367.05 417.56 356.448 441.505 359.5C457.075 361.484 470.6 368.902 480.36 379.566C486.389 344.954 515.253 320.511 546.276 324.465C578.325 328.55 600.542 361.396 595.898 397.828C595.704 399.35 595.467 400.855 595.187 402.34C605.401 396.011 617.534 393.025 630.078 394.624C659.83 398.416 680.872 426.594 677.904 458.086C686.838 448.079 701.323 442.491 716.788 444.462C740.457 447.479 757.461 467.059 754.767 488.195C753.868 495.248 750.89 501.582 746.441 506.781C762.431 515.656 772.246 532.819 769.921 551.06C767.199 572.416 748.741 588.167 726.712 589.515L718.002 657.853L-123.192 550.637L-111.308 457.391L-72.39 462.351L-72.3899 462.35L-110.434 457.501L-73.6169 168.645C-86.7661 149.541 -93.2088 125.57 -90.0226 100.571C-83.2247 47.2365 -35.17 9.42254 17.3106 16.1115C68.6499 22.6551 105.206 69.363 100.408 121.322Z" fill="#FFD592"/>
<path d="M132.492 121.549L131.449 124.362L132.492 121.549ZM100.408 121.322L97.4207 121.046L96.9933 125.674L101.387 124.157L100.408 121.322ZM164.485 200.647L167.344 201.554V201.554L164.485 200.647ZM162.545 206.028L159.765 204.902L157.776 209.813L163.01 208.992L162.545 206.028ZM182.919 214.721L180.239 216.07V216.07L182.919 214.721ZM178.827 239.887L176.383 238.148L172.466 243.654L179.177 242.866L178.827 239.887ZM194.732 240.321L194.225 243.278L194.732 240.321ZM242.289 308.26L239.324 307.802L242.289 308.26ZM235.84 327.558L233.199 326.134L230.721 330.726L235.937 330.556L235.84 327.558ZM278.234 338.909L279.749 336.32L278.234 338.909ZM320.437 389.461L317.631 390.523L319.312 394.966L322.601 391.539L320.437 389.461ZM359.153 374.598L358.774 377.573L359.153 374.598ZM382.097 385.173L380.11 387.421L382.601 389.622L384.536 386.919L382.097 385.173ZM441.505 359.5L441.885 356.524H441.885L441.505 359.5ZM480.36 379.566L478.147 381.591L482.268 386.094L483.316 380.081L480.36 379.566ZM546.276 324.465L545.896 327.441H545.897L546.276 324.465ZM595.898 397.828L592.923 397.449L595.898 397.828ZM595.187 402.34L592.239 401.784L590.976 408.478L596.767 404.89L595.187 402.34ZM630.078 394.624L629.699 397.6H629.699L630.078 394.624ZM677.904 458.086L674.917 457.805L674.06 466.896L680.141 460.084L677.904 458.086ZM716.788 444.462L717.168 441.486L716.788 444.462ZM754.767 488.195L751.791 487.816L754.767 488.195ZM746.441 506.781L744.161 504.83L741.773 507.621L744.985 509.404L746.441 506.781ZM769.921 551.06L772.897 551.439L769.921 551.06ZM726.712 589.515L726.529 586.521L724.05 586.673L723.737 589.136L726.712 589.515ZM718.002 657.853L717.623 660.829L720.599 661.208L720.978 658.232L718.002 657.853ZM-123.192 550.637L-126.168 550.257L-126.548 553.233L-123.572 553.613L-123.192 550.637ZM-111.308 457.391L-110.928 454.415L-113.904 454.036L-114.284 457.012L-111.308 457.391ZM-72.39 462.351L-72.7693 465.327L-69.7862 465.708L-69.4132 462.724L-72.39 462.351ZM-72.3899 462.35L-69.413 462.722L-69.0418 459.753L-72.0106 459.374L-72.3899 462.35ZM-110.434 457.501L-113.41 457.122L-113.789 460.098L-110.813 460.477L-110.434 457.501ZM-73.6169 168.645L-70.641 169.024L-70.4961 167.887L-71.1457 166.944L-73.6169 168.645ZM-90.0226 100.571L-92.9986 100.192L-90.0226 100.571ZM17.3106 16.1115L16.9313 19.0875L17.3106 16.1115ZM133.535 118.736C122.173 114.522 110.328 114.723 99.429 118.486L101.387 124.157C111.057 120.819 121.469 120.661 131.449 124.362L133.535 118.736ZM167.344 201.554C178.249 167.187 163.595 129.884 133.535 118.736L131.449 124.362C157.809 134.138 171.803 167.662 161.625 199.74L167.344 201.554ZM165.326 207.155C166.063 205.336 166.737 203.468 167.344 201.554L161.625 199.74C161.065 201.506 160.443 203.227 159.765 204.902L165.326 207.155ZM185.598 213.372C181.276 204.787 171.814 201.539 162.081 203.065L163.01 208.992C171.021 207.737 177.435 210.501 180.239 216.07L185.598 213.372ZM181.272 241.625C187.493 232.879 189.938 221.992 185.598 213.372L180.239 216.07C183.214 221.979 181.864 230.441 176.383 238.148L181.272 241.625ZM195.238 237.364C189.557 236.39 183.928 236.267 178.477 236.907L179.177 242.866C184.062 242.293 189.113 242.402 194.225 243.278L195.238 237.364ZM245.253 308.718C250.461 275.005 228.159 243.006 195.238 237.364L194.225 243.278C223.772 248.342 244.054 277.178 239.324 307.802L245.253 308.718ZM238.48 328.983C241.786 322.855 244.123 316.039 245.253 308.718L239.324 307.802C238.298 314.442 236.182 320.605 233.199 326.134L238.48 328.983ZM279.749 336.32C265.336 327.887 250.148 324.092 235.742 324.56L235.937 330.556C249.142 330.127 263.221 333.601 276.719 341.498L279.749 336.32ZM323.243 388.4C315.248 367.278 300.145 348.253 279.749 336.32L276.719 341.498C295.842 352.686 310.085 370.585 317.631 390.523L323.243 388.4ZM359.532 371.622C344.012 369.643 329.197 376 318.272 387.384L322.601 391.539C332.441 381.285 345.446 375.875 358.774 377.573L359.532 371.622ZM384.083 382.925C377.23 376.869 368.87 372.812 359.532 371.622L358.774 377.573C366.825 378.6 374.085 382.097 380.11 387.421L384.083 382.925ZM441.885 356.524C416.819 353.329 393.258 364.429 379.657 383.427L384.536 386.919C396.883 369.672 418.3 359.566 441.126 362.476L441.885 356.524ZM482.573 377.54C472.348 366.369 458.18 358.601 441.885 356.524L441.126 362.476C455.97 364.368 468.852 371.436 478.147 381.591L482.573 377.54ZM546.655 321.489C513.711 317.29 483.648 343.211 477.405 379.051L483.316 380.081C489.131 346.697 516.796 323.732 545.896 327.441L546.655 321.489ZM598.874 398.207C603.68 360.501 580.695 325.828 546.655 321.489L545.897 327.441C575.955 331.272 597.404 362.29 592.923 397.449L598.874 398.207ZM598.135 402.896C598.426 401.352 598.673 399.789 598.874 398.207L592.923 397.449C592.736 398.912 592.508 400.358 592.239 401.784L598.135 402.896ZM630.457 391.648C617.19 389.957 604.37 393.12 593.606 399.79L596.767 404.89C606.432 398.901 617.878 396.093 629.699 397.6L630.457 391.648ZM680.89 458.368C683.994 425.436 661.981 395.666 630.457 391.648L629.699 397.6C657.679 401.166 677.75 427.752 674.917 457.805L680.89 458.368ZM717.168 441.486C700.776 439.397 685.294 445.304 675.666 456.088L680.141 460.084C688.382 450.855 701.869 445.585 716.409 447.438L717.168 441.486ZM757.743 488.574C760.686 465.487 742.155 444.671 717.168 441.486L716.409 447.438C738.76 450.287 754.237 468.631 751.791 487.816L757.743 488.574ZM748.72 508.732C753.526 503.116 756.766 496.242 757.743 488.574L751.791 487.816C750.971 494.253 748.254 500.049 744.161 504.83L748.72 508.732ZM772.897 551.439C775.394 531.849 764.84 513.562 747.897 504.158L744.985 509.404C760.023 517.75 769.098 533.788 766.945 550.681L772.897 551.439ZM726.896 592.51C750.196 591.083 769.973 574.384 772.897 551.439L766.945 550.681C764.426 570.448 747.286 585.25 726.529 586.521L726.896 592.51ZM720.978 658.232L729.688 589.895L723.737 589.136L715.026 657.473L720.978 658.232ZM-123.572 553.613L717.623 660.829L718.382 654.877L-122.813 547.661L-123.572 553.613ZM-114.284 457.012L-126.168 550.257L-120.216 551.016L-108.332 457.77L-114.284 457.012ZM-72.0107 459.375L-110.928 454.415L-111.687 460.367L-72.7693 465.327L-72.0107 459.375ZM-75.3667 461.978L-75.3668 461.979L-69.4132 462.724L-69.413 462.722L-75.3667 461.978ZM-110.813 460.477L-72.7692 465.326L-72.0106 459.374L-110.054 454.525L-110.813 460.477ZM-76.5928 168.265L-113.41 457.122L-107.458 457.881L-70.641 169.024L-76.5928 168.265ZM-92.9986 100.192C-96.2809 125.945 -89.6427 150.653 -76.0881 170.345L-71.1457 166.944C-83.8895 148.429 -90.1368 125.195 -87.0467 100.951L-92.9986 100.192ZM17.6899 13.1356C-36.4794 6.23138 -85.997 45.2591 -92.9986 100.192L-87.0467 100.951C-80.4525 49.2139 -33.8607 12.6137 16.9313 19.0875L17.6899 13.1356ZM103.395 121.598C108.338 68.0784 70.681 19.8897 17.6899 13.1356L16.9313 19.0875C66.6187 25.4205 102.075 70.6475 97.4207 121.046L103.395 121.598Z" fill="#FFC373" mask="url(#path-7-inside-1_0_1)"/>
<mask id="path-9-inside-2_0_1" fill="white">
<path fill-rule="evenodd" clip-rule="evenodd" d="M1547.59 103.274C1547.59 111.101 1546.98 118.725 1545.82 126.053C1554.54 114.894 1569.76 107.502 1587.08 107.502C1614.16 107.502 1636.11 125.563 1636.11 147.842C1636.11 163.926 1624.67 177.811 1608.12 184.29L1667.61 187.611V413.946H1668V504.081H1601.82C1537.68 523.301 1381.17 550.504 1197.49 573.035C955.346 602.738 757.691 613.076 756.011 596.126C755.171 587.651 803.494 573.956 882.299 558.668C878.224 553.528 875.596 547.409 874.927 540.652C872.749 518.687 892.088 498.292 918.121 495.098C924.085 494.367 929.882 494.601 935.303 495.662L935.29 495.538L935.277 495.405C932.363 466.003 953.103 439.333 981.602 435.837C1008.7 432.513 1033.06 451.342 1037.89 478.482C1044.46 464.058 1063.67 451.732 1087.44 448.297C1114.42 444.397 1138.37 453.244 1145.57 468.591C1150.26 466.576 1155.51 465.135 1161.11 464.449C1170.62 463.282 1179.59 464.49 1186.82 467.455C1187.33 467.175 1187.85 466.9 1188.38 466.63C1200.65 460.295 1213.16 457.66 1223.78 458.456C1214.63 445.348 1209 427.559 1209 407.966C1209 367.668 1232.8 335 1262.16 335C1263.9 335 1265.68 335.263 1267.5 335.767C1261.56 328.841 1258 320.057 1258 310.5C1258 290.87 1273 274.502 1292.91 270.79C1282.53 260.017 1276.19 245.638 1276.19 229.846C1276.19 197.532 1302.73 171.135 1336.14 169.44L1336.12 169.104L1339.97 169.319C1339.94 168.446 1339.93 167.569 1339.93 166.688C1339.93 131.999 1361.25 103.878 1387.56 103.878C1392.9 103.878 1398.05 105.041 1402.85 107.185C1402.81 105.888 1402.8 104.584 1402.8 103.274C1402.8 46.2374 1435.21 0 1475.19 0C1515.17 0 1547.59 46.2374 1547.59 103.274ZM1255.86 504.081H1245.67C1245.43 504.494 1245.18 504.906 1244.93 505.318C1248.59 504.901 1252.23 504.488 1255.86 504.081Z"/>
</mask>
<path fill-rule="evenodd" clip-rule="evenodd" d="M1547.59 103.274C1547.59 111.101 1546.98 118.725 1545.82 126.053C1554.54 114.894 1569.76 107.502 1587.08 107.502C1614.16 107.502 1636.11 125.563 1636.11 147.842C1636.11 163.926 1624.67 177.811 1608.12 184.29L1667.61 187.611V413.946H1668V504.081H1601.82C1537.68 523.301 1381.17 550.504 1197.49 573.035C955.346 602.738 757.691 613.076 756.011 596.126C755.171 587.651 803.494 573.956 882.299 558.668C878.224 553.528 875.596 547.409 874.927 540.652C872.749 518.687 892.088 498.292 918.121 495.098C924.085 494.367 929.882 494.601 935.303 495.662L935.29 495.538L935.277 495.405C932.363 466.003 953.103 439.333 981.602 435.837C1008.7 432.513 1033.06 451.342 1037.89 478.482C1044.46 464.058 1063.67 451.732 1087.44 448.297C1114.42 444.397 1138.37 453.244 1145.57 468.591C1150.26 466.576 1155.51 465.135 1161.11 464.449C1170.62 463.282 1179.59 464.49 1186.82 467.455C1187.33 467.175 1187.85 466.9 1188.38 466.63C1200.65 460.295 1213.16 457.66 1223.78 458.456C1214.63 445.348 1209 427.559 1209 407.966C1209 367.668 1232.8 335 1262.16 335C1263.9 335 1265.68 335.263 1267.5 335.767C1261.56 328.841 1258 320.057 1258 310.5C1258 290.87 1273 274.502 1292.91 270.79C1282.53 260.017 1276.19 245.638 1276.19 229.846C1276.19 197.532 1302.73 171.135 1336.14 169.44L1336.12 169.104L1339.97 169.319C1339.94 168.446 1339.93 167.569 1339.93 166.688C1339.93 131.999 1361.25 103.878 1387.56 103.878C1392.9 103.878 1398.05 105.041 1402.85 107.185C1402.81 105.888 1402.8 104.584 1402.8 103.274C1402.8 46.2374 1435.21 0 1475.19 0C1515.17 0 1547.59 46.2374 1547.59 103.274ZM1255.86 504.081H1245.67C1245.43 504.494 1245.18 504.906 1244.93 505.318C1248.59 504.901 1252.23 504.488 1255.86 504.081Z" fill="#FFD592"/>
<path d="M1545.82 126.053L1542.86 125.585L1541.05 137.029L1548.18 127.9L1545.82 126.053ZM1608.12 184.29L1607.03 181.496L1607.95 187.285L1608.12 184.29ZM1667.61 187.611H1670.61V184.774L1667.78 184.616L1667.61 187.611ZM1667.61 413.946H1664.61V416.946H1667.61V413.946ZM1668 413.946H1671V410.946H1668V413.946ZM1668 504.081V507.081H1671V504.081H1668ZM1601.82 504.081V501.081H1601.38L1600.96 501.207L1601.82 504.081ZM1197.49 573.035L1197.85 576.013L1197.49 573.035ZM756.011 596.126L758.996 595.83H758.996L756.011 596.126ZM882.299 558.668L882.871 561.613L887.717 560.673L884.65 556.804L882.299 558.668ZM874.927 540.652L871.941 540.948L874.927 540.652ZM918.121 495.098L917.756 492.121H917.756L918.121 495.098ZM935.303 495.662L934.727 498.606L938.701 499.384L938.287 495.356L935.303 495.662ZM935.29 495.538L932.305 495.837L932.306 495.844L935.29 495.538ZM935.277 495.405L932.292 495.701L932.292 495.705L935.277 495.405ZM981.602 435.837L981.967 438.815L981.602 435.837ZM1037.89 478.482L1034.94 479.008L1036.63 488.497L1040.62 479.725L1037.89 478.482ZM1087.44 448.297L1087.01 445.328L1087.44 448.297ZM1145.57 468.591L1142.86 469.865L1144.09 472.493L1146.76 471.347L1145.57 468.591ZM1161.11 464.449L1160.74 461.472L1161.11 464.449ZM1186.82 467.455L1185.68 470.231L1187 470.771L1188.25 470.091L1186.82 467.455ZM1188.38 466.63L1189.75 469.296L1189.75 469.296L1188.38 466.63ZM1223.78 458.456L1223.56 461.447L1229.86 461.92L1226.24 456.738L1223.78 458.456ZM1267.5 335.767L1266.7 338.658L1276.2 341.291L1269.78 333.813L1267.5 335.767ZM1292.91 270.79L1293.46 273.739L1298.93 272.718L1295.07 268.708L1292.91 270.79ZM1336.14 169.44L1336.29 172.436L1339.31 172.283L1339.13 169.262L1336.14 169.44ZM1336.12 169.104L1336.28 166.108L1332.92 165.921L1333.12 169.282L1336.12 169.104ZM1339.97 169.319L1339.8 172.314L1343.07 172.497L1342.97 169.225L1339.97 169.319ZM1402.85 107.185L1401.62 109.925L1405.97 111.867L1405.85 107.107L1402.85 107.185ZM1245.67 504.081V501.081H1243.95L1243.08 502.569L1245.67 504.081ZM1255.86 504.081L1256.19 507.062L1255.86 501.081V504.081ZM1244.93 505.318L1242.38 503.739L1239.12 509L1245.27 508.298L1244.93 505.318ZM1548.78 126.521C1549.96 119.037 1550.59 111.257 1550.59 103.274H1544.59C1544.59 110.945 1543.99 118.412 1542.86 125.585L1548.78 126.521ZM1587.08 104.502C1568.95 104.502 1552.81 112.239 1543.46 124.206L1548.18 127.9C1556.27 117.548 1570.58 110.502 1587.08 110.502V104.502ZM1639.11 147.842C1639.11 123.385 1615.24 104.502 1587.08 104.502V110.502C1613.08 110.502 1633.11 127.74 1633.11 147.842H1639.11ZM1609.21 187.083C1626.6 180.276 1639.11 165.463 1639.11 147.842H1633.11C1633.11 162.389 1622.74 175.346 1607.03 181.496L1609.21 187.083ZM1667.78 184.616L1608.29 181.295L1607.95 187.285L1667.44 190.607L1667.78 184.616ZM1670.61 413.946V187.611H1664.61V413.946H1670.61ZM1668 410.946H1667.61V416.946H1668V410.946ZM1671 504.081V413.946H1665V504.081H1671ZM1601.82 507.081H1668V501.081H1601.82V507.081ZM1197.85 576.013C1381.52 553.483 1538.27 526.257 1602.68 506.955L1600.96 501.207C1537.1 520.346 1380.81 547.525 1197.12 570.058L1197.85 576.013ZM753.025 596.422C753.285 599.042 755.345 600.664 757.18 601.637C759.142 602.678 761.786 603.491 764.908 604.154C771.196 605.488 780.2 606.366 791.523 606.843C814.214 607.8 846.756 607.162 886.733 605.071C966.713 600.888 1076.73 590.87 1197.85 576.013L1197.12 570.058C1076.1 584.903 966.221 594.906 886.419 599.08C846.505 601.167 814.184 601.793 791.775 600.849C780.548 600.376 771.943 599.513 766.154 598.284C763.238 597.665 761.227 596.992 759.991 596.336C758.628 595.613 758.947 595.33 758.996 595.83L753.025 596.422ZM881.728 555.723C842.295 563.373 810.405 570.639 788.445 577.073C777.485 580.283 768.874 583.322 763.007 586.144C760.091 587.547 757.685 588.974 755.993 590.449C754.419 591.82 752.77 593.845 753.025 596.422L758.996 595.83C759.042 596.289 758.719 596.032 759.935 594.972C761.032 594.016 762.879 592.863 765.607 591.551C771.027 588.944 779.264 586.014 790.131 582.831C811.824 576.476 843.499 569.251 882.871 561.613L881.728 555.723ZM871.941 540.948C872.671 548.312 875.537 554.968 879.949 560.532L884.65 556.804C880.911 552.087 878.522 546.507 877.912 540.357L871.941 540.948ZM917.756 492.121C890.59 495.453 869.559 516.915 871.941 540.948L877.912 540.357C875.94 520.459 893.586 501.13 918.486 498.076L917.756 492.121ZM935.879 492.718C930.145 491.596 924.029 491.351 917.756 492.121L918.486 498.076C924.14 497.382 929.619 497.607 934.727 498.606L935.879 492.718ZM932.306 495.844L932.319 495.968L938.287 495.356L938.275 495.231L932.306 495.844ZM932.292 495.705L932.305 495.837L938.275 495.238L938.262 495.106L932.292 495.705ZM981.237 432.859C951.043 436.563 929.224 464.755 932.292 495.701L938.262 495.109C935.501 467.25 955.163 442.103 981.967 438.815L981.237 432.859ZM1040.85 477.956C1035.75 449.329 1010 429.331 981.237 432.859L981.967 438.815C1007.41 435.694 1030.37 453.355 1034.94 479.008L1040.85 477.956ZM1087.01 445.328C1062.66 448.846 1042.31 461.544 1035.16 477.238L1040.62 479.725C1046.61 466.572 1064.67 454.618 1087.87 451.266L1087.01 445.328ZM1148.29 467.317C1144.24 458.684 1135.66 452.209 1124.93 448.399C1114.15 444.574 1100.92 443.317 1087.01 445.328L1087.87 451.266C1100.94 449.377 1113.17 450.593 1122.92 454.053C1132.71 457.529 1139.71 463.152 1142.86 469.865L1148.29 467.317ZM1160.74 461.472C1154.87 462.192 1149.35 463.706 1144.39 465.835L1146.76 471.347C1151.18 469.447 1156.15 468.079 1161.47 467.427L1160.74 461.472ZM1187.96 464.679C1180.2 461.5 1170.72 460.248 1160.74 461.472L1161.47 467.427C1170.53 466.316 1178.97 467.48 1185.68 470.231L1187.96 464.679ZM1187 463.964C1186.46 464.244 1185.92 464.529 1185.39 464.818L1188.25 470.091C1188.75 469.822 1189.25 469.556 1189.75 469.296L1187 463.964ZM1224.01 455.464C1212.75 454.62 1199.69 457.416 1187 463.964L1189.75 469.296C1201.62 463.174 1213.57 460.699 1223.56 461.447L1224.01 455.464ZM1206 407.966C1206 428.111 1211.78 446.514 1221.32 460.174L1226.24 456.738C1217.47 444.182 1212 427.006 1212 407.966H1206ZM1262.16 332C1246.29 332 1232.18 340.837 1222.15 354.605C1212.11 368.375 1206 387.25 1206 407.966H1212C1212 388.383 1217.79 370.776 1227 358.138C1236.21 345.497 1248.68 338 1262.16 338V332ZM1268.3 332.876C1266.26 332.31 1264.2 332 1262.16 332V338C1263.6 338 1265.11 338.217 1266.7 338.658L1268.3 332.876ZM1255 310.5C1255 320.822 1258.84 330.289 1265.23 337.722L1269.78 333.813C1264.27 327.393 1261 319.292 1261 310.5H1255ZM1292.36 267.84C1271.21 271.785 1255 289.252 1255 310.5H1261C1261 292.488 1274.79 277.22 1293.46 273.739L1292.36 267.84ZM1273.19 229.846C1273.19 246.463 1279.87 261.575 1290.75 272.871L1295.07 268.708C1285.19 258.458 1279.19 244.813 1279.19 229.846H1273.19ZM1335.98 166.444C1301.11 168.214 1273.19 195.806 1273.19 229.846H1279.19C1279.19 199.258 1304.35 174.057 1336.29 172.436L1335.98 166.444ZM1333.12 169.282L1333.14 169.619L1339.13 169.262L1339.11 168.925L1333.12 169.282ZM1340.13 166.323L1336.28 166.108L1335.95 172.099L1339.8 172.314L1340.13 166.323ZM1336.93 166.688C1336.93 167.6 1336.94 168.509 1336.97 169.413L1342.97 169.225C1342.94 168.384 1342.93 167.538 1342.93 166.688H1336.93ZM1387.56 100.878C1373.26 100.878 1360.54 108.526 1351.49 120.462C1342.44 132.396 1336.93 148.749 1336.93 166.688H1342.93C1342.93 149.938 1348.08 134.886 1356.27 124.087C1364.45 113.291 1375.54 106.878 1387.56 106.878V100.878ZM1404.07 104.446C1398.91 102.139 1393.35 100.878 1387.56 100.878V106.878C1392.46 106.878 1397.19 107.943 1401.62 109.925L1404.07 104.446ZM1399.8 103.274C1399.8 104.61 1399.81 105.94 1399.85 107.264L1405.85 107.107C1405.81 105.835 1405.8 104.558 1405.8 103.274H1399.8ZM1475.19 -3C1453.95 -3 1435.03 9.28362 1421.54 28.5262C1408.05 47.7781 1399.8 74.2148 1399.8 103.274H1405.8C1405.8 75.2967 1413.75 50.0964 1426.46 31.9703C1439.17 13.8351 1456.45 3 1475.19 3V-3ZM1550.59 103.274C1550.59 74.2148 1542.34 47.7781 1528.84 28.5262C1515.35 9.28362 1496.43 -3 1475.19 -3V3C1493.94 3 1511.21 13.8351 1523.93 31.9703C1536.63 50.0964 1544.59 75.2967 1544.59 103.274H1550.59ZM1245.67 507.081H1255.86V501.081H1245.67V507.081ZM1247.48 506.897C1247.75 506.464 1248.01 506.029 1248.26 505.594L1243.08 502.569C1242.85 502.959 1242.62 503.349 1242.38 503.739L1247.48 506.897ZM1255.52 501.1C1251.89 501.507 1248.25 501.92 1244.59 502.337L1245.27 508.298C1248.92 507.882 1252.57 507.47 1256.19 507.062L1255.52 501.1Z" fill="#FFC373" mask="url(#path-9-inside-2_0_1)"/>
<path d="M745.917 522.444C643.384 534.488 543.25 671.166 506 738H1545.85L1573 363.685C1559.32 345.437 1511 311.541 1427.16 321.943C1322.35 334.944 1242.17 497.809 1155.04 549.816C1085.34 591.422 999.724 567.152 965.631 549.816C935.115 535.674 848.45 510.4 745.917 522.444Z" fill="#678B64" stroke="black"/>
<mask id="path-12-inside-3_0_1" fill="white">
<path fill-rule="evenodd" clip-rule="evenodd" d="M622.574 531.331C616.674 556.67 595.191 573.928 572.148 573.5L565.883 600.405L570.75 610.388L538.698 602.924L548.039 595.68L554.157 569.406C533.033 559.75 521.188 534.614 527.128 509.106C533.829 480.329 560.627 461.975 586.984 468.112C613.341 474.25 629.275 502.554 622.574 531.331Z"/>
</mask>
<path fill-rule="evenodd" clip-rule="evenodd" d="M622.574 531.331C616.674 556.67 595.191 573.928 572.148 573.5L565.883 600.405L570.75 610.388L538.698 602.924L548.039 595.68L554.157 569.406C533.033 559.75 521.188 534.614 527.128 509.106C533.829 480.329 560.627 461.975 586.984 468.112C613.341 474.25 629.275 502.554 622.574 531.331Z" fill="#A8747B"/>
<path d="M572.148 573.5L572.167 572.5L571.358 572.485L571.174 573.273L572.148 573.5ZM565.883 600.405L564.909 600.178L564.829 600.524L564.984 600.843L565.883 600.405ZM570.75 610.388L570.523 611.362L572.569 611.838L571.648 609.95L570.75 610.388ZM538.698 602.924L538.085 602.134L536.425 603.422L538.471 603.898L538.698 602.924ZM548.039 595.68L548.652 596.47L548.932 596.253L549.013 595.907L548.039 595.68ZM554.157 569.406L555.131 569.633L555.316 568.837L554.572 568.497L554.157 569.406ZM572.13 574.499C595.693 574.937 617.552 557.308 623.548 531.558L621.6 531.104C615.796 556.033 594.689 572.918 572.167 572.5L572.13 574.499ZM566.857 600.632L573.122 573.726L571.174 573.273L564.909 600.178L566.857 600.632ZM564.984 600.843L569.851 610.826L571.648 609.95L566.782 599.967L564.984 600.843ZM570.976 609.414L538.925 601.951L538.471 603.898L570.523 611.362L570.976 609.414ZM539.311 603.715L548.652 596.47L547.426 594.89L538.085 602.134L539.311 603.715ZM553.183 569.18L547.065 595.453L549.013 595.907L555.131 569.633L553.183 569.18ZM526.154 508.879C520.118 534.8 532.139 560.441 553.741 570.316L554.572 568.497C533.927 559.059 522.258 534.428 528.102 509.333L526.154 508.879ZM587.211 467.139C560.237 460.858 532.961 479.646 526.154 508.879L528.102 509.333C534.696 481.011 561.017 463.093 586.757 469.086L587.211 467.139ZM623.548 531.558C630.355 502.325 614.184 473.419 587.211 467.139L586.757 469.086C612.497 475.08 628.195 502.782 621.6 531.104L623.548 531.558Z" fill="black" mask="url(#path-12-inside-3_0_1)"/>
<mask id="path-14-inside-4_0_1" fill="white">
<path fill-rule="evenodd" clip-rule="evenodd" d="M414.182 463.471C412.296 481.187 382.754 492.831 346.32 491.16L343.894 513.945L349.946 523.257L317.222 519.773L325.606 511.44L327.97 489.233C291.774 483.267 265.12 465.592 267.014 447.803C269.06 428.582 303.664 416.507 344.303 420.834C384.942 425.16 416.228 444.25 414.182 463.471Z"/>
</mask>
<path fill-rule="evenodd" clip-rule="evenodd" d="M414.182 463.471C412.296 481.187 382.754 492.831 346.32 491.16L343.894 513.945L349.946 523.257L317.222 519.773L325.606 511.44L327.97 489.233C291.774 483.267 265.12 465.592 267.014 447.803C269.06 428.582 303.664 416.507 344.303 420.834C384.942 425.16 416.228 444.25 414.182 463.471Z" fill="#507647"/>
<path d="M346.32 491.16L346.366 490.161L345.425 490.118L345.326 491.054L346.32 491.16ZM343.894 513.945L342.9 513.839L342.862 514.192L343.056 514.49L343.894 513.945ZM349.946 523.257L349.84 524.251L351.93 524.474L350.785 522.712L349.946 523.257ZM317.222 519.773L316.517 519.064L315.027 520.545L317.116 520.767L317.222 519.773ZM325.606 511.44L326.311 512.149L326.563 511.899L326.6 511.546L325.606 511.44ZM327.97 489.233L328.965 489.339L329.065 488.4L328.133 488.246L327.97 489.233ZM346.274 492.159C364.596 492.999 381.24 490.496 393.581 485.513C405.864 480.552 414.173 472.999 415.176 463.577L413.187 463.365C412.305 471.659 404.899 478.785 392.832 483.658C380.822 488.508 364.478 490.992 346.366 490.161L346.274 492.159ZM344.889 514.051L347.315 491.266L345.326 491.054L342.9 513.839L344.889 514.051ZM343.056 514.49L349.108 523.802L350.785 522.712L344.733 513.4L343.056 514.49ZM350.052 522.262L317.328 518.779L317.116 520.767L349.84 524.251L350.052 522.262ZM317.927 520.482L326.311 512.149L324.901 510.73L316.517 519.064L317.927 520.482ZM326.976 489.127L324.612 511.334L326.6 511.546L328.965 489.339L326.976 489.127ZM266.019 447.697C265.012 457.158 271.602 466.328 282.649 473.781C293.748 481.269 309.606 487.22 327.808 490.22L328.133 488.246C310.139 485.281 294.571 479.411 283.767 472.123C272.912 464.799 267.121 456.237 268.008 447.909L266.019 447.697ZM344.409 419.84C323.976 417.664 305.011 419.605 290.856 424.544C276.782 429.455 267.107 437.478 266.019 447.697L268.008 447.909C268.966 438.907 277.617 431.282 291.515 426.432C305.334 421.611 323.991 419.677 344.197 421.828L344.409 419.84ZM415.176 463.577C416.264 453.358 408.496 443.478 395.77 435.713C382.973 427.905 364.842 422.015 344.409 419.84L344.197 421.828C364.403 423.979 382.235 429.798 394.729 437.421C407.295 445.088 414.146 454.363 413.187 463.365L415.176 463.577Z" fill="black" mask="url(#path-14-inside-4_0_1)"/>
<path d="M-46.0684 494.487C98.547 479.01 433.32 484.416 615.487 629.858C658.033 647.297 767.453 671.711 864.769 629.858C925.691 622.882 1078.7 635.351 1203.34 741.031C1213.82 749.919 1223.04 757.735 1231.11 764.574H1231.5C1270.47 797.717 1318.99 839.051 1231.11 764.574H-46.0684V494.487Z" fill="#80A177" stroke="black" stroke-width="1.18"/>
<mask id="path-17-inside-5_0_1" fill="white">
<path fill-rule="evenodd" clip-rule="evenodd" d="M46.2543 422.356C46.2543 427.53 45.3167 432.42 43.6494 436.757C58.4926 441.738 68.5491 451.361 68.5491 462.416C68.5491 469.48 64.442 475.96 57.6031 481.018C75.3359 487.106 87 497.435 87 509.152C87 526.345 61.8887 540.548 29.3415 542.752V579H10.8906V542.698C-21.2828 540.324 -46 526.209 -46 509.152C-46 497.435 -34.3359 487.106 -16.6031 481.018C-23.442 475.96 -27.5491 469.48 -27.5491 462.416C-27.5491 451.024 -16.8701 441.153 -1.2787 436.314C-2.84153 432.088 -3.71676 427.354 -3.71676 422.356C-3.71676 404.486 7.46965 390 21.2688 390C35.0679 390 46.2543 404.486 46.2543 422.356Z"/>
</mask>
<path fill-rule="evenodd" clip-rule="evenodd" d="M46.2543 422.356C46.2543 427.53 45.3167 432.42 43.6494 436.757C58.4926 441.738 68.5491 451.361 68.5491 462.416C68.5491 469.48 64.442 475.96 57.6031 481.018C75.3359 487.106 87 497.435 87 509.152C87 526.345 61.8887 540.548 29.3415 542.752V579H10.8906V542.698C-21.2828 540.324 -46 526.209 -46 509.152C-46 497.435 -34.3359 487.106 -16.6031 481.018C-23.442 475.96 -27.5491 469.48 -27.5491 462.416C-27.5491 451.024 -16.8701 441.153 -1.2787 436.314C-2.84153 432.088 -3.71676 427.354 -3.71676 422.356C-3.71676 404.486 7.46965 390 21.2688 390C35.0679 390 46.2543 404.486 46.2543 422.356Z" fill="#78925A"/>
<path d="M43.6494 436.757L42.716 436.398L42.3413 437.372L43.3312 437.705L43.6494 436.757ZM57.6031 481.018L57.0085 480.214L55.4781 481.346L57.2784 481.964L57.6031 481.018ZM29.3415 542.752L29.2739 541.754L28.3415 541.817V542.752H29.3415ZM29.3415 579V580H30.3415V579H29.3415ZM10.8906 579H9.89062V580H10.8906V579ZM10.8906 542.698H11.8906V541.769L10.9642 541.7L10.8906 542.698ZM-16.6031 481.018L-16.2784 481.964L-14.4781 481.346L-16.0085 480.214L-16.6031 481.018ZM-1.2787 436.314L-0.982307 437.269L0.0250702 436.957L-0.340782 435.967L-1.2787 436.314ZM44.5828 437.115C46.295 432.662 47.2543 427.65 47.2543 422.356H45.2543C45.2543 427.41 44.3383 432.178 42.716 436.398L44.5828 437.115ZM69.5491 462.416C69.5491 450.703 58.9475 440.836 43.9676 435.809L43.3312 437.705C58.0376 442.64 67.5491 452.02 67.5491 462.416H69.5491ZM58.1977 481.822C65.1969 476.646 69.5491 469.899 69.5491 462.416H67.5491C67.5491 469.061 63.687 475.275 57.0085 480.214L58.1977 481.822ZM88 509.152C88 502.937 84.9026 497.178 79.635 492.244C74.3703 487.312 66.8841 483.147 57.9278 480.072L57.2784 481.964C66.0548 484.977 73.2672 489.02 78.2677 493.704C83.2653 498.385 86 503.65 86 509.152H88ZM29.409 543.75C45.7964 542.64 60.3677 538.508 70.8761 532.439C81.3487 526.39 88 518.276 88 509.152H86C86 517.221 80.0956 524.805 69.8758 530.707C59.6917 536.589 45.4338 540.66 29.2739 541.754L29.409 543.75ZM28.3415 542.752V579H30.3415V542.752H28.3415ZM29.3415 578H10.8906V580H29.3415V578ZM11.8906 579V542.698H9.89062V579H11.8906ZM-47 509.152C-47 518.204 -40.4524 526.263 -30.124 532.295C-19.7615 538.347 -5.38252 542.5 10.817 543.695L10.9642 541.7C-5.00968 540.522 -19.076 536.431 -29.1154 530.568C-39.189 524.685 -45 517.157 -45 509.152H-47ZM-16.9278 480.072C-25.8841 483.147 -33.3703 487.312 -38.635 492.244C-43.9026 497.178 -47 502.937 -47 509.152H-45C-45 503.65 -42.2653 498.385 -37.2677 493.704C-32.2672 489.02 -25.0548 484.977 -16.2784 481.964L-16.9278 480.072ZM-28.5491 462.416C-28.5491 469.899 -24.1969 476.646 -17.1977 481.822L-16.0085 480.214C-22.687 475.275 -26.5491 469.061 -26.5491 462.416H-28.5491ZM-1.5751 435.359C-17.2981 440.239 -28.5491 450.346 -28.5491 462.416H-26.5491C-26.5491 451.703 -16.442 442.067 -0.982307 437.269L-1.5751 435.359ZM-4.71676 422.356C-4.71676 427.471 -3.82129 432.322 -2.21662 436.661L-0.340782 435.967C-1.86177 431.854 -2.71676 427.238 -2.71676 422.356H-4.71676ZM21.2688 389C6.69236 389 -4.71676 404.19 -4.71676 422.356H-2.71676C-2.71676 404.783 8.24694 391 21.2688 391V389ZM47.2543 422.356C47.2543 404.19 35.8452 389 21.2688 389V391C34.2906 391 45.2543 404.783 45.2543 422.356H47.2543Z" fill="black" mask="url(#path-17-inside-5_0_1)"/>
<mask id="path-19-inside-6_0_1" fill="white">
<path fill-rule="evenodd" clip-rule="evenodd" d="M1035.83 510.851C1035.83 514.984 1035.09 518.891 1033.78 522.355C1045.49 526.335 1053.43 534.024 1053.43 542.855C1053.43 548.5 1050.19 553.677 1044.79 557.718C1058.79 562.582 1068 570.834 1068 580.196C1068 593.932 1048.18 605.279 1022.48 607.04V636H1007.91V606.997C982.514 605.1 963 593.824 963 580.196C963 570.834 972.209 562.582 986.209 557.718C980.809 553.677 977.566 548.5 977.566 542.855C977.566 533.754 985.997 525.868 998.306 522.002C997.072 518.626 996.381 514.844 996.381 510.851C996.381 496.574 1005.21 485 1016.11 485C1027 485 1035.83 496.574 1035.83 510.851Z"/>
</mask>
<path fill-rule="evenodd" clip-rule="evenodd" d="M1035.83 510.851C1035.83 514.984 1035.09 518.891 1033.78 522.355C1045.49 526.335 1053.43 534.024 1053.43 542.855C1053.43 548.5 1050.19 553.677 1044.79 557.718C1058.79 562.582 1068 570.834 1068 580.196C1068 593.932 1048.18 605.279 1022.48 607.04V636H1007.91V606.997C982.514 605.1 963 593.824 963 580.196C963 570.834 972.209 562.582 986.209 557.718C980.809 553.677 977.566 548.5 977.566 542.855C977.566 533.754 985.997 525.868 998.306 522.002C997.072 518.626 996.381 514.844 996.381 510.851C996.381 496.574 1005.21 485 1016.11 485C1027 485 1035.83 496.574 1035.83 510.851Z" fill="#78925A"/>
<path d="M1033.78 522.355L1032.84 522L1032.47 522.969L1033.45 523.302L1033.78 522.355ZM1044.79 557.718L1044.19 556.917L1042.69 558.045L1044.46 558.663L1044.79 557.718ZM1022.48 607.04L1022.41 606.043L1021.48 606.106V607.04H1022.48ZM1022.48 636V637H1023.48V636H1022.48ZM1007.91 636H1006.91V637H1007.91V636ZM1007.91 606.997H1008.91V606.069L1007.99 606L1007.91 606.997ZM986.209 557.718L986.537 558.663L988.315 558.045L986.808 556.917L986.209 557.718ZM998.306 522.002L998.606 522.956L999.605 522.642L999.245 521.659L998.306 522.002ZM1034.71 522.711C1036.07 519.13 1036.83 515.102 1036.83 510.851H1034.83C1034.83 514.865 1034.11 518.651 1032.84 522L1034.71 522.711ZM1054.43 542.855C1054.43 533.372 1045.96 525.437 1034.1 521.409L1033.45 523.302C1045.03 527.234 1052.43 534.675 1052.43 542.855H1054.43ZM1045.39 558.519C1050.95 554.357 1054.43 548.913 1054.43 542.855H1052.43C1052.43 548.086 1049.43 552.997 1044.19 556.917L1045.39 558.519ZM1069 580.196C1069 575.163 1066.52 570.514 1062.33 566.545C1058.15 562.578 1052.21 559.237 1045.12 556.773L1044.46 558.663C1051.37 561.063 1057.04 564.28 1060.96 567.996C1064.87 571.709 1067 575.867 1067 580.196H1069ZM1022.55 608.038C1035.51 607.15 1047.05 603.841 1055.38 598.972C1063.68 594.122 1069 587.585 1069 580.196H1067C1067 586.543 1062.41 592.547 1054.37 597.245C1046.37 601.924 1035.14 605.17 1022.41 606.043L1022.55 608.038ZM1021.48 607.04V636H1023.48V607.04H1021.48ZM1022.48 635H1007.91V637H1022.48V635ZM1008.91 636V606.997H1006.91V636H1008.91ZM962 580.196C962 587.527 967.239 594.02 975.423 598.857C983.639 603.712 995.025 607.037 1007.84 607.994L1007.99 606C995.402 605.06 984.332 601.799 976.441 597.135C968.518 592.452 964 586.493 964 580.196H962ZM985.881 556.773C978.79 559.237 972.85 562.578 968.666 566.545C964.479 570.514 962 575.163 962 580.196H964C964 575.867 966.125 571.709 970.042 567.996C973.963 564.28 979.628 561.063 986.537 558.663L985.881 556.773ZM976.566 542.855C976.566 548.913 980.049 554.357 985.61 558.519L986.808 556.917C981.57 552.997 978.566 548.086 978.566 542.855H976.566ZM998.006 521.048C985.559 524.957 976.566 533.083 976.566 542.855H978.566C978.566 534.425 986.435 526.778 998.606 522.956L998.006 521.048ZM995.381 510.851C995.381 514.958 996.092 518.857 997.367 522.345L999.245 521.659C998.053 518.395 997.381 514.729 997.381 510.851H995.381ZM1016.11 484C1010.28 484 1005.08 487.097 1001.36 491.965C997.65 496.832 995.381 503.513 995.381 510.851H997.381C997.381 503.912 999.529 497.667 1002.95 493.178C1006.38 488.69 1011.04 486 1016.11 486V484ZM1036.83 510.851C1036.83 503.513 1034.56 496.832 1030.85 491.965C1027.14 487.097 1021.93 484 1016.11 484V486C1021.18 486 1025.84 488.69 1029.26 493.178C1032.69 497.667 1034.83 503.912 1034.83 510.851H1036.83Z" fill="black" mask="url(#path-19-inside-6_0_1)"/>
<mask id="path-21-inside-7_0_1" fill="white">
<path fill-rule="evenodd" clip-rule="evenodd" d="M1373.04 380.573C1373.41 385.675 1372.89 390.559 1371.68 394.946C1385.59 398.889 1395.46 407.723 1396.24 418.626C1396.74 425.594 1393.44 432.255 1387.55 437.69C1404.19 442.536 1415.58 451.961 1416.4 463.518C1417.62 480.476 1395.67 496.125 1366.07 500.426L1368.63 536.178L1351.77 537.384L1349.21 501.578C1319.63 501.34 1296.05 489.034 1294.84 472.211C1294.02 460.653 1303.95 449.703 1319.73 442.54C1313.12 437.998 1308.91 431.875 1308.41 424.907C1307.61 413.671 1316.67 403.237 1330.58 397.446C1328.85 393.38 1327.72 388.769 1327.37 383.839C1326.11 366.214 1335.31 351.195 1347.92 350.293C1360.53 349.391 1371.78 362.948 1373.04 380.573Z"/>
</mask>
<path fill-rule="evenodd" clip-rule="evenodd" d="M1373.04 380.573C1373.41 385.675 1372.89 390.559 1371.68 394.946C1385.59 398.889 1395.46 407.723 1396.24 418.626C1396.74 425.594 1393.44 432.255 1387.55 437.69C1404.19 442.536 1415.58 451.961 1416.4 463.518C1417.62 480.476 1395.67 496.125 1366.07 500.426L1368.63 536.178L1351.77 537.384L1349.21 501.578C1319.63 501.34 1296.05 489.034 1294.84 472.211C1294.02 460.653 1303.95 449.703 1319.73 442.54C1313.12 437.998 1308.91 431.875 1308.41 424.907C1307.61 413.671 1316.67 403.237 1330.58 397.446C1328.85 393.38 1327.72 388.769 1327.37 383.839C1326.11 366.214 1335.31 351.195 1347.92 350.293C1360.53 349.391 1371.78 362.948 1373.04 380.573Z" fill="#78925A"/>
<path d="M1371.68 394.946L1370.71 394.678L1370.45 395.637L1371.4 395.908L1371.68 394.946ZM1387.55 437.69L1386.87 436.955L1385.57 438.155L1387.27 438.65L1387.55 437.69ZM1366.07 500.426L1365.93 499.437L1365.01 499.57L1365.08 500.498L1366.07 500.426ZM1368.63 536.178L1368.7 537.175L1369.7 537.104L1369.63 536.107L1368.63 536.178ZM1351.77 537.384L1350.77 537.455L1350.84 538.453L1351.84 538.381L1351.77 537.384ZM1349.21 501.578L1350.2 501.507L1350.14 500.586L1349.21 500.579L1349.21 501.578ZM1319.73 442.54L1320.14 443.45L1321.76 442.718L1320.3 441.715L1319.73 442.54ZM1330.58 397.446L1330.97 398.369L1331.89 397.982L1331.5 397.055L1330.58 397.446ZM1372.64 395.213C1373.89 390.713 1374.41 385.715 1374.04 380.502L1372.04 380.644C1372.4 385.636 1371.9 390.405 1370.71 394.678L1372.64 395.213ZM1397.24 418.555C1396.42 407.039 1386.05 397.978 1371.95 393.984L1371.4 395.908C1385.14 399.8 1394.51 408.407 1395.25 418.697L1397.24 418.555ZM1388.23 438.425C1394.28 432.846 1397.77 425.908 1397.24 418.555L1395.25 418.697C1395.72 425.281 1392.61 431.663 1386.87 436.955L1388.23 438.425ZM1417.4 463.447C1416.53 451.229 1404.57 441.605 1387.83 436.73L1387.27 438.65C1403.81 443.466 1414.63 452.692 1415.41 463.59L1417.4 463.447ZM1366.22 501.416C1381.14 499.247 1394.19 494.212 1403.38 487.527C1412.55 480.857 1418.04 472.414 1417.4 463.447L1415.41 463.59C1415.98 471.58 1411.1 479.44 1402.2 485.91C1393.33 492.364 1380.6 497.304 1365.93 499.437L1366.22 501.416ZM1365.08 500.498L1367.63 536.249L1369.63 536.107L1367.07 500.355L1365.08 500.498ZM1368.56 535.181L1351.7 536.386L1351.84 538.381L1368.7 537.175L1368.56 535.181ZM1352.76 537.313L1350.2 501.507L1348.21 501.65L1350.77 537.455L1352.76 537.313ZM1293.85 472.282C1294.48 481.178 1301.02 488.706 1310.92 493.996C1320.83 499.297 1334.29 502.458 1349.2 502.578L1349.21 500.579C1334.55 500.46 1321.43 497.349 1311.86 492.232C1302.27 487.104 1296.41 480.067 1295.84 472.139L1293.85 472.282ZM1319.32 441.629C1303.44 448.836 1292.97 460.064 1293.85 472.282L1295.84 472.139C1295.06 461.242 1304.46 450.57 1320.14 443.45L1319.32 441.629ZM1307.41 424.978C1307.94 432.331 1312.38 438.702 1319.16 443.364L1320.3 441.715C1313.86 437.294 1309.88 431.419 1309.41 424.835L1307.41 424.978ZM1330.2 396.523C1316.12 402.385 1306.57 413.112 1307.41 424.978L1309.41 424.835C1308.65 414.231 1317.23 404.089 1330.97 398.369L1330.2 396.523ZM1326.37 383.91C1326.73 388.947 1327.89 393.666 1329.66 397.837L1331.5 397.055C1329.82 393.094 1328.71 388.59 1328.37 383.768L1326.37 383.91ZM1347.85 349.296C1341.14 349.776 1335.43 354.007 1331.59 360.273C1327.75 366.54 1325.73 374.914 1326.37 383.91L1328.37 383.768C1327.75 375.14 1329.7 367.191 1333.3 361.317C1336.9 355.442 1342.09 351.713 1347.99 351.291L1347.85 349.296ZM1374.04 380.502C1373.4 371.505 1370.2 363.505 1365.51 357.847C1360.82 352.191 1354.56 348.816 1347.85 349.296L1347.99 351.291C1353.9 350.869 1359.57 353.821 1363.97 359.124C1368.37 364.426 1371.43 372.016 1372.04 380.644L1374.04 380.502Z" fill="black" mask="url(#path-21-inside-7_0_1)"/>
<mask id="path-23-inside-8_0_1" fill="white">
<path fill-rule="evenodd" clip-rule="evenodd" d="M634.815 659.652C634.815 663.594 634.166 667.319 633.013 670.624C643.281 674.419 650.237 681.751 650.237 690.173C650.237 695.556 647.396 700.493 642.665 704.347C654.931 708.985 663 716.855 663 725.783C663 738.882 645.63 749.704 623.116 751.383V779H610.353V751.341C588.098 749.533 571 738.779 571 725.783C571 716.855 579.069 708.985 591.335 704.347C586.604 700.494 583.763 695.556 583.763 690.173C583.763 681.494 591.15 673.973 601.935 670.286C600.854 667.067 600.249 663.46 600.249 659.652C600.249 646.037 607.986 635 617.532 635C627.077 635 634.815 646.037 634.815 659.652Z"/>
</mask>
<path fill-rule="evenodd" clip-rule="evenodd" d="M634.815 659.652C634.815 663.594 634.166 667.319 633.013 670.624C643.281 674.419 650.237 681.751 650.237 690.173C650.237 695.556 647.396 700.493 642.665 704.347C654.931 708.985 663 716.855 663 725.783C663 738.882 645.63 749.704 623.116 751.383V779H610.353V751.341C588.098 749.533 571 738.779 571 725.783C571 716.855 579.069 708.985 591.335 704.347C586.604 700.494 583.763 695.556 583.763 690.173C583.763 681.494 591.15 673.973 601.935 670.286C600.854 667.067 600.249 663.46 600.249 659.652C600.249 646.037 607.986 635 617.532 635C627.077 635 634.815 646.037 634.815 659.652Z" fill="#507647"/>
<path d="M633.013 670.624L632.069 670.294L631.746 671.221L632.667 671.562L633.013 670.624ZM642.665 704.347L642.033 703.572L640.687 704.668L642.311 705.282L642.665 704.347ZM623.116 751.383L623.042 750.386L622.116 750.455V751.383H623.116ZM623.116 779V780H624.116V779H623.116ZM610.353 779H609.353V780H610.353V779ZM610.353 751.341H611.353V750.419L610.434 750.345L610.353 751.341ZM591.335 704.347L591.689 705.282L593.313 704.668L591.967 703.572L591.335 704.347ZM601.935 670.286L602.258 671.233L603.199 670.911L602.883 669.968L601.935 670.286ZM633.957 670.953C635.149 667.54 635.815 663.702 635.815 659.652H633.815C633.815 663.485 633.184 667.099 632.069 670.294L633.957 670.953ZM651.237 690.173C651.237 681.149 643.814 673.55 633.36 669.686L632.667 671.562C642.747 675.288 649.237 682.353 649.237 690.173H651.237ZM643.296 705.122C648.193 701.133 651.237 695.934 651.237 690.173H649.237C649.237 695.179 646.598 699.853 642.033 703.572L643.296 705.122ZM664 725.783C664 716.205 655.395 708.092 643.018 703.412L642.311 705.282C654.468 709.879 662 717.505 662 725.783H664ZM623.19 752.38C634.574 751.531 644.713 748.368 652.037 743.709C659.343 739.062 664 732.812 664 725.783H662C662 731.853 657.972 737.564 650.964 742.022C643.975 746.468 634.171 749.555 623.042 750.386L623.19 752.38ZM622.116 751.383V779H624.116V751.383H622.116ZM623.116 778H610.353V780H623.116V778ZM611.353 779V751.341H609.353V779H611.353ZM570 725.783C570 732.757 574.584 738.963 581.79 743.598C589.013 748.245 599.018 751.424 610.272 752.338L610.434 750.345C599.433 749.451 589.761 746.348 582.872 741.916C575.965 737.473 572 731.805 572 725.783H570ZM590.982 703.412C578.605 708.092 570 716.205 570 725.783H572C572 717.505 579.532 709.879 591.689 705.282L590.982 703.412ZM582.763 690.173C582.763 695.934 585.806 701.133 590.704 705.122L591.967 703.572C587.402 699.854 584.763 695.179 584.763 690.173H582.763ZM601.611 669.34C590.641 673.09 582.763 680.874 582.763 690.173H584.763C584.763 682.115 591.659 674.856 602.258 671.233L601.611 669.34ZM599.249 659.652C599.249 663.565 599.87 667.279 600.987 670.605L602.883 669.968C601.837 666.854 601.249 663.355 601.249 659.652H599.249ZM617.532 634C612.344 634 607.749 637.001 604.492 641.646C601.233 646.295 599.249 652.664 599.249 659.652H601.249C601.249 653.025 603.133 647.068 606.129 642.795C609.128 638.518 613.174 636 617.532 636V634ZM635.815 659.652C635.815 652.664 633.831 646.295 630.572 641.646C627.315 637.001 622.72 634 617.532 634V636C621.889 636 625.936 638.518 628.934 642.795C631.93 647.068 633.815 653.025 633.815 659.652H635.815Z" fill="black" mask="url(#path-23-inside-8_0_1)"/>
<mask id="path-25-inside-9_0_1" fill="white">
<path fill-rule="evenodd" clip-rule="evenodd" d="M427.815 539.337C427.815 543.388 427.166 547.217 426.013 550.613C436.281 554.514 443.237 562.05 443.237 570.706C443.237 576.238 440.396 581.313 435.664 585.273C447.931 590.041 456 598.129 456 607.305C456 620.768 438.63 631.89 416.116 633.616V662H403.353V633.573C381.098 631.715 364 620.662 364 607.305C364 598.129 372.069 590.041 384.335 585.273C379.604 581.313 376.763 576.238 376.763 570.706C376.763 561.786 384.15 554.056 394.935 550.267C393.854 546.958 393.249 543.251 393.249 539.337C393.249 525.344 400.986 514 410.532 514C420.077 514 427.815 525.344 427.815 539.337Z"/>
</mask>
<path fill-rule="evenodd" clip-rule="evenodd" d="M427.815 539.337C427.815 543.388 427.166 547.217 426.013 550.613C436.281 554.514 443.237 562.05 443.237 570.706C443.237 576.238 440.396 581.313 435.664 585.273C447.931 590.041 456 598.129 456 607.305C456 620.768 438.63 631.89 416.116 633.616V662H403.353V633.573C381.098 631.715 364 620.662 364 607.305C364 598.129 372.069 590.041 384.335 585.273C379.604 581.313 376.763 576.238 376.763 570.706C376.763 561.786 384.15 554.056 394.935 550.267C393.854 546.958 393.249 543.251 393.249 539.337C393.249 525.344 400.986 514 410.532 514C420.077 514 427.815 525.344 427.815 539.337Z" fill="#78925A"/>
<path d="M426.013 550.613L425.066 550.292L424.756 551.205L425.658 551.548L426.013 550.613ZM435.664 585.273L435.023 584.507L433.725 585.593L435.302 586.205L435.664 585.273ZM416.116 633.616L416.039 632.619L415.116 632.69V633.616H416.116ZM416.116 662V663H417.116V662H416.116ZM403.353 662H402.353V663H403.353V662ZM403.353 633.573H404.353V632.653L403.436 632.577L403.353 633.573ZM384.335 585.273L384.698 586.205L386.275 585.593L384.977 584.507L384.335 585.273ZM394.935 550.267L395.266 551.21L396.189 550.886L395.885 549.956L394.935 550.267ZM426.96 550.935C428.15 547.432 428.815 543.494 428.815 539.337H426.815C426.815 543.283 426.183 547.003 425.066 550.292L426.96 550.935ZM444.237 570.706C444.237 561.464 436.836 553.655 426.368 549.679L425.658 551.548C435.726 555.373 442.237 562.636 442.237 570.706H444.237ZM436.306 586.04C441.204 581.94 444.237 576.605 444.237 570.706H442.237C442.237 575.872 439.587 580.686 435.023 584.507L436.306 586.04ZM457 607.305C457 597.494 448.417 589.157 436.027 584.341L435.302 586.205C447.445 590.925 455 598.764 455 607.305H457ZM416.192 634.613C427.581 633.74 437.722 630.488 445.048 625.699C452.359 620.919 457 614.503 457 607.305H455C455 613.57 450.956 619.446 443.953 624.025C436.965 628.594 427.165 631.766 416.039 632.619L416.192 634.613ZM415.116 633.616V662H417.116V633.616H415.116ZM416.116 661H403.353V663H416.116V661ZM404.353 662V633.573H402.353V662H404.353ZM363 607.305C363 614.446 367.569 620.818 374.779 625.585C382.003 630.361 392.012 633.63 403.27 634.57L403.436 632.577C392.439 631.658 382.771 628.471 375.882 623.917C368.98 619.354 365 613.521 365 607.305H363ZM383.973 584.341C371.583 589.157 363 597.494 363 607.305H365C365 598.764 372.555 590.925 384.698 586.205L383.973 584.341ZM375.763 570.706C375.763 576.605 378.796 581.94 383.694 586.04L384.977 584.507C380.413 580.686 377.763 575.872 377.763 570.706H375.763ZM394.603 549.323C383.619 553.182 375.763 561.182 375.763 570.706H377.763C377.763 562.39 384.681 554.929 395.266 551.21L394.603 549.323ZM392.249 539.337C392.249 543.353 392.87 547.165 393.984 550.577L395.885 549.956C394.838 546.751 394.249 543.149 394.249 539.337H392.249ZM410.532 513C405.331 513 400.736 516.091 397.485 520.858C394.23 525.629 392.249 532.166 392.249 539.337H394.249C394.249 532.515 396.136 526.383 399.137 521.985C402.141 517.581 406.187 515 410.532 515V513ZM428.815 539.337C428.815 532.166 426.834 525.629 423.579 520.858C420.327 516.091 415.732 513 410.532 513V515C414.877 515 418.923 517.581 421.927 521.985C424.927 526.383 426.815 532.515 426.815 539.337H428.815Z" fill="black" mask="url(#path-25-inside-9_0_1)"/>
<mask id="path-27-inside-10_0_1" fill="white">
<path fill-rule="evenodd" clip-rule="evenodd" d="M242.727 472.092C243.513 449.219 224.238 429.351 198.787 427.274C174.558 425.297 153.237 440.14 148.717 461.153C137.131 468.318 129.51 478.744 128.524 490.838C126.621 514.152 150.05 535.343 181.801 540.06L180.138 560.443L175.108 565.201L195.466 566.862L191.527 561.685L193.214 541.013C225.462 541.632 252.198 524.48 254.106 501.083C254.966 490.544 250.649 480.438 242.727 472.092Z"/>
</mask>
<path fill-rule="evenodd" clip-rule="evenodd" d="M242.727 472.092C243.513 449.219 224.238 429.351 198.787 427.274C174.558 425.297 153.237 440.14 148.717 461.153C137.131 468.318 129.51 478.744 128.524 490.838C126.621 514.152 150.05 535.343 181.801 540.06L180.138 560.443L175.108 565.201L195.466 566.862L191.527 561.685L193.214 541.013C225.462 541.632 252.198 524.48 254.106 501.083C254.966 490.544 250.649 480.438 242.727 472.092Z" fill="#A8747B"/>
<path d="M242.727 472.092L241.728 472.058L241.713 472.477L242.002 472.78L242.727 472.092ZM148.717 461.153L149.243 462.004L149.605 461.78L149.695 461.364L148.717 461.153ZM181.801 540.06L182.798 540.141L182.874 539.208L181.948 539.071L181.801 540.06ZM180.138 560.443L180.825 561.169L181.104 560.906L181.135 560.524L180.138 560.443ZM175.108 565.201L174.42 564.474L172.791 566.015L175.026 566.198L175.108 565.201ZM195.466 566.862L195.385 567.859L197.62 568.041L196.262 566.256L195.466 566.862ZM191.527 561.685L190.531 561.604L190.499 561.985L190.731 562.29L191.527 561.685ZM193.214 541.013L193.233 540.013L192.294 539.995L192.217 540.932L193.214 541.013ZM243.726 472.126C244.534 448.636 224.764 428.39 198.868 426.278L198.706 428.271C223.711 430.311 242.493 449.802 241.728 472.058L243.726 472.126ZM198.868 426.278C174.211 424.266 152.38 439.371 147.739 460.943L149.695 461.364C154.095 440.908 174.904 426.329 198.706 428.271L198.868 426.278ZM129.52 490.919C130.475 479.222 137.85 469.049 149.243 462.004L148.191 460.303C136.411 467.587 128.546 478.265 127.527 490.756L129.52 490.919ZM181.948 539.071C166.244 536.738 152.642 530.336 143.219 521.686C133.797 513.037 128.6 502.194 129.52 490.919L127.527 490.756C126.545 502.795 132.112 514.205 141.866 523.159C151.62 532.113 165.607 538.665 181.654 541.049L181.948 539.071ZM181.135 560.524L182.798 540.141L180.805 539.979L179.142 560.361L181.135 560.524ZM175.795 565.927L180.825 561.169L179.451 559.716L174.42 564.474L175.795 565.927ZM195.548 565.865L175.189 564.204L175.026 566.198L195.385 567.859L195.548 565.865ZM190.731 562.29L194.67 567.467L196.262 566.256L192.323 561.079L190.731 562.29ZM192.217 540.932L190.531 561.604L192.524 561.766L194.21 541.094L192.217 540.932ZM253.11 501.002C252.186 512.317 245.256 522.204 234.492 529.216C223.727 536.228 209.183 540.319 193.233 540.013L193.195 542.013C209.493 542.325 224.441 538.15 235.583 530.892C246.726 523.633 254.117 513.246 255.103 501.164L253.11 501.002ZM242.002 472.78C249.773 480.968 253.942 490.805 253.11 501.002L255.103 501.164C255.991 490.282 251.525 479.908 243.452 471.404L242.002 472.78Z" fill="black" mask="url(#path-27-inside-10_0_1)"/>
<mask id="path-29-inside-11_0_1" fill="white">
<path fill-rule="evenodd" clip-rule="evenodd" d="M911.447 668.778C909.707 646.351 888.358 629.054 862.834 629.81C838.534 630.529 818.981 647.358 816.806 668.377C806.08 676.642 799.656 687.659 800.009 699.579C800.69 722.558 826.312 740.693 858.389 741.828L858.984 761.918L854.509 767.116L874.926 766.511L870.44 761.885L869.837 741.51C901.956 738.587 926.637 718.91 925.954 695.85C925.646 685.461 920.241 676.063 911.447 668.778Z"/>
</mask>
<path fill-rule="evenodd" clip-rule="evenodd" d="M911.447 668.778C909.707 646.351 888.358 629.054 862.834 629.81C838.534 630.529 818.981 647.358 816.806 668.377C806.08 676.642 799.656 687.659 800.009 699.579C800.69 722.558 826.312 740.693 858.389 741.828L858.984 761.918L854.509 767.116L874.926 766.511L870.44 761.885L869.837 741.51C901.956 738.587 926.637 718.91 925.954 695.85C925.646 685.461 920.241 676.063 911.447 668.778Z" fill="#A8747B"/>
<path d="M911.447 668.778L910.45 668.855L910.483 669.278L910.809 669.548L911.447 668.778ZM816.806 668.377L817.416 669.169L817.756 668.907L817.8 668.48L816.806 668.377ZM858.389 741.828L859.388 741.798L859.361 740.861L858.424 740.828L858.389 741.828ZM858.984 761.918L859.742 762.57L859.995 762.276L859.983 761.888L858.984 761.918ZM854.509 767.116L853.751 766.463L852.27 768.182L854.538 768.115L854.509 767.116ZM874.926 766.511L874.955 767.51L877.223 767.443L875.644 765.815L874.926 766.511ZM870.44 761.885L869.441 761.915L869.452 762.303L869.722 762.582L870.44 761.885ZM869.837 741.51L869.746 740.514L868.809 740.6L868.837 741.54L869.837 741.51ZM912.444 668.701C910.655 645.645 888.758 628.042 862.804 628.81L862.863 630.809C887.957 630.066 908.758 647.058 910.45 668.855L912.444 668.701ZM862.804 628.81C838.09 629.542 818.046 646.676 815.811 668.274L817.8 668.48C819.916 648.041 838.979 631.516 862.863 630.809L862.804 628.81ZM801.009 699.549C800.668 688.035 806.869 677.297 817.416 669.169L816.195 667.585C805.292 675.987 798.645 687.283 799.01 699.608L801.009 699.549ZM858.424 740.828C842.556 740.267 828.328 735.501 818.009 728.083C807.69 720.665 801.337 710.649 801.009 699.549L799.01 699.608C799.361 711.488 806.16 722.029 816.842 729.707C827.523 737.385 842.145 742.254 858.354 742.827L858.424 740.828ZM859.983 761.888L859.388 741.798L857.389 741.857L857.984 761.947L859.983 761.888ZM855.266 767.768L859.742 762.57L858.226 761.265L853.751 766.463L855.266 767.768ZM874.896 765.511L854.479 766.116L854.538 768.115L874.955 767.51L874.896 765.511ZM869.722 762.582L874.208 767.207L875.644 765.815L871.158 761.189L869.722 762.582ZM868.837 741.54L869.441 761.915L871.44 761.856L870.836 741.481L868.837 741.54ZM924.954 695.879C925.284 707.018 919.493 717.427 909.567 725.454C899.641 733.48 885.636 739.068 869.746 740.514L869.927 742.506C886.157 741.029 900.551 735.317 910.825 727.009C921.098 718.701 927.306 707.742 926.953 695.82L924.954 695.879ZM910.809 669.548C919.436 676.694 924.657 685.841 924.954 695.879L926.953 695.82C926.635 685.081 921.047 675.432 912.085 668.008L910.809 669.548Z" fill="black" mask="url(#path-29-inside-11_0_1)"/>
<mask id="path-31-inside-12_0_1" fill="white">
<path fill-rule="evenodd" clip-rule="evenodd" d="M1563.78 339.388C1564.54 316.907 1545.24 297.351 1519.79 295.274C1495.56 293.297 1474.26 307.857 1469.77 328.505C1458.19 335.532 1450.59 345.768 1449.62 357.654C1447.75 380.568 1471.21 401.43 1502.96 406.11L1501.33 426.143L1496.3 430.813L1516.66 432.474L1512.72 427.38L1514.37 407.063C1546.62 407.716 1573.33 390.894 1575.2 367.9C1576.05 357.542 1571.72 347.603 1563.78 339.388Z"/>
</mask>
<path fill-rule="evenodd" clip-rule="evenodd" d="M1563.78 339.388C1564.54 316.907 1545.24 297.351 1519.79 295.274C1495.56 293.297 1474.26 307.857 1469.77 328.505C1458.19 335.532 1450.59 345.768 1449.62 357.654C1447.75 380.568 1471.21 401.43 1502.96 406.11L1501.33 426.143L1496.3 430.813L1516.66 432.474L1512.72 427.38L1514.37 407.063C1546.62 407.716 1573.33 390.894 1575.2 367.9C1576.05 357.542 1571.72 347.603 1563.78 339.388Z" fill="#A8747B"/>
<path d="M1563.78 339.388L1562.79 339.355L1562.77 339.778L1563.07 340.083L1563.78 339.388ZM1469.77 328.505L1470.29 329.36L1470.66 329.137L1470.75 328.718L1469.77 328.505ZM1502.96 406.11L1503.96 406.192L1504.03 405.258L1503.11 405.121L1502.96 406.11ZM1501.33 426.143L1502.01 426.875L1502.29 426.611L1502.32 426.224L1501.33 426.143ZM1496.3 430.813L1495.62 430.08L1493.96 431.625L1496.22 431.809L1496.3 430.813ZM1516.66 432.474L1516.58 433.47L1518.84 433.655L1517.45 431.861L1516.66 432.474ZM1512.72 427.38L1511.72 427.298L1511.69 427.685L1511.92 427.992L1512.72 427.38ZM1514.37 407.063L1514.39 406.063L1513.45 406.044L1513.38 406.982L1514.37 407.063ZM1564.78 339.422C1565.56 316.309 1545.75 296.389 1519.87 294.278L1519.71 296.271C1544.73 298.312 1563.52 317.504 1562.79 339.355L1564.78 339.422ZM1519.87 294.278C1495.22 292.267 1473.41 307.075 1468.79 328.293L1470.75 328.718C1475.11 308.638 1495.89 294.328 1519.71 296.271L1519.87 294.278ZM1450.62 357.736C1451.55 346.254 1458.91 336.27 1470.29 329.36L1469.25 327.65C1457.48 334.793 1449.63 345.283 1448.62 357.573L1450.62 357.736ZM1503.11 405.121C1487.4 402.805 1473.79 396.492 1464.35 387.977C1454.92 379.462 1449.71 368.803 1450.62 357.736L1448.62 357.573C1447.66 369.419 1453.25 380.648 1463.01 389.462C1472.78 398.276 1486.77 404.735 1502.81 407.1L1503.11 405.121ZM1502.32 426.224L1503.96 406.192L1501.96 406.029L1500.33 426.061L1502.32 426.224ZM1496.98 431.545L1502.01 426.875L1500.65 425.41L1495.62 430.08L1496.98 431.545ZM1516.74 431.477L1496.38 429.816L1496.22 431.809L1516.58 433.47L1516.74 431.477ZM1511.92 427.992L1515.87 433.086L1517.45 431.861L1513.51 426.767L1511.92 427.992ZM1513.38 406.982L1511.72 427.298L1513.71 427.461L1515.37 407.144L1513.38 406.982ZM1574.21 367.819C1573.3 378.925 1566.39 388.629 1555.64 395.507C1544.88 402.384 1530.35 406.386 1514.39 406.063L1514.35 408.063C1530.65 408.393 1545.58 404.31 1556.72 397.192C1567.85 390.073 1575.23 379.869 1576.2 367.981L1574.21 367.819ZM1563.07 340.083C1570.85 348.141 1575.02 357.81 1574.21 367.819L1576.2 367.981C1577.07 357.274 1572.59 347.064 1564.5 338.693L1563.07 340.083Z" fill="black" mask="url(#path-31-inside-12_0_1)"/>
<mask id="path-33-inside-13_0_1" fill="white">
<path fill-rule="evenodd" clip-rule="evenodd" d="M1280.09 543C1280.14 560.815 1252.03 575.595 1215.63 577.884L1215.69 600.798L1222.72 609.399L1189.81 609.484L1197.24 600.291L1197.18 577.959C1160.55 575.953 1132.14 561.273 1132.09 543.384C1132.04 524.054 1165.13 508.298 1206 508.192C1246.87 508.086 1280.04 523.67 1280.09 543Z"/>
</mask>
<path fill-rule="evenodd" clip-rule="evenodd" d="M1280.09 543C1280.14 560.815 1252.03 575.595 1215.63 577.884L1215.69 600.798L1222.72 609.399L1189.81 609.484L1197.24 600.291L1197.18 577.959C1160.55 575.953 1132.14 561.273 1132.09 543.384C1132.04 524.054 1165.13 508.298 1206 508.192C1246.87 508.086 1280.04 523.67 1280.09 543Z" fill="#57894B"/>
<path d="M1215.63 577.884L1215.57 576.886L1214.63 576.945L1214.63 577.887L1215.63 577.884ZM1215.69 600.798L1214.69 600.801L1214.69 601.156L1214.92 601.431L1215.69 600.798ZM1222.72 609.399L1222.72 610.399L1224.82 610.393L1223.49 608.766L1222.72 609.399ZM1189.81 609.484L1189.03 608.856L1187.71 610.49L1189.81 610.484L1189.81 609.484ZM1197.24 600.291L1198.02 600.92L1198.24 600.643L1198.24 600.288L1197.24 600.291ZM1197.18 577.959L1198.18 577.956L1198.18 577.012L1197.24 576.96L1197.18 577.959ZM1215.69 578.882C1234 577.731 1250.27 573.438 1262 567.146C1273.67 560.882 1281.11 552.472 1281.09 542.997L1279.09 543.002C1279.11 551.343 1272.52 559.23 1261.06 565.383C1249.64 571.507 1233.66 575.748 1215.57 576.886L1215.69 578.882ZM1216.69 600.795L1216.63 577.882L1214.63 577.887L1214.69 600.801L1216.69 600.795ZM1214.92 601.431L1221.94 610.031L1223.49 608.766L1216.47 600.165L1214.92 601.431ZM1222.71 608.399L1189.81 608.484L1189.81 610.484L1222.72 610.399L1222.71 608.399ZM1190.59 610.113L1198.02 600.92L1196.46 599.662L1189.03 608.856L1190.59 610.113ZM1196.18 577.961L1196.24 600.294L1198.24 600.288L1198.18 577.956L1196.18 577.961ZM1131.09 543.386C1131.12 552.9 1138.66 561.302 1150.45 567.512C1162.3 573.752 1178.71 577.949 1197.13 578.957L1197.24 576.96C1179.03 575.963 1162.91 571.817 1151.38 565.743C1139.8 559.64 1133.11 551.756 1133.09 543.381L1131.09 543.386ZM1206 507.192C1185.45 507.245 1166.81 511.231 1153.27 517.676C1139.81 524.085 1131.06 533.109 1131.09 543.386L1133.09 543.381C1133.07 534.328 1140.84 525.81 1154.13 519.482C1167.34 513.19 1185.68 509.245 1206 509.192L1206 507.192ZM1281.09 542.997C1281.06 532.72 1272.27 523.741 1258.78 517.402C1245.21 511.028 1226.55 507.139 1206 507.192L1206 509.192C1226.32 509.139 1244.68 512.989 1257.93 519.212C1271.25 525.472 1279.07 533.95 1279.09 543.002L1281.09 542.997Z" fill="black" mask="url(#path-33-inside-13_0_1)"/>
<path d="M1159.25 597.856C1043.57 578.661 913.878 701.275 863.494 764.981H1517.18C1532.88 663.217 1554.87 453.73 1517.18 429.903C1470.07 400.118 1303.86 621.849 1159.25 597.856Z" fill="#9CBF94" stroke="black"/>
<path d="M-68 597.942C-8.9639 568.555 146.759 527.414 297.363 597.942C412.64 651.926 533.026 735.432 630.651 781.878C742.412 786.999 809.711 795.401 781.624 808.637C745.135 825.832 692.454 811.281 630.651 781.878C442.774 773.268 129.249 773.928 -68 776.478V597.942Z" fill="#9CBF94" stroke="black"/>
<path d="M66.7783 610C74.6115 610 80.9617 614.625 80.9619 620.33C80.9619 621.831 80.5215 623.256 79.7314 624.543C84.6108 626.176 87.9998 629.764 88 633.932C88 639.637 81.6497 644.263 73.8164 644.263C73.3482 644.263 72.8853 644.244 72.4287 644.212C72.4288 644.229 72.4297 644.245 72.4297 644.262C72.4297 649.967 66.0795 654.593 58.2461 654.593C50.9461 654.593 44.9352 650.576 44.1504 645.411C43.1935 645.559 42.2012 645.64 41.1836 645.64C33.3503 645.64 27.0002 641.015 27 635.31C27 631.623 29.653 628.389 33.6436 626.561C32.9363 625.332 32.5459 623.984 32.5459 622.568C32.5459 616.863 38.8961 612.238 46.7295 612.238C49.9287 612.238 52.8801 613.01 55.2529 614.312C57.8272 611.702 62.0294 610 66.7783 610Z" fill="#FDD657"/>
<ellipse cx="57.6253" cy="632.108" rx="9.06472" ry="6.02602" fill="#FFEDAC"/>
<path d="M289.778 639C297.611 639 303.962 643.625 303.962 649.33C303.962 650.831 303.522 652.256 302.731 653.543C307.611 655.176 311 658.764 311 662.932C311 668.637 304.65 673.263 296.816 673.263C296.348 673.263 295.885 673.244 295.429 673.212C295.429 673.229 295.43 673.245 295.43 673.262C295.43 678.967 289.079 683.593 281.246 683.593C273.946 683.593 267.935 679.576 267.15 674.411C266.194 674.559 265.201 674.64 264.184 674.64C256.35 674.64 250 670.015 250 664.31C250 660.623 252.653 657.389 256.644 655.561C255.936 654.332 255.546 652.984 255.546 651.568C255.546 645.863 261.896 641.238 269.729 641.238C272.929 641.238 275.88 642.01 278.253 643.312C280.827 640.702 285.029 639 289.778 639Z" fill="#FDD657"/>
<ellipse cx="280.625" cy="661.108" rx="9.06472" ry="6.02602" fill="#FFEDAC"/>
<path d="M398.038 692C406.513 692 413.385 697.485 413.385 704.252C413.385 706.031 412.909 707.721 412.056 709.246C417.334 711.183 421 715.442 421 720.384C421 727.15 414.13 732.637 405.654 732.637C405.148 732.637 404.646 732.615 404.152 732.577C404.152 732.597 404.153 732.617 404.153 732.637C404.153 739.403 397.283 744.889 388.808 744.889C380.909 744.889 374.406 740.125 373.557 734C372.521 734.176 371.447 734.271 370.346 734.271C361.87 734.27 355 728.784 355 722.018C355 717.645 357.87 713.808 362.188 711.64C361.423 710.184 361 708.585 361 706.907C361 700.141 367.87 694.654 376.346 694.654C379.806 694.654 382.998 695.57 385.565 697.112C388.351 694.016 392.9 692 398.038 692Z" fill="#FFEDAC"/>
<ellipse cx="388.115" cy="718.138" rx="9.80767" ry="7.14714" fill="#FDD657"/>
<path d="M163.907 682C173.538 682 181.346 687.601 181.346 694.51C181.346 696.326 180.805 698.051 179.835 699.608C185.834 701.586 190 705.934 190 710.98C190 717.889 182.192 723.49 172.561 723.49C171.985 723.49 171.417 723.469 170.855 723.43C170.856 723.45 170.857 723.47 170.857 723.49C170.857 730.399 163.049 736 153.418 736C144.443 736 137.052 731.136 136.087 724.883C134.91 725.062 133.69 725.158 132.438 725.158C122.807 725.158 115 719.557 115 712.648C115 708.184 118.261 704.265 123.167 702.052C122.298 700.565 121.818 698.933 121.818 697.22C121.819 690.311 129.626 684.711 139.257 684.711C143.189 684.711 146.817 685.644 149.734 687.219C152.899 684.058 158.068 682 163.907 682Z" fill="#FFEDAC"/>
<ellipse cx="152.631" cy="708.687" rx="11.1451" ry="7.29729" fill="#FDD657"/>
<path d="M1319.78 596C1327.61 596 1333.96 600.625 1333.96 606.33C1333.96 607.831 1333.52 609.256 1332.73 610.543C1337.61 612.176 1341 615.764 1341 619.932C1341 625.637 1334.65 630.263 1326.82 630.263C1326.35 630.263 1325.89 630.244 1325.43 630.212C1325.43 630.229 1325.43 630.245 1325.43 630.262C1325.43 635.967 1319.08 640.593 1311.25 640.593C1303.95 640.593 1297.94 636.576 1297.15 631.411C1296.19 631.559 1295.2 631.64 1294.18 631.64C1286.35 631.64 1280 627.015 1280 621.31C1280 617.623 1282.65 614.389 1286.64 612.561C1285.94 611.332 1285.55 609.984 1285.55 608.568C1285.55 602.863 1291.9 598.238 1299.73 598.238C1302.93 598.238 1305.88 599.01 1308.25 600.312C1310.83 597.702 1315.03 596 1319.78 596Z" fill="#FFEDAC"/>
<ellipse cx="1310.63" cy="618.108" rx="9.06472" ry="6.02602" fill="#FDD657"/>
<path d="M1455.78 628C1463.61 628 1469.96 632.625 1469.96 638.33C1469.96 639.831 1469.52 641.256 1468.73 642.543C1473.61 644.176 1477 647.764 1477 651.932C1477 657.637 1470.65 662.263 1462.82 662.263C1462.35 662.263 1461.89 662.244 1461.43 662.212C1461.43 662.229 1461.43 662.245 1461.43 662.262C1461.43 667.967 1455.08 672.593 1447.25 672.593C1439.95 672.593 1433.94 668.576 1433.15 663.411C1432.19 663.559 1431.2 663.64 1430.18 663.64C1422.35 663.64 1416 659.015 1416 653.31C1416 649.623 1418.65 646.389 1422.64 644.561C1421.94 643.332 1421.55 641.984 1421.55 640.568C1421.55 634.863 1427.9 630.238 1435.73 630.238C1438.93 630.238 1441.88 631.01 1444.25 632.312C1446.83 629.702 1451.03 628 1455.78 628Z" fill="#FFEDAC"/>
<ellipse cx="1446.63" cy="650.108" rx="9.06472" ry="6.02602" fill="#FDD657"/>
<path d="M1133.78 647C1141.61 647 1147.96 651.625 1147.96 657.33C1147.96 658.831 1147.52 660.256 1146.73 661.543C1151.61 663.176 1155 666.764 1155 670.932C1155 676.637 1148.65 681.263 1140.82 681.263C1140.35 681.263 1139.89 681.244 1139.43 681.212C1139.43 681.229 1139.43 681.245 1139.43 681.262C1139.43 686.967 1133.08 691.593 1125.25 691.593C1117.95 691.593 1111.94 687.576 1111.15 682.411C1110.19 682.559 1109.2 682.64 1108.18 682.64C1100.35 682.64 1094 678.015 1094 672.31C1094 668.623 1096.65 665.389 1100.64 663.561C1099.94 662.332 1099.55 660.984 1099.55 659.568C1099.55 653.863 1105.9 649.238 1113.73 649.238C1116.93 649.238 1119.88 650.01 1122.25 651.312C1124.83 648.702 1129.03 647 1133.78 647Z" fill="#FDD657"/>
<ellipse cx="1124.63" cy="669.108" rx="9.06472" ry="6.02602" fill="#FFEDAC"/>
<path d="M1464.78 522C1472.61 522 1478.96 526.625 1478.96 532.33C1478.96 533.831 1478.52 535.256 1477.73 536.543C1482.61 538.176 1486 541.764 1486 545.932C1486 551.637 1479.65 556.263 1471.82 556.263C1471.35 556.263 1470.89 556.244 1470.43 556.212C1470.43 556.229 1470.43 556.245 1470.43 556.262C1470.43 561.967 1464.08 566.593 1456.25 566.593C1448.95 566.593 1442.94 562.576 1442.15 557.411C1441.19 557.559 1440.2 557.64 1439.18 557.64C1431.35 557.64 1425 553.015 1425 547.31C1425 543.623 1427.65 540.389 1431.64 538.561C1430.94 537.332 1430.55 535.984 1430.55 534.568C1430.55 528.863 1436.9 524.238 1444.73 524.238C1447.93 524.238 1450.88 525.01 1453.25 526.312C1455.83 523.702 1460.03 522 1464.78 522Z" fill="#FDD657"/>
<ellipse cx="1455.63" cy="544.108" rx="9.06472" ry="6.02602" fill="#FFEDAC"/>
<ellipse cx="1455.63" cy="544.108" rx="9.06472" ry="6.02602" fill="#FFEDAC"/>
<path d="M1362.78 685C1370.61 685 1376.96 689.625 1376.96 695.33C1376.96 696.831 1376.52 698.256 1375.73 699.543C1380.61 701.176 1384 704.764 1384 708.932C1384 714.637 1377.65 719.263 1369.82 719.263C1369.35 719.263 1368.89 719.244 1368.43 719.212C1368.43 719.229 1368.43 719.245 1368.43 719.262C1368.43 724.967 1362.08 729.593 1354.25 729.593C1346.95 729.593 1340.94 725.576 1340.15 720.411C1339.19 720.559 1338.2 720.64 1337.18 720.64C1329.35 720.64 1323 716.015 1323 710.31C1323 706.623 1325.65 703.389 1329.64 701.561C1328.94 700.332 1328.55 698.984 1328.55 697.568C1328.55 691.863 1334.9 687.238 1342.73 687.238C1345.93 687.238 1348.88 688.01 1351.25 689.312C1353.83 686.702 1358.03 685 1362.78 685Z" fill="#FDD657"/>
<ellipse cx="1353.63" cy="707.108" rx="9.06472" ry="6.02602" fill="#FFEDAC"/>
<path d="M1017.04 692C1025.51 692 1032.38 697.485 1032.38 704.252C1032.38 706.031 1031.91 707.721 1031.06 709.246C1036.33 711.183 1040 715.442 1040 720.384C1040 727.15 1033.13 732.637 1024.65 732.637C1024.15 732.637 1023.65 732.615 1023.15 732.577C1023.15 732.597 1023.15 732.617 1023.15 732.637C1023.15 739.403 1016.28 744.889 1007.81 744.889C999.909 744.889 993.406 740.125 992.557 734C991.521 734.176 990.447 734.271 989.346 734.271C980.87 734.27 974 728.784 974 722.018C974 717.645 976.87 713.808 981.188 711.64C980.423 710.184 980 708.585 980 706.907C980 700.141 986.87 694.654 995.346 694.654C998.806 694.654 1002 695.57 1004.57 697.112C1007.35 694.016 1011.9 692 1017.04 692Z" fill="#FFEDAC"/>
<ellipse cx="1007.12" cy="718.138" rx="9.80767" ry="7.14714" fill="#FDD657"/>
<path d="M1243.04 685C1251.51 685 1258.38 690.485 1258.38 697.252C1258.38 699.031 1257.91 700.721 1257.06 702.246C1262.33 704.183 1266 708.442 1266 713.384C1266 720.15 1259.13 725.637 1250.65 725.637C1250.15 725.637 1249.65 725.615 1249.15 725.577C1249.15 725.597 1249.15 725.617 1249.15 725.637C1249.15 732.403 1242.28 737.889 1233.81 737.889C1225.91 737.889 1219.41 733.125 1218.56 727C1217.52 727.176 1216.45 727.271 1215.35 727.271C1206.87 727.27 1200 721.784 1200 715.018C1200 710.645 1202.87 706.808 1207.19 704.64C1206.42 703.184 1206 701.585 1206 699.907C1206 693.141 1212.87 687.654 1221.35 687.654C1224.81 687.654 1228 688.57 1230.57 690.112C1233.35 687.016 1237.9 685 1243.04 685Z" fill="#FFEDAC"/>
<ellipse cx="1233.12" cy="711.138" rx="9.80767" ry="7.14714" fill="#FDD657"/>
<defs>
<filter id="filter0_d_0_1" x="534" y="265.307" width="521" height="425" filterUnits="userSpaceOnUse" color-interpolation-filters="sRGB">
<feFlood flood-opacity="0" result="BackgroundImageFix"/>
<feColorMatrix in="SourceAlpha" type="matrix" values="0 0 0 0 0 0 0 0 0 0 0 0 0 0 0 0 0 0 127 0" result="hardAlpha"/>
<feOffset dy="4"/>
<feGaussianBlur stdDeviation="25"/>
<feComposite in2="hardAlpha" operator="out"/>
<feColorMatrix type="matrix" values="0 0 0 0 0.988235 0 0 0 0 0.968627 0 0 0 0 0.686275 0 0 0 1 0"/>
<feBlend mode="normal" in2="BackgroundImageFix" result="effect1_dropShadow_0_1"/>
<feBlend mode="normal" in="SourceGraphic" in2="effect1_dropShadow_0_1" result="shape"/>
</filter>
</defs>
</svg>
