<svg width="54" height="54" viewBox="0 0 54 54" fill="none" xmlns="http://www.w3.org/2000/svg">
<g clip-path="url(#clip0_48_1675)">
<path fill-rule="evenodd" clip-rule="evenodd" d="M17.8642 24.6148C17.2321 25.2476 16.8771 26.1054 16.8771 26.9998C16.8771 27.8942 17.2321 28.752 17.8642 29.3848L30.5902 42.1153C31.2233 42.7481 32.0819 43.1035 32.9771 43.1033C33.8723 43.1031 34.7307 42.7473 35.3635 42.1142C35.9964 41.481 36.3518 40.6224 36.3516 39.7273C36.3514 38.8321 35.9955 37.9736 35.3624 37.3408L25.0214 26.9998L35.3624 16.6588C35.9775 16.0226 36.3181 15.1702 36.3108 14.2853C36.3035 13.4003 35.949 12.5537 35.3235 11.9276C34.6981 11.3016 33.8517 10.9462 32.9668 10.9381C32.0819 10.93 31.2292 11.2698 30.5924 11.8843L17.8619 24.6126L17.8642 24.6148Z" fill="#F4DA9D"/>
</g>
<defs>
<clipPath id="clip0_48_1675">
<rect width="54" height="54" fill="white" transform="matrix(-1 0 0 1 54 0)"/>
</clipPath>
</defs>
</svg>
