<svg width="20" height="34" viewBox="0 0 20 34" fill="none" xmlns="http://www.w3.org/2000/svg">
<path fill-rule="evenodd" clip-rule="evenodd" d="M1.11779 14.615C0.476837 15.2479 0.116821 16.1057 0.116821 17C0.116821 17.8944 0.476837 18.7522 1.11779 19.385L14.0235 32.1155C14.6655 32.7484 15.5363 33.1038 16.4441 33.1036C17.3519 33.1034 18.2225 32.7476 18.8642 32.1144C19.506 31.4813 19.8664 30.6227 19.8662 29.7275C19.866 28.8323 19.5052 27.9739 18.8631 27.341L8.37609 17L18.8631 6.65904C19.4869 6.0228 19.8323 5.17043 19.8249 4.28551C19.8175 3.40059 19.458 2.55392 18.8237 1.92787C18.1894 1.30182 17.3311 0.946478 16.4337 0.938374C15.5363 0.93027 14.6716 1.27005 14.0257 1.88454L1.1155 14.6128L1.11779 14.615Z" fill="#F4DA9D"/>
</svg>
