<svg width="40" height="40" viewBox="0 0 40 40" fill="none" xmlns="http://www.w3.org/2000/svg">
<circle cx="20" cy="20" r="20" fill="#DDB087"/>
<path fill-rule="evenodd" clip-rule="evenodd" d="M15.5744 13.7082C15.3681 15.7975 15.2673 17.8958 15.2724 19.9952C15.2724 22.7962 15.4424 24.9922 15.5744 26.2842C17.4866 25.4162 19.3539 24.4526 21.1694 23.3972C22.9906 22.3529 24.7581 21.2178 26.4654 19.9962C24.7584 18.7735 22.9912 17.6371 21.1704 16.5912C19.3544 15.5374 17.4867 14.5752 15.5744 13.7082ZM13.6694 12.7602C13.6962 12.5331 13.7757 12.3153 13.9016 12.1243C14.0274 11.9333 14.1961 11.7743 14.3942 11.66C14.5923 11.5457 14.8144 11.4792 15.0427 11.4659C15.2711 11.4525 15.4994 11.4927 15.7094 11.5832C16.7714 12.0372 19.1514 13.1162 22.1714 14.8592C25.1924 16.6032 27.3174 18.1262 28.2404 18.8172C29.0284 19.4082 29.0304 20.5802 28.2414 21.1732C27.3274 21.8602 25.2284 23.3632 22.1714 25.1292C19.1114 26.8952 16.7594 27.9612 15.7074 28.4092C14.8014 28.7962 13.7874 28.2092 13.6694 27.2322C13.5314 26.0902 13.2734 23.4972 13.2734 19.9952C13.2734 16.4952 13.5304 13.9032 13.6694 12.7602Z" fill="#8D4D13"/>
</svg>
