<svg width="20" height="34" viewBox="0 0 20 34" fill="none" xmlns="http://www.w3.org/2000/svg">
<path fill-rule="evenodd" clip-rule="evenodd" d="M18.9652 14.615C19.6062 15.2479 19.9662 16.1057 19.9662 17C19.9662 17.8944 19.6062 18.7522 18.9652 19.385L6.05955 32.1155C5.41747 32.7484 4.54675 33.1038 3.63893 33.1036C2.73111 33.1034 1.86056 32.7476 1.21878 32.1144C0.577009 31.4813 0.216583 30.6227 0.216797 29.7275C0.217011 28.8323 0.577846 27.9739 1.21992 27.341L11.7069 17L1.21992 6.65904C0.596149 6.0228 0.250752 5.17043 0.258125 4.28551C0.265497 3.40059 0.625048 2.55392 1.25934 1.92787C1.89363 1.30182 2.75191 0.946478 3.64931 0.938374C4.54672 0.93027 5.41146 1.27005 6.05727 1.88454L18.9675 14.6128L18.9652 14.615Z" fill="#F4DA9D"/>
</svg>
