<svg width="54" height="54" viewBox="0 0 54 54" fill="none" xmlns="http://www.w3.org/2000/svg">
<g clip-path="url(#clip0_48_976)">
<path fill-rule="evenodd" clip-rule="evenodd" d="M36.1358 24.6148C36.7679 25.2476 37.1229 26.1054 37.1229 26.9998C37.1229 27.8942 36.7679 28.752 36.1358 29.3848L23.4098 42.1153C22.7767 42.7481 21.9181 43.1035 21.0229 43.1033C20.1277 43.1031 19.2693 42.7473 18.6365 42.1142C18.0036 41.481 17.6482 40.6224 17.6484 39.7273C17.6486 38.8321 18.0045 37.9736 18.6376 37.3408L28.9786 26.9998L18.6376 16.6588C18.0225 16.0226 17.6819 15.1702 17.6892 14.2853C17.6965 13.4003 18.051 12.5537 18.6765 11.9276C19.3019 11.3016 20.1483 10.9462 21.0332 10.9381C21.9181 10.93 22.7708 11.2698 23.4076 11.8843L36.1381 24.6126L36.1358 24.6148Z" fill="#F4DA9D"/>
</g>
<defs>
<clipPath id="clip0_48_976">
<rect width="54" height="54" fill="white"/>
</clipPath>
</defs>
</svg>
