<svg width="1512" height="849" viewBox="0 0 1512 849" fill="none" xmlns="http://www.w3.org/2000/svg">
<mask id="path-1-inside-1_539_167" fill="white">
<path d="M304.517 614.797C336.051 593.202 366.373 588.337 375.999 604.861C385.361 620.931 372.136 652.059 345.854 679.559C353.6 689.596 358.273 702.592 358.273 716.788C358.273 748.582 334.839 774.356 305.931 774.357C303.808 774.357 301.715 774.217 299.658 773.946C299.878 776.519 299.994 779.138 299.994 781.794C299.994 817.696 279.338 846.8 253.857 846.8C228.377 846.8 207.72 817.696 207.72 781.794C207.72 773.934 208.71 766.399 210.524 759.424C203.586 761.552 196.1 762.713 188.294 762.713C152.233 762.713 123 737.953 123 707.409C123 676.866 152.233 652.105 188.294 652.105C197.354 652.105 205.983 653.668 213.825 656.493C213.713 655.046 213.656 653.583 213.656 652.106C213.656 622.098 237.211 597.772 266.269 597.772C281.337 597.772 294.925 604.314 304.517 614.797Z"/>
</mask>
<path d="M304.517 614.797C336.051 593.202 366.373 588.337 375.999 604.861C385.361 620.931 372.136 652.059 345.854 679.559C353.6 689.596 358.273 702.592 358.273 716.788C358.273 748.582 334.839 774.356 305.931 774.357C303.808 774.357 301.715 774.217 299.658 773.946C299.878 776.519 299.994 779.138 299.994 781.794C299.994 817.696 279.338 846.8 253.857 846.8C228.377 846.8 207.72 817.696 207.72 781.794C207.72 773.934 208.71 766.399 210.524 759.424C203.586 761.552 196.1 762.713 188.294 762.713C152.233 762.713 123 737.953 123 707.409C123 676.866 152.233 652.105 188.294 652.105C197.354 652.105 205.983 653.668 213.825 656.493C213.713 655.046 213.656 653.583 213.656 652.106C213.656 622.098 237.211 597.772 266.269 597.772C281.337 597.772 294.925 604.314 304.517 614.797Z" fill="#97BB99"/>
<path d="M304.517 614.797L303.779 615.472L304.365 616.113L305.082 615.622L304.517 614.797ZM375.999 604.861L376.863 604.358L376.863 604.358L375.999 604.861ZM345.854 679.559L345.132 678.868L344.538 679.489L345.063 680.17L345.854 679.559ZM358.273 716.788L359.273 716.788L359.273 716.788L358.273 716.788ZM305.931 774.357L305.931 775.357L305.931 775.357L305.931 774.357ZM299.658 773.946L299.788 772.955L298.556 772.793L298.662 774.031L299.658 773.946ZM299.994 781.794L300.994 781.794V781.794H299.994ZM253.857 846.8L253.857 847.8L253.857 847.8L253.857 846.8ZM207.72 781.794L206.72 781.794L206.72 781.794L207.72 781.794ZM210.524 759.424L211.492 759.676L211.943 757.943L210.231 758.468L210.524 759.424ZM188.294 762.713L188.294 763.713L188.294 763.713L188.294 762.713ZM123 707.409L122 707.409L122 707.409L123 707.409ZM188.294 652.105L188.294 651.105H188.294V652.105ZM213.825 656.493L213.486 657.434L214.942 657.958L214.822 656.416L213.825 656.493ZM213.656 652.106L212.656 652.106V652.106H213.656ZM266.269 597.772L266.269 596.772L266.269 596.772L266.269 597.772ZM304.517 614.797L305.082 615.622C320.77 604.879 336.091 598.345 348.617 596.524C361.173 594.699 370.625 597.623 375.135 605.365L375.999 604.861L376.863 604.358C371.747 595.576 361.225 592.67 348.33 594.545C335.405 596.424 319.798 603.12 303.952 613.972L304.517 614.797ZM375.999 604.861L375.135 605.365C379.576 612.988 378.753 624.405 373.368 637.545C368.004 650.632 358.207 665.186 345.132 678.868L345.854 679.559L346.577 680.25C359.783 666.432 369.739 651.673 375.218 638.303C380.675 624.987 381.784 612.805 376.863 604.358L375.999 604.861ZM345.854 679.559L345.063 680.17C352.673 690.031 357.273 702.812 357.273 716.788L358.273 716.788L359.273 716.788C359.273 702.372 354.527 689.161 346.646 678.948L345.854 679.559ZM358.273 716.788H357.273C357.273 748.121 334.199 773.356 305.931 773.357L305.931 774.357L305.931 775.357C335.478 775.356 359.273 749.043 359.273 716.788H358.273ZM305.931 774.357V773.357C303.852 773.357 301.802 773.219 299.788 772.955L299.658 773.946L299.528 774.938C301.627 775.214 303.764 775.357 305.931 775.357V774.357ZM299.658 773.946L298.662 774.031C298.879 776.577 298.994 779.167 298.994 781.794H299.994H300.994C300.994 779.109 300.877 776.462 300.655 773.861L299.658 773.946ZM299.994 781.794L298.994 781.794C298.994 799.562 293.881 815.606 285.666 827.181C277.448 838.759 266.188 845.8 253.857 845.8L253.857 846.8L253.857 847.8C267.007 847.8 278.816 840.288 287.297 828.339C295.779 816.387 300.994 799.928 300.994 781.794L299.994 781.794ZM253.857 846.8V845.8C241.527 845.8 230.266 838.759 222.049 827.181C213.833 815.606 208.72 799.562 208.72 781.794L207.72 781.794L206.72 781.794C206.72 799.928 211.935 816.387 220.418 828.339C228.899 840.288 240.707 847.8 253.857 847.8V846.8ZM207.72 781.794H208.72C208.72 774.017 209.7 766.567 211.492 759.676L210.524 759.424L209.557 759.172C207.721 766.23 206.72 773.85 206.72 781.794H207.72ZM210.524 759.424L210.231 758.468C203.388 760.567 196.001 761.713 188.294 761.713L188.294 762.713L188.294 763.713C196.199 763.713 203.784 762.537 210.818 760.38L210.524 759.424ZM188.294 762.713V761.713C152.624 761.713 124 737.251 124 707.409L123 707.409L122 707.409C122 738.654 151.843 763.713 188.294 763.713V762.713ZM123 707.409H124C124 677.567 152.623 653.105 188.294 653.105V652.105V651.105C151.843 651.105 122 676.164 122 707.409H123ZM188.294 652.105L188.294 653.105C197.239 653.105 205.753 654.649 213.486 657.434L213.825 656.493L214.164 655.552C206.212 652.688 197.469 651.105 188.294 651.105L188.294 652.105ZM213.825 656.493L214.822 656.416C214.712 654.995 214.656 653.557 214.656 652.106H213.656H212.656C212.656 653.608 212.714 655.097 212.828 656.57L213.825 656.493ZM213.656 652.106L214.656 652.106C214.656 622.62 237.794 598.772 266.269 598.772L266.269 597.772L266.269 596.772C236.629 596.772 212.656 621.576 212.656 652.106L213.656 652.106ZM266.269 597.772V598.772C281.039 598.772 294.365 605.183 303.779 615.472L304.517 614.797L305.254 614.122C295.485 603.445 281.634 596.772 266.269 596.772V597.772Z" fill="#415733" mask="url(#path-1-inside-1_539_167)"/>
<ellipse cx="10.1961" cy="119.775" rx="10.1961" ry="119.775" transform="matrix(0.611004 0.791627 -0.669666 0.742662 283.419 654.045)" fill="#5D755B"/>
<ellipse cx="42.9266" cy="11.2054" rx="42.9266" ry="11.2054" transform="matrix(0.272558 0.962139 -0.926213 0.377 251.141 720.668)" fill="#6D8361"/>
<ellipse cx="37.0267" cy="12.9753" rx="37.0267" ry="12.9753" transform="matrix(0.942062 0.33544 -0.240539 0.97064 176.453 678.437)" fill="#6D8361"/>
<ellipse cx="38.9388" cy="12.4571" rx="38.9388" ry="12.4571" transform="matrix(0.763648 0.645633 -0.507135 0.861867 271.134 674.865)" fill="#6D8361"/>
<ellipse cx="38.6033" cy="12.5515" rx="38.6033" ry="12.5515" transform="matrix(0.795801 -0.605559 0.468013 0.883722 259 677.753)" fill="#6D8361"/>
<ellipse cx="30.0503" cy="7.81283" rx="30.0503" ry="7.81283" transform="matrix(-0.202206 -0.979343 0.958701 -0.284415 260.769 694.106)" fill="#6D8361"/>
<mask id="path-9-inside-2_539_167" fill="white">
<path d="M1347.96 138.883C1319.48 113.397 1307.54 85.1052 1321.29 71.8217C1334.67 58.9032 1368.05 64.3376 1401.02 83.3161C1408.92 73.4035 1420.43 65.7708 1434.22 62.3909C1465.1 54.8217 1495.71 71.4464 1502.6 99.5233C1503.1 101.585 1503.46 103.651 1503.69 105.713C1506.14 104.887 1508.65 104.151 1511.23 103.518C1546.1 94.9713 1579.29 108.104 1585.35 132.853C1591.42 157.601 1568.07 184.592 1533.2 193.14C1525.57 195.011 1518.01 195.843 1510.81 195.741C1514.52 201.974 1517.43 208.968 1519.29 216.55C1527.88 251.573 1510.79 285.861 1481.12 293.133C1451.46 300.404 1420.45 277.906 1411.86 242.882C1409.71 234.083 1409.17 225.33 1410.05 217.04C1408.67 217.494 1407.26 217.898 1405.83 218.249C1376.68 225.393 1347.45 208.307 1340.53 180.085C1336.94 165.45 1340.06 150.695 1347.96 138.883Z"/>
</mask>
<path d="M1347.96 138.883C1319.48 113.397 1307.54 85.1052 1321.29 71.8217C1334.67 58.9032 1368.05 64.3376 1401.02 83.3161C1408.92 73.4035 1420.43 65.7708 1434.22 62.3909C1465.1 54.8217 1495.71 71.4464 1502.6 99.5233C1503.1 101.585 1503.46 103.651 1503.69 105.713C1506.14 104.887 1508.65 104.151 1511.23 103.518C1546.1 94.9713 1579.29 108.104 1585.35 132.853C1591.42 157.601 1568.07 184.592 1533.2 193.14C1525.57 195.011 1518.01 195.843 1510.81 195.741C1514.52 201.974 1517.43 208.968 1519.29 216.55C1527.88 251.573 1510.79 285.861 1481.12 293.133C1451.46 300.404 1420.45 277.906 1411.86 242.882C1409.71 234.083 1409.17 225.33 1410.05 217.04C1408.67 217.494 1407.26 217.898 1405.83 218.249C1376.68 225.393 1347.45 208.307 1340.53 180.085C1336.94 165.45 1340.06 150.695 1347.96 138.883Z" fill="#97BB99"/>
<path d="M1347.96 138.883L1348.79 139.439L1349.27 138.717L1348.63 138.138L1347.96 138.883ZM1321.29 71.8217L1320.6 71.1023L1320.6 71.1023L1321.29 71.8217ZM1401.02 83.3161L1400.52 84.1828L1401.26 84.6116L1401.8 83.9396L1401.02 83.3161ZM1434.22 62.3909L1433.98 61.4197L1433.98 61.4197L1434.22 62.3909ZM1502.6 99.5233L1503.57 99.2852L1503.57 99.2852L1502.6 99.5233ZM1503.69 105.713L1502.7 105.823L1502.83 107.058L1504.01 106.661L1503.69 105.713ZM1511.23 103.518L1510.99 102.547L1510.99 102.547L1511.23 103.518ZM1585.35 132.853L1586.32 132.614L1586.32 132.614L1585.35 132.853ZM1533.2 193.14L1533.44 194.111L1533.44 194.111L1533.2 193.14ZM1510.81 195.741L1510.82 194.742L1509.03 194.716L1509.95 196.254L1510.81 195.741ZM1519.29 216.55L1520.26 216.312L1520.26 216.312L1519.29 216.55ZM1481.12 293.133L1481.36 294.104L1481.36 294.104L1481.12 293.133ZM1411.86 242.882L1410.89 243.121L1410.89 243.121L1411.86 242.882ZM1410.05 217.04L1411.04 217.146L1411.21 215.607L1409.74 216.09L1410.05 217.04ZM1405.83 218.249L1406.07 219.22L1406.07 219.22L1405.83 218.249ZM1340.53 180.085L1339.56 180.323L1339.56 180.323L1340.53 180.085ZM1347.96 138.883L1348.63 138.138C1334.46 125.459 1324.46 112.134 1319.71 100.401C1314.95 88.6409 1315.54 78.765 1321.99 72.541L1321.29 71.8217L1320.6 71.1023C1313.29 78.1619 1312.97 89.0734 1317.86 101.152C1322.76 113.257 1332.98 126.821 1347.29 139.629L1347.96 138.883ZM1321.29 71.8217L1321.99 72.541C1328.33 66.4131 1339.62 64.4945 1353.66 66.5965C1367.65 68.69 1384.12 74.7403 1400.52 84.1828L1401.02 83.3161L1401.52 82.4495C1384.95 72.9135 1368.25 66.7573 1353.96 64.6185C1339.73 62.4883 1327.63 64.3118 1320.6 71.1023L1321.29 71.8217ZM1401.02 83.3161L1401.8 83.9396C1409.57 74.2005 1420.88 66.6896 1434.46 63.3622L1434.22 62.3909L1433.98 61.4197C1419.98 64.852 1408.28 72.6065 1400.24 82.6926L1401.02 83.3161ZM1434.22 62.3909L1434.46 63.3622C1464.89 55.9026 1494.89 72.3058 1501.62 99.7614L1502.6 99.5233L1503.57 99.2852C1496.53 70.587 1465.31 53.7408 1433.98 61.4197L1434.22 62.3909ZM1502.6 99.5233L1501.62 99.7614C1502.12 101.78 1502.47 103.804 1502.7 105.823L1503.69 105.713L1504.68 105.603C1504.45 103.499 1504.08 101.39 1503.57 99.2852L1502.6 99.5233ZM1503.69 105.713L1504.01 106.661C1506.43 105.843 1508.92 105.115 1511.47 104.49L1511.23 103.518L1510.99 102.547C1508.39 103.187 1505.84 103.931 1503.37 104.766L1503.69 105.713ZM1511.23 103.518L1511.47 104.49C1528.73 100.26 1545.53 101.406 1558.73 106.63C1571.93 111.854 1581.45 121.114 1584.38 133.091L1585.35 132.853L1586.32 132.614C1583.19 119.843 1573.09 110.162 1559.46 104.77C1545.83 99.3767 1528.61 98.2301 1510.99 102.547L1511.23 103.518ZM1585.35 132.853L1584.38 133.091C1587.32 145.067 1583.16 157.68 1573.87 168.417C1564.58 179.153 1550.22 187.938 1532.96 192.168L1533.2 193.14L1533.44 194.111C1551.05 189.794 1565.8 180.81 1575.38 169.726C1584.97 158.644 1589.46 145.386 1586.32 132.614L1585.35 132.853ZM1533.2 193.14L1532.96 192.168C1525.41 194.02 1517.94 194.842 1510.82 194.742L1510.81 195.741L1510.79 196.741C1518.08 196.844 1525.72 196.002 1533.44 194.111L1533.2 193.14ZM1510.81 195.741L1509.95 196.254C1513.61 202.401 1516.49 209.303 1518.32 216.788L1519.29 216.55L1520.26 216.312C1518.38 208.634 1515.43 201.547 1511.66 195.229L1510.81 195.741ZM1519.29 216.55L1518.32 216.788C1526.81 251.432 1509.87 285.056 1480.89 292.161L1481.12 293.133L1481.36 294.104C1511.71 286.665 1528.94 251.714 1520.26 216.312L1519.29 216.55ZM1481.12 293.133L1480.89 292.161C1451.9 299.266 1421.33 277.289 1412.84 242.644L1411.86 242.882L1410.89 243.121C1419.57 278.523 1451.02 301.542 1481.36 294.104L1481.12 293.133ZM1411.86 242.882L1412.84 242.644C1410.71 233.957 1410.18 225.32 1411.04 217.146L1410.05 217.04L1409.05 216.935C1408.17 225.34 1408.71 234.209 1410.89 243.121L1411.86 242.882ZM1410.05 217.04L1409.74 216.09C1408.38 216.536 1407 216.932 1405.59 217.278L1405.83 218.249L1406.07 219.22C1407.53 218.863 1408.96 218.452 1410.36 217.99L1410.05 217.04ZM1405.83 218.249L1405.59 217.278C1376.95 224.298 1348.28 207.503 1341.5 179.847L1340.53 180.085L1339.56 180.323C1346.62 209.11 1376.41 226.488 1406.07 219.22L1405.83 218.249ZM1340.53 180.085L1341.5 179.847C1337.99 165.501 1341.04 151.032 1348.79 139.439L1347.96 138.883L1347.13 138.328C1339.08 150.358 1335.9 165.399 1339.56 180.323L1340.53 180.085Z" fill="#415733" mask="url(#path-9-inside-2_539_167)"/>
<ellipse cx="10.1961" cy="119.775" rx="10.1961" ry="119.775" transform="matrix(0.623403 -0.781901 0.880738 0.473604 1391.1 150.03)" fill="#5D755B"/>
<ellipse cx="42.9266" cy="11.2054" rx="42.9266" ry="11.2054" transform="matrix(0.869587 -0.49378 0.586666 0.809829 1463.5 165.52)" fill="#6D8361"/>
<ellipse cx="37.0267" cy="12.9753" rx="37.0267" ry="12.9753" transform="matrix(0.101517 -0.994834 0.999997 0.00254009 1440.26 248.114)" fill="#6D8361"/>
<ellipse cx="38.9388" cy="12.4571" rx="38.9388" ry="12.4571" transform="matrix(0.445266 -0.895398 0.95782 0.287367 1412 157.731)" fill="#6D8361"/>
<ellipse cx="38.6033" cy="12.5515" rx="38.6033" ry="12.5515" transform="matrix(-0.777605 -0.628753 0.746891 -0.664946 1419.04 166.236)" fill="#6D8361"/>
<ellipse cx="30.0503" cy="7.81283" rx="30.0503" ry="7.81283" transform="matrix(-0.903045 0.429547 -0.504477 -0.863425 1435.4 162.492)" fill="#6D8361"/>
<path d="M1271.7 526.271C1268.68 520.432 1269.62 512.957 1274.11 504.35C1278.6 495.754 1286.58 486.123 1297.43 476.057C1319.14 455.927 1352.27 434.134 1391.68 415.463C1431.09 396.792 1469.28 384.795 1499.16 380.485C1514.1 378.329 1526.94 378.099 1536.79 379.9C1546.66 381.704 1553.44 385.52 1556.46 391.36C1559.48 397.2 1558.53 404.674 1554.04 413.281C1549.56 421.878 1541.58 431.509 1530.73 441.575C1509.02 461.705 1475.89 483.499 1436.48 502.17C1397.07 520.841 1358.88 532.837 1329 537.148C1314.06 539.303 1301.22 539.533 1291.36 537.731C1281.49 535.928 1274.71 532.111 1271.7 526.271Z" fill="#C0D6BB" stroke="#415733"/>
<path d="M1667.75 339.678C1669.74 338.711 1670.56 336.317 1669.6 334.331C1668.63 332.345 1666.24 331.518 1664.25 332.485L1667.75 339.678ZM1666 336.082L1664.25 332.485L1411.8 455.394L1413.55 458.99L1415.3 462.586L1667.75 339.678L1666 336.082Z" fill="#859474"/>
<path d="M212.173 79.602C217.079 83.6635 218.674 89.4643 217.226 96.5597C215.779 103.652 211.3 111.978 204.178 121.005C189.936 139.056 165.188 159.834 133.302 179.046C101.415 198.258 68.462 212.244 40.9781 219.333C27.2337 222.878 14.8865 224.69 4.74139 224.582C-5.40769 224.473 -13.2669 222.447 -18.1729 218.385C-23.0789 214.324 -24.6745 208.523 -23.2269 201.428C-21.7796 194.336 -17.3009 186.01 -10.1787 176.983C4.06333 158.931 28.8114 138.153 60.6985 118.941C92.5853 99.7294 125.537 85.7435 153.021 78.6548C166.766 75.1098 179.113 73.298 189.258 73.4061C199.407 73.5142 207.267 75.5404 212.173 79.602Z" fill="#C0D6BB" stroke="#415733"/>
<path d="M-45.7082 225.684L100.656 137.633" stroke="#859474" stroke-width="8"/>
<path d="M1251.05 678.927C1190.31 579.13 1176.34 636.784 1177.09 692.596C1177.24 703.708 1171.07 714.137 1159.99 715.031C1144.39 716.291 1126.01 715.141 1106.11 729.225C1091.1 739.844 1117.36 768.251 1160.24 789.089C1192.88 804.954 1260.53 779.219 1294.74 762.287C1298.04 760.657 1300.98 758.221 1303.28 755.353C1364.72 678.69 1327.02 677.784 1287.06 691.424C1273.62 696.01 1258.43 691.054 1251.05 678.927Z" fill="#A9BFA0" stroke="#415733"/>
<path d="M1241.29 781.792L1258.16 817.666" stroke="#415733"/>
<ellipse cx="47.1931" cy="10.9974" rx="47.1931" ry="10.9974" transform="matrix(0.965367 0.260897 -0.306239 0.951955 1159.47 740.276)" fill="#81916E"/>
<ellipse cx="43.4064" cy="11.9632" rx="43.4064" ry="11.9632" transform="matrix(0.296159 0.955139 -0.970573 0.240806 1226.22 693.821)" fill="#81916E"/>
<ellipse cx="44.7318" cy="11.6434" rx="44.7318" ry="11.6434" transform="matrix(-0.683108 0.730317 -0.792525 -0.60984 1305.95 720.497)" fill="#81916E"/>
<path d="M97.2841 469.59C173.311 380.889 114.167 385.493 61.3418 403.522C50.8244 407.111 38.9978 404.487 34.7108 394.234C28.67 379.787 24.0605 361.958 4.49749 347.409C-10.2536 336.439 -29.111 370.217 -35.6173 417.443C-40.5707 453.397 4.88515 509.726 31.5951 536.994C34.1669 539.619 37.3961 541.661 40.8356 542.957C132.777 577.575 121.942 541.456 96.5772 507.702C88.049 496.352 88.0454 480.369 97.2841 469.59Z" fill="#A9BFA0" stroke="#415733"/>
<path d="M-3.53149 492.23L-32.4004 519.4" stroke="#415733"/>
<ellipse cx="47.1931" cy="10.9974" rx="47.1931" ry="10.9974" transform="matrix(0.0515068 0.998673 -0.999991 0.00424076 10.55 401.571)" fill="#81916E"/>
<ellipse cx="43.4064" cy="11.9632" rx="43.4064" ry="11.9632" transform="matrix(-0.81611 0.577897 -0.530065 -0.847957 75.4211 450.607)" fill="#81916E"/>
<ellipse cx="44.7318" cy="11.6434" rx="44.7318" ry="11.6434" transform="matrix(-0.906224 -0.422797 0.333843 -0.942629 74.8018 534.686)" fill="#81916E"/>
</svg>
