<svg width="390" height="1292" viewBox="0 0 390 1292" fill="none" xmlns="http://www.w3.org/2000/svg">
<mask id="path-1-inside-1_812_236" fill="white">
<path d="M318.741 112.862C305.807 101.419 300.406 88.6929 306.685 82.6927C312.792 76.8574 327.982 79.2629 342.965 87.7688C346.576 83.2937 351.825 79.8397 358.107 78.2998C372.174 74.8518 386.089 82.3012 389.186 94.9377C389.414 95.8661 389.575 96.7968 389.676 97.7256C390.791 97.3504 391.937 97.0154 393.113 96.7272C408.998 92.8335 424.089 98.707 426.819 109.845C429.549 120.984 418.885 133.17 403 137.063C399.522 137.916 396.083 138.301 392.802 138.264C394.487 141.066 395.803 144.211 396.64 147.622C400.504 163.386 392.68 178.85 379.166 182.162C365.652 185.475 351.565 175.381 347.701 159.618C346.73 155.658 346.497 151.717 346.907 147.983C346.278 148.189 345.637 148.373 344.984 148.533C331.707 151.788 318.419 144.129 315.306 131.427C313.691 124.841 315.13 118.192 318.741 112.862Z"/>
</mask>
<path d="M318.741 112.862C305.807 101.419 300.406 88.6929 306.685 82.6927C312.792 76.8574 327.982 79.2629 342.965 87.7688C346.576 83.2937 351.825 79.8397 358.107 78.2998C372.174 74.8518 386.089 82.3012 389.186 94.9377C389.414 95.8661 389.575 96.7968 389.676 97.7256C390.791 97.3504 391.937 97.0154 393.113 96.7272C408.998 92.8335 424.089 98.707 426.819 109.845C429.549 120.984 418.885 133.17 403 137.063C399.522 137.916 396.083 138.301 392.802 138.264C394.487 141.066 395.803 144.211 396.64 147.622C400.504 163.386 392.68 178.85 379.166 182.162C365.652 185.475 351.565 175.381 347.701 159.618C346.73 155.658 346.497 151.717 346.907 147.983C346.278 148.189 345.637 148.373 344.984 148.533C331.707 151.788 318.419 144.129 315.306 131.427C313.691 124.841 315.13 118.192 318.741 112.862Z" fill="#97BB99"/>
<path d="M318.741 112.862L319.495 113.373L319.944 112.71L319.344 112.179L318.741 112.862ZM306.685 82.6927L306.056 82.0339L306.056 82.0339L306.685 82.6927ZM342.965 87.7688L342.515 88.5612L343.188 88.9432L343.674 88.341L342.965 87.7688ZM358.107 78.2998L357.89 77.4148L357.89 77.4148L358.107 78.2998ZM389.186 94.9377L390.071 94.7208L390.071 94.7208L389.186 94.9377ZM389.676 97.7256L388.77 97.8239L388.892 98.9507L389.966 98.5892L389.676 97.7256ZM393.113 96.7272L392.896 95.8422L392.896 95.8422L393.113 96.7272ZM426.819 109.845L427.704 109.629L427.704 109.628L426.819 109.845ZM403 137.063L403.217 137.948L403.217 137.948L403 137.063ZM392.802 138.264L392.812 137.353L391.18 137.335L392.021 138.733L392.802 138.264ZM396.64 147.622L397.525 147.405L397.525 147.405L396.64 147.622ZM379.166 182.162L379.383 183.047L379.383 183.047L379.166 182.162ZM347.701 159.618L346.816 159.835L346.816 159.835L347.701 159.618ZM346.907 147.983L347.813 148.082L347.967 146.676L346.623 147.117L346.907 147.983ZM344.984 148.533L345.201 149.418L345.201 149.418L344.984 148.533ZM315.306 131.427L314.421 131.644L315.306 131.427ZM318.741 112.862L319.344 112.179C312.943 106.516 308.464 100.584 306.352 95.393C304.231 90.1806 304.572 85.9724 307.315 83.3515L306.685 82.6927L306.056 82.0339C302.519 85.4132 302.421 90.5683 304.664 96.0799C306.916 101.613 311.604 107.765 318.137 113.544L318.741 112.862ZM306.685 82.6927L307.315 83.3515C310.058 80.7307 315.017 79.8317 321.365 80.7545C327.662 81.6698 335.098 84.3505 342.515 88.5612L342.965 87.7688L343.415 86.9764C335.849 82.6812 328.198 79.9062 321.628 78.9511C315.109 78.0035 309.42 78.8194 306.056 82.0339L306.685 82.6927ZM342.965 87.7688L343.674 88.341C347.159 84.0225 352.234 80.6775 358.324 79.1848L358.107 78.2998L357.89 77.4148C351.416 79.0018 345.994 82.5649 342.256 87.1966L342.965 87.7688ZM358.107 78.2998L358.324 79.1848C371.994 75.8341 385.345 83.0938 388.301 95.1546L389.186 94.9377L390.071 94.7208C386.833 81.5087 372.355 73.8695 357.89 77.4148L358.107 78.2998ZM389.186 94.9377L388.301 95.1546C388.519 96.0427 388.673 96.9337 388.77 97.8239L389.676 97.7256L390.582 97.6273C390.476 96.6599 390.309 95.6895 390.071 94.7208L389.186 94.9377ZM389.676 97.7256L389.966 98.5892C391.058 98.2219 392.18 97.8941 393.33 97.6122L393.113 96.7272L392.896 95.8422C391.695 96.1366 390.524 96.4788 389.385 96.862L389.676 97.7256ZM393.113 96.7272L393.33 97.6122C401.113 95.7044 408.664 96.2002 414.569 98.4984C420.477 100.798 424.659 104.861 425.934 110.062L426.819 109.845L427.704 109.628C426.249 103.692 421.521 99.2486 415.23 96.8001C408.935 94.3504 400.998 93.8562 392.896 95.8422L393.113 96.7272ZM426.819 109.845L425.934 110.062C427.209 115.264 425.38 120.8 421.205 125.571C417.032 130.339 410.566 134.271 402.783 136.178L403 137.063L403.217 137.948C411.319 135.962 418.128 131.854 422.576 126.771C427.022 121.691 429.159 115.565 427.704 109.629L426.819 109.845ZM403 137.063L402.783 136.178C399.378 137.013 396.015 137.389 392.812 137.353L392.802 138.264L392.792 139.175C396.15 139.213 399.666 138.819 403.217 137.948L403 137.063ZM392.802 138.264L392.021 138.733C393.659 141.457 394.94 144.517 395.755 147.839L396.64 147.622L397.525 147.405C396.667 143.905 395.315 140.675 393.583 137.794L392.802 138.264ZM396.64 147.622L395.755 147.839C399.531 163.246 391.851 178.115 378.949 181.277L379.166 182.162L379.383 183.047C393.509 179.585 401.476 163.525 397.525 147.405L396.64 147.622ZM379.166 182.162L378.949 181.277C366.047 184.44 352.362 174.808 348.586 159.401L347.701 159.618L346.816 159.835C350.767 175.954 365.257 186.51 379.383 183.047L379.166 182.162ZM347.701 159.618L348.586 159.401C347.64 155.544 347.415 151.71 347.813 148.082L346.907 147.983L346.001 147.883C345.58 151.724 345.82 155.772 346.816 159.835L347.701 159.618ZM346.907 147.983L346.623 147.117C346.016 147.316 345.397 147.494 344.767 147.648L344.984 148.533L345.201 149.418C345.878 149.252 346.541 149.061 347.191 148.848L346.907 147.983ZM344.984 148.533L344.767 147.648C331.941 150.792 319.176 143.387 316.191 131.21L315.306 131.427L314.421 131.644C317.663 144.871 331.472 152.784 345.201 149.418L344.984 148.533ZM315.306 131.427L316.191 131.21C314.642 124.891 316.019 118.504 319.495 113.373L318.741 112.862L317.986 112.351C314.241 117.879 312.741 124.79 314.421 131.644L315.306 131.427Z" fill="#415733" mask="url(#path-1-inside-1_812_236)"/>
<ellipse cx="4.62406" cy="54.2704" rx="4.62406" ry="54.2704" transform="matrix(0.627967 -0.77824 0.883573 0.468293 338.366 117.826)" fill="#5D755B"/>
<ellipse cx="19.5379" cy="5.05194" rx="19.5379" ry="5.05194" transform="matrix(0.871143 -0.491029 0.590101 0.807329 371.302 124.709)" fill="#6D8361"/>
<ellipse cx="16.6875" cy="5.90685" rx="16.6875" ry="5.90685" transform="matrix(0.105342 -0.994436 1 -0.000273298 360.62 161.939)" fill="#6D8361"/>
<ellipse cx="17.6144" cy="5.65738" rx="17.6144" ry="5.65738" transform="matrix(0.450612 -0.89272 0.959324 0.282306 347.87 121.268)" fill="#6D8361"/>
<ellipse cx="17.452" cy="5.70286" rx="17.452" ry="5.70286" transform="matrix(-0.781269 -0.624195 0.750202 -0.661208 351.062 125.09)" fill="#6D8361"/>
<ellipse cx="13.6828" cy="3.51978" rx="13.6828" ry="3.51978" transform="matrix(-0.904067 0.427391 -0.507341 -0.861745 358.518 123.383)" fill="#6D8361"/>
<path d="M388.349 333.65C370.315 306.215 364.513 323.56 363.688 344.789C363.314 354.412 357.967 362.001 348.409 363.183C343.689 363.766 338.573 365.126 333.186 369.37C326.754 374.437 337.925 387.873 356.211 397.687C369.419 404.775 396.163 394.032 411.38 385.997C414.367 384.419 416.913 382.133 418.86 379.374C435.959 355.143 433.22 347.833 424.256 347.86C410.465 347.901 395.924 345.174 388.349 333.65Z" fill="#A9BFA0" stroke="#415733" stroke-width="0.911193"/>
<path d="M390.862 394.076L398.008 411.074" stroke="#415733" stroke-width="0.911193"/>
<ellipse cx="20.2832" cy="5.18458" rx="20.2832" ry="5.18458" transform="matrix(0.958806 0.284063 -0.281264 0.95963 355.973 374.52)" fill="#81916E"/>
<ellipse cx="20.3887" cy="5.15777" rx="20.3887" ry="5.15777" transform="matrix(0.265771 0.964036 -0.963087 0.26919 384.58 352.348)" fill="#81916E"/>
<ellipse cx="20.3529" cy="5.16691" rx="20.3529" ry="5.16691" transform="matrix(-0.644521 0.764587 -0.76074 -0.649057 418.609 364.865)" fill="#81916E"/>
<mask id="path-14-inside-2_812_236" fill="white">
<path d="M327.741 807.861C314.807 796.418 309.405 783.691 315.685 777.691C321.792 771.855 336.982 774.261 351.966 782.767C355.577 778.292 360.825 774.838 367.107 773.298C381.174 769.85 395.09 777.299 398.187 789.936C398.415 790.864 398.575 791.795 398.675 792.724C399.79 792.348 400.937 792.013 402.113 791.725C417.998 787.832 433.089 793.705 435.819 804.844C438.549 815.982 427.885 828.168 412 832.061C408.522 832.914 405.083 833.298 401.803 833.262C403.487 836.064 404.803 839.209 405.639 842.621C409.503 858.384 401.68 873.848 388.166 877.16C374.652 880.473 360.564 870.379 356.7 854.616C355.73 850.656 355.496 846.715 355.906 842.981C355.277 843.187 354.637 843.371 353.983 843.531C340.706 846.786 327.419 839.127 324.306 826.425C322.691 819.839 324.131 813.19 327.741 807.861Z"/>
</mask>
<path d="M327.741 807.861C314.807 796.418 309.405 783.691 315.685 777.691C321.792 771.855 336.982 774.261 351.966 782.767C355.577 778.292 360.825 774.838 367.107 773.298C381.174 769.85 395.09 777.299 398.187 789.936C398.415 790.864 398.575 791.795 398.675 792.724C399.79 792.348 400.937 792.013 402.113 791.725C417.998 787.832 433.089 793.705 435.819 804.844C438.549 815.982 427.885 828.168 412 832.061C408.522 832.914 405.083 833.298 401.803 833.262C403.487 836.064 404.803 839.209 405.639 842.621C409.503 858.384 401.68 873.848 388.166 877.16C374.652 880.473 360.564 870.379 356.7 854.616C355.73 850.656 355.496 846.715 355.906 842.981C355.277 843.187 354.637 843.371 353.983 843.531C340.706 846.786 327.419 839.127 324.306 826.425C322.691 819.839 324.131 813.19 327.741 807.861Z" fill="#97BB99"/>
<path d="M327.741 807.861L328.496 808.372L328.945 807.709L328.345 807.178L327.741 807.861ZM315.685 777.691L315.055 777.032L315.055 777.032L315.685 777.691ZM351.966 782.767L351.516 783.559L352.189 783.941L352.675 783.339L351.966 782.767ZM367.107 773.298L366.89 772.413L366.89 772.413L367.107 773.298ZM398.187 789.936L399.072 789.719L399.072 789.719L398.187 789.936ZM398.675 792.724L397.769 792.822L397.892 793.949L398.966 793.587L398.675 792.724ZM402.113 791.725L401.896 790.84L401.896 790.84L402.113 791.725ZM435.819 804.844L436.704 804.627L436.704 804.627L435.819 804.844ZM412 832.061L412.217 832.946L412.217 832.946L412 832.061ZM401.803 833.262L401.813 832.351L400.181 832.333L401.022 833.731L401.803 833.262ZM405.639 842.621L406.524 842.404L406.524 842.404L405.639 842.621ZM388.166 877.16L388.383 878.045L388.383 878.045L388.166 877.16ZM356.7 854.616L355.815 854.833L355.815 854.833L356.7 854.616ZM355.906 842.981L356.811 843.08L356.965 841.675L355.622 842.115L355.906 842.981ZM353.983 843.531L354.2 844.416L354.2 844.416L353.983 843.531ZM324.306 826.425L323.421 826.642L323.421 826.642L324.306 826.425ZM327.741 807.861L328.345 807.178C321.943 801.515 317.464 795.582 315.352 790.391C313.23 785.179 313.571 780.971 316.314 778.35L315.685 777.691L315.055 777.032C311.519 780.411 311.421 785.567 313.664 791.078C315.916 796.612 320.605 802.764 327.138 808.543L327.741 807.861ZM315.685 777.691L316.314 778.35C319.057 775.729 324.017 774.83 330.366 775.752C336.663 776.668 344.098 779.348 351.516 783.559L351.966 782.767L352.416 781.974C344.849 777.679 337.198 774.904 330.628 773.949C324.109 773.001 318.42 773.817 315.055 777.032L315.685 777.691ZM351.966 782.767L352.675 783.339C356.16 779.021 361.234 775.676 367.324 774.183L367.107 773.298L366.89 772.413C360.416 774 354.994 777.563 351.257 782.194L351.966 782.767ZM367.107 773.298L367.324 774.183C380.994 770.832 394.346 778.092 397.302 790.152L398.187 789.936L399.072 789.719C395.833 776.506 381.354 768.867 366.89 772.413L367.107 773.298ZM398.187 789.936L397.302 790.152C397.519 791.04 397.673 791.931 397.769 792.822L398.675 792.724L399.581 792.625C399.476 791.659 399.31 790.688 399.072 789.719L398.187 789.936ZM398.675 792.724L398.966 793.587C400.057 793.22 401.179 792.892 402.33 792.61L402.113 791.725L401.896 790.84C400.695 791.135 399.523 791.477 398.385 791.86L398.675 792.724ZM402.113 791.725L402.33 792.61C410.112 790.703 417.663 791.198 423.568 793.496C429.477 795.796 433.659 799.859 434.934 805.06L435.819 804.844L436.704 804.627C435.249 798.69 430.521 794.247 424.229 791.798C417.935 789.348 409.998 788.854 401.896 790.84L402.113 791.725ZM435.819 804.844L434.934 805.06C436.209 810.262 434.38 815.798 430.204 820.569C426.031 825.337 419.566 829.269 411.783 831.176L412 832.061L412.217 832.946C420.319 830.96 427.128 826.852 431.576 821.769C436.021 816.689 438.159 810.563 436.704 804.627L435.819 804.844ZM412 832.061L411.783 831.176C408.378 832.011 405.015 832.386 401.813 832.351L401.803 833.262L401.793 834.173C405.151 834.21 408.666 833.817 412.217 832.946L412 832.061ZM401.803 833.262L401.022 833.731C402.659 836.455 403.94 839.515 404.754 842.837L405.639 842.621L406.524 842.404C405.666 838.903 404.316 835.673 402.584 832.792L401.803 833.262ZM405.639 842.621L404.754 842.837C408.531 858.244 400.851 873.113 387.949 876.275L388.166 877.16L388.383 878.045C402.508 874.583 410.476 858.523 406.524 842.404L405.639 842.621ZM388.166 877.16L387.949 876.275C375.046 879.438 361.362 869.806 357.585 854.4L356.7 854.616L355.815 854.833C359.767 870.952 374.257 881.508 388.383 878.045L388.166 877.16ZM356.7 854.616L357.585 854.4C356.64 850.542 356.414 846.708 356.811 843.08L355.906 842.981L355 842.882C354.579 846.722 354.82 850.77 355.815 854.833L356.7 854.616ZM355.906 842.981L355.622 842.115C355.015 842.314 354.396 842.492 353.766 842.647L353.983 843.531L354.2 844.416C354.877 844.251 355.54 844.059 356.189 843.847L355.906 842.981ZM353.983 843.531L353.766 842.647C340.941 845.79 328.175 838.385 325.191 826.208L324.306 826.425L323.421 826.642C326.663 839.869 340.472 847.782 354.2 844.416L353.983 843.531ZM324.306 826.425L325.191 826.208C323.642 819.889 325.02 813.503 328.496 808.372L327.741 807.861L326.987 807.35C323.242 812.878 321.741 819.788 323.421 826.642L324.306 826.425Z" fill="#415733" mask="url(#path-14-inside-2_812_236)"/>
<ellipse cx="4.62406" cy="54.2704" rx="4.62406" ry="54.2704" transform="matrix(0.627967 -0.77824 0.883573 0.468293 347.366 812.826)" fill="#5D755B"/>
<ellipse cx="19.5379" cy="5.05194" rx="19.5379" ry="5.05194" transform="matrix(0.871143 -0.491029 0.590101 0.807329 380.303 819.711)" fill="#6D8361"/>
<ellipse cx="16.6875" cy="5.90685" rx="16.6875" ry="5.90685" transform="matrix(0.105342 -0.994436 1 -0.000273298 369.62 856.94)" fill="#6D8361"/>
<ellipse cx="17.6144" cy="5.65738" rx="17.6144" ry="5.65738" transform="matrix(0.450612 -0.89272 0.959324 0.282306 356.87 816.268)" fill="#6D8361"/>
<ellipse cx="17.452" cy="5.70286" rx="17.452" ry="5.70286" transform="matrix(-0.781269 -0.624195 0.750202 -0.661208 360.062 820.09)" fill="#6D8361"/>
<ellipse cx="13.6828" cy="3.51978" rx="13.6828" ry="3.51978" transform="matrix(-0.904067 0.427391 -0.507341 -0.861745 367.518 818.383)" fill="#6D8361"/>
<path d="M384.349 1013.65C366.315 986.215 360.513 1003.56 359.688 1024.79C359.314 1034.41 353.967 1042 344.409 1043.18C339.689 1043.77 334.573 1045.13 329.186 1049.37C322.754 1054.44 333.925 1067.87 352.211 1077.69C365.419 1084.77 392.163 1074.03 407.38 1066C410.367 1064.42 412.913 1062.13 414.86 1059.37C431.959 1035.14 429.22 1027.83 420.256 1027.86C406.465 1027.9 391.924 1025.17 384.349 1013.65Z" fill="#A9BFA0" stroke="#415733" stroke-width="0.911193"/>
<path d="M386.862 1074.08L394.008 1091.07" stroke="#415733" stroke-width="0.911193"/>
<ellipse cx="20.2832" cy="5.18458" rx="20.2832" ry="5.18458" transform="matrix(0.958806 0.284063 -0.281264 0.95963 351.973 1054.52)" fill="#81916E"/>
<ellipse cx="20.3887" cy="5.15777" rx="20.3887" ry="5.15777" transform="matrix(0.265771 0.964036 -0.963087 0.26919 380.58 1032.35)" fill="#81916E"/>
<ellipse cx="20.3529" cy="5.16691" rx="20.3529" ry="5.16691" transform="matrix(-0.644521 0.764587 -0.76074 -0.649057 414.609 1044.87)" fill="#81916E"/>
<path d="M327.273 636.742C324.705 635.311 323.273 632.417 322.989 628.26C322.705 624.111 323.575 618.787 325.508 612.641C329.373 600.353 337.458 584.875 348.857 569.13C360.256 553.385 372.789 540.384 383.824 532.09C389.344 527.941 394.467 524.987 398.869 523.448C403.279 521.906 406.874 521.813 409.442 523.243C412.01 524.673 413.443 527.568 413.727 531.725C414.01 535.874 413.141 541.198 411.208 547.344C407.342 559.632 399.256 575.11 387.857 590.855C376.459 606.6 363.926 619.601 352.892 627.895C347.372 632.043 342.248 634.997 337.847 636.536C333.437 638.079 329.841 638.172 327.273 636.742Z" fill="#C0D6BB" stroke="#415733" stroke-width="0.911193"/>
<path d="M443.44 480.105C444.602 478.462 444.212 476.187 442.569 475.025C440.926 473.862 438.651 474.252 437.489 475.895L443.44 480.105ZM440.464 478L437.489 475.895L365.209 578.071L368.184 580.176L371.16 582.281L443.44 480.105L440.464 478Z" fill="#859474"/>
<path d="M328.273 1299.74C325.705 1298.31 324.273 1295.42 323.989 1291.26C323.705 1287.11 324.575 1281.79 326.508 1275.64C330.373 1263.35 338.458 1247.87 349.857 1232.13C361.256 1216.38 373.789 1203.38 384.824 1195.09C390.344 1190.94 395.467 1187.99 399.869 1186.45C404.279 1184.91 407.874 1184.81 410.442 1186.24C413.01 1187.67 414.443 1190.57 414.727 1194.72C415.01 1198.87 414.141 1204.2 412.208 1210.34C408.342 1222.63 400.256 1238.11 388.857 1253.86C377.459 1269.6 364.926 1282.6 353.892 1290.89C348.372 1295.04 343.248 1298 338.847 1299.54C334.437 1301.08 330.841 1301.17 328.273 1299.74Z" fill="#C0D6BB" stroke="#415733" stroke-width="0.911193"/>
<path d="M444.44 1143.11C445.602 1141.46 445.212 1139.19 443.569 1138.02C441.926 1136.86 439.651 1137.25 438.489 1138.9L444.44 1143.11ZM441.464 1141L438.489 1138.9L366.209 1241.07L369.184 1243.18L372.16 1245.28L444.44 1143.11L441.464 1141Z" fill="#859474"/>
<path d="M73.5313 38.1953C75.1699 40.5685 75.3802 44.4611 74.1711 49.6545C72.9673 54.8248 70.3865 61.1435 66.6289 68.1993C59.1164 82.3054 46.9551 99.2569 31.9222 115.696C16.8892 132.134 1.85345 144.923 -10.2947 152.316C-16.3711 156.014 -21.7034 158.348 -25.9398 159.127C-30.1951 159.909 -33.2288 159.104 -34.8677 156.731C-36.5065 154.358 -36.7167 150.465 -35.5076 145.272C-34.3038 140.101 -31.7236 133.782 -27.9658 126.726C-20.4534 112.62 -8.2915 95.6692 6.74142 79.2305C21.7744 62.7918 36.8096 50.0021 48.9577 42.6091C55.0343 38.9111 60.3669 36.5777 64.6034 35.7991C68.8589 35.017 71.8924 35.8221 73.5313 38.1953Z" fill="#C0D6BB" stroke="#415733" stroke-width="0.924893"/>
<path d="M-47.1753 164.405L21.8314 89.0288" stroke="#859474" stroke-width="7.39914"/>
<path d="M53.7893 540.148C77.2282 511.691 56.5177 511.985 33.9922 518.554C24.6744 521.271 15.566 518.601 11.5611 509.759C9.39849 504.985 6.3384 500.005 -0.0864736 495.788C-7.3659 491.01 -17.3944 506.694 -21.3924 528.323C-24.2923 544.012 -4.37656 567.44 8.81453 580.021C11.2965 582.388 14.33 584.11 17.6131 585.103C48.9627 594.581 55.075 588.861 51.498 579.395C46.5076 566.189 44.8134 551.046 53.7893 540.148Z" fill="#A9BFA0" stroke="#415733" stroke-width="0.924893"/>
<ellipse cx="21.4564" cy="5.55453" rx="21.4564" ry="5.55453" transform="matrix(0.0239678 0.999713 -0.99943 0.0337637 2.14947 520.389)" fill="#81916E"/>
<ellipse cx="21.8337" cy="5.45868" rx="21.8337" ry="5.45868" transform="matrix(-0.836273 0.548314 -0.558238 -0.829681 34.1502 541.764)" fill="#81916E"/>
<ellipse cx="21.7059" cy="5.4915" rx="21.7059" ry="5.4915" transform="matrix(-0.929432 -0.368994 0.387481 -0.921878 32.5665 580.104)" fill="#81916E"/>
<mask id="path-37-inside-3_812_236" fill="white">
<path d="M36.8359 274.946C54.1804 266.277 70.8574 264.325 76.1523 270.957C81.3019 277.409 74.0271 289.904 59.5703 300.944C63.8314 304.973 66.4033 310.189 66.4033 315.888C66.4032 328.651 53.5141 338.996 37.6143 338.996C36.4466 338.996 35.2953 338.939 34.1641 338.83C34.285 339.863 34.3496 340.914 34.3496 341.981C34.3496 356.392 22.9884 368.075 8.97363 368.076C-5.04124 368.076 -16.4023 356.392 -16.4023 341.981C-16.4023 338.825 -15.8593 335.8 -14.8613 333C-18.6776 333.854 -22.7948 334.322 -27.0879 334.322C-46.9216 334.322 -63 324.382 -63 312.121C-62.9997 299.861 -46.9215 289.922 -27.0879 289.922C-22.1045 289.922 -17.3577 290.549 -13.0439 291.683C-13.1055 291.102 -13.1377 290.514 -13.1377 289.921C-13.1374 277.876 -0.181862 268.112 15.7998 268.112C24.0872 268.112 31.5605 270.738 36.8359 274.946Z"/>
</mask>
<path d="M36.8359 274.946C54.1804 266.277 70.8574 264.325 76.1523 270.957C81.3019 277.409 74.0271 289.904 59.5703 300.944C63.8314 304.973 66.4033 310.189 66.4033 315.888C66.4032 328.651 53.5141 338.996 37.6143 338.996C36.4466 338.996 35.2953 338.939 34.1641 338.83C34.285 339.863 34.3496 340.914 34.3496 341.981C34.3496 356.392 22.9884 368.075 8.97363 368.076C-5.04124 368.076 -16.4023 356.392 -16.4023 341.981C-16.4023 338.825 -15.8593 335.8 -14.8613 333C-18.6776 333.854 -22.7948 334.322 -27.0879 334.322C-46.9216 334.322 -63 324.382 -63 312.121C-62.9997 299.861 -46.9215 289.922 -27.0879 289.922C-22.1045 289.922 -17.3577 290.549 -13.0439 291.683C-13.1055 291.102 -13.1377 290.514 -13.1377 289.921C-13.1374 277.876 -0.181862 268.112 15.7998 268.112C24.0872 268.112 31.5605 270.738 36.8359 274.946Z" fill="#97BB99"/>
<path d="M36.8359 274.946L36.2592 275.669L36.721 276.037L37.2494 275.773L36.8359 274.946ZM76.1523 270.957L76.8752 270.38L76.8752 270.38L76.1523 270.957ZM59.5703 300.944L59.009 300.209L58.1447 300.869L58.9348 301.616L59.5703 300.944ZM66.4033 315.888L67.3282 315.888V315.888H66.4033ZM37.6143 338.996V339.921V338.996ZM34.1641 338.83L34.2523 337.91L33.1123 337.8L33.2454 338.938L34.1641 338.83ZM34.3496 341.981H35.2745V341.981L34.3496 341.981ZM8.97363 368.076V369H8.97364L8.97363 368.076ZM-16.4023 341.981L-17.3272 341.981V341.981H-16.4023ZM-14.8613 333L-13.9901 333.311L-13.4272 331.732L-15.0633 332.098L-14.8613 333ZM-27.0879 334.322L-27.0879 335.247H-27.0879V334.322ZM-63 312.121L-63.9249 312.121V312.121H-63ZM-27.0879 289.922V288.997H-27.0879L-27.0879 289.922ZM-13.0439 291.683L-13.2791 292.578L-11.9829 292.918L-12.1242 291.585L-13.0439 291.683ZM-13.1377 289.921L-14.0626 289.921V289.921H-13.1377ZM15.7998 268.112V267.187V268.112ZM36.8359 274.946L37.2494 275.773C45.8503 271.474 54.2481 268.861 61.1103 268.133C68.0542 267.397 73.0996 268.616 75.4295 271.534L76.1523 270.957L76.8752 270.38C73.9102 266.666 67.9696 265.545 60.9151 266.294C53.779 267.051 45.166 269.748 36.4224 274.118L36.8359 274.946ZM76.1523 270.957L75.4295 271.534C77.6375 274.301 77.337 278.56 74.4073 283.777C71.5068 288.942 66.1758 294.736 59.009 300.209L59.5703 300.944L60.1316 301.679C67.4216 296.112 72.9565 290.139 76.0201 284.683C79.0546 279.279 79.8167 274.065 76.8752 270.38L76.1523 270.957ZM59.5703 300.944L58.9348 301.616C63.0413 305.499 65.4784 310.482 65.4784 315.888H66.4033H67.3282C67.3282 309.896 64.6215 304.447 60.2058 300.272L59.5703 300.944ZM66.4033 315.888L65.4784 315.888C65.4783 327.96 53.2034 338.072 37.6143 338.072V338.996V339.921C53.8248 339.921 67.3281 329.341 67.3282 315.888L66.4033 315.888ZM37.6143 338.996V338.072C36.477 338.072 35.3552 338.016 34.2523 337.91L34.1641 338.83L34.0758 339.751C35.2355 339.862 36.4162 339.921 37.6143 339.921V338.996ZM34.1641 338.83L33.2454 338.938C33.3623 339.937 33.4247 340.952 33.4247 341.981L34.3496 341.981L35.2745 341.981C35.2745 340.877 35.2076 339.79 35.0827 338.723L34.1641 338.83ZM34.3496 341.981H33.4247C33.4247 355.906 22.4534 367.151 8.97363 367.151L8.97363 368.076L8.97364 369C23.5234 369 35.2745 356.879 35.2745 341.981H34.3496ZM8.97363 368.076V367.151C-4.50625 367.151 -15.4775 355.906 -15.4775 341.981H-16.4023H-17.3272C-17.3272 356.879 -5.57623 369 8.97363 369V368.076ZM-16.4023 341.981L-15.4775 341.981C-15.4774 338.932 -14.9529 336.012 -13.9901 333.311L-14.8613 333L-15.7325 332.69C-16.7658 335.589 -17.3272 338.719 -17.3272 341.981L-16.4023 341.981ZM-14.8613 333L-15.0633 332.098C-18.812 332.937 -22.8614 333.397 -27.0879 333.397V334.322V335.247C-22.7282 335.247 -18.5432 334.772 -14.6593 333.903L-14.8613 333ZM-27.0879 334.322L-27.0879 333.397C-36.861 333.397 -45.6647 330.946 -51.9953 327.033C-58.3402 323.11 -62.0751 317.813 -62.0751 312.121H-63H-63.9249C-63.9249 318.691 -59.6206 324.493 -52.9679 328.606C-46.3008 332.727 -37.1485 335.247 -27.0879 335.247L-27.0879 334.322ZM-63 312.121L-62.0751 312.121C-62.075 306.43 -58.34 301.133 -51.9951 297.211C-45.6646 293.298 -36.8609 290.847 -27.0879 290.847L-27.0879 289.922L-27.0879 288.997C-37.1484 288.997 -46.3007 291.516 -52.9678 295.638C-59.6204 299.75 -63.9248 305.552 -63.9249 312.121L-63 312.121ZM-27.0879 289.922V290.847C-22.1812 290.847 -17.5135 291.464 -13.2791 292.578L-13.0439 291.683L-12.8088 290.789C-17.2019 289.634 -22.0279 288.997 -27.0879 288.997V289.922ZM-13.0439 291.683L-12.1242 291.585C-12.1825 291.036 -12.2128 290.481 -12.2128 289.921H-13.1377H-14.0626C-14.0626 290.548 -14.0286 291.168 -13.9637 291.781L-13.0439 291.683ZM-13.1377 289.921L-12.2128 289.921C-12.2126 284.253 -9.16648 279.053 -4.10527 275.238C0.956383 271.423 7.9908 269.037 15.7998 269.037V268.112V267.187C7.62714 267.187 0.192978 269.682 -5.21862 273.761C-10.6307 277.84 -14.0624 283.544 -14.0626 289.921L-13.1377 289.921ZM15.7998 268.112V269.037C23.8994 269.037 31.1638 271.604 36.2592 275.669L36.8359 274.946L37.4127 274.223C31.9571 269.871 24.2751 267.187 15.7998 267.187V268.112Z" fill="#415733" mask="url(#path-37-inside-3_812_236)"/>
<ellipse cx="4.71579" cy="56.756" rx="4.71579" ry="56.756" transform="matrix(0.726603 0.687057 -0.7773 0.629131 25.2329 290.701)" fill="#5D755B"/>
<ellipse cx="17.7841" cy="5.95489" rx="17.7841" ry="5.95489" transform="matrix(0.361849 0.932237 -0.958598 0.284765 7.479 317.443)" fill="#6D8361"/>
<ellipse cx="19.8225" cy="5.33905" rx="19.8225" ry="5.33905" transform="matrix(0.967853 0.251516 -0.321523 0.946902 -33.6001 300.492)" fill="#6D8361"/>
<ellipse cx="19.2179" cy="5.53599" rx="19.2179" ry="5.53599" transform="matrix(0.851029 0.525118 -0.627652 0.778494 18.4756 299.059)" fill="#6D8361"/>
<ellipse cx="19.3275" cy="5.50124" rx="19.3275" ry="5.50124" transform="matrix(0.874232 -0.48551 0.587309 0.809363 11.8018 300.219)" fill="#6D8361"/>
<ellipse cx="12.2771" cy="4.21515" rx="12.2771" ry="4.21515" transform="matrix(-0.272221 -0.962235 0.977354 -0.211612 12.7749 306.783)" fill="#6D8361"/>
<path d="M79.1323 746.195C80.7709 748.568 80.9813 752.461 79.7722 757.654C78.5684 762.825 75.9876 769.143 72.2299 776.199C64.7175 790.305 52.5562 807.257 37.5232 823.696C22.4903 840.134 7.45452 852.923 -4.69362 860.316C-10.77 864.014 -16.1023 866.348 -20.3387 867.127C-24.594 867.909 -27.6277 867.104 -29.2666 864.731C-30.9054 862.358 -31.1156 858.465 -29.9065 853.272C-28.7027 848.101 -26.1225 841.782 -22.3647 834.726C-14.8523 820.62 -2.69043 803.669 12.3425 787.231C27.3754 770.792 42.4107 758.002 54.5588 750.609C60.6354 746.911 65.968 744.578 70.2044 743.799C74.46 743.017 77.4935 743.822 79.1323 746.195Z" fill="#C0D6BB" stroke="#415733" stroke-width="0.924893"/>
<path d="M-41.5742 872.405L27.4325 797.029" stroke="#859474" stroke-width="7.39914"/>
<path d="M45.7893 1222.15C69.2282 1193.69 48.5177 1193.99 25.9922 1200.55C16.6744 1203.27 7.56605 1200.6 3.56111 1191.76C1.39849 1186.99 -1.6616 1182.01 -8.08647 1177.79C-15.3659 1173.01 -25.3944 1188.69 -29.3924 1210.32C-32.2923 1226.01 -12.3766 1249.44 0.814528 1262.02C3.29655 1264.39 6.33003 1266.11 9.61311 1267.1C40.9627 1276.58 47.075 1270.86 43.498 1261.4C38.5076 1248.19 36.8134 1233.05 45.7893 1222.15Z" fill="#A9BFA0" stroke="#415733" stroke-width="0.924893"/>
<ellipse cx="21.8337" cy="5.45868" rx="21.8337" ry="5.45868" transform="matrix(-0.836273 0.548314 -0.558238 -0.829681 26.1502 1223.76)" fill="#81916E"/>
<ellipse cx="21.7059" cy="5.4915" rx="21.7059" ry="5.4915" transform="matrix(-0.929432 -0.368994 0.387481 -0.921878 24.5665 1262.1)" fill="#81916E"/>
<mask id="path-50-inside-4_812_236" fill="white">
<path d="M37.8379 980.947C55.1816 972.279 71.8576 970.327 77.1523 976.959C82.3017 983.41 75.0274 995.906 60.5713 1006.94C64.8318 1010.97 67.4033 1016.19 67.4033 1021.89C67.4032 1034.65 54.5141 1045 38.6143 1045C37.4466 1045 36.2953 1044.94 35.1641 1044.83C35.285 1045.86 35.3496 1046.91 35.3496 1047.98C35.3496 1062.39 23.9875 1074.08 9.97266 1074.08C-4.04202 1074.08 -15.4033 1062.39 -15.4033 1047.98C-15.4033 1044.83 -14.8587 1041.8 -13.8613 1039C-17.6775 1039.86 -21.7949 1040.32 -26.0879 1040.32C-45.9216 1040.32 -62 1030.38 -62 1018.12C-61.9997 1005.86 -45.9215 995.924 -26.0879 995.924C-21.1045 995.924 -16.3577 996.551 -12.0439 997.685C-12.1057 997.103 -12.1377 996.515 -12.1377 995.921C-12.1374 983.876 0.818138 974.112 16.7998 974.112C25.0881 974.112 32.5624 976.738 37.8379 980.947Z"/>
</mask>
<path d="M37.8379 980.947C55.1816 972.279 71.8576 970.327 77.1523 976.959C82.3017 983.41 75.0274 995.906 60.5713 1006.94C64.8318 1010.97 67.4033 1016.19 67.4033 1021.89C67.4032 1034.65 54.5141 1045 38.6143 1045C37.4466 1045 36.2953 1044.94 35.1641 1044.83C35.285 1045.86 35.3496 1046.91 35.3496 1047.98C35.3496 1062.39 23.9875 1074.08 9.97266 1074.08C-4.04202 1074.08 -15.4033 1062.39 -15.4033 1047.98C-15.4033 1044.83 -14.8587 1041.8 -13.8613 1039C-17.6775 1039.86 -21.7949 1040.32 -26.0879 1040.32C-45.9216 1040.32 -62 1030.38 -62 1018.12C-61.9997 1005.86 -45.9215 995.924 -26.0879 995.924C-21.1045 995.924 -16.3577 996.551 -12.0439 997.685C-12.1057 997.103 -12.1377 996.515 -12.1377 995.921C-12.1374 983.876 0.818138 974.112 16.7998 974.112C25.0881 974.112 32.5624 976.738 37.8379 980.947Z" fill="#97BB99"/>
<path d="M37.8379 980.947L37.2611 981.67L37.7229 982.038L38.2514 981.774L37.8379 980.947ZM77.1523 976.959L77.8752 976.382L77.8752 976.382L77.1523 976.959ZM60.5713 1006.94L60.01 1006.21L59.1458 1006.87L59.9358 1007.62L60.5713 1006.94ZM67.4033 1021.89L68.3282 1021.89V1021.89H67.4033ZM38.6143 1045V1045.92V1045ZM35.1641 1044.83L35.2523 1043.91L34.1123 1043.8L34.2454 1044.94L35.1641 1044.83ZM35.3496 1047.98H36.2745V1047.98L35.3496 1047.98ZM9.97266 1074.08L9.97264 1075H9.97266V1074.08ZM-15.4033 1047.98L-16.3282 1047.98V1047.98H-15.4033ZM-13.8613 1039L-12.9901 1039.31L-12.4274 1037.73L-14.0633 1038.1L-13.8613 1039ZM-26.0879 1040.32L-26.0879 1041.25H-26.0879V1040.32ZM-62 1018.12L-62.9249 1018.12V1018.12H-62ZM-26.0879 995.924V994.999H-26.0879L-26.0879 995.924ZM-12.0439 997.685L-12.2791 998.579L-10.9827 998.92L-11.1242 997.587L-12.0439 997.685ZM-12.1377 995.921L-13.0626 995.921V995.921H-12.1377ZM16.7998 974.112L16.7998 973.187H16.7998V974.112ZM37.8379 980.947L38.2514 981.774C46.8519 977.476 55.2492 974.863 62.111 974.135C69.0546 973.399 74.0997 974.618 76.4295 977.536L77.1523 976.959L77.8752 976.382C74.9103 972.668 68.97 971.547 61.9159 972.296C54.7801 973.053 46.1676 975.75 37.4244 980.119L37.8379 980.947ZM77.1523 976.959L76.4295 977.536C78.6375 980.302 78.337 984.562 75.4074 989.779C72.5071 994.943 67.1764 1000.74 60.01 1006.21L60.5713 1006.94L61.1326 1007.68C68.4222 1002.11 73.9568 996.14 77.0203 990.684C80.0547 985.281 80.8166 980.067 77.8752 976.382L77.1523 976.959ZM60.5713 1006.94L59.9358 1007.62C64.0416 1011.5 66.4784 1016.48 66.4784 1021.89H67.4033H68.3282C68.3282 1015.9 65.6219 1010.45 61.2068 1006.27L60.5713 1006.94ZM67.4033 1021.89L66.4784 1021.89C66.4783 1033.96 54.2034 1044.07 38.6143 1044.07V1045V1045.92C54.8248 1045.92 68.3281 1035.34 68.3282 1021.89L67.4033 1021.89ZM38.6143 1045V1044.07C37.477 1044.07 36.3552 1044.02 35.2523 1043.91L35.1641 1044.83L35.0758 1045.75C36.2355 1045.86 37.4162 1045.92 38.6143 1045.92V1045ZM35.1641 1044.83L34.2454 1044.94C34.3623 1045.94 34.4247 1046.95 34.4247 1047.98L35.3496 1047.98L36.2745 1047.98C36.2745 1046.88 36.2076 1045.79 36.0827 1044.72L35.1641 1044.83ZM35.3496 1047.98H34.4247C34.4247 1061.91 23.4526 1073.15 9.97266 1073.15V1074.08V1075C24.5225 1075 36.2745 1062.88 36.2745 1047.98H35.3496ZM9.97266 1074.08L9.97267 1073.15C-3.50704 1073.15 -14.4784 1061.91 -14.4784 1047.98H-15.4033H-16.3282C-16.3282 1062.88 -4.57699 1075 9.97264 1075L9.97266 1074.08ZM-15.4033 1047.98L-14.4784 1047.98C-14.4784 1044.93 -13.9524 1042.01 -12.9901 1039.31L-13.8613 1039L-14.7326 1038.69C-15.7651 1041.59 -16.3282 1044.72 -16.3282 1047.98L-15.4033 1047.98ZM-13.8613 1039L-14.0633 1038.1C-17.8118 1038.94 -21.8613 1039.4 -26.0879 1039.4V1040.32V1041.25C-21.7284 1041.25 -17.5433 1040.78 -13.6593 1039.91L-13.8613 1039ZM-26.0879 1040.32L-26.0879 1039.4C-35.861 1039.4 -44.6647 1036.95 -50.9953 1033.03C-57.3402 1029.11 -61.0751 1023.81 -61.0751 1018.12H-62H-62.9249C-62.9249 1024.69 -58.6206 1030.5 -51.9679 1034.61C-45.3008 1038.73 -36.1485 1041.25 -26.0879 1041.25L-26.0879 1040.32ZM-62 1018.12L-61.0751 1018.12C-61.075 1012.43 -57.34 1007.14 -50.9951 1003.21C-44.6646 999.3 -35.8609 996.849 -26.0879 996.849L-26.0879 995.924L-26.0879 994.999C-36.1484 994.999 -45.3007 997.518 -51.9678 1001.64C-58.6204 1005.75 -62.9248 1011.55 -62.9249 1018.12L-62 1018.12ZM-26.0879 995.924V996.849C-21.1812 996.849 -16.5135 997.466 -12.2791 998.579L-12.0439 997.685L-11.8088 996.79C-16.2019 995.636 -21.0279 994.999 -26.0879 994.999V995.924ZM-12.0439 997.685L-11.1242 997.587C-11.1826 997.037 -11.2128 996.482 -11.2128 995.921H-12.1377H-13.0626C-13.0626 996.548 -13.0288 997.169 -12.9637 997.783L-12.0439 997.685ZM-12.1377 995.921L-11.2128 995.921C-11.2126 990.253 -8.16648 985.053 -3.10527 981.238C1.95638 977.423 8.9908 975.037 16.7998 975.037V974.112V973.187C8.62714 973.187 1.19298 975.682 -4.21862 979.761C-9.63066 983.84 -13.0624 989.544 -13.0626 995.921L-12.1377 995.921ZM16.7998 974.112L16.7998 975.037C24.9003 975.037 32.1657 977.605 37.2611 981.67L37.8379 980.947L38.4147 980.224C32.9591 975.871 25.2759 973.187 16.7998 973.187L16.7998 974.112Z" fill="#415733" mask="url(#path-50-inside-4_812_236)"/>
<ellipse cx="4.71579" cy="56.756" rx="4.71579" ry="56.756" transform="matrix(0.726603 0.687057 -0.7773 0.629131 26.2329 996.703)" fill="#5D755B"/>
<ellipse cx="17.7841" cy="5.95489" rx="17.7841" ry="5.95489" transform="matrix(0.361849 0.932237 -0.958598 0.284765 8.479 1023.45)" fill="#6D8361"/>
<ellipse cx="19.8225" cy="5.33905" rx="19.8225" ry="5.33905" transform="matrix(0.967853 0.251516 -0.321523 0.946902 -32.6001 1006.49)" fill="#6D8361"/>
<ellipse cx="19.2179" cy="5.53599" rx="19.2179" ry="5.53599" transform="matrix(0.851029 0.525118 -0.627652 0.778494 19.4756 1005.06)" fill="#6D8361"/>
<ellipse cx="19.3275" cy="5.50124" rx="19.3275" ry="5.50124" transform="matrix(0.874232 -0.48551 0.587309 0.809363 12.8018 1006.22)" fill="#6D8361"/>
<ellipse cx="12.2771" cy="4.21515" rx="12.2771" ry="4.21515" transform="matrix(-0.272221 -0.962235 0.977354 -0.211612 13.7749 1012.78)" fill="#6D8361"/>
</svg>
