<svg width="390" height="615" viewBox="0 0 390 615" fill="none" xmlns="http://www.w3.org/2000/svg">
<path d="M156.481 173.453C-168.821 115.319 -220.464 -228.571 -50.8696 -298.025L483.63 -143.024C634.086 177.761 860.87 808.428 613.687 757.745C366.505 707.062 392.999 559.963 423 493C479.132 410.54 481.784 231.588 156.481 173.453Z" fill="#C0D6BB" stroke="black" stroke-width="0.5"/>
<path d="M-464.286 334.068C-501.286 76.1658 -146.786 -9.33449 -201.786 245.165C-238.569 415.372 3.46622 515.109 56 528.5C132.5 548 349.477 592.525 391.529 745.142C419.884 848.047 462.183 887.635 496.267 898.705H537.414C527.281 902.745 512.733 904.053 496.267 898.705H-464.286V334.068Z" fill="#C0D6BB" stroke="black" stroke-width="0.5"/>
<g filter="url(#filter0_d_466_143)">
<mask id="path-3-inside-1_466_143" fill="white">
<path d="M24.133 222.21C24.104 217.29 26.2689 212.492 30.2987 208.544C34.3285 204.595 40.0031 201.713 46.4608 200.334C52.9186 198.956 59.8066 199.156 66.0788 200.905C72.351 202.653 77.6648 205.855 81.2132 210.024C84.7616 214.192 86.3508 219.1 85.7393 224.001C85.1279 228.902 82.3493 233.53 77.8254 237.18C73.3016 240.831 67.2797 243.305 60.6742 244.228C54.0687 245.15 47.2406 244.47 41.2267 242.291L55 222.029L24.133 222.21Z"/>
</mask>
<path d="M24.133 222.21C24.104 217.29 26.2689 212.492 30.2987 208.544C34.3285 204.595 40.0031 201.713 46.4608 200.334C52.9186 198.956 59.8066 199.156 66.0788 200.905C72.351 202.653 77.6648 205.855 81.2132 210.024C84.7616 214.192 86.3508 219.1 85.7393 224.001C85.1279 228.902 82.3493 233.53 77.8254 237.18C73.3016 240.831 67.2797 243.305 60.6742 244.228C54.0687 245.15 47.2406 244.47 41.2267 242.291L55 222.029L24.133 222.21Z" fill="#6D8361"/>
<path d="M24.133 222.21C24.104 217.29 26.2689 212.492 30.2987 208.544C34.3285 204.595 40.0031 201.713 46.4608 200.334C52.9186 198.956 59.8066 199.156 66.0788 200.905C72.351 202.653 77.6648 205.855 81.2132 210.024C84.7616 214.192 86.3508 219.1 85.7393 224.001C85.1279 228.902 82.3493 233.53 77.8254 237.18C73.3016 240.831 67.2797 243.305 60.6742 244.228C54.0687 245.15 47.2406 244.47 41.2267 242.291L55 222.029L24.133 222.21Z" stroke="#4A5644" stroke-width="0.965703" mask="url(#path-3-inside-1_466_143)"/>
</g>
<mask id="path-4-outside-2_466_143" maskUnits="userSpaceOnUse" x="40.2909" y="186" width="39" height="26" fill="black">
<rect fill="white" x="40.2909" y="186" width="39" height="26"/>
<path d="M60.5358 187C61.4589 187 62.219 191.454 62.3337 197.219C64.1283 191.531 66.2258 187.328 67.1276 187.689C68.074 188.07 67.3432 193.338 65.4948 199.455C65.4091 199.739 65.3205 200.019 65.2331 200.296C65.3802 200.111 65.5281 199.924 65.6794 199.738C69.5224 195.017 73.2301 191.832 73.9606 192.624C74.6581 193.382 72.3829 197.495 68.8259 201.979C73.2287 199.33 76.9454 197.959 77.3903 198.888C77.8032 199.75 75.2584 202.314 71.4597 204.991C75.2933 204.393 78.1186 204.51 78.2741 205.391C78.4738 206.524 74.1781 208.491 68.6784 209.784C64.9347 210.664 61.5979 211.004 59.7858 210.774C57.9737 211.004 54.6376 210.664 50.8942 209.784C45.3945 208.491 41.0981 206.524 41.2976 205.391C41.4718 204.403 45.002 204.374 49.5456 205.238C45.5535 202.473 42.8399 199.776 43.2653 198.888C43.7291 197.922 47.7363 199.446 52.3728 202.311C48.6645 197.7 46.2588 193.4 46.9733 192.624C47.7039 191.832 51.4116 195.017 55.2546 199.738C55.4058 199.924 55.5529 200.111 55.6999 200.296C55.6126 200.019 55.5249 199.739 55.4392 199.455C53.5909 193.339 52.8593 188.071 53.8054 187.689C54.7289 187.318 56.9068 191.737 58.7292 197.635C58.8146 191.67 59.5906 187 60.5358 187Z"/>
</mask>
<path d="M60.5358 187C61.4589 187 62.219 191.454 62.3337 197.219C64.1283 191.531 66.2258 187.328 67.1276 187.689C68.074 188.07 67.3432 193.338 65.4948 199.455C65.4091 199.739 65.3205 200.019 65.2331 200.296C65.3802 200.111 65.5281 199.924 65.6794 199.738C69.5224 195.017 73.2301 191.832 73.9606 192.624C74.6581 193.382 72.3829 197.495 68.8259 201.979C73.2287 199.33 76.9454 197.959 77.3903 198.888C77.8032 199.75 75.2584 202.314 71.4597 204.991C75.2933 204.393 78.1186 204.51 78.2741 205.391C78.4738 206.524 74.1781 208.491 68.6784 209.784C64.9347 210.664 61.5979 211.004 59.7858 210.774C57.9737 211.004 54.6376 210.664 50.8942 209.784C45.3945 208.491 41.0981 206.524 41.2976 205.391C41.4718 204.403 45.002 204.374 49.5456 205.238C45.5535 202.473 42.8399 199.776 43.2653 198.888C43.7291 197.922 47.7363 199.446 52.3728 202.311C48.6645 197.7 46.2588 193.4 46.9733 192.624C47.7039 191.832 51.4116 195.017 55.2546 199.738C55.4058 199.924 55.5529 200.111 55.6999 200.296C55.6126 200.019 55.5249 199.739 55.4392 199.455C53.5909 193.339 52.8593 188.071 53.8054 187.689C54.7289 187.318 56.9068 191.737 58.7292 197.635C58.8146 191.67 59.5906 187 60.5358 187Z" fill="white"/>
<path d="M60.5358 187L60.5362 186.279H60.5358V187ZM62.3337 197.219L61.6134 197.233L63.0207 197.435L62.3337 197.219ZM67.1276 187.689L67.3966 187.021L67.3958 187.021L67.1276 187.689ZM65.4948 199.455L66.1845 199.663V199.663L65.4948 199.455ZM65.2331 200.296L64.546 200.079L65.7969 200.744L65.2331 200.296ZM65.6794 199.738L65.1206 199.283V199.283L65.6794 199.738ZM73.9606 192.624L74.4907 192.136L74.4902 192.135L73.9606 192.624ZM68.8259 201.979L68.2614 201.532L69.1974 202.597L68.8259 201.979ZM77.3903 198.888L78.0402 198.577L78.04 198.576L77.3903 198.888ZM71.4597 204.991L71.0446 204.402L71.5707 205.703L71.4597 204.991ZM78.2741 205.391L78.9836 205.266L78.9836 205.265L78.2741 205.391ZM68.6784 209.784L68.8433 210.485L68.8433 210.485L68.6784 209.784ZM59.7858 210.774L59.8764 210.06L59.7859 210.048L59.6953 210.06L59.7858 210.774ZM50.8942 209.784L50.7294 210.485H50.7294L50.8942 209.784ZM41.2976 205.391L40.5881 205.265L40.588 205.266L41.2976 205.391ZM49.5456 205.238L49.411 205.946L49.9558 204.646L49.5456 205.238ZM43.2653 198.888L42.6159 198.576L42.6155 198.577L43.2653 198.888ZM52.3728 202.311L51.994 202.924L52.9342 201.86L52.3728 202.311ZM46.9733 192.624L46.4438 192.135L46.4433 192.136L46.9733 192.624ZM55.2546 199.738L55.8133 199.283L55.8133 199.283L55.2546 199.738ZM55.6999 200.296L55.1361 200.744L56.387 200.079L55.6999 200.296ZM55.4392 199.455L54.7495 199.663L54.7495 199.663L55.4392 199.455ZM53.8054 187.689L53.5364 187.021L53.5359 187.021L53.8054 187.689ZM58.7292 197.635L58.0409 197.847L59.4496 197.645L58.7292 197.635ZM60.5358 187L60.5355 187.72C60.3387 187.72 60.2679 187.601 60.3167 187.66C60.3587 187.711 60.4319 187.83 60.521 188.053C60.6965 188.493 60.8714 189.173 61.0282 190.072C61.3396 191.858 61.5565 194.373 61.6134 197.233L62.3337 197.219L63.054 197.204C62.9962 194.3 62.7757 191.706 62.4476 189.824C62.2846 188.889 62.0893 188.095 61.8591 187.519C61.7453 187.234 61.6068 186.96 61.4301 186.745C61.2603 186.539 60.9637 186.28 60.5362 186.279L60.5358 187ZM62.3337 197.219L63.0207 197.435C63.9109 194.615 64.8706 192.18 65.7094 190.509C66.1318 189.667 66.507 189.052 66.8094 188.681C66.9634 188.491 67.0674 188.404 67.1165 188.374C67.1681 188.342 67.0486 188.434 66.8595 188.358L67.1276 187.689L67.3958 187.021C66.9812 186.854 66.5989 186.999 66.3561 187.15C66.1109 187.302 65.889 187.529 65.6916 187.771C65.291 188.264 64.8606 188.988 64.4215 189.862C63.5375 191.624 62.5512 194.135 61.6466 197.002L62.3337 197.219ZM67.1276 187.689L66.8586 188.358C66.6869 188.289 66.6818 188.167 66.7246 188.29C66.76 188.392 66.7962 188.577 66.8124 188.868C66.8443 189.443 66.7908 190.276 66.6457 191.322C66.3567 193.405 65.7218 196.213 64.8052 199.247L65.4948 199.455L66.1845 199.663C67.1162 196.58 67.7709 193.696 68.0729 191.52C68.2231 190.437 68.2905 189.499 68.251 188.788C68.2315 188.436 68.184 188.1 68.0854 187.817C67.9943 187.555 67.805 187.185 67.3966 187.021L67.1276 187.689ZM65.4948 199.455L64.8052 199.247C64.721 199.525 64.6338 199.801 64.546 200.079L65.2331 200.296L65.9202 200.512C66.0071 200.237 66.0972 199.952 66.1845 199.663L65.4948 199.455ZM65.2331 200.296L65.7969 200.744C65.9456 200.557 66.0901 200.375 66.2381 200.193L65.6794 199.738L65.1206 199.283C64.9661 199.473 64.8148 199.664 64.6693 199.847L65.2331 200.296ZM65.6794 199.738L66.2381 200.193C68.142 197.854 70 195.911 71.4567 194.66C72.1905 194.03 72.7919 193.601 73.2269 193.379C73.4484 193.266 73.5794 193.231 73.6348 193.224C73.6821 193.219 73.5518 193.243 73.4311 193.112L73.9606 192.624L74.4902 192.135C74.1869 191.807 73.7809 191.757 73.4706 191.793C73.1684 191.827 72.8598 191.948 72.5709 192.096C71.9852 192.395 71.2825 192.91 70.5177 193.567C68.9772 194.89 67.0598 196.901 65.1206 199.283L65.6794 199.738ZM73.9606 192.624L73.4306 193.112C73.3386 193.012 73.3671 192.94 73.3657 193.051C73.3645 193.149 73.3389 193.317 73.2634 193.565C73.1137 194.058 72.8105 194.733 72.3574 195.557C71.4561 197.195 70.0231 199.311 68.2614 201.532L68.8259 201.979L69.3903 202.427C71.1856 200.164 72.6688 197.98 73.6199 196.251C74.0931 195.391 74.4502 194.616 74.6421 193.984C74.7374 193.67 74.8029 193.357 74.8065 193.068C74.81 192.792 74.7571 192.425 74.4907 192.136L73.9606 192.624ZM68.8259 201.979L69.1974 202.597C71.3752 201.286 73.3616 200.305 74.8383 199.769C75.5836 199.498 76.1572 199.356 76.5424 199.324C76.7369 199.309 76.8349 199.325 76.8667 199.335C76.8858 199.341 76.7963 199.315 76.7407 199.199L77.3903 198.888L78.04 198.576C77.8731 198.228 77.5702 198.042 77.2836 197.956C77.0098 197.873 76.71 197.865 76.4247 197.888C75.8504 197.935 75.1361 198.128 74.3463 198.415C72.7527 198.994 70.6794 200.023 68.4544 201.362L68.8259 201.979ZM77.3903 198.888L76.7405 199.199C76.6968 199.107 76.7236 199.059 76.7089 199.121C76.6944 199.182 76.6519 199.294 76.5528 199.46C76.3551 199.793 76.0019 200.231 75.4892 200.755C74.4708 201.796 72.9227 203.078 71.0446 204.402L71.4597 204.991L71.8747 205.58C73.7954 204.226 75.4189 202.888 76.5194 201.762C77.0662 201.203 77.5092 200.671 77.7913 200.197C77.932 199.96 78.0503 199.709 78.1108 199.454C78.171 199.2 78.1871 198.883 78.0402 198.577L77.3903 198.888ZM71.4597 204.991L71.5707 205.703C73.4623 205.408 75.0724 205.295 76.2077 205.356C76.7815 205.386 77.1879 205.459 77.4377 205.55C77.7281 205.655 77.5967 205.697 77.5646 205.516L78.2741 205.391L78.9836 205.265C78.8738 204.643 78.3309 204.341 77.9281 204.195C77.4845 204.034 76.9159 203.951 76.2847 203.917C75.0101 203.849 73.2906 203.976 71.3486 204.279L71.4597 204.991ZM78.2741 205.391L77.5646 205.515C77.5459 205.409 77.5954 205.376 77.544 205.454C77.4932 205.531 77.3846 205.651 77.1857 205.808C76.7904 206.121 76.1595 206.485 75.3136 206.873C73.6318 207.643 71.2308 208.444 68.5136 209.083L68.6784 209.784L68.8433 210.485C71.6257 209.831 74.1224 209.003 75.9134 208.183C76.804 207.775 77.5533 207.354 78.0792 206.939C78.3408 206.732 78.578 206.502 78.7454 206.249C78.9122 205.998 79.0522 205.655 78.9836 205.266L78.2741 205.391ZM68.6784 209.784L68.5136 209.083C64.7922 209.958 61.5575 210.272 59.8764 210.06L59.7858 210.774L59.6953 211.489C61.6384 211.735 65.0772 211.371 68.8433 210.485L68.6784 209.784ZM59.7858 210.774L59.6953 210.06C58.0141 210.272 54.7801 209.957 51.0591 209.083L50.8942 209.784L50.7294 210.485C54.4951 211.371 57.9332 211.735 59.8763 211.489L59.7858 210.774ZM50.8942 209.784L51.0591 209.083C48.3418 208.444 45.9406 207.643 44.2586 206.873C43.4126 206.485 42.7816 206.121 42.3862 205.808C42.1872 205.651 42.0785 205.531 42.0277 205.454C41.9762 205.376 42.0258 205.409 42.0071 205.515L41.2976 205.391L40.588 205.266C40.5195 205.655 40.6596 205.998 40.8264 206.249C40.9939 206.502 41.2311 206.732 41.4928 206.939C42.0188 207.354 42.7682 207.775 43.6588 208.183C45.4501 209.003 47.947 209.831 50.7294 210.485L50.8942 209.784ZM41.2976 205.391L42.007 205.516C41.972 205.714 41.827 205.639 42.2281 205.519C42.5615 205.418 43.0845 205.351 43.7941 205.34C45.2004 205.319 47.1668 205.519 49.411 205.946L49.5456 205.238L49.6802 204.53C47.3808 204.093 45.3102 203.876 43.772 203.9C43.0094 203.911 42.3332 203.983 41.8137 204.139C41.3619 204.274 40.7102 204.573 40.5881 205.265L41.2976 205.391ZM49.5456 205.238L49.9558 204.646C47.9819 203.279 46.3431 201.941 45.2598 200.851C44.7147 200.303 44.3353 199.842 44.1207 199.491C44.013 199.314 43.9651 199.194 43.948 199.127C43.9304 199.057 43.9601 199.105 43.9152 199.199L43.2653 198.888L42.6155 198.577C42.4642 198.893 42.4856 199.219 42.5506 199.478C42.6161 199.738 42.7415 199.997 42.8908 200.241C43.1902 200.732 43.6589 201.285 44.2379 201.867C45.4031 203.039 47.1172 204.433 49.1354 205.83L49.5456 205.238ZM43.2653 198.888L43.9148 199.199C43.8563 199.321 43.7619 199.343 43.7919 199.334C43.8338 199.323 43.9465 199.307 44.1596 199.329C44.581 199.372 45.202 199.536 46 199.837C47.5822 200.434 49.7003 201.507 51.994 202.924L52.3728 202.311L52.7515 201.699C50.4087 200.251 48.2051 199.129 46.5086 198.489C45.6673 198.171 44.9098 197.957 44.3045 197.895C44.0043 197.865 43.6916 197.867 43.4074 197.946C43.1114 198.028 42.7903 198.212 42.6159 198.576L43.2653 198.888ZM52.3728 202.311L52.9342 201.86C51.0976 199.576 49.5943 197.382 48.6436 195.678C48.1659 194.822 47.8432 194.117 47.6816 193.601C47.6001 193.341 47.5708 193.164 47.5683 193.057C47.5656 192.937 47.5974 193.01 47.5034 193.112L46.9733 192.624L46.4433 192.136C46.1707 192.432 46.1213 192.809 46.1278 193.091C46.1347 193.386 46.2051 193.708 46.3065 194.032C46.5109 194.685 46.8874 195.488 47.3854 196.381C48.386 198.174 49.9397 200.435 51.8113 202.763L52.3728 202.311ZM46.9733 192.624L47.5029 193.112C47.3822 193.243 47.2519 193.219 47.2992 193.224C47.3546 193.231 47.4855 193.266 47.7071 193.379C48.1421 193.601 48.7435 194.03 49.4773 194.66C50.934 195.911 52.792 197.854 54.6958 200.193L55.2546 199.738L55.8133 199.283C53.8742 196.901 51.9568 194.89 50.4162 193.567C49.6515 192.91 48.9488 192.395 48.363 192.096C48.0742 191.948 47.7656 191.827 47.4634 191.793C47.1531 191.757 46.7471 191.807 46.4438 192.135L46.9733 192.624ZM55.2546 199.738L54.6958 200.193C54.8436 200.375 54.9858 200.555 55.1361 200.744L55.6999 200.296L56.2637 199.847C56.1201 199.667 55.9679 199.473 55.8133 199.283L55.2546 199.738ZM55.6999 200.296L56.387 200.079C56.2999 199.803 56.2132 199.526 56.1288 199.247L55.4392 199.455L54.7495 199.663C54.8365 199.951 54.9252 200.235 55.0128 200.512L55.6999 200.296ZM55.4392 199.455L56.1288 199.247C55.2122 196.213 54.5772 193.405 54.288 191.322C54.1427 190.276 54.0891 189.444 54.1209 188.868C54.1371 188.577 54.1732 188.392 54.2086 188.29C54.2514 188.167 54.2464 188.288 54.0748 188.357L53.8054 187.689L53.5359 187.021C53.1278 187.186 52.9387 187.555 52.8476 187.817C52.7492 188.1 52.7017 188.437 52.6823 188.789C52.6429 189.5 52.7104 190.438 52.8608 191.521C53.163 193.697 53.8179 196.58 54.7495 199.663L55.4392 199.455ZM53.8054 187.689L54.0744 188.358C53.8803 188.436 53.7601 188.337 53.8195 188.375C53.8744 188.41 53.9846 188.506 54.145 188.707C54.4597 189.101 54.8487 189.749 55.2844 190.63C56.15 192.381 57.137 194.922 58.0409 197.847L58.7292 197.635L59.4175 197.422C58.4991 194.45 57.4859 191.832 56.5761 189.992C56.124 189.077 55.6814 188.322 55.2711 187.808C55.069 187.554 54.8433 187.319 54.5952 187.161C54.3516 187.005 53.9613 186.85 53.5364 187.021L53.8054 187.689ZM58.7292 197.635L59.4496 197.645C59.4919 194.686 59.7057 192.066 60.0205 190.2C60.1789 189.262 60.3574 188.548 60.5381 188.084C60.6298 187.849 60.7063 187.72 60.7522 187.663C60.8064 187.596 60.7372 187.72 60.5358 187.72V187V186.279C60.0982 186.279 59.798 186.55 59.6285 186.761C59.4507 186.983 59.3108 187.265 59.1956 187.561C58.9622 188.16 58.7641 188.986 58.5997 189.961C58.2689 191.921 58.0519 194.619 58.0088 197.624L58.7292 197.635Z" fill="#D9D9D9" mask="url(#path-4-outside-2_466_143)"/>
<path d="M59.8646 205.883L59.1212 202.521C58.9303 201.658 58.6643 200.821 58.3265 200.02L56.9693 196.803" stroke="#FFECA0" stroke-width="0.720446"/>
<path d="M59.3198 207.077L59.1295 206.343C58.7239 204.779 57.9848 203.364 56.9693 202.207V202.207" stroke="#FFECA0" stroke-width="0.720446"/>
<path d="M58.1727 206.917L57.8193 206.289C57.0446 204.914 55.9829 203.787 54.7287 203.008V203.008" stroke="#FFECA0" stroke-width="0.720446"/>
<path d="M62.1813 206.687L62.7946 204.669C63.1143 203.618 63.6113 202.651 64.2615 201.817V201.817" stroke="#FFECA0" stroke-width="0.720446"/>
<path d="M60.9063 206.676L61.1417 203.226C61.1908 202.506 61.2934 201.793 61.4485 201.092L61.9837 198.676" stroke="#FFECA0" stroke-width="0.720446"/>
<g filter="url(#filter1_d_466_143)">
<mask id="path-11-inside-3_466_143" fill="white">
<path d="M368.574 565.887C368.885 561.295 367.084 556.693 363.447 552.781C359.809 548.869 354.533 545.86 348.42 544.211C342.307 542.563 335.69 542.364 329.575 543.646C323.46 544.928 318.18 547.621 314.538 551.315C310.896 555.009 309.09 559.502 309.395 564.113C309.699 568.724 312.098 573.2 316.226 576.862C320.355 580.524 325.987 583.171 332.268 584.402C338.55 585.633 345.137 585.38 351.029 583.682L338.985 563.991L368.574 565.887Z"/>
</mask>
<path d="M368.574 565.887C368.885 561.295 367.084 556.693 363.447 552.781C359.809 548.869 354.533 545.86 348.42 544.211C342.307 542.563 335.69 542.364 329.575 543.646C323.46 544.928 318.18 547.621 314.538 551.315C310.896 555.009 309.09 559.502 309.395 564.113C309.699 568.724 312.098 573.2 316.226 576.862C320.355 580.524 325.987 583.171 332.268 584.402C338.55 585.633 345.137 585.38 351.029 583.682L338.985 563.991L368.574 565.887Z" fill="#6D8361"/>
<path d="M368.574 565.887C368.885 561.295 367.084 556.693 363.447 552.781C359.809 548.869 354.533 545.86 348.42 544.211C342.307 542.563 335.69 542.364 329.575 543.646C323.46 544.928 318.18 547.621 314.538 551.315C310.896 555.009 309.09 559.502 309.395 564.113C309.699 568.724 312.098 573.2 316.226 576.862C320.355 580.524 325.987 583.171 332.268 584.402C338.55 585.633 345.137 585.38 351.029 583.682L338.985 563.991L368.574 565.887Z" stroke="#4A5644" stroke-width="1.09738" mask="url(#path-11-inside-3_466_143)"/>
</g>
<g filter="url(#filter2_d_466_143)">
<mask id="path-12-inside-4_466_143" fill="white">
<path d="M319.937 570.396C320.839 567.118 320.552 563.625 319.118 560.448C317.685 557.272 315.184 554.584 311.995 552.795C308.807 551.006 305.104 550.212 301.451 550.533C297.797 550.855 294.392 552.276 291.752 554.579C289.112 556.882 287.381 559.942 286.824 563.294C286.266 566.646 286.911 570.107 288.661 573.152C290.411 576.196 293.17 578.658 296.519 580.163C299.869 581.668 303.626 582.134 307.22 581.49L303.54 566.118L319.937 570.396Z"/>
</mask>
<path d="M319.937 570.396C320.839 567.118 320.552 563.625 319.118 560.448C317.685 557.272 315.184 554.584 311.995 552.795C308.807 551.006 305.104 550.212 301.451 550.533C297.797 550.855 294.392 552.276 291.752 554.579C289.112 556.882 287.381 559.942 286.824 563.294C286.266 566.646 286.911 570.107 288.661 573.152C290.411 576.196 293.17 578.658 296.519 580.163C299.869 581.668 303.626 582.134 307.22 581.49L303.54 566.118L319.937 570.396Z" fill="#C8E6C1"/>
<path d="M319.937 570.396C320.839 567.118 320.552 563.625 319.118 560.448C317.685 557.272 315.184 554.584 311.995 552.795C308.807 551.006 305.104 550.212 301.451 550.533C297.797 550.855 294.392 552.276 291.752 554.579C289.112 556.882 287.381 559.942 286.824 563.294C286.266 566.646 286.911 570.107 288.661 573.152C290.411 576.196 293.17 578.658 296.519 580.163C299.869 581.668 303.626 582.134 307.22 581.49L303.54 566.118L319.937 570.396Z" stroke="#9FD0B4" stroke-width="1.09738" mask="url(#path-12-inside-4_466_143)"/>
</g>
<mask id="path-13-outside-5_466_143" maskUnits="userSpaceOnUse" x="326.53" y="552.648" width="25" height="15" fill="black">
<rect fill="white" x="326.53" y="552.648" width="25" height="15"/>
<path d="M339.628 553.648C340.208 553.648 340.686 556.01 340.758 559.067C341.886 556.051 343.206 553.821 343.772 554.014C344.367 554.216 343.907 557.01 342.745 560.254C342.691 560.405 342.635 560.554 342.58 560.701C342.673 560.603 342.766 560.504 342.861 560.405C345.277 557.901 347.608 556.212 348.067 556.632C348.506 557.033 347.076 559.214 344.841 561.592C347.608 560.187 349.944 559.461 350.224 559.953C350.483 560.411 348.882 561.771 346.492 563.191C348.904 562.874 350.681 562.936 350.779 563.403C350.904 564.005 348.204 565.048 344.747 565.733C342.393 566.2 340.295 566.379 339.156 566.257C338.017 566.378 335.92 566.2 333.566 565.733C330.11 565.048 327.41 564.005 327.534 563.403C327.644 562.879 329.864 562.864 332.722 563.322C330.211 561.856 328.504 560.425 328.77 559.953C329.061 559.441 331.579 560.249 334.493 561.768C332.163 559.323 330.652 557.043 331.102 556.632C331.561 556.212 333.892 557.901 336.308 560.405C336.403 560.504 336.496 560.604 336.589 560.702C336.534 560.555 336.478 560.405 336.424 560.254C335.262 557.01 334.802 554.216 335.397 554.014C335.978 553.817 337.347 556.162 338.492 559.29C338.546 556.126 339.034 553.649 339.628 553.648Z"/>
</mask>
<path d="M339.628 553.648C340.208 553.648 340.686 556.01 340.758 559.067C341.886 556.051 343.206 553.821 343.772 554.014C344.367 554.216 343.907 557.01 342.745 560.254C342.691 560.405 342.635 560.554 342.58 560.701C342.673 560.603 342.766 560.504 342.861 560.405C345.277 557.901 347.608 556.212 348.067 556.632C348.506 557.033 347.076 559.214 344.841 561.592C347.608 560.187 349.944 559.461 350.224 559.953C350.483 560.411 348.882 561.771 346.492 563.191C348.904 562.874 350.681 562.936 350.779 563.403C350.904 564.005 348.204 565.048 344.747 565.733C342.393 566.2 340.295 566.379 339.156 566.257C338.017 566.378 335.92 566.2 333.566 565.733C330.11 565.048 327.41 564.005 327.534 563.403C327.644 562.879 329.864 562.864 332.722 563.322C330.211 561.856 328.504 560.425 328.77 559.953C329.061 559.441 331.579 560.249 334.493 561.768C332.163 559.323 330.652 557.043 331.102 556.632C331.561 556.212 333.892 557.901 336.308 560.405C336.403 560.504 336.496 560.604 336.589 560.702C336.534 560.555 336.478 560.405 336.424 560.254C335.262 557.01 334.802 554.216 335.397 554.014C335.978 553.817 337.347 556.162 338.492 559.29C338.546 556.126 339.034 553.649 339.628 553.648Z" fill="white"/>
<path d="M339.628 553.648V553.255H339.628L339.628 553.648ZM340.758 559.067L340.365 559.077L341.126 559.205L340.758 559.067ZM343.772 554.014L343.899 553.642L343.899 553.642L343.772 554.014ZM342.745 560.254L343.115 560.386V560.386L342.745 560.254ZM342.58 560.701L342.212 560.564L342.866 560.971L342.58 560.701ZM342.861 560.405L342.578 560.132V560.132L342.861 560.405ZM348.067 556.632L348.333 556.342L348.332 556.342L348.067 556.632ZM344.841 561.592L344.554 561.323L345.019 561.942L344.841 561.592ZM350.224 559.953L350.566 559.76L350.565 559.759L350.224 559.953ZM346.492 563.191L346.291 562.854L346.543 563.581L346.492 563.191ZM350.779 563.403L351.164 563.324L351.164 563.323L350.779 563.403ZM344.747 565.733L344.823 566.119H344.823L344.747 565.733ZM339.156 566.257L339.198 565.866L339.156 565.862L339.115 565.866L339.156 566.257ZM333.566 565.733L333.49 566.119L333.49 566.119L333.566 565.733ZM327.534 563.403L327.15 563.323L327.149 563.324L327.534 563.403ZM332.722 563.322L332.659 563.71L332.92 562.983L332.722 563.322ZM328.77 559.953L328.429 559.759L328.428 559.76L328.77 559.953ZM334.493 561.768L334.312 562.116L334.778 561.496L334.493 561.768ZM331.102 556.632L330.836 556.342L330.836 556.342L331.102 556.632ZM336.308 560.405L336.59 560.132L336.59 560.132L336.308 560.405ZM336.589 560.702L336.303 560.972L336.957 560.565L336.589 560.702ZM336.424 560.254L336.054 560.386L336.054 560.386L336.424 560.254ZM335.397 554.014L335.272 553.641L335.271 553.642L335.397 554.014ZM338.492 559.29L338.123 559.425L338.885 559.297L338.492 559.29ZM339.628 553.648V554.041C339.557 554.041 339.533 554.004 339.559 554.03C339.585 554.057 339.63 554.119 339.684 554.233C339.792 554.461 339.901 554.817 339.999 555.291C340.193 556.233 340.329 557.563 340.365 559.077L340.758 559.067L341.151 559.058C341.114 557.515 340.975 556.135 340.768 555.132C340.665 554.634 340.541 554.208 340.394 553.897C340.321 553.743 340.233 553.596 340.122 553.482C340.01 553.367 339.844 553.255 339.628 553.255V553.648ZM340.758 559.067L341.126 559.205C341.685 557.711 342.287 556.422 342.813 555.538C343.078 555.093 343.313 554.768 343.504 554.571C343.6 554.471 343.669 554.421 343.709 554.4C343.75 554.379 343.716 554.409 343.646 554.386L343.772 554.014L343.899 553.642C343.687 553.57 343.488 553.628 343.344 553.704C343.199 553.78 343.063 553.896 342.938 554.025C342.686 554.286 342.415 554.671 342.138 555.136C341.581 556.073 340.959 557.407 340.39 558.93L340.758 559.067ZM343.772 554.014L343.646 554.386C343.571 554.36 343.564 554.309 343.583 554.357C343.602 554.403 343.624 554.493 343.634 554.644C343.654 554.941 343.621 555.376 343.53 555.929C343.349 557.029 342.951 558.515 342.375 560.121L342.745 560.254L343.115 560.386C343.701 558.749 344.114 557.216 344.305 556.057C344.4 555.481 344.444 554.977 344.418 554.592C344.406 554.401 344.375 554.215 344.31 554.057C344.245 553.9 344.123 553.718 343.899 553.642L343.772 554.014ZM342.745 560.254L342.375 560.121C342.322 560.269 342.267 560.415 342.212 560.564L342.58 560.701L342.948 560.839C343.003 560.692 343.06 560.54 343.115 560.386L342.745 560.254ZM342.58 560.701L342.866 560.971C342.959 560.872 343.051 560.775 343.144 560.678L342.861 560.405L342.578 560.132C342.482 560.233 342.387 560.334 342.294 560.432L342.58 560.701ZM342.861 560.405L343.144 560.678C344.341 559.438 345.51 558.406 346.428 557.74C346.89 557.406 347.273 557.175 347.555 557.053C347.698 556.992 347.794 556.967 347.849 556.962C347.908 556.956 347.862 556.976 347.802 556.922L348.067 556.632L348.332 556.342C348.158 556.183 347.939 556.164 347.773 556.18C347.603 556.196 347.422 556.255 347.244 556.332C346.884 556.487 346.448 556.756 345.967 557.104C345.001 557.804 343.797 558.869 342.578 560.132L342.861 560.405ZM348.067 556.632L347.802 556.922C347.743 556.868 347.754 556.816 347.753 556.857C347.753 556.898 347.74 556.979 347.693 557.109C347.601 557.365 347.412 557.719 347.128 558.156C346.562 559.023 345.662 560.144 344.554 561.323L344.841 561.592L345.127 561.861C346.255 560.661 347.188 559.503 347.786 558.585C348.083 558.129 348.31 557.715 348.432 557.375C348.493 557.206 348.537 557.032 348.539 556.868C348.542 556.704 348.501 556.496 348.333 556.342L348.067 556.632ZM344.841 561.592L345.019 561.942C346.39 561.246 347.644 560.723 348.58 560.437C349.052 560.292 349.423 560.214 349.681 560.196C349.811 560.187 349.889 560.195 349.928 560.205C349.969 560.216 349.92 560.214 349.882 560.147L350.224 559.953L350.565 559.759C350.458 559.569 350.275 559.483 350.123 559.444C349.97 559.405 349.798 559.4 349.627 559.412C349.281 559.436 348.844 559.534 348.35 559.685C347.357 559.989 346.059 560.533 344.663 561.241L344.841 561.592ZM350.224 559.953L349.882 560.147C349.845 560.083 349.864 560.037 349.857 560.059C349.851 560.083 349.827 560.138 349.765 560.226C349.641 560.401 349.419 560.634 349.094 560.914C348.452 561.468 347.475 562.15 346.291 562.854L346.492 563.191L346.693 563.529C347.899 562.812 348.918 562.104 349.608 561.509C349.95 561.213 350.229 560.932 350.407 560.679C350.496 560.553 350.573 560.416 350.614 560.272C350.655 560.126 350.667 559.938 350.566 559.76L350.224 559.953ZM346.492 563.191L346.543 563.581C347.738 563.424 348.76 563.363 349.486 563.395C349.852 563.412 350.121 563.452 350.293 563.504C350.379 563.53 350.42 563.554 350.434 563.564C350.446 563.573 350.408 563.549 350.395 563.484L350.779 563.403L351.164 563.323C351.126 563.141 351.011 563.013 350.898 562.93C350.786 562.848 350.654 562.793 350.522 562.752C350.258 562.672 349.913 562.628 349.521 562.61C348.731 562.575 347.658 562.641 346.441 562.802L346.492 563.191ZM350.779 563.403L350.394 563.483C350.377 563.397 350.423 563.362 350.389 563.405C350.357 563.446 350.286 563.512 350.157 563.598C349.903 563.767 349.5 563.963 348.965 564.17C347.9 564.581 346.384 565.008 344.671 565.348L344.747 565.733L344.823 566.119C346.567 565.773 348.129 565.335 349.248 564.903C349.804 564.688 350.269 564.468 350.593 564.252C350.754 564.144 350.901 564.025 351.007 563.891C351.11 563.76 351.213 563.56 351.164 563.324L350.779 563.403ZM344.747 565.733L344.671 565.348C342.328 565.813 340.277 565.982 339.198 565.866L339.156 566.257L339.114 566.648C340.314 566.776 342.458 566.588 344.823 566.119L344.747 565.733ZM339.156 566.257L339.115 565.866C338.035 565.981 335.985 565.812 333.643 565.348L333.566 565.733L333.49 566.119C335.854 566.588 337.999 566.776 339.198 566.648L339.156 566.257ZM333.566 565.733L333.643 565.348C331.93 565.008 330.414 564.581 329.349 564.17C328.814 563.963 328.411 563.767 328.156 563.598C328.027 563.512 327.957 563.446 327.925 563.405C327.891 563.362 327.937 563.397 327.919 563.483L327.534 563.403L327.149 563.324C327.1 563.56 327.204 563.76 327.307 563.891C327.412 564.025 327.559 564.144 327.72 564.252C328.045 564.468 328.51 564.688 329.066 564.903C330.184 565.335 331.746 565.773 333.49 566.119L333.566 565.733ZM327.534 563.403L327.919 563.484C327.903 563.558 327.859 563.577 327.885 563.561C327.911 563.543 327.972 563.515 328.086 563.486C328.31 563.429 328.651 563.393 329.103 563.387C329.998 563.376 331.244 563.483 332.659 563.71L332.722 563.322L332.784 562.934C331.342 562.703 330.049 562.589 329.092 562.601C328.617 562.608 328.205 562.645 327.893 562.724C327.738 562.763 327.585 562.818 327.458 562.901C327.33 562.983 327.192 563.118 327.15 563.323L327.534 563.403ZM332.722 563.322L332.92 562.983C331.676 562.256 330.643 561.545 329.959 560.965C329.614 560.673 329.375 560.428 329.241 560.242C329.173 560.148 329.146 560.089 329.137 560.061C329.129 560.034 329.15 560.08 329.113 560.146L328.77 559.953L328.428 559.76C328.324 559.944 328.34 560.138 328.384 560.286C328.428 560.432 328.51 560.573 328.604 560.703C328.793 560.964 329.088 561.257 329.45 561.564C330.181 562.184 331.257 562.922 332.523 563.662L332.722 563.322ZM328.77 559.953L329.112 560.147C329.073 560.217 329.022 560.215 329.07 560.204C329.116 560.194 329.203 560.186 329.344 560.198C329.624 560.222 330.025 560.313 330.529 560.473C331.531 560.792 332.868 561.363 334.312 562.116L334.493 561.768L334.675 561.419C333.205 560.653 331.825 560.061 330.767 559.724C330.241 559.557 329.776 559.446 329.411 559.415C329.23 559.4 329.05 559.402 328.891 559.439C328.734 559.476 328.541 559.561 328.429 559.759L328.77 559.953ZM334.493 561.768L334.778 561.496C333.623 560.285 332.679 559.122 332.083 558.221C331.783 557.767 331.582 557.396 331.483 557.127C331.432 556.992 331.417 556.905 331.416 556.86C331.414 556.814 331.428 556.866 331.367 556.922L331.102 556.632L330.836 556.342C330.663 556.501 330.625 556.714 330.63 556.881C330.635 557.049 330.681 557.227 330.746 557.401C330.876 557.752 331.115 558.181 331.428 558.654C332.057 559.606 333.033 560.805 334.209 562.039L334.493 561.768ZM331.102 556.632L331.367 556.922C331.307 556.976 331.261 556.956 331.32 556.962C331.375 556.967 331.471 556.991 331.613 557.053C331.896 557.175 332.278 557.405 332.74 557.74C333.659 558.406 334.828 559.438 336.025 560.678L336.308 560.405L336.59 560.132C335.371 558.869 334.167 557.804 333.201 557.104C332.721 556.756 332.284 556.486 331.925 556.331C331.746 556.254 331.566 556.196 331.396 556.18C331.23 556.163 331.01 556.183 330.836 556.342L331.102 556.632ZM336.308 560.405L336.025 560.678C336.118 560.775 336.209 560.872 336.303 560.972L336.589 560.702L336.875 560.433C336.784 560.336 336.688 560.233 336.59 560.132L336.308 560.405ZM336.589 560.702L336.957 560.565C336.902 560.417 336.847 560.27 336.794 560.121L336.424 560.254L336.054 560.386C336.109 560.54 336.166 560.692 336.221 560.84L336.589 560.702ZM336.424 560.254L336.794 560.121C336.218 558.515 335.82 557.029 335.64 555.929C335.549 555.376 335.516 554.941 335.536 554.644C335.545 554.493 335.567 554.403 335.586 554.357C335.606 554.309 335.599 554.36 335.524 554.386L335.397 554.014L335.271 553.642C335.047 553.718 334.925 553.9 334.86 554.057C334.795 554.215 334.764 554.401 334.751 554.592C334.726 554.977 334.769 555.481 334.864 556.057C335.055 557.216 335.467 558.749 336.054 560.386L336.424 560.254ZM335.397 554.014L335.523 554.386C335.452 554.41 335.418 554.377 335.463 554.402C335.507 554.425 335.579 554.48 335.679 554.585C335.877 554.795 336.121 555.138 336.394 555.604C336.937 556.531 337.556 557.876 338.123 559.425L338.492 559.29L338.861 559.155C338.283 557.576 337.645 556.185 337.072 555.207C336.787 554.72 336.508 554.318 336.251 554.046C336.123 553.91 335.984 553.789 335.837 553.71C335.692 553.631 335.488 553.568 335.272 553.641L335.397 554.014ZM338.492 559.29L338.885 559.297C338.912 557.73 339.046 556.344 339.243 555.36C339.342 554.864 339.453 554.491 339.564 554.25C339.62 554.128 339.667 554.062 339.695 554.032C339.724 554.002 339.701 554.041 339.628 554.041L339.628 553.648L339.628 553.255C339.406 553.256 339.238 553.373 339.126 553.49C339.014 553.608 338.925 553.76 338.851 553.92C338.701 554.243 338.576 554.686 338.472 555.206C338.263 556.251 338.126 557.686 338.099 559.283L338.492 559.29Z" fill="#D9D9D9" mask="url(#path-13-outside-5_466_143)"/>
<path d="M339.206 563.664L338.765 561.982C338.627 561.457 338.435 560.947 338.191 560.46L337.385 558.848" stroke="#FFECA0" stroke-width="0.392959"/>
<path d="M338.863 564.297L338.748 563.922C338.491 563.086 338.022 562.326 337.385 561.714V561.714" stroke="#FFECA0" stroke-width="0.392959"/>
<path d="M338.142 564.212L337.922 563.882C337.434 563.151 336.765 562.552 335.977 562.139V562.139" stroke="#FFECA0" stroke-width="0.392959"/>
<path d="M340.662 564.09L341.045 563.027C341.247 562.466 341.562 561.949 341.97 561.507V561.507" stroke="#FFECA0" stroke-width="0.392959"/>
<path d="M339.86 564.084L339.999 562.372C340.036 561.912 340.114 561.456 340.231 561.01L340.538 559.841" stroke="#FFECA0" stroke-width="0.392959"/>
<path d="M354.492 43.1638C354.687 43.1237 354.893 43.1326 355.082 43.1892C355.271 43.2458 355.434 43.348 355.549 43.4812C355.664 43.6144 355.726 43.7729 355.727 43.9353V50.8952C356.133 50.2097 356.636 49.564 357.227 48.9714C357.849 48.3588 358.434 47.9784 358.89 47.7448C359.118 47.6282 359.311 47.5507 359.459 47.4987C359.54 47.4703 359.624 47.4453 359.708 47.4235L359.731 47.4177L359.742 47.4148H359.746L359.749 47.4138H359.751C359.898 47.3816 360.052 47.3776 360.201 47.4011C360.35 47.4246 360.491 47.4753 360.611 47.5495C360.732 47.6237 360.83 47.7193 360.897 47.8288C360.965 47.9384 361 48.0591 361 48.1814V57.9997H359.022V49.7341C358.936 49.8091 358.848 49.8911 358.759 49.9802C357.777 50.9452 356.512 52.8013 355.711 56.2898C355.667 56.4856 355.533 56.6605 355.336 56.781C355.139 56.9015 354.894 56.9584 354.647 56.9401C354.401 56.9219 354.172 56.8298 354.006 56.6823C353.84 56.535 353.748 56.3432 353.749 56.1442V46.3659C353.587 46.5658 353.429 46.7678 353.274 46.9714C352.071 48.5532 350.73 50.7224 350.103 53.1237C350.056 53.3024 349.935 53.4627 349.759 53.5778C349.583 53.693 349.362 53.7566 349.135 53.7566C348.908 53.7565 348.688 53.693 348.512 53.5778C348.336 53.4627 348.215 53.3024 348.168 53.1237C347.54 50.7224 346.2 48.5532 344.996 46.9714C344.834 46.7591 344.676 46.557 344.521 46.3659V56.1442C344.521 56.3423 344.428 56.5333 344.262 56.6794C344.096 56.8255 343.868 56.9161 343.623 56.9343C343.378 56.9524 343.134 56.8963 342.938 56.7771C342.741 56.6578 342.606 56.4844 342.561 56.2898C341.758 52.8003 340.494 50.9453 339.512 49.9802C339.427 49.896 339.339 49.8139 339.248 49.7341V57.9997H337.271V48.1814C337.27 48.059 337.306 47.9385 337.373 47.8288C337.44 47.719 337.538 47.6229 337.659 47.5485C337.78 47.4743 337.92 47.4236 338.069 47.4001C338.218 47.3766 338.372 47.3807 338.519 47.4128H338.521L338.524 47.4138L338.528 47.4148L338.539 47.4177L338.562 47.4235C338.648 47.4437 338.732 47.4688 338.812 47.4987C338.959 47.5518 339.153 47.6291 339.38 47.7448C339.837 47.9784 340.422 48.3588 341.044 48.9714C341.633 49.5645 342.136 50.2102 342.544 50.8952V43.9353C342.544 43.7729 342.606 43.6145 342.721 43.4812C342.836 43.3478 342.999 43.2459 343.188 43.1892C343.376 43.1325 343.582 43.1236 343.777 43.1638C343.973 43.204 344.148 43.2911 344.28 43.4138L344.281 43.4157L344.285 43.4187L344.297 43.4294L344.338 43.4685L344.487 43.614C344.614 43.7392 344.794 43.9224 345.013 44.1569C345.45 44.6262 346.046 45.3027 346.684 46.1403C347.656 47.4101 348.476 48.7511 349.135 50.1452C349.793 48.751 350.615 47.4102 351.587 46.1403C352.225 45.3016 352.82 44.6262 353.258 44.1569C353.476 43.9235 353.701 43.6936 353.933 43.4685L353.974 43.4294L353.985 43.4187L353.989 43.4157V43.4138C354.121 43.2912 354.297 43.2039 354.492 43.1638Z" fill="#81916E"/>
<path d="M318.332 23.0343C318.597 22.98 318.876 22.9917 319.132 23.0684C319.388 23.1452 319.609 23.2835 319.765 23.4639C319.921 23.6444 320.004 23.8593 320.005 24.0792V33.5089C320.556 32.58 321.238 31.7053 322.038 30.9024C322.881 30.0727 323.672 29.5577 324.29 29.2413C324.599 29.0831 324.862 28.9778 325.062 28.9073C325.172 28.8687 325.285 28.8352 325.399 28.8057L325.432 28.7969L325.445 28.794H325.451L325.454 28.7921H325.458C325.657 28.7485 325.865 28.7427 326.067 28.7745C326.269 28.8063 326.46 28.8752 326.623 28.9757C326.787 29.0762 326.919 29.2061 327.011 29.3546C327.102 29.5029 327.149 29.6665 327.149 29.8321V43.1368H324.471V31.9356C324.354 32.0372 324.235 32.1479 324.113 32.2686C322.783 33.5761 321.069 36.0911 319.983 40.8175C319.924 41.0827 319.743 41.3203 319.477 41.4835C319.21 41.6467 318.877 41.724 318.543 41.6993C318.209 41.6746 317.899 41.5494 317.674 41.3497C317.449 41.15 317.325 40.8899 317.326 40.6202V27.3731C317.107 27.6438 316.892 27.9167 316.683 28.1925C315.052 30.3356 313.236 33.2749 312.386 36.5284C312.322 36.7705 312.157 36.9876 311.919 37.1436C311.68 37.2997 311.382 37.3848 311.074 37.3848C310.767 37.3847 310.469 37.2996 310.23 37.1436C309.992 36.9876 309.827 36.7705 309.764 36.5284C308.913 33.2749 307.097 30.3356 305.467 28.1925C305.248 27.9048 305.033 27.632 304.823 27.3731V40.6202C304.822 40.8885 304.697 41.1468 304.473 41.3448C304.248 41.5429 303.938 41.6668 303.606 41.6915C303.275 41.716 302.943 41.6402 302.677 41.4786C302.411 41.317 302.23 41.081 302.168 40.8175C301.08 36.0896 299.367 33.5761 298.036 32.2686C297.921 32.1546 297.802 32.0438 297.679 31.9356V43.1368H295V29.8321C295 29.6664 295.048 29.5031 295.139 29.3546C295.23 29.2059 295.363 29.0754 295.526 28.9747C295.69 28.8741 295.88 28.8054 296.082 28.7735C296.284 28.7416 296.493 28.7475 296.691 28.7911H296.695L296.704 28.794L296.718 28.7969L296.75 28.8057C296.866 28.8331 296.98 28.8667 297.09 28.9073C297.288 28.9792 297.55 29.0846 297.857 29.2413C298.477 29.5577 299.268 30.0727 300.111 30.9024C300.91 31.706 301.592 32.5806 302.145 33.5089V24.0792C302.145 23.8593 302.228 23.6446 302.384 23.4639C302.539 23.2834 302.76 23.1453 303.016 23.0684C303.272 22.9916 303.551 22.9789 303.815 23.0333C304.08 23.0877 304.317 23.2069 304.496 23.3731L304.498 23.376L304.504 23.38L304.52 23.3946L304.575 23.4473L304.777 23.6446C304.949 23.8143 305.193 24.0622 305.489 24.38C306.082 25.0157 306.888 25.9317 307.753 27.0665C309.07 28.787 310.182 30.6042 311.074 32.4932C311.967 30.6041 313.079 28.787 314.396 27.0665C315.261 25.9302 316.067 25.0157 316.66 24.38C316.956 24.0637 317.261 23.7523 317.574 23.4473L317.63 23.3946L317.646 23.38L317.651 23.376V23.3731C317.83 23.2072 318.068 23.0886 318.332 23.0343Z" fill="#81916E"/>
<path d="M134.482 567.067C134.689 566.991 134.915 566.979 135.129 567.033C135.343 567.087 135.535 567.205 135.68 567.37L135.682 567.373L135.686 567.377L135.699 567.392L135.744 567.444L135.907 567.64C136.046 567.808 136.244 568.054 136.483 568.37C136.963 569.002 137.614 569.912 138.313 571.039C139.379 572.748 140.278 574.553 141 576.429C141.722 574.553 142.621 572.748 143.687 571.039C144.386 569.911 145.037 569.002 145.517 568.37C145.756 568.056 146.002 567.747 146.256 567.444L146.301 567.392L146.314 567.377L146.318 567.373V567.37C146.463 567.205 146.655 567.088 146.869 567.034C147.083 566.98 147.31 566.992 147.517 567.068C147.723 567.145 147.901 567.282 148.027 567.461C148.153 567.64 148.222 567.853 148.223 568.071V577.438C148.668 576.515 149.219 575.646 149.866 574.849C150.548 574.025 151.188 573.513 151.688 573.198C151.937 573.041 152.15 572.937 152.312 572.867C152.401 572.829 152.491 572.795 152.584 572.766L152.61 572.757L152.622 572.754H152.626L152.629 572.753H152.632C152.792 572.71 152.962 572.704 153.125 572.735C153.288 572.767 153.442 572.836 153.574 572.936C153.706 573.035 153.814 573.164 153.888 573.312C153.961 573.459 154 573.622 154 573.786V587H151.833V575.874C151.739 575.975 151.643 576.086 151.545 576.206C150.469 577.505 149.083 580.002 148.205 584.696C148.157 584.96 148.01 585.196 147.795 585.358C147.579 585.521 147.31 585.597 147.04 585.572C146.77 585.548 146.519 585.424 146.337 585.226C146.155 585.027 146.054 584.768 146.056 584.5V571.343C145.878 571.612 145.704 571.883 145.535 572.157C144.216 574.286 142.748 577.204 142.061 580.436C142.009 580.676 141.876 580.893 141.683 581.048C141.49 581.203 141.249 581.287 141 581.287C140.751 581.287 140.51 581.203 140.317 581.048C140.124 580.893 139.991 580.676 139.939 580.436C139.252 577.204 137.784 574.286 136.465 572.157C136.288 571.872 136.114 571.6 135.944 571.343V584.5C135.944 584.767 135.842 585.024 135.66 585.221C135.478 585.417 135.229 585.54 134.961 585.565C134.693 585.589 134.424 585.513 134.209 585.353C133.994 585.192 133.847 584.958 133.797 584.696C132.917 580.001 131.531 577.505 130.455 576.206C130.362 576.093 130.267 575.982 130.167 575.874V587H128V573.786C128 573.621 128.039 573.458 128.112 573.311C128.186 573.163 128.294 573.035 128.426 572.935C128.558 572.835 128.712 572.766 128.875 572.734C129.038 572.703 129.207 572.709 129.368 572.752H129.371L129.374 572.753L129.39 572.757L129.416 572.766C129.51 572.793 129.602 572.827 129.69 572.867C129.851 572.939 130.063 573.043 130.312 573.198C130.813 573.513 131.452 574.025 132.134 574.849C132.78 575.647 133.331 576.516 133.777 577.438V568.071C133.777 567.853 133.846 567.639 133.972 567.46C134.098 567.281 134.276 567.144 134.482 567.067Z" fill="#81916E"/>
<path d="M30.4824 533.067C30.6893 532.991 30.915 532.979 31.1289 533.033C31.3428 533.087 31.5351 533.205 31.6797 533.37L31.6816 533.373L31.6855 533.377L31.6992 533.392L31.7441 533.444L31.9072 533.64C32.0459 533.808 32.2436 534.054 32.4834 534.37C32.9629 535.002 33.6144 535.912 34.3135 537.039C35.3786 538.748 36.2782 540.553 37 542.429C37.7218 540.553 38.6214 538.748 39.6865 537.039C40.3856 535.911 41.0371 535.002 41.5166 534.37C41.7559 534.056 42.0023 533.747 42.2559 533.444L42.3008 533.392L42.3145 533.377L42.3184 533.373V533.37C42.4631 533.205 42.6553 533.088 42.8691 533.034C43.0832 532.98 43.3096 532.992 43.5166 533.068C43.7233 533.145 43.9013 533.282 44.0273 533.461C44.1535 533.64 44.2222 533.853 44.2227 534.071V543.438C44.6681 542.515 45.2194 541.646 45.8662 540.849C46.5479 540.025 47.1878 539.513 47.6875 539.198C47.9373 539.041 48.1498 538.937 48.3115 538.867C48.4006 538.829 48.4915 538.795 48.584 538.766L48.6104 538.757L48.6221 538.754H48.626L48.6289 538.753H48.6318C48.7924 538.71 48.9617 538.704 49.125 538.735C49.2882 538.767 49.442 538.836 49.5742 538.936C49.7064 539.035 49.8139 539.164 49.8877 539.312C49.9615 539.459 49.9998 539.622 50 539.786V553H47.833V541.874C47.7387 541.975 47.6431 542.086 47.5449 542.206C46.4688 543.505 45.0833 546.002 44.2051 550.696C44.1567 550.96 44.0105 551.196 43.7949 551.358C43.5793 551.521 43.3097 551.597 43.04 551.572C42.7703 551.548 42.5191 551.424 42.3369 551.226C42.1548 551.027 42.0544 550.768 42.0557 550.5V537.343C41.8783 537.612 41.7044 537.883 41.5352 538.157C40.2165 540.286 38.7481 543.204 38.0605 546.436C38.0095 546.676 37.8757 546.893 37.6826 547.048C37.4896 547.203 37.2485 547.287 37 547.287C36.7515 547.287 36.5104 547.203 36.3174 547.048C36.1243 546.893 35.9905 546.676 35.9395 546.436C35.2519 543.204 33.7835 540.286 32.4648 538.157C32.2877 537.872 32.1138 537.6 31.9443 537.343V550.5C31.9436 550.767 31.8421 551.024 31.6602 551.221C31.4783 551.417 31.2291 551.54 30.9609 551.565C30.6925 551.589 30.4242 551.513 30.209 551.353C29.9939 551.192 29.8469 550.958 29.7969 550.696C28.9172 546.001 27.5312 543.505 26.4551 542.206C26.3618 542.093 26.2671 541.982 26.167 541.874V553H24V539.786C23.9999 539.621 24.0385 539.458 24.1123 539.311C24.1861 539.163 24.2936 539.035 24.4258 538.935C24.5581 538.835 24.7116 538.766 24.875 538.734C25.0385 538.703 25.2074 538.709 25.3682 538.752H25.3711L25.374 538.753L25.3896 538.757L25.416 538.766C25.5097 538.793 25.6017 538.827 25.6904 538.867C25.8507 538.939 26.0633 539.043 26.3115 539.198C26.8127 539.513 27.4521 540.025 28.1338 540.849C28.7795 541.647 29.3308 542.516 29.7773 543.438V534.071C29.7774 533.853 29.8458 533.639 29.9717 533.46C30.0976 533.281 30.2757 533.144 30.4824 533.067Z" fill="#81916E"/>
<path d="M30.4824 52.0674C30.6893 51.9912 30.915 51.9793 31.1289 52.0333C31.3428 52.0873 31.5351 52.2051 31.6797 52.3702L31.6816 52.3731L31.6855 52.377L31.6992 52.3917L31.7441 52.4444L31.9072 52.6397C32.0459 52.8083 32.2436 53.0545 32.4834 53.3702C32.9629 54.0016 33.6144 54.9121 34.3135 56.0391C35.3786 57.7479 36.2782 59.5525 37 61.4288C37.7218 59.5525 38.6214 57.7479 39.6865 56.0391C40.3856 54.9106 41.0371 54.0016 41.5166 53.3702C41.7559 53.0561 42.0023 52.7473 42.2559 52.4444L42.3008 52.3917L42.3145 52.377L42.3184 52.3731V52.3702C42.4631 52.2054 42.6553 52.0882 42.8691 52.0342C43.0832 51.9803 43.3096 51.9922 43.5166 52.0684C43.7233 52.1447 43.9013 52.2819 44.0273 52.461C44.1535 52.6402 44.2222 52.853 44.2227 53.0714V62.4376C44.6681 61.5151 45.2194 60.6461 45.8662 59.8487C46.5479 59.0245 47.1878 58.5126 47.6875 58.1983C47.9373 58.0413 48.1498 57.9372 48.3115 57.8673C48.4006 57.829 48.4915 57.7949 48.584 57.7657L48.6104 57.7569L48.6221 57.754H48.626L48.6289 57.753H48.6318C48.7924 57.7098 48.9617 57.7038 49.125 57.7354C49.2882 57.767 49.442 57.8358 49.5742 57.9356C49.7064 58.0355 49.8139 58.1642 49.8877 58.3116C49.9615 58.459 49.9998 58.6217 50 58.7862V72.0001H47.833V60.8741C47.7387 60.975 47.6431 61.0862 47.5449 61.2061C46.4688 62.5047 45.0833 65.0021 44.2051 69.6964C44.1567 69.9598 44.0105 70.1964 43.7949 70.3585C43.5793 70.5205 43.3097 70.5968 43.04 70.5723C42.7703 70.5478 42.5191 70.4239 42.3369 70.2257C42.1548 70.0272 42.0544 69.768 42.0557 69.5001V56.3428C41.8783 56.6117 41.7044 56.8834 41.5352 57.1573C40.2165 59.2858 38.7481 62.2044 38.0605 65.4356C38.0095 65.6763 37.8757 65.8929 37.6826 66.0479C37.4896 66.2028 37.2485 66.2872 37 66.2872C36.7515 66.2872 36.5104 66.2028 36.3174 66.0479C36.1243 65.8929 35.9905 65.6763 35.9395 65.4356C35.2519 62.2044 33.7835 59.2858 32.4648 57.1573C32.2877 56.8716 32.1138 56.6 31.9443 56.3428V69.5001C31.9436 69.7667 31.8421 70.024 31.6602 70.2208C31.4783 70.4172 31.2291 70.54 30.9609 70.5645C30.6925 70.589 30.4242 70.5131 30.209 70.3526C29.9939 70.1921 29.8469 69.9582 29.7969 69.6964C28.9172 65.0007 27.5312 62.5047 26.4551 61.2061C26.3618 61.0928 26.2671 60.9816 26.167 60.8741V72.0001H24V58.7862C23.9999 58.6215 24.0385 58.4583 24.1123 58.3106C24.1861 58.1631 24.2936 58.0346 24.4258 57.9346C24.5581 57.8346 24.7116 57.7661 24.875 57.7344C25.0385 57.7028 25.2074 57.7088 25.3682 57.752H25.3711L25.374 57.753L25.3896 57.7569L25.416 57.7657C25.5097 57.7929 25.6017 57.827 25.6904 57.8673C25.8507 57.9387 26.0633 58.0427 26.3115 58.1983C26.8127 58.5126 27.4521 59.0246 28.1338 59.8487C28.7795 60.6468 29.3308 61.5157 29.7773 62.4376V53.0714C29.7774 52.853 29.8458 52.6394 29.9717 52.46C30.0976 52.2809 30.2757 52.1437 30.4824 52.0674Z" fill="#81916E"/>
<path d="M339.482 153.067C339.689 152.991 339.915 152.979 340.129 153.033C340.343 153.087 340.535 153.205 340.68 153.37L340.682 153.373L340.686 153.377L340.699 153.392L340.744 153.444L340.907 153.64C341.046 153.808 341.244 154.054 341.483 154.37C341.963 155.002 342.614 155.912 343.313 157.039C344.379 158.748 345.278 160.553 346 162.429C346.722 160.553 347.621 158.748 348.687 157.039C349.386 155.911 350.037 155.002 350.517 154.37C350.756 154.056 351.002 153.747 351.256 153.444L351.301 153.392L351.314 153.377L351.318 153.373V153.37C351.463 153.205 351.655 153.088 351.869 153.034C352.083 152.98 352.31 152.992 352.517 153.068C352.723 153.145 352.901 153.282 353.027 153.461C353.153 153.64 353.222 153.853 353.223 154.071V163.438C353.668 162.515 354.219 161.646 354.866 160.849C355.548 160.025 356.188 159.513 356.688 159.198C356.937 159.041 357.15 158.937 357.312 158.867C357.401 158.829 357.491 158.795 357.584 158.766L357.61 158.757L357.622 158.754H357.626L357.629 158.753H357.632C357.792 158.71 357.962 158.704 358.125 158.735C358.288 158.767 358.442 158.836 358.574 158.936C358.706 159.035 358.814 159.164 358.888 159.312C358.961 159.459 359 159.622 359 159.786V173H356.833V161.874C356.739 161.975 356.643 162.086 356.545 162.206C355.469 163.505 354.083 166.002 353.205 170.696C353.157 170.96 353.01 171.196 352.795 171.358C352.579 171.521 352.31 171.597 352.04 171.572C351.77 171.548 351.519 171.424 351.337 171.226C351.155 171.027 351.054 170.768 351.056 170.5V157.343C350.878 157.612 350.704 157.883 350.535 158.157C349.216 160.286 347.748 163.204 347.061 166.436C347.009 166.676 346.876 166.893 346.683 167.048C346.49 167.203 346.249 167.287 346 167.287C345.751 167.287 345.51 167.203 345.317 167.048C345.124 166.893 344.991 166.676 344.939 166.436C344.252 163.204 342.784 160.286 341.465 158.157C341.288 157.872 341.114 157.6 340.944 157.343V170.5C340.944 170.767 340.842 171.024 340.66 171.221C340.478 171.417 340.229 171.54 339.961 171.565C339.693 171.589 339.424 171.513 339.209 171.353C338.994 171.192 338.847 170.958 338.797 170.696C337.917 166.001 336.531 163.505 335.455 162.206C335.362 162.093 335.267 161.982 335.167 161.874V173H333V159.786C333 159.621 333.039 159.458 333.112 159.311C333.186 159.163 333.294 159.035 333.426 158.935C333.558 158.835 333.712 158.766 333.875 158.734C334.038 158.703 334.207 158.709 334.368 158.752H334.371L334.374 158.753L334.39 158.757L334.416 158.766C334.51 158.793 334.602 158.827 334.69 158.867C334.851 158.939 335.063 159.043 335.312 159.198C335.813 159.513 336.452 160.025 337.134 160.849C337.78 161.647 338.331 162.516 338.777 163.438V154.071C338.777 153.853 338.846 153.639 338.972 153.46C339.098 153.281 339.276 153.144 339.482 153.067Z" fill="#81916E"/>
<defs>
<filter id="filter0_d_466_143" x="22.2013" y="199.429" width="65.5975" height="49.0625" filterUnits="userSpaceOnUse" color-interpolation-filters="sRGB">
<feFlood flood-opacity="0" result="BackgroundImageFix"/>
<feColorMatrix in="SourceAlpha" type="matrix" values="0 0 0 0 0 0 0 0 0 0 0 0 0 0 0 0 0 0 127 0" result="hardAlpha"/>
<feOffset dy="1.93141"/>
<feGaussianBlur stdDeviation="0.965703"/>
<feComposite in2="hardAlpha" operator="out"/>
<feColorMatrix type="matrix" values="0 0 0 0 0.442514 0 0 0 0 0.701742 0 0 0 0 0.370813 0 0 0 0.49 0"/>
<feBlend mode="normal" in2="BackgroundImageFix" result="effect1_dropShadow_466_143"/>
<feBlend mode="normal" in="SourceGraphic" in2="effect1_dropShadow_466_143" result="shape"/>
</filter>
<filter id="filter1_d_466_143" x="307.167" y="542.811" width="63.6365" height="46.7492" filterUnits="userSpaceOnUse" color-interpolation-filters="sRGB">
<feFlood flood-opacity="0" result="BackgroundImageFix"/>
<feColorMatrix in="SourceAlpha" type="matrix" values="0 0 0 0 0 0 0 0 0 0 0 0 0 0 0 0 0 0 127 0" result="hardAlpha"/>
<feOffset dy="2.19477"/>
<feGaussianBlur stdDeviation="1.09738"/>
<feComposite in2="hardAlpha" operator="out"/>
<feColorMatrix type="matrix" values="0 0 0 0 0.442514 0 0 0 0 0.701742 0 0 0 0 0.370813 0 0 0 0.49 0"/>
<feBlend mode="normal" in2="BackgroundImageFix" result="effect1_dropShadow_466_143"/>
<feBlend mode="normal" in="SourceGraphic" in2="effect1_dropShadow_466_143" result="shape"/>
</filter>
<filter id="filter2_d_466_143" x="284.433" y="550.463" width="38.2138" height="35.6981" filterUnits="userSpaceOnUse" color-interpolation-filters="sRGB">
<feFlood flood-opacity="0" result="BackgroundImageFix"/>
<feColorMatrix in="SourceAlpha" type="matrix" values="0 0 0 0 0 0 0 0 0 0 0 0 0 0 0 0 0 0 127 0" result="hardAlpha"/>
<feOffset dy="2.19477"/>
<feGaussianBlur stdDeviation="1.09738"/>
<feComposite in2="hardAlpha" operator="out"/>
<feColorMatrix type="matrix" values="0 0 0 0 0.442514 0 0 0 0 0.701742 0 0 0 0 0.370813 0 0 0 0.49 0"/>
<feBlend mode="normal" in2="BackgroundImageFix" result="effect1_dropShadow_466_143"/>
<feBlend mode="normal" in="SourceGraphic" in2="effect1_dropShadow_466_143" result="shape"/>
</filter>
</defs>
</svg>
