<svg width="1512" height="547" viewBox="0 0 1512 547" fill="none" xmlns="http://www.w3.org/2000/svg">
<g clip-path="url(#clip0_5_596)">
<rect width="1512" height="547" fill="#B1D2EF"/>
<mask id="path-1-inside-1_5_596" fill="white">
<path d="M521.539 75.6758C529.22 64.444 545.237 57.5306 562.42 59.2656C578.387 60.8781 591.018 69.519 595.838 80.6826C598.272 80.6116 600.753 80.7377 603.252 81.0771C615.818 82.7835 625.886 89.479 630.897 98.2656C638.792 94.9258 647.88 94.1361 656.503 96.6699C668.633 100.234 676.776 109.473 678.833 120.265C693.21 130.775 701.171 146.595 698.482 163.316C694.102 190.543 663.141 209.846 629.329 206.432C619.61 205.45 610.713 202.698 603.073 198.628C588.989 201.558 571.311 202.396 552.471 200.493C519.466 197.16 492.576 186.403 483.352 174.164C478.257 175.694 472.691 176.284 466.992 175.709C447.403 173.731 433.674 158.75 436.328 142.25C438.279 130.128 448.529 120.556 461.599 117.115C459.899 109.272 460.684 101.247 464.39 93.9658C473.673 75.7296 498.123 68.3645 521.539 75.6758Z"/>
</mask>
<path d="M521.539 75.6758C529.22 64.444 545.237 57.5306 562.42 59.2656C578.387 60.8781 591.018 69.519 595.838 80.6826C598.272 80.6116 600.753 80.7377 603.252 81.0771C615.818 82.7835 625.886 89.479 630.897 98.2656C638.792 94.9258 647.88 94.1361 656.503 96.6699C668.633 100.234 676.776 109.473 678.833 120.265C693.21 130.775 701.171 146.595 698.482 163.316C694.102 190.543 663.141 209.846 629.329 206.432C619.61 205.45 610.713 202.698 603.073 198.628C588.989 201.558 571.311 202.396 552.471 200.493C519.466 197.16 492.576 186.403 483.352 174.164C478.257 175.694 472.691 176.284 466.992 175.709C447.403 173.731 433.674 158.75 436.328 142.25C438.279 130.128 448.529 120.556 461.599 117.115C459.899 109.272 460.684 101.247 464.39 93.9658C473.673 75.7296 498.123 68.3645 521.539 75.6758Z" fill="#FFFEF8" fill-opacity="0.4"/>
<path d="M521.539 75.6758L521.241 76.6303L521.947 76.8507L522.365 76.2402L521.539 75.6758ZM562.42 59.2656L562.521 58.2707L562.521 58.2707L562.42 59.2656ZM595.838 80.6826L594.92 81.079L595.189 81.7019L595.867 81.6822L595.838 80.6826ZM603.252 81.0771L603.387 80.0862L603.387 80.0862L603.252 81.0771ZM630.897 98.2656L630.028 98.761L630.468 99.5327L631.286 99.1866L630.897 98.2656ZM656.503 96.6699L656.785 95.7105L656.785 95.7105L656.503 96.6699ZM678.833 120.265L677.851 120.452L677.925 120.839L678.243 121.072L678.833 120.265ZM698.482 163.316L699.469 163.475L699.469 163.475L698.482 163.316ZM629.329 206.432L629.229 207.427L629.229 207.427L629.329 206.432ZM603.073 198.628L603.544 197.745L603.224 197.575L602.87 197.649L603.073 198.628ZM552.471 200.493L552.37 201.488L552.37 201.488L552.471 200.493ZM483.352 174.164L484.15 173.562L483.731 173.006L483.064 173.206L483.352 174.164ZM466.992 175.709L466.892 176.704L466.892 176.704L466.992 175.709ZM436.328 142.25L435.341 142.091L435.341 142.091L436.328 142.25ZM461.599 117.115L461.853 118.082L462.779 117.839L462.576 116.903L461.599 117.115ZM464.39 93.9658L463.499 93.5122L463.499 93.5122L464.39 93.9658ZM521.539 75.6758L522.365 76.2402C529.8 65.3674 545.427 58.5548 562.32 60.2605L562.42 59.2656L562.521 58.2707C545.047 56.5063 528.64 63.5207 520.714 75.1113L521.539 75.6758ZM562.42 59.2656L562.32 60.2605C578.012 61.8453 590.275 70.3211 594.92 81.079L595.838 80.6826L596.756 80.2862C591.76 68.717 578.762 59.9109 562.521 58.2707L562.42 59.2656ZM595.838 80.6826L595.867 81.6822C598.247 81.6128 600.673 81.7361 603.118 82.068L603.252 81.0771L603.387 80.0862C600.833 79.7394 598.297 79.6104 595.809 79.683L595.838 80.6826ZM603.252 81.0771L603.118 82.068C615.419 83.7385 625.192 90.2814 630.028 98.761L630.897 98.2656L631.765 97.7702C626.58 88.6766 616.216 81.8285 603.387 80.0862L603.252 81.0771ZM630.897 98.2656L631.286 99.1866C638.984 95.9303 647.835 95.1651 656.221 97.6293L656.503 96.6699L656.785 95.7105C647.925 93.1071 638.6 93.9212 630.507 97.3446L630.897 98.2656ZM656.503 96.6699L656.221 97.6293C668.008 101.093 675.867 110.046 677.851 120.452L678.833 120.265L679.815 120.077C677.684 108.9 669.257 99.3755 656.785 95.7105L656.503 96.6699ZM678.833 120.265L678.243 121.072C692.38 131.407 700.113 146.88 697.494 163.158L698.482 163.316L699.469 163.475C702.23 146.311 694.04 130.143 679.423 119.457L678.833 120.265ZM698.482 163.316L697.494 163.158C693.226 189.694 662.902 208.817 629.43 205.437L629.329 206.432L629.229 207.427C663.38 210.875 694.978 191.392 699.469 163.475L698.482 163.316ZM629.329 206.432L629.43 205.437C619.836 204.468 611.065 201.752 603.544 197.745L603.073 198.628L602.603 199.51C610.362 203.644 619.385 206.432 629.229 207.427L629.329 206.432ZM603.073 198.628L602.87 197.649C588.901 200.555 571.328 201.392 552.571 199.498L552.471 200.493L552.37 201.488C571.295 203.399 589.076 202.561 603.277 199.607L603.073 198.628ZM552.471 200.493L552.571 199.498C536.144 197.839 521.259 194.334 509.354 189.735C497.415 185.124 488.595 179.459 484.15 173.562L483.352 174.164L482.553 174.766C487.333 181.107 496.57 186.941 508.633 191.601C520.73 196.274 535.793 199.814 552.37 201.488L552.471 200.493ZM483.352 174.164L483.064 173.206C478.093 174.699 472.659 175.276 467.093 174.714L466.992 175.709L466.892 176.704C472.723 177.293 478.421 176.688 483.639 175.122L483.352 174.164ZM466.992 175.709L467.093 174.714C447.902 172.776 434.779 158.182 437.316 142.409L436.328 142.25L435.341 142.091C432.57 159.319 446.904 174.685 466.892 176.704L466.992 175.709ZM436.328 142.25L437.316 142.409C439.188 130.768 449.069 121.448 461.853 118.082L461.599 117.115L461.344 116.148C447.989 119.664 437.369 129.488 435.341 142.091L436.328 142.25ZM461.599 117.115L462.576 116.903C460.92 109.265 461.688 101.478 465.281 94.4194L464.39 93.9658L463.499 93.5122C459.679 101.017 458.877 109.279 460.621 117.327L461.599 117.115ZM464.39 93.9658L465.281 94.4194C474.272 76.7558 498.126 69.4129 521.241 76.6303L521.539 75.6758L521.837 74.7212C498.121 67.3162 473.073 74.7035 463.499 93.5122L464.39 93.9658Z" fill="#66A0D2" mask="url(#path-1-inside-1_5_596)"/>
<mask id="path-3-inside-2_5_596" fill="white">
<path d="M898.102 351.726C903.896 339.414 918.609 330.038 935.849 329.014C951.869 328.063 965.714 334.582 972.251 344.836C974.643 344.378 977.112 344.108 979.633 344.045C990.57 343.771 1000.26 347.462 1006.79 353.538C1014.35 341.816 1028.82 334.606 1043.48 336.461C1062.27 338.839 1074.26 355.216 1070.26 373.04C1070.01 374.146 1069.7 375.232 1069.35 376.295C1080.11 384.65 1086.74 396.533 1086.75 410.068C1086.76 437.644 1059.27 461.632 1025.34 463.646C1015.59 464.225 1006.37 462.925 998.178 460.123C984.74 465.259 967.422 468.902 948.519 470.024C915.405 471.99 887.144 465.652 876.089 455.039C871.303 457.36 865.901 458.83 860.184 459.17C840.53 460.336 824.59 447.734 824.583 431.021C824.577 418.743 833.172 407.661 845.528 402.183C842.6 394.71 842.097 386.663 844.596 378.884C850.856 359.403 873.821 348.238 898.102 351.726Z"/>
</mask>
<path d="M898.102 351.726C903.896 339.414 918.609 330.038 935.849 329.014C951.869 328.063 965.714 334.582 972.251 344.836C974.643 344.378 977.112 344.108 979.633 344.045C990.57 343.771 1000.26 347.462 1006.79 353.538C1014.35 341.816 1028.82 334.606 1043.48 336.461C1062.27 338.839 1074.26 355.216 1070.26 373.04C1070.01 374.146 1069.7 375.232 1069.35 376.295C1080.11 384.65 1086.74 396.533 1086.75 410.068C1086.76 437.644 1059.27 461.632 1025.34 463.646C1015.59 464.225 1006.37 462.925 998.178 460.123C984.74 465.259 967.422 468.902 948.519 470.024C915.405 471.99 887.144 465.652 876.089 455.039C871.303 457.36 865.901 458.83 860.184 459.17C840.53 460.336 824.59 447.734 824.583 431.021C824.577 418.743 833.172 407.661 845.528 402.183C842.6 394.71 842.097 386.663 844.596 378.884C850.856 359.403 873.821 348.238 898.102 351.726Z" fill="#FFFEF8" fill-opacity="0.4"/>
<path d="M898.102 351.726L897.96 352.716L898.692 352.821L899.007 352.152L898.102 351.726ZM935.849 329.014L935.79 328.016L935.79 328.016L935.849 329.014ZM972.251 344.836L971.408 345.373L971.773 345.946L972.439 345.818L972.251 344.836ZM979.633 344.045L979.609 343.045L979.608 343.045L979.633 344.045ZM1006.79 353.538L1006.11 354.27L1006.99 355.083L1007.63 354.079L1006.79 353.538ZM1043.48 336.461L1043.6 335.468L1043.6 335.468L1043.48 336.461ZM1070.26 373.04L1071.23 373.259L1071.23 373.259L1070.26 373.04ZM1069.35 376.295L1068.4 375.977L1068.17 376.65L1068.73 377.085L1069.35 376.295ZM1086.75 410.068L1087.75 410.067L1087.75 410.067L1086.75 410.068ZM1025.34 463.646L1025.4 464.644L1025.4 464.644L1025.34 463.646ZM998.178 460.123L998.502 459.177L998.16 459.06L997.822 459.189L998.178 460.123ZM948.519 470.024L948.578 471.022L948.578 471.022L948.519 470.024ZM876.089 455.039L876.781 454.318L876.279 453.835L875.652 454.139L876.089 455.039ZM860.184 459.17L860.243 460.168L860.243 460.168L860.184 459.17ZM824.583 431.021L823.583 431.022L823.583 431.022L824.583 431.021ZM845.528 402.183L845.933 403.097L846.808 402.709L846.459 401.818L845.528 402.183ZM844.596 378.884L843.644 378.578L843.644 378.578L844.596 378.884ZM898.102 351.726L899.007 352.152C904.616 340.233 918.959 331.019 935.908 330.013L935.849 329.014L935.79 328.016C918.258 329.057 903.176 338.595 897.198 351.3L898.102 351.726ZM935.849 329.014L935.908 330.013C951.653 329.078 965.109 335.493 971.408 345.373L972.251 344.836L973.094 344.298C966.32 333.672 952.085 327.049 935.79 328.016L935.849 329.014ZM972.251 344.836L972.439 345.818C974.778 345.37 977.192 345.106 979.658 345.044L979.633 344.045L979.608 343.045C977.032 343.109 974.508 343.386 972.063 343.854L972.251 344.836ZM979.633 344.045L979.658 345.044C990.361 344.777 999.791 348.39 1006.11 354.27L1006.79 353.538L1007.47 352.806C1000.73 346.534 990.779 342.766 979.609 343.045L979.633 344.045ZM1006.79 353.538L1007.63 354.079C1014.99 342.672 1029.08 335.648 1043.35 337.453L1043.48 336.461L1043.6 335.468C1028.55 333.564 1013.71 340.96 1005.95 352.996L1006.79 353.538ZM1043.48 336.461L1043.35 337.453C1061.6 339.762 1073.15 355.61 1069.28 372.821L1070.26 373.04L1071.23 373.259C1075.37 354.821 1062.94 337.915 1043.6 335.468L1043.48 336.461ZM1070.26 373.04L1069.28 372.821C1069.04 373.893 1068.75 374.946 1068.4 375.977L1069.35 376.295L1070.3 376.613C1070.66 375.518 1070.98 374.399 1071.23 373.259L1070.26 373.04ZM1069.35 376.295L1068.73 377.085C1079.29 385.277 1085.74 396.884 1085.75 410.068L1086.75 410.068L1087.75 410.067C1087.74 396.182 1080.93 384.022 1069.96 375.505L1069.35 376.295ZM1086.75 410.068L1085.75 410.068C1085.76 436.945 1058.87 460.654 1025.28 462.648L1025.34 463.646L1025.4 464.644C1059.67 462.61 1087.76 438.343 1087.75 410.067L1086.75 410.068ZM1025.34 463.646L1025.28 462.648C1015.66 463.219 1006.57 461.935 998.502 459.177L998.178 460.123L997.855 461.07C1006.17 463.914 1015.52 465.23 1025.4 464.644L1025.34 463.646ZM998.178 460.123L997.822 459.189C984.494 464.283 967.278 467.908 948.46 469.026L948.519 470.024L948.578 471.022C967.565 469.895 984.987 466.235 998.535 461.057L998.178 460.123ZM948.519 470.024L948.46 469.026C931.978 470.004 916.725 468.914 904.239 466.27C891.718 463.619 882.109 459.432 876.781 454.318L876.089 455.039L875.396 455.76C881.125 461.26 891.173 465.548 903.825 468.227C916.511 470.914 931.946 472.01 948.578 471.022L948.519 470.024ZM876.089 455.039L875.652 454.139C870.982 456.404 865.709 457.84 860.125 458.171L860.184 459.17L860.243 460.168C866.094 459.821 871.623 458.316 876.525 455.939L876.089 455.039ZM860.184 459.17L860.125 458.171C840.87 459.314 825.59 446.997 825.583 431.021L824.583 431.021L823.583 431.022C823.591 448.471 840.189 461.358 860.243 460.168L860.184 459.17ZM824.583 431.021L825.583 431.021C825.578 419.23 833.847 408.456 845.933 403.097L845.528 402.183L845.122 401.269C832.498 406.866 823.577 418.256 823.583 431.022L824.583 431.021ZM845.528 402.183L846.459 401.818C843.607 394.54 843.126 386.731 845.548 379.19L844.596 378.884L843.644 378.578C841.068 386.596 841.592 394.88 844.597 402.548L845.528 402.183ZM844.596 378.884L845.548 379.19C851.612 360.32 873.991 349.272 897.96 352.716L898.102 351.726L898.245 350.736C873.652 347.203 850.101 358.485 843.644 378.578L844.596 378.884Z" fill="#66A0D2" mask="url(#path-3-inside-2_5_596)"/>
<path d="M114 62.4525C122.4 58.27 140.46 54.924 145.5 75C150.225 66.635 163.14 52.4145 177 62.4525" stroke="#C9E9FF" stroke-width="4" stroke-linecap="round"/>
<path d="M146.51 102.721C154.786 101.297 172.351 101.05 176.399 111.451C181.299 107.654 194.34 101.584 207.308 107.676" stroke="#C9E9FF" stroke-width="4" stroke-linecap="round"/>
<path d="M1366.5 52.4525C1376.77 48.27 1398.84 44.924 1405 65C1410.77 56.635 1426.56 42.4145 1443.5 52.4525" stroke="#C9E9FF" stroke-width="4" stroke-linecap="round"/>
<path d="M1320 114.5C1330.27 110.318 1338 121 1345 133C1348 125 1358.06 104.462 1375 114.5" stroke="#C9E9FF" stroke-width="4" stroke-linecap="round"/>
<mask id="path-9-inside-3_5_596" fill="white">
<path d="M-89.8301 218.227C-83.0321 164.892 -34.9775 127.078 17.5029 133.767C68.8423 140.31 105.397 187.019 100.599 238.978C110.883 235.426 122.013 235.247 132.684 239.204C160.894 249.666 175.219 285.08 164.678 318.303C164.496 318.876 164.306 319.445 164.111 320.01C173.75 320.573 183.173 326.879 188.576 337.611C191.781 343.977 193.099 350.962 192.721 357.643C193.454 357.739 194.189 357.851 194.925 357.977C226.158 363.33 247.449 393.748 242.48 425.916C242.437 426.195 242.392 426.473 242.346 426.75C254.247 427.426 266.581 431.093 278.426 438.023C294.669 447.526 307.474 461.693 315.834 477.838C325.573 469.732 337.625 465.579 350.059 467.163C369.346 469.622 384.276 485.214 389.555 505.687C402.872 491.888 422.479 484.327 443.173 486.965C466.645 489.957 485.472 505.3 493.754 525.494C504.738 516.325 520.818 511.554 537.948 513.737C554.721 515.875 568.848 524.214 577.252 535.48C588.879 524.672 604.575 518.928 620.974 521.018C646.099 524.22 665.012 544.814 668.499 570.109C678.854 562.775 693.583 559.136 709.295 561.138C737.208 564.696 757.654 584.715 754.96 605.851C754.078 612.774 750.821 618.958 745.86 624.02C762.305 632.766 772.475 650.183 770.113 668.716C767.391 690.072 748.933 705.82 726.905 707.169L718.194 775.508L-123 668.292L-111.115 575.046L-72.1973 580.007V580.006L-110.241 575.157L-73.4248 286.299C-86.5736 267.195 -93.0162 243.225 -89.8301 218.227Z"/>
</mask>
<path d="M-89.8301 218.227C-83.0321 164.892 -34.9775 127.078 17.5029 133.767C68.8423 140.31 105.397 187.019 100.599 238.978C110.883 235.426 122.013 235.247 132.684 239.204C160.894 249.666 175.219 285.08 164.678 318.303C164.496 318.876 164.306 319.445 164.111 320.01C173.75 320.573 183.173 326.879 188.576 337.611C191.781 343.977 193.099 350.962 192.721 357.643C193.454 357.739 194.189 357.851 194.925 357.977C226.158 363.33 247.449 393.748 242.48 425.916C242.437 426.195 242.392 426.473 242.346 426.75C254.247 427.426 266.581 431.093 278.426 438.023C294.669 447.526 307.474 461.693 315.834 477.838C325.573 469.732 337.625 465.579 350.059 467.163C369.346 469.622 384.276 485.214 389.555 505.687C402.872 491.888 422.479 484.327 443.173 486.965C466.645 489.957 485.472 505.3 493.754 525.494C504.738 516.325 520.818 511.554 537.948 513.737C554.721 515.875 568.848 524.214 577.252 535.48C588.879 524.672 604.575 518.928 620.974 521.018C646.099 524.22 665.012 544.814 668.499 570.109C678.854 562.775 693.583 559.136 709.295 561.138C737.208 564.696 757.654 584.715 754.96 605.851C754.078 612.774 750.821 618.958 745.86 624.02C762.305 632.766 772.475 650.183 770.113 668.716C767.391 690.072 748.933 705.82 726.905 707.169L718.194 775.508L-123 668.292L-111.115 575.046L-72.1973 580.007V580.006L-110.241 575.157L-73.4248 286.299C-86.5736 267.195 -93.0162 243.225 -89.8301 218.227Z" fill="#FFFEF8"/>
<path d="M-89.8301 218.227L-90.8221 218.1L-90.8221 218.1L-89.8301 218.227ZM17.5029 133.767L17.6294 132.775L17.6294 132.775L17.5029 133.767ZM100.599 238.978L99.6029 238.886L99.4604 240.429L100.925 239.923L100.599 238.978ZM132.684 239.204L133.031 238.267L133.031 238.267L132.684 239.204ZM164.678 318.303L165.631 318.605L165.631 318.605L164.678 318.303ZM164.111 320.01L163.166 319.685L162.737 320.931L164.053 321.008L164.111 320.01ZM188.576 337.611L189.469 337.161L189.469 337.161L188.576 337.611ZM192.721 357.643L191.722 357.586L191.67 358.513L192.591 358.634L192.721 357.643ZM194.925 357.977L195.094 356.991L195.094 356.991L194.925 357.977ZM242.48 425.916L243.469 426.069L243.469 426.069L242.48 425.916ZM242.346 426.75L241.36 426.584L241.174 427.685L242.289 427.749L242.346 426.75ZM278.426 438.023L278.931 437.16L278.931 437.159L278.426 438.023ZM315.834 477.838L314.946 478.298L315.518 479.402L316.474 478.607L315.834 477.838ZM350.059 467.163L350.185 466.171L350.185 466.171L350.059 467.163ZM389.555 505.687L388.586 505.936L389.033 507.668L390.274 506.381L389.555 505.687ZM443.173 486.965L443.299 485.973L443.299 485.973L443.173 486.965ZM493.754 525.494L492.829 525.874L493.347 527.137L494.395 526.262L493.754 525.494ZM537.948 513.737L538.075 512.746L538.075 512.746L537.948 513.737ZM577.252 535.48L576.45 536.078L577.117 536.971L577.933 536.212L577.252 535.48ZM620.974 521.018L621.1 520.026L621.1 520.026L620.974 521.018ZM668.499 570.109L667.508 570.245L667.733 571.876L669.077 570.925L668.499 570.109ZM709.295 561.138L709.421 560.146L709.421 560.146L709.295 561.138ZM754.96 605.851L755.952 605.977L755.952 605.977L754.96 605.851ZM745.86 624.02L745.146 623.32L744.21 624.275L745.391 624.903L745.86 624.02ZM770.113 668.716L771.105 668.842L771.105 668.842L770.113 668.716ZM726.905 707.169L726.844 706.171L726.018 706.222L725.913 707.043L726.905 707.169ZM718.194 775.508L718.068 776.5L719.06 776.626L719.186 775.634L718.194 775.508ZM-123 668.292L-123.992 668.166L-124.118 669.158L-123.126 669.284L-123 668.292ZM-111.115 575.046L-110.989 574.054L-111.981 573.928L-112.107 574.92L-111.115 575.046ZM-72.1973 580.007L-72.3237 580.999L-71.1973 581.143V580.007H-72.1973ZM-72.1973 580.006H-71.1973V579.125L-72.0708 579.014L-72.1973 580.006ZM-110.241 575.157L-111.233 575.031L-111.36 576.023L-110.368 576.149L-110.241 575.157ZM-73.4248 286.299L-72.4328 286.425L-72.3845 286.047L-72.6011 285.732L-73.4248 286.299ZM-89.8301 218.227L-88.8381 218.353C-82.108 165.551 -34.541 128.142 17.3765 134.759L17.5029 133.767L17.6294 132.775C-35.4139 126.014 -83.9562 164.233 -90.8221 218.1L-89.8301 218.227ZM17.5029 133.767L17.3765 134.759C68.1652 141.232 104.353 187.447 99.6029 238.886L100.599 238.978L101.594 239.07C106.441 186.591 69.5193 139.389 17.6294 132.775L17.5029 133.767ZM100.599 238.978L100.925 239.923C111.005 236.442 121.895 236.27 132.336 240.142L132.684 239.204L133.031 238.267C122.13 234.224 110.762 234.41 100.272 238.032L100.599 238.978ZM132.684 239.204L132.336 240.142C159.93 250.375 174.144 285.159 163.725 318L164.678 318.303L165.631 318.605C176.293 285.001 161.858 248.957 133.031 238.267L132.684 239.204ZM164.678 318.303L163.725 318C163.546 318.564 163.358 319.125 163.166 319.685L164.111 320.01L165.057 320.335C165.253 319.765 165.446 319.188 165.631 318.605L164.678 318.303ZM164.111 320.01L164.053 321.008C173.286 321.548 182.417 327.601 187.683 338.06L188.576 337.611L189.469 337.161C183.929 326.157 174.214 319.598 164.17 319.012L164.111 320.01ZM188.576 337.611L187.683 338.06C190.806 344.263 192.091 351.073 191.722 357.586L192.721 357.643L193.719 357.699C194.107 350.851 192.757 343.69 189.469 337.161L188.576 337.611ZM192.721 357.643L192.591 358.634C193.31 358.729 194.033 358.838 194.756 358.962L194.925 357.977L195.094 356.991C194.346 356.863 193.597 356.749 192.851 356.651L192.721 357.643ZM194.925 357.977L194.756 358.962C225.427 364.22 246.381 394.11 241.492 425.764L242.48 425.916L243.469 426.069C248.517 393.386 226.889 362.441 195.094 356.991L194.925 357.977ZM242.48 425.916L241.492 425.764C241.45 426.037 241.406 426.311 241.36 426.584L242.346 426.75L243.332 426.916C243.379 426.635 243.425 426.352 243.469 426.069L242.48 425.916ZM242.346 426.75L242.289 427.749C254.023 428.415 266.205 432.031 277.921 438.886L278.426 438.023L278.931 437.159C266.956 430.154 254.47 426.437 242.402 425.752L242.346 426.75ZM278.426 438.023L277.921 438.886C293.988 448.286 306.666 462.308 314.946 478.298L315.834 477.838L316.722 477.378C308.282 461.078 295.349 446.765 278.931 437.16L278.426 438.023ZM315.834 477.838L316.474 478.607C326.03 470.653 337.811 466.61 349.932 468.155L350.059 467.163L350.185 466.171C337.439 464.547 325.117 468.811 315.194 477.069L315.834 477.838ZM350.059 467.163L349.932 468.155C368.722 470.55 383.385 485.763 388.586 505.936L389.555 505.687L390.523 505.437C385.167 484.666 369.97 468.693 350.185 466.171L350.059 467.163ZM389.555 505.687L390.274 506.381C403.379 492.803 422.675 485.361 443.046 487.957L443.173 486.965L443.299 485.973C422.283 483.294 402.365 490.973 388.835 504.992L389.555 505.687ZM443.173 486.965L443.046 487.957C466.153 490.902 484.68 506.004 492.829 525.874L493.754 525.494L494.679 525.115C486.264 504.596 467.138 489.012 443.299 485.973L443.173 486.965ZM493.754 525.494L494.395 526.262C505.147 517.286 520.943 512.578 537.822 514.729L537.948 513.737L538.075 512.746C520.693 510.53 504.329 515.363 493.113 524.727L493.754 525.494ZM537.948 513.737L537.822 514.729C554.348 516.836 568.222 525.047 576.45 536.078L577.252 535.48L578.053 534.882C569.474 523.381 555.094 514.915 538.075 512.746L537.948 513.737ZM577.252 535.48L577.933 536.212C589.361 525.589 604.767 519.96 620.847 522.01L620.974 521.018L621.1 520.026C604.383 517.895 588.397 523.755 576.571 534.747L577.252 535.48ZM620.974 521.018L620.847 522.01C645.477 525.149 664.076 545.349 667.508 570.245L668.499 570.109L669.49 569.972C665.948 544.279 646.721 523.291 621.1 520.026L620.974 521.018ZM668.499 570.109L669.077 570.925C679.203 563.753 693.674 560.155 709.168 562.13L709.295 561.138L709.421 560.146C693.493 558.116 678.505 561.797 667.921 569.293L668.499 570.109ZM709.295 561.138L709.168 562.13C722.929 563.884 734.811 569.692 742.905 577.617C750.999 585.542 755.267 595.534 753.968 605.724L754.96 605.851L755.952 605.977C757.347 595.031 752.739 584.446 744.305 576.188C735.871 567.93 723.574 561.95 709.421 560.146L709.295 561.138ZM754.96 605.851L753.968 605.724C753.116 612.406 749.973 618.395 745.146 623.32L745.86 624.02L746.575 624.72C751.669 619.521 755.039 613.142 755.952 605.977L754.96 605.851ZM745.86 624.02L745.391 624.903C761.51 633.475 771.425 650.514 769.121 668.59L770.113 668.716L771.105 668.842C773.526 649.852 763.101 632.056 746.33 623.137L745.86 624.02ZM770.113 668.716L769.121 668.59C766.467 689.416 748.448 704.848 726.844 706.171L726.905 707.169L726.966 708.167C749.418 706.792 768.316 690.727 771.105 668.842L770.113 668.716ZM726.905 707.169L725.913 707.043L717.202 775.382L718.194 775.508L719.186 775.634L727.897 707.296L726.905 707.169ZM718.194 775.508L718.321 774.516L-122.874 667.3L-123 668.292L-123.126 669.284L718.068 776.5L718.194 775.508ZM-123 668.292L-122.008 668.419L-110.123 575.173L-111.115 575.046L-112.107 574.92L-123.992 668.166L-123 668.292ZM-111.115 575.046L-111.242 576.038L-72.3237 580.999L-72.1973 580.007L-72.0708 579.015L-110.989 574.054L-111.115 575.046ZM-72.1973 580.007H-71.1973V580.006H-72.1973H-73.1973V580.007H-72.1973ZM-72.1973 580.006L-72.0708 579.014L-110.115 574.165L-110.241 575.157L-110.368 576.149L-72.3237 580.998L-72.1973 580.006ZM-110.241 575.157L-109.249 575.284L-72.4328 286.425L-73.4248 286.299L-74.4168 286.173L-111.233 575.031L-110.241 575.157ZM-73.4248 286.299L-72.6011 285.732C-85.6147 266.825 -91.9922 243.1 -88.8381 218.353L-89.8301 218.227L-90.8221 218.1C-94.0402 243.35 -87.5324 267.566 -74.2485 286.866L-73.4248 286.299Z" fill="#66A0D2" mask="url(#path-9-inside-3_5_596)"/>
<path d="M86.5 510C93.6667 492.833 119.268 473.418 146.5 499" stroke="#78B8F1"/>
<path d="M131 488.351C138.167 471.184 163.768 451.769 191 477.351" stroke="#78B8F1"/>
<path d="M74 368C65.5194 351.091 35.2245 331.968 3 357.165" stroke="#78B8F1"/>
<path d="M21 347C12.5194 330.091 -17.7755 310.968 -50 336.165" stroke="#78B8F1"/>
<mask id="path-15-inside-4_5_596" fill="white">
<path d="M1438.5 139C1485.17 139 1523 185.339 1523 242.5C1523 244.51 1522.95 246.507 1522.86 248.488C1527.65 247.201 1532.77 246.502 1538.08 246.502C1565.16 246.502 1587.11 264.563 1587.11 286.842C1587.11 302.927 1575.67 316.811 1559.12 323.289L1618.61 326.611V552.945H1619V643.081H1552.82C1488.68 662.301 1332.17 689.504 1148.49 712.036C906.347 741.739 708.692 752.076 707.011 735.127C706.171 726.651 754.495 712.956 833.303 697.667C829.227 692.526 826.597 686.41 825.927 679.652C823.75 657.687 843.088 637.291 869.121 634.098C875.292 633.341 881.284 633.62 886.865 634.776L891.568 634.199C887.274 625.486 884.433 615.803 883.406 605.444C878.907 560.047 910.93 518.87 954.932 513.473C976.467 510.831 996.879 517.249 1012.64 529.813C1023.82 521.409 1037.46 515.52 1052.56 513.338C1072.81 510.411 1092.08 514.676 1107.34 524.046C1111.79 512.713 1119.05 503.704 1128.8 498.672C1140.9 492.428 1154.73 493.389 1167.74 500.026C1176.94 479.335 1193.43 465.419 1212.31 465.01C1210.18 460.232 1209 454.994 1209 449.5C1209 429.87 1224 413.503 1243.91 409.791C1233.53 399.018 1227.19 384.638 1227.19 368.846C1227.19 336.532 1253.73 310.136 1287.14 308.44L1287.12 308.104L1290.97 308.318C1290.94 307.446 1290.93 306.569 1290.93 305.688C1290.93 271 1312.25 242.878 1338.55 242.878C1343.98 242.878 1349.2 244.076 1354.06 246.28C1354.02 245.026 1354 243.766 1354 242.5C1354 185.339 1391.83 139 1438.5 139ZM1150.82 639.879C1147.95 644.199 1143.63 648.08 1138.3 651.161C1139.67 650.993 1141.03 650.823 1142.4 650.655C1164.29 647.97 1185.82 645.444 1206.88 643.081H1181.38C1171.56 645.957 1160.98 644.652 1150.82 639.879Z"/>
</mask>
<path d="M1438.5 139C1485.17 139 1523 185.339 1523 242.5C1523 244.51 1522.95 246.507 1522.86 248.488C1527.65 247.201 1532.77 246.502 1538.08 246.502C1565.16 246.502 1587.11 264.563 1587.11 286.842C1587.11 302.927 1575.67 316.811 1559.12 323.289L1618.61 326.611V552.945H1619V643.081H1552.82C1488.68 662.301 1332.17 689.504 1148.49 712.036C906.347 741.739 708.692 752.076 707.011 735.127C706.171 726.651 754.495 712.956 833.303 697.667C829.227 692.526 826.597 686.41 825.927 679.652C823.75 657.687 843.088 637.291 869.121 634.098C875.292 633.341 881.284 633.62 886.865 634.776L891.568 634.199C887.274 625.486 884.433 615.803 883.406 605.444C878.907 560.047 910.93 518.87 954.932 513.473C976.467 510.831 996.879 517.249 1012.64 529.813C1023.82 521.409 1037.46 515.52 1052.56 513.338C1072.81 510.411 1092.08 514.676 1107.34 524.046C1111.79 512.713 1119.05 503.704 1128.8 498.672C1140.9 492.428 1154.73 493.389 1167.74 500.026C1176.94 479.335 1193.43 465.419 1212.31 465.01C1210.18 460.232 1209 454.994 1209 449.5C1209 429.87 1224 413.503 1243.91 409.791C1233.53 399.018 1227.19 384.638 1227.19 368.846C1227.19 336.532 1253.73 310.136 1287.14 308.44L1287.12 308.104L1290.97 308.318C1290.94 307.446 1290.93 306.569 1290.93 305.688C1290.93 271 1312.25 242.878 1338.55 242.878C1343.98 242.878 1349.2 244.076 1354.06 246.28C1354.02 245.026 1354 243.766 1354 242.5C1354 185.339 1391.83 139 1438.5 139ZM1150.82 639.879C1147.95 644.199 1143.63 648.08 1138.3 651.161C1139.67 650.993 1141.03 650.823 1142.4 650.655C1164.29 647.97 1185.82 645.444 1206.88 643.081H1181.38C1171.56 645.957 1160.98 644.652 1150.82 639.879Z" fill="#FFFEF8"/>
<path d="M1438.5 139L1438.5 138L1438.5 138L1438.5 139ZM1522.86 248.488L1521.86 248.442L1521.8 249.809L1523.12 249.454L1522.86 248.488ZM1538.08 246.502L1538.09 245.502H1538.08V246.502ZM1587.11 286.842L1588.11 286.842L1588.11 286.842L1587.11 286.842ZM1559.12 323.289L1558.75 322.358L1559.06 324.288L1559.12 323.289ZM1618.61 326.611H1619.61V325.666L1618.67 325.613L1618.61 326.611ZM1618.61 552.945H1617.61V553.945H1618.61V552.945ZM1619 552.945H1620V551.945H1619V552.945ZM1619 643.081V644.081H1620V643.081H1619ZM1552.82 643.081V642.081H1552.67L1552.53 642.123L1552.82 643.081ZM1148.49 712.036L1148.61 713.029L1148.61 713.029L1148.49 712.036ZM707.011 735.127L706.016 735.226L706.016 735.226L707.011 735.127ZM833.303 697.667L833.493 698.649L835.109 698.335L834.086 697.046L833.303 697.667ZM825.927 679.652L824.932 679.751L824.932 679.751L825.927 679.652ZM869.121 634.098L868.999 633.105L868.999 633.105L869.121 634.098ZM886.865 634.776L886.662 635.756L886.824 635.789L886.987 635.769L886.865 634.776ZM891.568 634.199L891.69 635.192L893.088 635.02L892.465 633.757L891.568 634.199ZM883.406 605.444L882.411 605.543L882.411 605.543L883.406 605.444ZM954.932 513.473L954.81 512.48L954.81 512.48L954.932 513.473ZM1012.64 529.813L1012.01 530.595L1012.62 531.078L1013.24 530.613L1012.64 529.813ZM1052.56 513.338L1052.41 512.348L1052.41 512.348L1052.56 513.338ZM1107.34 524.046L1106.82 524.898L1107.83 525.523L1108.27 524.412L1107.34 524.046ZM1128.8 498.672L1128.34 497.783L1128.34 497.783L1128.8 498.672ZM1167.74 500.026L1167.29 500.917L1168.23 501.397L1168.66 500.432L1167.74 500.026ZM1212.31 465.01L1212.33 466.01L1213.83 465.977L1213.22 464.603L1212.31 465.01ZM1209 449.5L1208 449.5L1209 449.5ZM1243.91 409.791L1244.1 410.774L1245.92 410.434L1244.63 409.097L1243.91 409.791ZM1227.19 368.846L1226.19 368.846V368.846H1227.19ZM1287.14 308.44L1287.19 309.439L1288.19 309.388L1288.13 308.383L1287.14 308.44ZM1287.12 308.104L1287.17 307.105L1286.05 307.043L1286.12 308.161L1287.12 308.104ZM1290.97 308.318L1290.91 309.317L1292 309.378L1291.97 308.287L1290.97 308.318ZM1290.93 305.688L1289.93 305.688L1289.93 305.688L1290.93 305.688ZM1338.55 242.878L1338.55 241.878L1338.55 241.878L1338.55 242.878ZM1354.06 246.28L1353.64 247.191L1355.1 247.853L1355.06 246.251L1354.06 246.28ZM1150.82 639.879L1151.24 638.974L1150.46 638.607L1149.98 639.326L1150.82 639.879ZM1138.3 651.161L1137.8 650.295L1138.43 652.154L1138.3 651.161ZM1142.4 650.655L1142.28 649.663L1142.28 649.663L1142.4 650.655ZM1206.88 643.081L1206.99 644.075L1206.88 642.081V643.081ZM1181.38 643.081V642.081H1181.24L1181.1 642.121L1181.38 643.081ZM1438.5 139V140C1484.44 140 1522 185.692 1522 242.5H1523H1524C1524 184.985 1485.9 138 1438.5 138V139ZM1523 242.5H1522C1522 244.494 1521.95 246.475 1521.86 248.442L1522.86 248.488L1523.86 248.535C1523.95 246.538 1524 244.526 1524 242.5H1523ZM1522.86 248.488L1523.12 249.454C1527.83 248.189 1532.86 247.502 1538.08 247.502V246.502V245.502C1532.68 245.502 1527.48 246.212 1522.6 247.523L1522.86 248.488ZM1538.08 246.502L1538.08 247.502C1564.8 247.502 1586.11 265.288 1586.11 286.842L1587.11 286.842L1588.11 286.842C1588.11 263.837 1565.52 245.502 1538.09 245.502L1538.08 246.502ZM1587.11 286.842H1586.11C1586.11 302.415 1575.02 315.989 1558.75 322.358L1559.12 323.289L1559.48 324.22C1576.31 317.633 1588.11 303.44 1588.11 286.842H1587.11ZM1559.12 323.289L1559.06 324.288L1618.56 327.61L1618.61 326.611L1618.67 325.613L1559.17 322.291L1559.12 323.289ZM1618.61 326.611H1617.61V552.945H1618.61H1619.61V326.611H1618.61ZM1618.61 552.945V553.945H1619V552.945V551.945H1618.61V552.945ZM1619 552.945H1618V643.081H1619H1620V552.945H1619ZM1619 643.081V642.081H1552.82V643.081V644.081H1619V643.081ZM1552.82 643.081L1552.53 642.123C1488.49 661.316 1332.05 688.511 1148.36 711.044L1148.49 712.036L1148.61 713.029C1332.29 690.497 1488.88 663.286 1553.1 644.039L1552.82 643.081ZM1148.49 712.036L1148.36 711.044C1027.31 725.893 917.386 735.9 837.525 740.077C797.589 742.166 765.195 742.796 742.692 741.847C731.433 741.373 722.695 740.505 716.739 739.241C713.754 738.608 711.532 737.888 710.054 737.104C708.534 736.297 708.059 735.568 708.006 735.028L707.011 735.127L706.016 735.226C706.172 736.805 707.439 737.981 709.117 738.871C710.837 739.783 713.27 740.55 716.324 741.198C722.446 742.497 731.317 743.37 742.608 743.846C765.205 744.798 797.673 744.165 837.629 742.075C917.55 737.895 1027.52 727.882 1148.61 713.029L1148.49 712.036ZM707.011 735.127L708.006 735.028C707.951 734.475 708.286 733.628 709.621 732.465C710.916 731.336 712.95 730.092 715.741 728.749C721.31 726.07 729.672 723.104 740.57 719.911C762.352 713.53 794.1 706.291 833.493 698.649L833.303 697.667L833.112 696.685C793.698 704.332 761.88 711.585 740.008 717.992C729.079 721.194 720.592 724.196 714.874 726.947C712.021 728.319 709.801 729.655 708.307 730.957C706.852 732.225 705.86 733.66 706.016 735.226L707.011 735.127ZM833.303 697.667L834.086 697.046C830.122 692.046 827.572 686.108 826.922 679.554L825.927 679.652L824.932 679.751C825.622 686.711 828.332 693.007 832.519 698.288L833.303 697.667ZM825.927 679.652L826.922 679.554C824.813 658.277 843.588 638.237 869.243 635.09L869.121 634.098L868.999 633.105C842.589 636.345 822.686 657.096 824.932 679.751L825.927 679.652ZM869.121 634.098L869.243 635.09C875.306 634.346 881.189 634.621 886.662 635.756L886.865 634.776L887.068 633.797C881.379 632.618 875.277 632.335 868.999 633.105L869.121 634.098ZM886.865 634.776L886.987 635.769L891.69 635.192L891.568 634.199L891.447 633.207L886.743 633.784L886.865 634.776ZM891.568 634.199L892.465 633.757C888.224 625.151 885.416 615.585 884.401 605.346L883.406 605.444L882.411 605.543C883.45 616.022 886.324 625.821 890.671 634.641L891.568 634.199ZM883.406 605.444L884.401 605.346C879.953 560.463 911.616 519.794 955.053 514.465L954.932 513.473L954.81 512.48C910.243 517.947 877.861 559.631 882.411 605.543L883.406 605.444ZM954.932 513.473L955.053 514.465C976.31 511.858 996.456 518.192 1012.01 530.595L1012.64 529.813L1013.26 529.032C997.301 516.307 976.623 509.804 954.81 512.48L954.932 513.473ZM1012.64 529.813L1013.24 530.613C1024.28 522.308 1037.77 516.485 1052.7 514.328L1052.56 513.338L1052.41 512.348C1037.15 514.554 1023.35 520.51 1012.04 529.014L1012.64 529.813ZM1052.56 513.338L1052.7 514.328C1072.73 511.433 1091.76 515.653 1106.82 524.898L1107.34 524.046L1107.86 523.194C1092.4 513.698 1072.89 509.389 1052.41 512.348L1052.56 513.338ZM1107.34 524.046L1108.27 524.412C1112.66 513.251 1119.77 504.458 1129.26 499.56L1128.8 498.672L1128.34 497.783C1118.33 502.951 1110.93 512.175 1106.41 523.68L1107.34 524.046ZM1128.8 498.672L1129.26 499.56C1141.01 493.495 1154.5 494.393 1167.29 500.917L1167.74 500.026L1168.2 499.136C1154.96 492.385 1140.78 491.362 1128.34 497.783L1128.8 498.672ZM1167.74 500.026L1168.66 500.432C1177.75 479.958 1193.97 466.408 1212.33 466.01L1212.31 465.01L1212.29 464.01C1192.89 464.43 1176.12 478.711 1166.83 499.62L1167.74 500.026ZM1212.31 465.01L1213.22 464.603C1211.15 459.949 1210 454.85 1210 449.5L1209 449.5L1208 449.5C1208 455.139 1209.21 460.515 1211.39 465.417L1212.31 465.01ZM1209 449.5H1210C1210 430.409 1224.6 414.409 1244.1 410.774L1243.91 409.791L1243.73 408.808C1223.4 412.597 1208 429.33 1208 449.5H1209ZM1243.91 409.791L1244.63 409.097C1234.42 398.498 1228.19 384.363 1228.19 368.846H1227.19H1226.19C1226.19 384.914 1232.64 399.537 1243.19 410.485L1243.91 409.791ZM1227.19 368.846L1228.19 368.846C1228.19 337.107 1254.27 311.11 1287.19 309.439L1287.14 308.44L1287.09 307.442C1253.19 309.162 1226.19 335.956 1226.19 368.846L1227.19 368.846ZM1287.14 308.44L1288.13 308.383L1288.11 308.046L1287.12 308.104L1286.12 308.161L1286.14 308.498L1287.14 308.44ZM1287.12 308.104L1287.06 309.102L1290.91 309.317L1290.97 308.318L1291.02 307.32L1287.17 307.105L1287.12 308.104ZM1290.97 308.318L1291.97 308.287C1291.94 307.426 1291.93 306.56 1291.93 305.688L1290.93 305.688L1289.93 305.688C1289.93 306.579 1289.94 307.466 1289.97 308.35L1290.97 308.318ZM1290.93 305.688H1291.93C1291.93 288.542 1297.2 273.056 1305.67 261.879C1314.15 250.703 1325.78 243.878 1338.55 243.878L1338.55 242.878L1338.55 241.878C1325.02 241.878 1312.84 249.114 1304.08 260.671C1295.32 272.227 1289.93 288.146 1289.93 305.688H1290.93ZM1338.55 242.878V243.878C1343.83 243.878 1348.91 245.042 1353.64 247.191L1354.06 246.28L1354.47 245.37C1349.49 243.109 1344.13 241.878 1338.55 241.878V242.878ZM1354.06 246.28L1355.06 246.251C1355.02 245.005 1355 243.755 1355 242.5H1354H1353C1353 243.776 1353.02 245.046 1353.06 246.31L1354.06 246.28ZM1354 242.5H1355C1355 185.692 1392.56 140 1438.5 140L1438.5 139L1438.5 138C1391.1 138 1353 184.985 1353 242.5H1354ZM1150.82 639.879L1149.98 639.326C1147.21 643.495 1143.03 647.277 1137.8 650.295L1138.3 651.161L1138.8 652.027C1144.24 648.884 1148.68 644.903 1151.65 640.432L1150.82 639.879ZM1138.3 651.161L1138.43 652.154C1139.79 651.985 1141.16 651.816 1142.52 651.648L1142.4 650.655L1142.28 649.663C1140.91 649.831 1139.54 650.001 1138.18 650.169L1138.3 651.161ZM1142.4 650.655L1142.52 651.648C1164.41 648.963 1185.94 646.437 1206.99 644.075L1206.88 643.081L1206.76 642.087C1185.71 644.451 1164.18 646.977 1142.28 649.663L1142.4 650.655ZM1206.88 643.081V642.081H1181.38V643.081V644.081H1206.88V643.081ZM1181.38 643.081L1181.1 642.121C1171.56 644.917 1161.22 643.663 1151.24 638.974L1150.82 639.879L1150.39 640.784C1160.73 645.641 1171.57 646.998 1181.66 644.041L1181.38 643.081Z" fill="#66A0D2" mask="url(#path-15-inside-4_5_596)"/>
<path d="M1441.61 353.583C1427.13 339.64 1386.06 330.363 1354.14 365.208" stroke="#78B8F1"/>
<path d="M1369.96 351.352C1358.67 336.572 1328.97 324.306 1309.14 355.972" stroke="#78B8F1"/>
<path d="M1156 545.902C1167.61 529.495 1206.21 512.693 1244.1 540.944" stroke="#78B8F1"/>
<path d="M1225.96 530.296C1234.29 513.662 1261.16 496.052 1286.57 523.444" stroke="#78B8F1"/>
<path d="M1483.97 338.583C1472.67 323.803 1442.97 311.537 1423.14 343.203" stroke="#78B8F1"/>
<path d="M1432 492C1439.17 474.833 1464.77 455.418 1492 481" stroke="#78B8F1"/>
<path d="M1476.5 470.351C1483.67 453.184 1509.27 433.769 1536.5 459.351" stroke="#78B8F1"/>
</g>
<defs>
<clipPath id="clip0_5_596">
<rect width="1512" height="547" fill="white"/>
</clipPath>
</defs>
</svg>
