<svg width="1512" height="547" viewBox="0 0 1512 547" fill="none" xmlns="http://www.w3.org/2000/svg">
<rect width="1512" height="547" fill="#B1D2EF"/>
<mask id="path-1-inside-1_5_596" fill="white">
<path d="M521.539 75.6758C529.22 64.444 545.237 57.5306 562.42 59.2656C578.387 60.8781 591.018 69.519 595.838 80.6826C598.272 80.6116 600.753 80.7377 603.252 81.0771C615.818 82.7835 625.886 89.479 630.897 98.2656C638.792 94.9258 647.88 94.1361 656.503 96.6699C668.633 100.234 676.776 109.473 678.833 120.265C693.21 130.775 701.171 146.595 698.482 163.316C694.102 190.543 663.141 209.846 629.329 206.432C619.61 205.45 610.713 202.698 603.073 198.628C588.989 201.558 571.311 202.396 552.471 200.493C519.466 197.16 492.576 186.403 483.352 174.164C478.257 175.694 472.691 176.284 466.992 175.709C447.403 173.731 433.674 158.75 436.328 142.25C438.279 130.128 448.529 120.556 461.599 117.115C459.899 109.272 460.684 101.247 464.39 93.9658C473.673 75.7296 498.123 68.3645 521.539 75.6758Z"/>
</mask>
<path d="M521.539 75.6758C529.22 64.444 545.237 57.5306 562.42 59.2656C578.387 60.8781 591.018 69.519 595.838 80.6826C598.272 80.6116 600.753 80.7377 603.252 81.0771C615.818 82.7835 625.886 89.479 630.897 98.2656C638.792 94.9258 647.88 94.1361 656.503 96.6699C668.633 100.234 676.776 109.473 678.833 120.265C693.21 130.775 701.171 146.595 698.482 163.316C694.102 190.543 663.141 209.846 629.329 206.432C619.61 205.45 610.713 202.698 603.073 198.628C588.989 201.558 571.311 202.396 552.471 200.493C519.466 197.16 492.576 186.403 483.352 174.164C478.257 175.694 472.691 176.284 466.992 175.709C447.403 173.731 433.674 158.75 436.328 142.25C438.279 130.128 448.529 120.556 461.599 117.115C459.899 109.272 460.684 101.247 464.39 93.9658C473.673 75.7296 498.123 68.3645 521.539 75.6758Z" fill="#FFFEF8" fill-opacity="0.4"/>
<path d="M521.539 75.6758L521.241 76.6303L521.947 76.8507L522.365 76.2402L521.539 75.6758ZM562.42 59.2656L562.521 58.2707L562.521 58.2707L562.42 59.2656ZM595.838 80.6826L594.92 81.079L595.189 81.702L595.867 81.6822L595.838 80.6826ZM603.252 81.0771L603.387 80.0862H603.387L603.252 81.0771ZM630.897 98.2656L630.028 98.761L630.468 99.5327L631.286 99.1866L630.897 98.2656ZM656.503 96.6699L656.785 95.7105L656.785 95.7105L656.503 96.6699ZM678.833 120.265L677.851 120.452L677.925 120.839L678.243 121.072L678.833 120.265ZM698.482 163.316L699.469 163.475V163.475L698.482 163.316ZM629.329 206.432L629.229 207.427L629.329 206.432ZM603.073 198.628L603.544 197.745L603.224 197.575L602.87 197.649L603.073 198.628ZM552.471 200.493L552.37 201.488H552.37L552.471 200.493ZM483.352 174.164L484.15 173.562L483.731 173.006L483.064 173.206L483.352 174.164ZM466.992 175.709L466.892 176.704H466.892L466.992 175.709ZM436.328 142.25L435.341 142.091L435.341 142.091L436.328 142.25ZM461.599 117.115L461.853 118.082L462.779 117.839L462.576 116.903L461.599 117.115ZM464.39 93.9658L463.499 93.5122L463.499 93.5122L464.39 93.9658ZM521.539 75.6758L522.365 76.2402C529.8 65.3674 545.427 58.5548 562.32 60.2605L562.42 59.2656L562.521 58.2707C545.047 56.5063 528.64 63.5207 520.714 75.1113L521.539 75.6758ZM562.42 59.2656L562.32 60.2605C578.012 61.8453 590.275 70.3211 594.92 81.079L595.838 80.6826L596.756 80.2862C591.76 68.717 578.762 59.9109 562.521 58.2707L562.42 59.2656ZM595.838 80.6826L595.867 81.6822C598.247 81.6128 600.673 81.7361 603.118 82.068L603.252 81.0771L603.387 80.0862C600.833 79.7394 598.297 79.6104 595.809 79.683L595.838 80.6826ZM603.252 81.0771L603.118 82.068C615.419 83.7385 625.192 90.2815 630.028 98.761L630.897 98.2656L631.765 97.7702C626.58 88.6766 616.216 81.8285 603.387 80.0862L603.252 81.0771ZM630.897 98.2656L631.286 99.1866C638.984 95.9303 647.835 95.1651 656.221 97.6293L656.503 96.6699L656.785 95.7105C647.925 93.1071 638.6 93.9212 630.507 97.3446L630.897 98.2656ZM656.503 96.6699L656.221 97.6293C668.008 101.093 675.867 110.046 677.851 120.452L678.833 120.265L679.815 120.077C677.684 108.9 669.257 99.3755 656.785 95.7105L656.503 96.6699ZM678.833 120.265L678.243 121.072C692.38 131.407 700.113 146.88 697.494 163.158L698.482 163.316L699.469 163.475C702.23 146.311 694.04 130.143 679.423 119.457L678.833 120.265ZM698.482 163.316L697.494 163.158C693.226 189.694 662.902 208.817 629.43 205.437L629.329 206.432L629.229 207.427C663.38 210.875 694.978 191.392 699.469 163.475L698.482 163.316ZM629.329 206.432L629.43 205.437C619.836 204.468 611.065 201.752 603.544 197.745L603.073 198.628L602.603 199.51C610.362 203.644 619.385 206.432 629.229 207.427L629.329 206.432ZM603.073 198.628L602.87 197.649C588.901 200.555 571.328 201.392 552.571 199.498L552.471 200.493L552.37 201.488C571.295 203.399 589.076 202.561 603.277 199.607L603.073 198.628ZM552.471 200.493L552.571 199.498C536.144 197.839 521.259 194.334 509.354 189.735C497.415 185.124 488.595 179.459 484.15 173.562L483.352 174.164L482.553 174.766C487.333 181.107 496.57 186.941 508.633 191.601C520.73 196.274 535.793 199.814 552.37 201.488L552.471 200.493ZM483.352 174.164L483.064 173.206C478.093 174.699 472.659 175.276 467.093 174.714L466.992 175.709L466.892 176.704C472.723 177.293 478.421 176.688 483.639 175.122L483.352 174.164ZM466.992 175.709L467.093 174.714C447.902 172.776 434.779 158.182 437.316 142.409L436.328 142.25L435.341 142.091C432.57 159.319 446.904 174.685 466.892 176.704L466.992 175.709ZM436.328 142.25L437.316 142.409C439.188 130.768 449.069 121.448 461.853 118.082L461.599 117.115L461.344 116.148C447.989 119.664 437.369 129.488 435.341 142.091L436.328 142.25ZM461.599 117.115L462.576 116.903C460.92 109.265 461.688 101.478 465.281 94.4194L464.39 93.9658L463.499 93.5122C459.679 101.017 458.877 109.279 460.622 117.327L461.599 117.115ZM464.39 93.9658L465.281 94.4194C474.272 76.7558 498.126 69.4129 521.241 76.6303L521.539 75.6758L521.837 74.7212C498.121 67.3162 473.073 74.7035 463.499 93.5122L464.39 93.9658Z" fill="#66A0D2" mask="url(#path-1-inside-1_5_596)"/>
<mask id="path-3-inside-2_5_596" fill="white">
<path d="M898.102 351.726C903.896 339.414 918.609 330.038 935.849 329.014C951.869 328.063 965.714 334.582 972.251 344.836C974.643 344.378 977.112 344.108 979.633 344.045C990.57 343.771 1000.26 347.462 1006.79 353.538C1014.35 341.816 1028.82 334.606 1043.48 336.461C1062.27 338.839 1074.26 355.216 1070.26 373.04C1070.01 374.146 1069.7 375.232 1069.35 376.295C1080.11 384.65 1086.74 396.533 1086.75 410.068C1086.76 437.644 1059.27 461.632 1025.34 463.646C1015.59 464.225 1006.37 462.925 998.178 460.123C984.74 465.259 967.422 468.902 948.519 470.024C915.405 471.99 887.144 465.652 876.089 455.039C871.303 457.36 865.901 458.83 860.184 459.17C840.53 460.336 824.59 447.734 824.583 431.021C824.577 418.743 833.172 407.661 845.528 402.183C842.6 394.71 842.097 386.663 844.596 378.884C850.856 359.403 873.821 348.238 898.102 351.726Z"/>
</mask>
<path d="M898.102 351.726C903.896 339.414 918.609 330.038 935.849 329.014C951.869 328.063 965.714 334.582 972.251 344.836C974.643 344.378 977.112 344.108 979.633 344.045C990.57 343.771 1000.26 347.462 1006.79 353.538C1014.35 341.816 1028.82 334.606 1043.48 336.461C1062.27 338.839 1074.26 355.216 1070.26 373.04C1070.01 374.146 1069.7 375.232 1069.35 376.295C1080.11 384.65 1086.74 396.533 1086.75 410.068C1086.76 437.644 1059.27 461.632 1025.34 463.646C1015.59 464.225 1006.37 462.925 998.178 460.123C984.74 465.259 967.422 468.902 948.519 470.024C915.405 471.99 887.144 465.652 876.089 455.039C871.303 457.36 865.901 458.83 860.184 459.17C840.53 460.336 824.59 447.734 824.583 431.021C824.577 418.743 833.172 407.661 845.528 402.183C842.6 394.71 842.097 386.663 844.596 378.884C850.856 359.403 873.821 348.238 898.102 351.726Z" fill="#FFFEF8" fill-opacity="0.4"/>
<path d="M898.102 351.726L897.96 352.716L898.692 352.821L899.007 352.152L898.102 351.726ZM935.849 329.014L935.79 328.016L935.849 329.014ZM972.251 344.836L971.408 345.373L971.773 345.946L972.439 345.818L972.251 344.836ZM979.633 344.045L979.608 343.045L979.608 343.045L979.633 344.045ZM1006.79 353.538L1006.11 354.27L1006.99 355.083L1007.63 354.079L1006.79 353.538ZM1043.48 336.461L1043.6 335.468L1043.6 335.468L1043.48 336.461ZM1070.26 373.04L1071.23 373.259L1070.26 373.04ZM1069.35 376.295L1068.4 375.977L1068.17 376.65L1068.73 377.085L1069.35 376.295ZM1086.75 410.068L1087.75 410.067L1087.75 410.067L1086.75 410.068ZM1025.34 463.646L1025.4 464.644L1025.4 464.644L1025.34 463.646ZM998.178 460.123L998.502 459.177L998.16 459.06L997.822 459.189L998.178 460.123ZM948.519 470.024L948.578 471.022L948.519 470.024ZM876.089 455.039L876.781 454.318L876.279 453.835L875.652 454.139L876.089 455.039ZM860.184 459.17L860.243 460.168L860.243 460.168L860.184 459.17ZM824.583 431.021L823.583 431.022L823.583 431.022L824.583 431.021ZM845.528 402.183L845.933 403.097L846.808 402.709L846.459 401.818L845.528 402.183ZM844.596 378.884L843.644 378.578L843.644 378.578L844.596 378.884ZM898.102 351.726L899.007 352.152C904.616 340.233 918.959 331.019 935.908 330.013L935.849 329.014L935.79 328.016C918.258 329.057 903.176 338.595 897.198 351.3L898.102 351.726ZM935.849 329.014L935.908 330.013C951.653 329.078 965.109 335.492 971.408 345.373L972.251 344.836L973.094 344.298C966.32 333.672 952.085 327.049 935.79 328.016L935.849 329.014ZM972.251 344.836L972.439 345.818C974.778 345.37 977.192 345.106 979.658 345.044L979.633 344.045L979.608 343.045C977.032 343.109 974.508 343.386 972.063 343.854L972.251 344.836ZM979.633 344.045L979.658 345.044C990.361 344.777 999.791 348.39 1006.11 354.27L1006.79 353.538L1007.47 352.806C1000.73 346.534 990.779 342.766 979.608 343.045L979.633 344.045ZM1006.79 353.538L1007.63 354.079C1014.99 342.672 1029.08 335.648 1043.35 337.453L1043.48 336.461L1043.6 335.468C1028.55 333.564 1013.71 340.96 1005.95 352.996L1006.79 353.538ZM1043.48 336.461L1043.35 337.453C1061.6 339.762 1073.15 355.61 1069.28 372.821L1070.26 373.04L1071.23 373.259C1075.37 354.821 1062.94 337.915 1043.6 335.468L1043.48 336.461ZM1070.26 373.04L1069.28 372.821C1069.04 373.893 1068.75 374.946 1068.4 375.977L1069.35 376.295L1070.3 376.613C1070.66 375.518 1070.98 374.399 1071.23 373.259L1070.26 373.04ZM1069.35 376.295L1068.73 377.085C1079.29 385.277 1085.74 396.884 1085.75 410.068L1086.75 410.068L1087.75 410.067C1087.74 396.182 1080.93 384.022 1069.96 375.505L1069.35 376.295ZM1086.75 410.068L1085.75 410.068C1085.76 436.945 1058.87 460.654 1025.28 462.648L1025.34 463.646L1025.4 464.644C1059.67 462.61 1087.76 438.343 1087.75 410.067L1086.75 410.068ZM1025.34 463.646L1025.28 462.648C1015.66 463.219 1006.57 461.935 998.502 459.177L998.178 460.123L997.855 461.07C1006.17 463.914 1015.52 465.23 1025.4 464.644L1025.34 463.646ZM998.178 460.123L997.822 459.189C984.494 464.283 967.278 467.908 948.46 469.026L948.519 470.024L948.578 471.022C967.565 469.895 984.987 466.235 998.535 461.057L998.178 460.123ZM948.519 470.024L948.46 469.026C931.978 470.004 916.725 468.914 904.239 466.27C891.718 463.619 882.109 459.432 876.781 454.318L876.089 455.039L875.396 455.76C881.125 461.26 891.173 465.548 903.825 468.227C916.511 470.914 931.946 472.01 948.578 471.022L948.519 470.024ZM876.089 455.039L875.652 454.139C870.982 456.404 865.709 457.84 860.125 458.171L860.184 459.17L860.243 460.168C866.094 459.821 871.623 458.316 876.525 455.939L876.089 455.039ZM860.184 459.17L860.125 458.171C840.87 459.314 825.59 446.997 825.583 431.021L824.583 431.021L823.583 431.022C823.591 448.471 840.189 461.358 860.243 460.168L860.184 459.17ZM824.583 431.021L825.583 431.021C825.578 419.23 833.847 408.456 845.933 403.097L845.528 402.183L845.122 401.269C832.498 406.866 823.577 418.256 823.583 431.022L824.583 431.021ZM845.528 402.183L846.459 401.818C843.607 394.54 843.126 386.731 845.548 379.19L844.596 378.884L843.644 378.578C841.068 386.596 841.592 394.88 844.597 402.548L845.528 402.183ZM844.596 378.884L845.548 379.19C851.612 360.32 873.991 349.272 897.96 352.716L898.102 351.726L898.245 350.736C873.652 347.203 850.101 358.485 843.644 378.578L844.596 378.884Z" fill="#66A0D2" mask="url(#path-3-inside-2_5_596)"/>
<path d="M114 62.4525C122.4 58.27 140.46 54.924 145.5 75C150.225 66.635 163.14 52.4145 177 62.4525" stroke="#C9E9FF" stroke-width="4" stroke-linecap="round"/>
<path d="M146.51 102.721C154.786 101.297 172.351 101.05 176.399 111.451C181.299 107.654 194.34 101.584 207.308 107.676" stroke="#C9E9FF" stroke-width="4" stroke-linecap="round"/>
<path d="M1366.5 52.4525C1376.77 48.27 1398.84 44.924 1405 65C1410.77 56.635 1426.56 42.4145 1443.5 52.4525" stroke="#C9E9FF" stroke-width="4" stroke-linecap="round"/>
<path d="M1320 114.5C1330.27 110.318 1338 121 1345 133C1348 125 1358.06 104.462 1375 114.5" stroke="#C9E9FF" stroke-width="4" stroke-linecap="round"/>
</svg>
