<svg width="390" height="706" viewBox="0 0 390 706" fill="none" xmlns="http://www.w3.org/2000/svg">
<g clip-path="url(#clip0_466_520)">
<rect width="390" height="706" fill="#B1D2EF"/>
<mask id="path-1-inside-1_466_520" fill="white">
<path d="M-3.52038 12.3787C3.16734 5.38817 17.1153 1.08483 32.0773 2.16485C45.9807 3.16853 56.9782 8.54755 61.1749 15.4959C63.2941 15.4518 65.4541 15.5298 67.63 15.741C78.5709 16.803 87.3365 20.9709 91.6993 26.4393C98.5744 24.3606 106.488 23.8691 113.996 25.4461C124.558 27.6645 131.648 33.4147 133.44 40.1316C145.957 46.673 152.891 56.5181 150.549 66.9246C146.735 83.8691 119.776 95.8827 90.3361 93.7576C81.8752 93.1469 74.1311 91.4323 67.4796 88.9002C55.2148 90.7243 39.8196 91.2457 23.4122 90.0613C-5.32435 87.9869 -28.7349 81.2902 -36.7675 73.6736C-41.2041 74.626 -46.0519 74.9957 -51.0145 74.6375C-68.0715 73.4062 -80.0257 64.0825 -77.7147 53.8133C-76.0168 46.2686 -67.0913 40.3111 -55.7108 38.1697C-57.1913 33.2881 -56.5084 28.2933 -53.2811 23.7615C-45.1985 12.4123 -23.9085 7.82893 -3.52038 12.3787Z"/>
</mask>
<path d="M-3.52038 12.3787C3.16734 5.38817 17.1153 1.08483 32.0773 2.16485C45.9807 3.16853 56.9782 8.54755 61.1749 15.4959C63.2941 15.4518 65.4541 15.5298 67.63 15.741C78.5709 16.803 87.3365 20.9709 91.6993 26.4393C98.5744 24.3606 106.488 23.8691 113.996 25.4461C124.558 27.6645 131.648 33.4147 133.44 40.1316C145.957 46.673 152.891 56.5181 150.549 66.9246C146.735 83.8691 119.776 95.8827 90.3361 93.7576C81.8752 93.1469 74.1311 91.4323 67.4796 88.9002C55.2148 90.7243 39.8196 91.2457 23.4122 90.0613C-5.32435 87.9869 -28.7349 81.2902 -36.7675 73.6736C-41.2041 74.626 -46.0519 74.9957 -51.0145 74.6375C-68.0715 73.4062 -80.0257 64.0825 -77.7147 53.8133C-76.0168 46.2686 -67.0913 40.3111 -55.7108 38.1697C-57.1913 33.2881 -56.5084 28.2933 -53.2811 23.7615C-45.1985 12.4123 -23.9085 7.82893 -3.52038 12.3787Z" fill="#FFFEF8" fill-opacity="0.4"/>
<path d="M-3.52038 12.3787L-3.73818 13.3547L-3.1877 13.4776L-2.7978 13.07L-3.52038 12.3787ZM32.0773 2.16485L32.1493 1.16744L32.1493 1.16744L32.0773 2.16485ZM61.1749 15.4959L60.3189 16.0129L60.6178 16.5077L61.1957 16.4957L61.1749 15.4959ZM67.63 15.741L67.7266 14.7457H67.7266L67.63 15.741ZM91.6993 26.4393L90.9177 27.0629L91.3402 27.5926L91.9888 27.3965L91.6993 26.4393ZM113.996 25.4461L114.202 24.4674V24.4674L113.996 25.4461ZM133.44 40.1316L132.473 40.3893L132.587 40.8142L132.976 41.0179L133.44 40.1316ZM150.549 66.9246L151.525 67.1442L151.525 67.1442L150.549 66.9246ZM90.3361 93.7576L90.2641 94.755H90.2641L90.3361 93.7576ZM67.4796 88.9002L67.8354 87.9656L67.5911 87.8726L67.3325 87.9111L67.4796 88.9002ZM23.4122 90.0613L23.3402 91.0587L23.4122 90.0613ZM-36.7675 73.6736L-36.0794 72.948L-36.4619 72.5853L-36.9773 72.6959L-36.7675 73.6736ZM-51.0145 74.6375L-51.0865 75.6349L-51.0865 75.6349L-51.0145 74.6375ZM-77.7147 53.8133L-78.6903 53.5937L-78.6903 53.5937L-77.7147 53.8133ZM-55.7108 38.1697L-55.5259 39.1525L-54.4303 38.9463L-54.7539 37.8795L-55.7108 38.1697ZM-53.2811 23.7615L-54.0957 23.1814L-54.0957 23.1814L-53.2811 23.7615ZM-3.52038 12.3787L-2.7978 13.07C3.60716 6.37503 17.2084 2.09416 32.0053 3.16225L32.0773 2.16485L32.1493 1.16744C17.0221 0.0755092 2.72752 4.40132 -4.24297 11.6874L-3.52038 12.3787ZM32.0773 2.16485L32.0053 3.16225C38.8524 3.65654 44.9562 5.2268 49.8433 7.50731C54.7416 9.79311 58.3554 12.7619 60.3189 16.0129L61.1749 15.4959L62.0309 14.9789C59.7978 11.2816 55.8144 8.08666 50.689 5.69493C45.5523 3.29793 39.2056 1.67683 32.1493 1.16744L32.0773 2.16485ZM61.1749 15.4959L61.1957 16.4957C63.2763 16.4524 65.3971 16.529 67.5334 16.7363L67.63 15.741L67.7266 14.7457C65.511 14.5306 63.3118 14.4512 61.1541 14.4961L61.1749 15.4959ZM67.63 15.741L67.5334 16.7363C78.3174 17.7831 86.7829 21.8804 90.9177 27.0629L91.6993 26.4393L92.481 25.8156C87.8901 20.0614 78.8244 15.8229 67.7266 14.7457L67.63 15.741ZM91.6993 26.4393L91.9888 27.3965C98.7109 25.364 106.454 24.8839 113.791 26.4247L113.996 25.4461L114.202 24.4674C106.521 22.8544 98.4378 23.3572 91.4099 25.4821L91.6993 26.4393ZM113.996 25.4461L113.791 26.4247C124.153 28.6012 130.817 34.1786 132.473 40.3893L133.44 40.1316L134.406 39.874C132.48 32.6508 124.964 26.7278 114.202 24.4674L113.996 25.4461ZM133.44 40.1316L132.976 41.0179C145.331 47.4742 151.767 56.9578 149.573 66.705L150.549 66.9246L151.525 67.1442C154.015 56.0785 146.583 45.8718 133.903 39.2454L133.44 40.1316ZM150.549 66.9246L149.573 66.705C147.767 74.7318 140.412 81.7807 129.645 86.5788C118.915 91.3608 104.982 93.8122 90.4081 92.7602L90.3361 93.7576L90.2641 94.755C105.131 95.8281 119.397 93.3354 130.459 88.4056C141.485 83.4921 149.517 76.0619 151.525 67.1442L150.549 66.9246ZM90.3361 93.7576L90.4081 92.7602C82.0356 92.1558 74.3881 90.4601 67.8354 87.9656L67.4796 88.9002L67.1238 89.8348C73.8742 92.4045 81.7147 94.1379 90.2641 94.755L90.3361 93.7576ZM67.4796 88.9002L67.3325 87.9111C55.1523 89.7226 39.8318 90.2439 23.4842 89.0639L23.4122 90.0613L23.3402 91.0587C39.8075 92.2474 55.2773 91.726 67.6267 89.8893L67.4796 88.9002ZM23.4122 90.0613L23.4842 89.0639C9.16916 88.0306 -3.80112 85.8469 -14.1754 82.9819C-24.5959 80.1041 -32.2516 76.5775 -36.0794 72.948L-36.7675 73.6736L-37.4555 74.3993C-33.2507 78.3863 -25.1848 82.0164 -14.7078 84.9097C-4.18456 87.8158 8.91873 90.0177 23.3402 91.0587L23.4122 90.0613ZM-36.7675 73.6736L-36.9773 72.6959C-41.3215 73.6284 -46.0744 73.9915 -50.9425 73.6401L-51.0145 74.6375L-51.0865 75.6349C-46.0295 75.9999 -41.0867 75.6236 -36.5576 74.6514L-36.7675 73.6736ZM-51.0145 74.6375L-50.9425 73.6401C-59.3224 73.0352 -66.3719 70.4456 -71.0126 66.8261C-75.6493 63.2098 -77.7828 58.6706 -76.7391 54.0328L-77.7147 53.8133L-78.6903 53.5937C-79.9576 59.2252 -77.2695 64.4825 -72.2426 68.4032C-67.2198 72.3207 -59.7636 75.0085 -51.0865 75.6349L-51.0145 74.6375ZM-77.7147 53.8133L-76.7391 54.0328C-75.9616 50.5781 -73.5052 47.393 -69.7711 44.7851C-66.0426 42.1811 -61.105 40.2023 -55.5259 39.1525L-55.7108 38.1697L-55.8957 37.187C-61.6971 38.2786 -66.9125 40.3492 -70.9163 43.1454C-74.9146 45.9378 -77.7699 49.5038 -78.6903 53.5937L-77.7147 53.8133ZM-55.7108 38.1697L-54.7539 37.8795C-56.1457 33.2899 -55.5114 28.6172 -52.4666 24.3416L-53.2811 23.7615L-54.0957 23.1814C-57.5054 27.9694 -58.2368 33.2863 -56.6678 38.4599L-55.7108 38.1697ZM-53.2811 23.7615L-52.4666 24.3416C-48.6216 18.9427 -41.5453 15.0497 -32.7961 13.0837C-24.0682 11.1224 -13.7982 11.1097 -3.73818 13.3547L-3.52038 12.3787L-3.30258 11.4027C-13.6307 9.09792 -24.1998 9.10206 -33.2346 11.1323C-42.248 13.1578 -49.858 17.2311 -54.0957 23.1814L-53.2811 23.7615Z" fill="#66A0D2" mask="url(#path-1-inside-1_466_520)"/>
<mask id="path-3-inside-2_466_520" fill="white">
<path d="M312.48 184.381C319.168 177.39 333.115 173.087 348.077 174.167C361.98 175.17 372.978 180.55 377.174 187.498C379.294 187.454 381.454 187.532 383.63 187.743C394.571 188.805 403.337 192.973 407.7 198.441C414.575 196.363 422.488 195.871 429.996 197.448C440.558 199.666 447.649 205.417 449.44 212.134C461.958 218.675 468.891 228.52 466.548 238.927C462.735 255.871 435.777 267.885 406.337 265.76C397.876 265.149 390.132 263.434 383.48 260.902C371.215 262.726 355.82 263.248 339.413 262.063C310.676 259.989 287.265 253.292 279.232 245.676C274.796 246.628 269.948 246.998 264.986 246.639C247.929 245.408 235.974 236.084 238.285 225.815C239.983 218.271 248.908 212.314 260.289 210.173C258.808 205.291 259.492 200.295 262.719 195.763C270.802 184.414 292.092 179.831 312.48 184.381Z"/>
</mask>
<path d="M312.48 184.381C319.168 177.39 333.115 173.087 348.077 174.167C361.98 175.17 372.978 180.55 377.174 187.498C379.294 187.454 381.454 187.532 383.63 187.743C394.571 188.805 403.337 192.973 407.7 198.441C414.575 196.363 422.488 195.871 429.996 197.448C440.558 199.666 447.649 205.417 449.44 212.134C461.958 218.675 468.891 228.52 466.548 238.927C462.735 255.871 435.777 267.885 406.337 265.76C397.876 265.149 390.132 263.434 383.48 260.902C371.215 262.726 355.82 263.248 339.413 262.063C310.676 259.989 287.265 253.292 279.232 245.676C274.796 246.628 269.948 246.998 264.986 246.639C247.929 245.408 235.974 236.084 238.285 225.815C239.983 218.271 248.908 212.314 260.289 210.173C258.808 205.291 259.492 200.295 262.719 195.763C270.802 184.414 292.092 179.831 312.48 184.381Z" fill="#FFFEF8" fill-opacity="0.4"/>
<path d="M312.48 184.381L312.262 185.357L312.813 185.479L313.203 185.072L312.48 184.381ZM348.077 174.167L348.149 173.169L348.149 173.169L348.077 174.167ZM377.174 187.498L376.318 188.015L376.617 188.51L377.195 188.498L377.174 187.498ZM383.63 187.743L383.726 186.748L383.726 186.748L383.63 187.743ZM407.7 198.441L406.918 199.065L407.341 199.594L407.989 199.398L407.7 198.441ZM429.996 197.448L430.201 196.469V196.469L429.996 197.448ZM449.44 212.134L448.474 212.391L448.587 212.816L448.977 213.02L449.44 212.134ZM466.548 238.927L467.524 239.146V239.146L466.548 238.927ZM406.337 265.76L406.265 266.757L406.337 265.76ZM383.48 260.902L383.836 259.968L383.592 259.875L383.333 259.913L383.48 260.902ZM339.413 262.063L339.341 263.061L339.413 262.063ZM279.232 245.676L279.92 244.95L279.538 244.587L279.022 244.698L279.232 245.676ZM264.986 246.639L264.914 247.637H264.914L264.986 246.639ZM238.285 225.815L237.309 225.596L237.309 225.596L238.285 225.815ZM260.289 210.173L260.474 211.155L261.569 210.949L261.246 209.882L260.289 210.173ZM262.719 195.763L261.905 195.183L261.905 195.183L262.719 195.763ZM312.48 184.381L313.203 185.072C319.608 178.377 333.208 174.096 348.005 175.164L348.077 174.167L348.149 173.169C333.022 172.078 318.728 176.403 311.758 183.689L312.48 184.381ZM348.077 174.167L348.005 175.164C354.852 175.658 360.956 177.229 365.843 179.509C370.741 181.795 374.355 184.764 376.318 188.015L377.174 187.498L378.03 186.981C375.797 183.284 371.814 180.089 366.688 177.697C361.552 175.3 355.205 173.679 348.149 173.169L348.077 174.167ZM377.174 187.498L377.195 188.498C379.276 188.454 381.397 188.531 383.533 188.738L383.63 187.743L383.726 186.748C381.511 186.533 379.311 186.453 377.154 186.498L377.174 187.498ZM383.63 187.743L383.533 188.738C394.317 189.785 402.783 193.882 406.918 199.065L407.7 198.441L408.482 197.818C403.891 192.063 394.824 187.825 383.726 186.748L383.63 187.743ZM407.7 198.441L407.989 199.398C414.711 197.366 422.454 196.886 429.79 198.427L429.996 197.448L430.201 196.469C422.521 194.856 414.438 195.359 407.41 197.484L407.7 198.441ZM429.996 197.448L429.79 198.427C440.153 200.603 446.818 206.181 448.474 212.391L449.44 212.134L450.406 211.876C448.48 204.653 440.963 198.73 430.201 196.469L429.996 197.448ZM449.44 212.134L448.977 213.02C461.332 219.476 467.767 228.96 465.573 238.707L466.548 238.927L467.524 239.146C470.014 228.081 462.584 217.874 449.903 211.247L449.44 212.134ZM466.548 238.927L465.573 238.707C463.766 246.734 456.412 253.783 445.645 258.581C434.915 263.363 420.982 265.814 406.409 264.762L406.337 265.76L406.265 266.757C421.131 267.83 435.397 265.337 446.459 260.407C457.485 255.494 465.517 248.064 467.524 239.146L466.548 238.927ZM406.337 265.76L406.409 264.762C398.036 264.158 390.389 262.462 383.836 259.968L383.48 260.902L383.124 261.837C389.875 264.406 397.715 266.14 406.265 266.757L406.337 265.76ZM383.48 260.902L383.333 259.913C371.153 261.725 355.832 262.246 339.485 261.066L339.413 262.063L339.341 263.061C355.808 264.249 371.278 263.728 383.627 261.891L383.48 260.902ZM339.413 262.063L339.485 261.066C325.17 260.033 312.199 257.849 301.825 254.984C291.404 252.106 283.748 248.579 279.92 244.95L279.232 245.676L278.544 246.401C282.749 250.388 290.815 254.018 301.292 256.912C311.816 259.818 324.919 262.02 339.341 263.061L339.413 262.063ZM279.232 245.676L279.022 244.698C274.678 245.63 269.926 245.993 265.058 245.642L264.986 246.639L264.914 247.637C269.971 248.002 274.913 247.625 279.442 246.653L279.232 245.676ZM264.986 246.639L265.058 245.642C256.678 245.037 249.628 242.448 244.987 238.828C240.351 235.212 238.217 230.673 239.26 226.035L238.285 225.815L237.309 225.596C236.042 231.227 238.73 236.484 243.757 240.405C248.781 244.323 256.237 247.01 264.914 247.637L264.986 246.639ZM238.285 225.815L239.26 226.035C240.038 222.58 242.494 219.395 246.228 216.788C249.957 214.184 254.895 212.205 260.474 211.155L260.289 210.173L260.104 209.19C254.303 210.281 249.087 212.352 245.083 215.148C241.085 217.94 238.23 221.506 237.309 225.596L238.285 225.815ZM260.289 210.173L261.246 209.882C259.854 205.293 260.489 200.619 263.534 196.344L262.719 195.763L261.905 195.183C258.495 199.971 257.763 205.289 259.332 210.463L260.289 210.173ZM262.719 195.763L263.534 196.344C267.379 190.945 274.455 187.052 283.204 185.086C291.932 183.124 302.202 183.112 312.262 185.357L312.48 184.381L312.698 183.405C302.37 181.1 291.801 181.104 282.766 183.134C273.753 185.16 266.143 189.233 261.905 195.183L262.719 195.763Z" fill="#66A0D2" mask="url(#path-3-inside-2_466_520)"/>
<mask id="path-5-inside-3_466_520" fill="white">
<path d="M6.47987 412.381C13.1676 405.39 27.1155 401.087 42.0775 402.167C55.981 403.17 66.9784 408.55 71.1752 415.498C73.2943 415.454 75.4543 415.532 77.6303 415.743C88.5714 416.805 97.3378 420.973 101.701 426.441C108.576 424.363 116.488 423.871 123.996 425.448C134.559 427.666 141.649 433.417 143.44 440.134C155.957 446.675 162.891 456.52 160.549 466.927C156.735 483.871 129.777 495.885 100.336 493.76C91.8757 493.149 84.1322 491.434 77.4809 488.902C65.2161 490.726 49.8209 491.248 33.4135 490.063C4.6767 487.989 -18.7346 481.292 -26.7672 473.676C-31.2038 474.628 -36.0517 474.998 -41.0143 474.639C-58.0711 473.408 -70.0254 464.084 -67.7145 453.815C-66.0165 446.271 -57.0911 440.313 -45.7106 438.172C-47.191 433.29 -46.5081 428.295 -43.2809 423.763C-35.1983 412.414 -13.9082 407.831 6.47987 412.381Z"/>
</mask>
<path d="M6.47987 412.381C13.1676 405.39 27.1155 401.087 42.0775 402.167C55.981 403.17 66.9784 408.55 71.1752 415.498C73.2943 415.454 75.4543 415.532 77.6303 415.743C88.5714 416.805 97.3378 420.973 101.701 426.441C108.576 424.363 116.488 423.871 123.996 425.448C134.559 427.666 141.649 433.417 143.44 440.134C155.957 446.675 162.891 456.52 160.549 466.927C156.735 483.871 129.777 495.885 100.336 493.76C91.8757 493.149 84.1322 491.434 77.4809 488.902C65.2161 490.726 49.8209 491.248 33.4135 490.063C4.6767 487.989 -18.7346 481.292 -26.7672 473.676C-31.2038 474.628 -36.0517 474.998 -41.0143 474.639C-58.0711 473.408 -70.0254 464.084 -67.7145 453.815C-66.0165 446.271 -57.0911 440.313 -45.7106 438.172C-47.191 433.29 -46.5081 428.295 -43.2809 423.763C-35.1983 412.414 -13.9082 407.831 6.47987 412.381Z" fill="#FFFEF8" fill-opacity="0.4"/>
<path d="M6.47987 412.381L6.26208 413.357L6.81257 413.48L7.20247 413.072L6.47987 412.381ZM42.0775 402.167L42.1495 401.169V401.169L42.0775 402.167ZM71.1752 415.498L70.3192 416.015L70.6181 416.51L71.196 416.498L71.1752 415.498ZM77.6303 415.743L77.7269 414.748L77.6303 415.743ZM101.701 426.441L100.919 427.065L101.341 427.595L101.99 427.398L101.701 426.441ZM123.996 425.448L124.202 424.469L123.996 425.448ZM143.44 440.134L142.474 440.391L142.587 440.816L142.977 441.02L143.44 440.134ZM160.549 466.927L161.525 467.146V467.146L160.549 466.927ZM100.336 493.76L100.264 494.757L100.336 493.76ZM77.4809 488.902L77.8366 487.968L77.5923 487.875L77.3337 487.913L77.4809 488.902ZM33.4135 490.063L33.3415 491.061H33.3415L33.4135 490.063ZM-26.7672 473.676L-26.0791 472.95L-26.4617 472.587L-26.9771 472.698L-26.7672 473.676ZM-41.0143 474.639L-41.0863 475.637H-41.0863L-41.0143 474.639ZM-67.7145 453.815L-68.6901 453.596L-68.6901 453.596L-67.7145 453.815ZM-45.7106 438.172L-45.5256 439.154L-44.4301 438.948L-44.7536 437.881L-45.7106 438.172ZM-43.2809 423.763L-44.0954 423.183L-44.0954 423.183L-43.2809 423.763ZM6.47987 412.381L7.20247 413.072C13.6074 406.377 27.2086 402.096 42.0055 403.164L42.0775 402.167L42.1495 401.169C27.0223 400.077 12.7277 404.403 5.75729 411.689L6.47987 412.381ZM42.0775 402.167L42.0055 403.164C48.8527 403.658 54.9565 405.229 59.8435 407.509C64.7419 409.795 68.3556 412.764 70.3192 416.015L71.1752 415.498L72.0312 414.981C69.798 411.284 65.8146 408.089 60.6892 405.697C55.5526 403.3 49.2059 401.679 42.1495 401.169L42.0775 402.167ZM71.1752 415.498L71.196 416.498C73.2766 416.454 75.3973 416.531 77.5337 416.738L77.6303 415.743L77.7269 414.748C75.5113 414.533 73.3121 414.453 71.1544 414.498L71.1752 415.498ZM77.6303 415.743L77.5337 416.738C88.318 417.785 96.7842 421.882 100.919 427.065L101.701 426.441L102.482 425.818C97.8914 420.063 88.8248 415.825 77.7269 414.748L77.6303 415.743ZM101.701 426.441L101.99 427.398C108.712 425.366 116.455 424.886 123.791 426.427L123.996 425.448L124.202 424.469C116.522 422.856 108.439 423.359 101.411 425.484L101.701 426.441ZM123.996 425.448L123.791 426.427C134.153 428.603 140.817 434.181 142.474 440.391L143.44 440.134L144.406 439.876C142.48 432.653 134.964 426.73 124.202 424.469L123.996 425.448ZM143.44 440.134L142.977 441.02C155.332 447.476 161.767 456.96 159.574 466.707L160.549 466.927L161.525 467.146C164.015 456.08 156.583 445.874 143.903 439.247L143.44 440.134ZM160.549 466.927L159.574 466.707C157.767 474.734 150.413 481.783 139.646 486.581C128.915 491.363 114.982 493.814 100.408 492.762L100.336 493.76L100.264 494.757C115.131 495.83 129.397 493.337 140.46 488.408C151.486 483.494 159.518 476.064 161.525 467.146L160.549 466.927ZM100.336 493.76L100.408 492.762C92.0362 492.158 84.3891 490.462 77.8366 487.968L77.4809 488.902L77.1251 489.837C83.8752 492.406 91.7153 494.14 100.264 494.757L100.336 493.76ZM77.4809 488.902L77.3337 487.913C65.1535 489.725 49.833 490.246 33.4855 489.066L33.4135 490.063L33.3415 491.061C49.8087 492.249 65.2786 491.728 77.628 489.891L77.4809 488.902ZM33.4135 490.063L33.4855 489.066C19.1703 488.033 6.19979 485.849 -4.17473 482.984C-14.5955 480.106 -22.2514 476.579 -26.0791 472.95L-26.7672 473.676L-27.4553 474.401C-23.2504 478.388 -15.1843 482.018 -4.70712 484.912C5.81635 487.818 18.9199 490.02 33.3415 491.061L33.4135 490.063ZM-26.7672 473.676L-26.9771 472.698C-31.3212 473.63 -36.0742 473.993 -40.9423 473.642L-41.0143 474.639L-41.0863 475.637C-36.0293 476.002 -31.0864 475.625 -26.5573 474.653L-26.7672 473.676ZM-41.0143 474.639L-40.9423 473.642C-49.3221 473.037 -56.3715 470.447 -61.0123 466.828C-65.6489 463.212 -67.7825 458.673 -66.7389 454.035L-67.7145 453.815L-68.6901 453.596C-69.9573 459.227 -67.2692 464.484 -62.2423 468.405C-57.2194 472.323 -49.7633 475.01 -41.0863 475.637L-41.0143 474.639ZM-67.7145 453.815L-66.7389 454.035C-65.9614 450.58 -63.5049 447.395 -59.7709 444.787C-56.0423 442.183 -51.1048 440.204 -45.5256 439.154L-45.7106 438.172L-45.8955 437.189C-51.6968 438.281 -56.9122 440.351 -60.916 443.147C-64.9143 445.94 -67.7696 449.506 -68.6901 453.596L-67.7145 453.815ZM-45.7106 438.172L-44.7536 437.881C-46.1455 433.292 -45.5111 428.619 -42.4663 424.344L-43.2809 423.763L-44.0954 423.183C-47.505 427.971 -48.2365 433.288 -46.6675 438.462L-45.7106 438.172ZM-43.2809 423.763L-42.4663 424.344C-38.6214 418.945 -31.5451 415.052 -22.7958 413.086C-14.0679 411.124 -3.79795 411.112 6.26208 413.357L6.47987 412.381L6.69768 411.405C-3.63038 409.1 -14.1995 409.104 -23.2343 411.134C-32.2478 413.16 -39.8578 417.233 -44.0954 423.183L-43.2809 423.763Z" fill="#66A0D2" mask="url(#path-5-inside-3_466_520)"/>
<path d="M-25 152.453C-16.6 148.27 1.46 144.924 6.5 165C11.225 156.635 24.14 142.415 38 152.453" stroke="#C9E9FF" stroke-width="4" stroke-linecap="round"/>
<path d="M7.50966 192.721C15.786 191.297 33.3508 191.05 37.3991 201.451C42.2988 197.654 55.3401 191.584 68.308 197.676" stroke="#C9E9FF" stroke-width="4" stroke-linecap="round"/>
<path d="M326 383.453C334.4 379.27 352.46 375.924 357.5 396C362.225 387.635 375.14 373.415 389 383.453" stroke="#C9E9FF" stroke-width="4" stroke-linecap="round"/>
<path d="M358.51 423.721C366.786 422.297 384.351 422.05 388.399 432.451C393.299 428.654 406.34 422.584 419.308 428.676" stroke="#C9E9FF" stroke-width="4" stroke-linecap="round"/>
<path d="M-16 650.453C-7.6 646.27 10.46 642.924 15.5 663C20.225 654.635 33.14 640.415 47 650.453" stroke="#C9E9FF" stroke-width="4" stroke-linecap="round"/>
<path d="M16.5097 690.721C24.786 689.297 42.3508 689.05 46.3991 699.451C51.2988 695.654 64.3401 689.584 77.308 695.676" stroke="#C9E9FF" stroke-width="4" stroke-linecap="round"/>
</g>
<defs>
<clipPath id="clip0_466_520">
<rect width="390" height="706" fill="white"/>
</clipPath>
</defs>
</svg>
