<svg width="805" height="408" viewBox="0 0 805 408" fill="none" xmlns="http://www.w3.org/2000/svg">
<mask id="path-1-inside-1_5_693" fill="white">
<path d="M731.5 0C778.168 0 816 46.3385 816 103.5C816 105.51 815.951 107.507 815.858 109.488C820.652 108.201 825.769 107.502 831.085 107.502C858.159 107.502 880.107 125.563 880.107 147.842C880.107 163.927 868.666 177.811 852.115 184.289L911.611 187.611V413.945H912V504.081H845.817C781.683 523.301 625.168 550.504 441.486 573.036C199.347 602.739 1.69204 613.076 0.0107787 596.127C-0.829345 587.651 47.4953 573.956 126.303 558.667C122.227 553.526 119.597 547.41 118.927 540.652C116.75 518.687 136.088 498.291 162.121 495.098C168.292 494.341 174.284 494.62 179.865 495.776L184.568 495.199C180.274 486.486 177.433 476.803 176.406 466.444C171.907 421.047 203.93 379.87 247.932 374.473C269.467 371.831 289.879 378.249 305.638 390.813C316.817 382.409 330.462 376.52 345.557 374.338C365.808 371.411 385.082 375.676 400.339 385.046C404.792 373.713 412.051 364.704 421.802 359.672C433.898 353.428 447.73 354.389 460.742 361.026C469.937 340.335 486.427 326.419 505.307 326.01C503.178 321.232 502 315.994 502 310.5C502 290.87 517.001 274.503 536.912 270.791C526.531 260.018 520.191 245.638 520.191 229.846C520.192 197.532 546.731 171.136 580.136 169.44L580.116 169.104L583.967 169.318C583.94 168.446 583.927 167.569 583.927 166.688C583.927 132 605.25 103.878 631.555 103.878C636.982 103.878 642.197 105.076 647.057 107.28C647.02 106.026 647 104.766 647 103.5C647 46.3385 684.832 2.76229e-05 731.5 0ZM443.815 500.879C440.946 505.199 436.635 509.08 431.304 512.161C432.668 511.993 434.035 511.823 435.402 511.655C457.294 508.97 478.823 506.444 499.876 504.081H474.384C464.565 506.957 453.976 505.652 443.815 500.879Z"/>
</mask>
<path d="M731.5 0C778.168 0 816 46.3385 816 103.5C816 105.51 815.951 107.507 815.858 109.488C820.652 108.201 825.769 107.502 831.085 107.502C858.159 107.502 880.107 125.563 880.107 147.842C880.107 163.927 868.666 177.811 852.115 184.289L911.611 187.611V413.945H912V504.081H845.817C781.683 523.301 625.168 550.504 441.486 573.036C199.347 602.739 1.69204 613.076 0.0107787 596.127C-0.829345 587.651 47.4953 573.956 126.303 558.667C122.227 553.526 119.597 547.41 118.927 540.652C116.75 518.687 136.088 498.291 162.121 495.098C168.292 494.341 174.284 494.62 179.865 495.776L184.568 495.199C180.274 486.486 177.433 476.803 176.406 466.444C171.907 421.047 203.93 379.87 247.932 374.473C269.467 371.831 289.879 378.249 305.638 390.813C316.817 382.409 330.462 376.52 345.557 374.338C365.808 371.411 385.082 375.676 400.339 385.046C404.792 373.713 412.051 364.704 421.802 359.672C433.898 353.428 447.73 354.389 460.742 361.026C469.937 340.335 486.427 326.419 505.307 326.01C503.178 321.232 502 315.994 502 310.5C502 290.87 517.001 274.503 536.912 270.791C526.531 260.018 520.191 245.638 520.191 229.846C520.192 197.532 546.731 171.136 580.136 169.44L580.116 169.104L583.967 169.318C583.94 168.446 583.927 167.569 583.927 166.688C583.927 132 605.25 103.878 631.555 103.878C636.982 103.878 642.197 105.076 647.057 107.28C647.02 106.026 647 104.766 647 103.5C647 46.3385 684.832 2.76229e-05 731.5 0ZM443.815 500.879C440.946 505.199 436.635 509.08 431.304 512.161C432.668 511.993 434.035 511.823 435.402 511.655C457.294 508.97 478.823 506.444 499.876 504.081H474.384C464.565 506.957 453.976 505.652 443.815 500.879Z" fill="#FFFEF8"/>
<path d="M731.5 0V-1V0ZM815.858 109.488L814.859 109.442L814.796 110.809L816.118 110.454L815.858 109.488ZM831.085 107.502V106.502V107.502ZM880.107 147.842H881.107H880.107ZM852.115 184.289L851.751 183.358L852.06 185.288L852.115 184.289ZM911.611 187.611H912.611V186.666L911.667 186.613L911.611 187.611ZM911.611 413.945H910.611V414.945H911.611V413.945ZM912 413.945H913V412.945H912V413.945ZM912 504.081V505.081H913V504.081H912ZM845.817 504.081V503.081H845.671L845.53 503.123L845.817 504.081ZM441.486 573.036L441.608 574.029L441.486 573.036ZM0.0107787 596.127L-0.984345 596.226L-0.984338 596.226L0.0107787 596.127ZM126.303 558.667L126.493 559.649L128.109 559.335L127.086 558.046L126.303 558.667ZM118.927 540.652L117.932 540.751L118.927 540.652ZM162.121 495.098L161.999 494.105L162.121 495.098ZM179.865 495.776L179.662 496.756L179.824 496.789L179.987 496.769L179.865 495.776ZM184.568 495.199L184.69 496.192L186.088 496.02L185.465 494.757L184.568 495.199ZM176.406 466.444L175.411 466.543L176.406 466.444ZM247.932 374.473L247.81 373.48L247.932 374.473ZM305.638 390.813L305.014 391.595L305.62 392.078L306.239 391.613L305.638 390.813ZM345.557 374.338L345.414 373.348L345.557 374.338ZM400.339 385.046L399.816 385.898L400.833 386.523L401.27 385.412L400.339 385.046ZM421.802 359.672L421.343 358.783L421.802 359.672ZM460.742 361.026L460.288 361.917L461.228 362.397L461.656 361.432L460.742 361.026ZM505.307 326.01L505.328 327.01L506.833 326.977L506.22 325.603L505.307 326.01ZM502 310.5H501H502ZM536.912 270.791L537.095 271.774L538.92 271.434L537.632 270.097L536.912 270.791ZM520.191 229.846H519.191H520.191ZM580.136 169.44L580.186 170.439L581.192 170.388L581.134 169.383L580.136 169.44ZM580.116 169.104L580.172 168.105L579.053 168.043L579.118 169.161L580.116 169.104ZM583.967 169.318L583.911 170.317L585 170.378L584.966 169.287L583.967 169.318ZM583.927 166.688H582.927H583.927ZM631.555 103.878V102.878H631.555L631.555 103.878ZM647.057 107.28L646.643 108.191L648.103 108.853L648.056 107.251L647.057 107.28ZM443.815 500.879L444.241 499.974L443.46 499.607L442.983 500.326L443.815 500.879ZM431.304 512.161L430.803 511.295L431.426 513.154L431.304 512.161ZM435.402 511.655L435.281 510.663L435.402 511.655ZM499.876 504.081L499.988 505.075L499.876 503.081V504.081ZM474.384 504.081V503.081H474.24L474.103 503.121L474.384 504.081ZM731.5 0V1C777.436 1 815 46.6917 815 103.5H816H817C817 45.9854 778.9 -1 731.5 -1V0ZM816 103.5H815C815 105.494 814.951 107.475 814.859 109.442L815.858 109.488L816.857 109.535C816.95 107.538 817 105.526 817 103.5H816ZM815.858 109.488L816.118 110.454C820.826 109.189 825.857 108.502 831.085 108.502V107.502V106.502C825.682 106.502 820.477 107.212 815.599 108.523L815.858 109.488ZM831.085 107.502V108.502C857.798 108.502 879.107 126.288 879.107 147.842H880.107H881.107C881.107 124.837 858.521 106.502 831.085 106.502V107.502ZM880.107 147.842H879.107C879.107 163.415 868.022 176.989 851.751 183.358L852.115 184.289L852.48 185.22C869.31 178.633 881.107 164.44 881.107 147.842H880.107ZM852.115 184.289L852.06 185.288L911.556 188.61L911.611 187.611L911.667 186.613L852.171 183.291L852.115 184.289ZM911.611 187.611H910.611V413.945H911.611H912.611V187.611H911.611ZM911.611 413.945V414.945H912V413.945V412.945H911.611V413.945ZM912 413.945H911V504.081H912H913V413.945H912ZM912 504.081V503.081H845.817V504.081V505.081H912V504.081ZM845.817 504.081L845.53 503.123C781.487 522.316 625.05 549.511 441.365 572.044L441.486 573.036L441.608 574.029C625.286 551.497 781.879 524.286 846.104 505.039L845.817 504.081ZM441.486 573.036L441.365 572.044C320.31 586.893 210.386 596.9 130.525 601.077C90.5893 603.166 58.1948 603.796 35.6919 602.847C24.4327 602.373 15.6947 601.505 9.73924 600.241C6.75436 599.608 4.53217 598.888 3.05413 598.104C1.5336 597.297 1.05939 596.568 1.0059 596.028L0.0107787 596.127L-0.984338 596.226C-0.827679 597.805 0.439316 598.981 2.11707 599.871C3.83731 600.783 6.27047 601.55 9.32406 602.198C15.4456 603.497 24.3168 604.37 35.6077 604.846C58.2048 605.798 90.673 605.165 130.629 603.075C210.55 598.895 320.523 588.882 441.608 574.029L441.486 573.036ZM0.0107787 596.127L1.0059 596.028C0.951042 595.475 1.28562 594.628 2.62081 593.465C3.91649 592.336 5.9501 591.091 8.74066 589.749C14.3097 587.07 22.6719 584.104 33.5701 580.911C55.3525 574.53 87.0997 567.291 126.493 559.649L126.303 558.667L126.112 557.685C86.6984 565.332 54.8796 572.585 33.0078 578.992C22.0789 582.194 13.592 585.196 7.87369 587.947C5.0206 589.319 2.80099 590.655 1.30688 591.957C-0.147721 593.225 -1.13952 594.66 -0.984345 596.226L0.0107787 596.127ZM126.303 558.667L127.086 558.046C123.122 553.046 120.572 547.108 119.922 540.554L118.927 540.652L117.932 540.751C118.622 547.711 121.332 554.007 125.519 559.288L126.303 558.667ZM118.927 540.652L119.922 540.554C117.813 519.277 136.588 499.237 162.243 496.09L162.121 495.098L161.999 494.105C135.589 497.345 115.686 518.096 117.932 540.751L118.927 540.652ZM162.121 495.098L162.243 496.09C168.306 495.346 174.189 495.621 179.662 496.756L179.865 495.776L180.068 494.797C174.379 493.618 168.277 493.335 161.999 494.105L162.121 495.098ZM179.865 495.776L179.987 496.769L184.69 496.192L184.568 495.199L184.447 494.207L179.743 494.784L179.865 495.776ZM184.568 495.199L185.465 494.757C181.224 486.151 178.416 476.585 177.401 466.346L176.406 466.444L175.411 466.543C176.45 477.022 179.324 486.821 183.671 495.641L184.568 495.199ZM176.406 466.444L177.401 466.346C172.953 421.463 204.616 380.794 248.053 375.465L247.932 374.473L247.81 373.48C203.243 378.947 170.861 420.631 175.411 466.543L176.406 466.444ZM247.932 374.473L248.053 375.465C269.31 372.858 289.456 379.192 305.014 391.595L305.638 390.813L306.261 390.032C290.301 377.307 269.623 370.804 247.81 373.48L247.932 374.473ZM305.638 390.813L306.239 391.613C317.285 383.308 330.773 377.485 345.7 375.328L345.557 374.338L345.414 373.348C330.151 375.554 316.348 381.51 305.037 390.014L305.638 390.813ZM345.557 374.338L345.7 375.328C365.725 372.433 384.763 376.653 399.816 385.898L400.339 385.046L400.862 384.194C385.402 374.698 365.89 370.389 345.414 373.348L345.557 374.338ZM400.339 385.046L401.27 385.412C405.655 374.251 412.772 365.458 422.26 360.56L421.802 359.672L421.343 358.783C411.331 363.951 403.929 373.175 399.408 384.68L400.339 385.046ZM421.802 359.672L422.26 360.56C434.012 354.495 447.498 355.393 460.288 361.917L460.742 361.026L461.197 360.136C447.962 353.385 433.785 352.362 421.343 358.783L421.802 359.672ZM460.742 361.026L461.656 361.432C470.754 340.958 486.966 327.408 505.328 327.01L505.307 326.01L505.285 325.01C485.888 325.43 469.12 339.711 459.828 360.62L460.742 361.026ZM505.307 326.01L506.22 325.603C504.146 320.949 503 315.85 503 310.5H502H501C501 316.139 502.209 321.515 504.393 326.417L505.307 326.01ZM502 310.5H503C503 291.409 517.598 275.409 537.095 271.774L536.912 270.791L536.729 269.808C516.404 273.597 501 290.33 501 310.5H502ZM536.912 270.791L537.632 270.097C527.419 259.498 521.191 245.363 521.191 229.846H520.191H519.191C519.191 245.914 525.643 260.537 536.192 271.485L536.912 270.791ZM520.191 229.846H521.191C521.192 198.107 547.27 172.11 580.186 170.439L580.136 169.44L580.085 168.442C546.192 170.162 519.192 196.956 519.191 229.846H520.191ZM580.136 169.44L581.134 169.383L581.115 169.046L580.116 169.104L579.118 169.161L579.137 169.498L580.136 169.44ZM580.116 169.104L580.061 170.102L583.911 170.317L583.967 169.318L584.023 168.32L580.172 168.105L580.116 169.104ZM583.967 169.318L584.966 169.287C584.939 168.426 584.927 167.56 584.927 166.688H583.927H582.927C582.927 167.579 582.94 168.466 582.967 169.35L583.967 169.318ZM583.927 166.688H584.927C584.927 149.542 590.198 134.056 598.673 122.879C607.148 111.703 618.783 104.878 631.555 104.878V103.878L631.555 102.878C618.022 102.878 605.843 110.114 597.08 121.671C588.317 133.227 582.927 149.146 582.927 166.688H583.927ZM631.555 103.878V104.878C636.832 104.878 641.907 106.042 646.643 108.191L647.057 107.28L647.47 106.37C642.487 104.109 637.132 102.878 631.555 102.878V103.878ZM647.057 107.28L648.056 107.251C648.02 106.005 648 104.755 648 103.5H647H646C646 104.776 646.02 106.046 646.057 107.31L647.057 107.28ZM647 103.5H648C648 46.6917 685.564 1.00003 731.5 1V0V-1C684.1 -0.999972 646 45.9854 646 103.5H647ZM443.815 500.879L442.983 500.326C440.213 504.495 436.027 508.277 430.803 511.295L431.304 512.161L431.804 513.027C437.243 509.884 441.678 505.903 444.648 501.432L443.815 500.879ZM431.304 512.161L431.426 513.154C432.792 512.985 434.157 512.816 435.524 512.648L435.402 511.655L435.281 510.663C433.913 510.831 432.545 511.001 431.181 511.169L431.304 512.161ZM435.402 511.655L435.524 512.648C457.413 509.963 478.938 507.437 499.988 505.075L499.876 504.081L499.764 503.087C478.708 505.451 457.176 507.977 435.281 510.663L435.402 511.655ZM499.876 504.081V503.081H474.384V504.081V505.081H499.876V504.081ZM474.384 504.081L474.103 503.121C464.56 505.917 454.224 504.663 444.241 499.974L443.815 500.879L443.39 501.784C453.729 506.641 464.57 507.998 474.665 505.041L474.384 504.081Z" fill="#66A0D2" mask="url(#path-1-inside-1_5_693)"/>
<path d="M734.607 214.583C720.128 200.64 679.063 191.363 647.141 226.208" stroke="#78B8F1"/>
<path d="M662.962 212.352C651.665 197.572 621.968 185.306 602.137 216.972" stroke="#78B8F1"/>
<path d="M449 406.902C460.612 390.495 499.213 373.693 537.096 401.944" stroke="#78B8F1"/>
<path d="M518.96 391.296C527.29 374.662 554.165 357.052 579.574 384.444" stroke="#78B8F1"/>
<path d="M776.966 199.583C765.669 184.803 735.972 172.537 716.141 204.203" stroke="#78B8F1"/>
<path d="M725 353C732.167 335.833 757.768 316.418 785 342" stroke="#78B8F1"/>
<path d="M769.5 331.351C776.667 314.184 802.268 294.769 829.5 320.351" stroke="#78B8F1"/>
</svg>
