<svg width="771" height="414" viewBox="0 0 771 414" fill="none" xmlns="http://www.w3.org/2000/svg">
<mask id="path-1-inside-1_5_634" fill="white">
<path d="M-89.8301 85.2267C-83.0321 31.8921 -34.9775 -5.92203 17.5029 0.766773C68.8423 7.31045 105.397 54.0188 100.599 105.978C110.883 102.426 122.013 102.247 132.684 106.204C160.894 116.666 175.219 152.08 164.678 185.303C164.496 185.876 164.306 186.445 164.111 187.01C173.75 187.573 183.173 193.879 188.576 204.611C191.781 210.977 193.099 217.962 192.721 224.643C193.454 224.739 194.189 224.851 194.925 224.977C226.158 230.33 247.449 260.748 242.48 292.916C242.437 293.195 242.392 293.473 242.346 293.75C254.247 294.426 266.581 298.093 278.426 305.023C294.669 314.526 307.474 328.693 315.834 344.838C325.573 336.732 337.625 332.579 350.059 334.163C369.346 336.622 384.276 352.214 389.555 372.687C402.872 358.888 422.479 351.327 443.173 353.965C466.645 356.957 485.472 372.3 493.754 392.494C504.738 383.325 520.818 378.554 537.948 380.737C554.721 382.875 568.848 391.214 577.252 402.48C588.879 391.672 604.575 385.928 620.974 388.018C646.099 391.22 665.012 411.814 668.499 437.109C678.854 429.775 693.583 426.136 709.295 428.138C737.208 431.696 757.654 451.715 754.96 472.851C754.078 479.774 750.821 485.958 745.86 491.02C762.305 499.766 772.475 517.183 770.113 535.716C767.391 557.072 748.933 572.82 726.905 574.169L718.194 642.508L-123 535.292L-111.115 442.046L-72.1973 447.007V447.006L-110.241 442.157L-73.4248 153.299C-86.5736 134.195 -93.0162 110.225 -89.8301 85.2267Z"/>
</mask>
<path d="M-89.8301 85.2267C-83.0321 31.8921 -34.9775 -5.92203 17.5029 0.766773C68.8423 7.31045 105.397 54.0188 100.599 105.978C110.883 102.426 122.013 102.247 132.684 106.204C160.894 116.666 175.219 152.08 164.678 185.303C164.496 185.876 164.306 186.445 164.111 187.01C173.75 187.573 183.173 193.879 188.576 204.611C191.781 210.977 193.099 217.962 192.721 224.643C193.454 224.739 194.189 224.851 194.925 224.977C226.158 230.33 247.449 260.748 242.48 292.916C242.437 293.195 242.392 293.473 242.346 293.75C254.247 294.426 266.581 298.093 278.426 305.023C294.669 314.526 307.474 328.693 315.834 344.838C325.573 336.732 337.625 332.579 350.059 334.163C369.346 336.622 384.276 352.214 389.555 372.687C402.872 358.888 422.479 351.327 443.173 353.965C466.645 356.957 485.472 372.3 493.754 392.494C504.738 383.325 520.818 378.554 537.948 380.737C554.721 382.875 568.848 391.214 577.252 402.48C588.879 391.672 604.575 385.928 620.974 388.018C646.099 391.22 665.012 411.814 668.499 437.109C678.854 429.775 693.583 426.136 709.295 428.138C737.208 431.696 757.654 451.715 754.96 472.851C754.078 479.774 750.821 485.958 745.86 491.02C762.305 499.766 772.475 517.183 770.113 535.716C767.391 557.072 748.933 572.82 726.905 574.169L718.194 642.508L-123 535.292L-111.115 442.046L-72.1973 447.007V447.006L-110.241 442.157L-73.4248 153.299C-86.5736 134.195 -93.0162 110.225 -89.8301 85.2267Z" fill="#FFFEF8"/>
<path d="M-89.8301 85.2267L-90.8221 85.1003L-89.8301 85.2267ZM17.5029 0.766773L17.6294 -0.225202V-0.225203L17.5029 0.766773ZM100.599 105.978L99.6029 105.886L99.4604 107.429L100.925 106.923L100.599 105.978ZM132.684 106.204L133.031 105.267L132.684 106.204ZM164.678 185.303L165.631 185.605L164.678 185.303ZM164.111 187.01L163.166 186.685L162.737 187.931L164.053 188.008L164.111 187.01ZM188.576 204.611L189.469 204.161V204.161L188.576 204.611ZM192.721 224.643L191.722 224.586L191.67 225.513L192.591 225.634L192.721 224.643ZM194.925 224.977L195.094 223.991H195.094L194.925 224.977ZM242.48 292.916L243.469 293.069L242.48 292.916ZM242.346 293.75L241.36 293.584L241.174 294.685L242.289 294.749L242.346 293.75ZM278.426 305.023L278.931 304.16V304.159L278.426 305.023ZM315.834 344.838L314.946 345.298L315.518 346.402L316.474 345.607L315.834 344.838ZM350.059 334.163L350.185 333.171L350.059 334.163ZM389.555 372.687L388.586 372.936L389.033 374.668L390.274 373.381L389.555 372.687ZM443.173 353.965L443.299 352.973H443.299L443.173 353.965ZM493.754 392.494L492.829 392.874L493.347 394.137L494.395 393.262L493.754 392.494ZM537.948 380.737L538.075 379.746L537.948 380.737ZM577.252 402.48L576.45 403.078L577.117 403.971L577.933 403.212L577.252 402.48ZM620.974 388.018L621.1 387.026L620.974 388.018ZM668.499 437.109L667.508 437.245L667.733 438.876L669.077 437.925L668.499 437.109ZM709.295 428.138L709.421 427.146L709.295 428.138ZM754.96 472.851L755.952 472.977V472.977L754.96 472.851ZM745.86 491.02L745.146 490.32L744.21 491.275L745.391 491.903L745.86 491.02ZM770.113 535.716L771.105 535.842L771.105 535.842L770.113 535.716ZM726.905 574.169L726.844 573.171L726.018 573.222L725.913 574.043L726.905 574.169ZM718.194 642.508L718.068 643.5L719.06 643.626L719.186 642.634L718.194 642.508ZM-123 535.292L-123.992 535.166L-124.118 536.158L-123.126 536.284L-123 535.292ZM-111.115 442.046L-110.989 441.054L-111.981 440.928L-112.107 441.92L-111.115 442.046ZM-72.1973 447.007L-72.3237 447.999L-71.1973 448.143V447.007H-72.1973ZM-72.1973 447.006H-71.1973V446.125L-72.0708 446.014L-72.1973 447.006ZM-110.241 442.157L-111.233 442.031L-111.36 443.023L-110.368 443.149L-110.241 442.157ZM-73.4248 153.299L-72.4328 153.425L-72.3845 153.047L-72.6011 152.732L-73.4248 153.299ZM-89.8301 85.2267L-88.8381 85.3532C-82.108 32.5512 -34.541 -4.85832 17.3765 1.75875L17.5029 0.766773L17.6294 -0.225203C-35.4139 -6.98575 -83.9562 31.233 -90.8221 85.1003L-89.8301 85.2267ZM17.5029 0.766773L17.3765 1.75875C68.1652 8.23225 104.353 54.447 99.6029 105.886L100.599 105.978L101.594 106.07C106.441 53.5907 69.5193 6.38866 17.6294 -0.225202L17.5029 0.766773ZM100.599 105.978L100.925 106.923C111.005 103.442 121.895 103.27 132.336 107.142L132.684 106.204L133.031 105.267C122.13 101.224 110.762 101.41 100.272 105.032L100.599 105.978ZM132.684 106.204L132.336 107.142C159.93 117.375 174.144 152.159 163.725 185L164.678 185.303L165.631 185.605C176.293 152.001 161.858 115.957 133.031 105.267L132.684 106.204ZM164.678 185.303L163.725 185C163.546 185.564 163.358 186.125 163.166 186.685L164.111 187.01L165.057 187.335C165.253 186.765 165.446 186.188 165.631 185.605L164.678 185.303ZM164.111 187.01L164.053 188.008C173.286 188.548 182.417 194.601 187.683 205.06L188.576 204.611L189.469 204.161C183.929 193.157 174.214 186.598 164.17 186.012L164.111 187.01ZM188.576 204.611L187.683 205.06C190.806 211.263 192.091 218.073 191.722 224.586L192.721 224.643L193.719 224.699C194.107 217.851 192.757 210.69 189.469 204.161L188.576 204.611ZM192.721 224.643L192.591 225.634C193.31 225.729 194.033 225.838 194.756 225.962L194.925 224.977L195.094 223.991C194.346 223.863 193.597 223.749 192.851 223.651L192.721 224.643ZM194.925 224.977L194.756 225.962C225.427 231.22 246.381 261.11 241.492 292.764L242.48 292.916L243.469 293.069C248.517 260.386 226.889 229.441 195.094 223.991L194.925 224.977ZM242.48 292.916L241.492 292.764C241.45 293.037 241.406 293.311 241.36 293.584L242.346 293.75L243.332 293.916C243.379 293.635 243.425 293.352 243.469 293.069L242.48 292.916ZM242.346 293.75L242.289 294.749C254.023 295.415 266.205 299.031 277.921 305.886L278.426 305.023L278.931 304.159C266.956 297.154 254.47 293.437 242.402 292.752L242.346 293.75ZM278.426 305.023L277.921 305.886C293.988 315.286 306.666 329.308 314.946 345.298L315.834 344.838L316.722 344.378C308.282 328.078 295.349 313.765 278.931 304.16L278.426 305.023ZM315.834 344.838L316.474 345.607C326.03 337.653 337.811 333.61 349.932 335.155L350.059 334.163L350.185 333.171C337.439 331.547 325.117 335.811 315.194 344.069L315.834 344.838ZM350.059 334.163L349.932 335.155C368.722 337.55 383.385 352.763 388.586 372.936L389.555 372.687L390.523 372.437C385.167 351.666 369.97 335.693 350.185 333.171L350.059 334.163ZM389.555 372.687L390.274 373.381C403.379 359.803 422.675 352.361 443.046 354.957L443.173 353.965L443.299 352.973C422.283 350.294 402.365 357.973 388.835 371.992L389.555 372.687ZM443.173 353.965L443.046 354.957C466.153 357.902 484.68 373.004 492.829 392.874L493.754 392.494L494.679 392.115C486.264 371.596 467.138 356.012 443.299 352.973L443.173 353.965ZM493.754 392.494L494.395 393.262C505.147 384.286 520.943 379.578 537.822 381.729L537.948 380.737L538.075 379.746C520.693 377.53 504.329 382.363 493.113 391.727L493.754 392.494ZM537.948 380.737L537.822 381.729C554.348 383.836 568.222 392.047 576.45 403.078L577.252 402.48L578.053 401.882C569.474 390.381 555.094 381.915 538.075 379.746L537.948 380.737ZM577.252 402.48L577.933 403.212C589.361 392.589 604.767 386.96 620.847 389.01L620.974 388.018L621.1 387.026C604.383 384.895 588.397 390.755 576.571 401.747L577.252 402.48ZM620.974 388.018L620.847 389.01C645.477 392.149 664.076 412.349 667.508 437.245L668.499 437.109L669.49 436.972C665.948 411.279 646.721 390.291 621.1 387.026L620.974 388.018ZM668.499 437.109L669.077 437.925C679.203 430.753 693.674 427.155 709.169 429.13L709.295 428.138L709.421 427.146C693.493 425.116 678.505 428.797 667.921 436.293L668.499 437.109ZM709.295 428.138L709.169 429.13C722.929 430.884 734.811 436.691 742.906 444.617C750.999 452.542 755.267 462.534 753.968 472.724L754.96 472.851L755.952 472.977C757.347 462.031 752.739 451.446 744.305 443.188C735.871 434.93 723.574 428.95 709.421 427.146L709.295 428.138ZM754.96 472.851L753.968 472.724C753.116 479.406 749.973 485.395 745.146 490.32L745.86 491.02L746.575 491.72C751.669 486.521 755.039 480.142 755.952 472.977L754.96 472.851ZM745.86 491.02L745.391 491.903C761.51 500.475 771.425 517.514 769.121 535.59L770.113 535.716L771.105 535.842C773.526 516.852 763.101 499.056 746.33 490.137L745.86 491.02ZM770.113 535.716L769.121 535.59C766.467 556.416 748.448 571.848 726.844 573.171L726.905 574.169L726.966 575.167C749.418 573.792 768.316 557.727 771.105 535.842L770.113 535.716ZM726.905 574.169L725.913 574.043L717.202 642.382L718.194 642.508L719.186 642.634L727.897 574.296L726.905 574.169ZM718.194 642.508L718.321 641.516L-122.874 534.3L-123 535.292L-123.126 536.284L718.068 643.5L718.194 642.508ZM-123 535.292L-122.008 535.419L-110.123 442.173L-111.115 442.046L-112.107 441.92L-123.992 535.166L-123 535.292ZM-111.115 442.046L-111.242 443.038L-72.3237 447.999L-72.1973 447.007L-72.0708 446.015L-110.989 441.054L-111.115 442.046ZM-72.1973 447.007H-71.1973V447.006H-72.1973H-73.1973V447.007H-72.1973ZM-72.1973 447.006L-72.0708 446.014L-110.115 441.165L-110.241 442.157L-110.368 443.149L-72.3237 447.998L-72.1973 447.006ZM-110.241 442.157L-109.249 442.284L-72.4328 153.425L-73.4248 153.299L-74.4168 153.173L-111.233 442.031L-110.241 442.157ZM-73.4248 153.299L-72.6011 152.732C-85.6147 133.825 -91.9922 110.1 -88.8381 85.3532L-89.8301 85.2267L-90.8221 85.1003C-94.0402 110.35 -87.5324 134.566 -74.2485 153.866L-73.4248 153.299Z" fill="#66A0D2" mask="url(#path-1-inside-1_5_634)"/>
<path d="M86.5 377C93.6667 359.833 119.268 340.418 146.5 366" stroke="#78B8F1"/>
<path d="M131 355.351C138.167 338.184 163.768 318.769 191 344.351" stroke="#78B8F1"/>
<path d="M74 235C65.5194 218.091 35.2245 198.968 3 224.165" stroke="#78B8F1"/>
<path d="M21 214C12.5194 197.091 -17.7755 177.968 -50 203.165" stroke="#78B8F1"/>
</svg>
