<svg width="368" height="223" viewBox="0 0 368 223" fill="none" xmlns="http://www.w3.org/2000/svg">
<mask id="path-1-inside-1_466_587" fill="white">
<path d="M360.082 36.5725C381.127 38.9058 395.871 61.6935 393.013 87.4703C392.912 88.3773 392.789 89.2757 392.648 90.1653C394.874 89.8241 397.218 89.7651 399.615 90.0309C411.825 91.3846 420.819 100.627 419.705 110.673C418.901 117.925 413.05 123.613 405.266 125.708L431.923 130.179L420.606 232.248L420.782 232.268L416.276 272.914L386.421 269.604C356.534 275.064 284.599 279.507 200.65 280.484C89.9718 281.772 0.322485 276.551 0.412324 268.824C0.45866 264.96 22.9349 261.2 59.2361 258.246C57.6554 255.724 56.7756 252.834 56.8114 249.754C56.9278 239.74 66.6683 231.509 78.5673 231.37C81.3859 231.338 84.0726 231.762 86.5305 232.562L88.687 232.537C87.1861 228.393 86.3871 223.885 86.442 219.163C86.6826 198.466 103.182 181.499 123.295 181.265C133.139 181.15 142.022 185.066 148.501 191.521C153.962 188.29 160.41 186.315 167.326 186.086C176.604 185.778 185.083 188.665 191.494 193.653C194.069 188.765 197.792 185.064 202.441 183.282C208.209 181.071 214.398 182.197 219.934 185.84C225.115 176.969 233.247 171.52 241.781 172.28C241.059 170.018 240.79 167.597 241.065 165.119C242.046 156.265 249.631 149.634 258.798 148.957C254.654 143.579 252.511 136.778 253.301 129.656C254.917 115.084 268.204 104.508 283.353 105.413L283.361 105.26L285.088 105.549C285.119 105.155 285.156 104.76 285.2 104.363C286.934 88.7204 297.957 77.1051 309.819 78.4203C312.267 78.6918 314.559 79.494 316.641 80.732C316.687 80.1633 316.74 79.5926 316.803 79.0207C319.661 53.2441 339.037 34.2394 360.082 36.5725ZM205.31 248.06C203.8 249.865 201.661 251.4 199.102 252.523C199.726 252.515 200.351 252.508 200.976 252.501C210.982 252.384 220.817 252.322 230.429 252.309L218.918 251.033C214.352 251.834 209.648 250.717 205.31 248.06Z"/>
</mask>
<path d="M360.082 36.5725C381.127 38.9058 395.871 61.6935 393.013 87.4703C392.912 88.3773 392.789 89.2757 392.648 90.1653C394.874 89.8241 397.218 89.7651 399.615 90.0309C411.825 91.3846 420.819 100.627 419.705 110.673C418.901 117.925 413.05 123.613 405.266 125.708L431.923 130.179L420.606 232.248L420.782 232.268L416.276 272.914L386.421 269.604C356.534 275.064 284.599 279.507 200.65 280.484C89.9718 281.772 0.322485 276.551 0.412324 268.824C0.45866 264.96 22.9349 261.2 59.2361 258.246C57.6554 255.724 56.7756 252.834 56.8114 249.754C56.9278 239.74 66.6683 231.509 78.5673 231.37C81.3859 231.338 84.0726 231.762 86.5305 232.562L88.687 232.537C87.1861 228.393 86.3871 223.885 86.442 219.163C86.6826 198.466 103.182 181.499 123.295 181.265C133.139 181.15 142.022 185.066 148.501 191.521C153.962 188.29 160.41 186.315 167.326 186.086C176.604 185.778 185.083 188.665 191.494 193.653C194.069 188.765 197.792 185.064 202.441 183.282C208.209 181.071 214.398 182.197 219.934 185.84C225.115 176.969 233.247 171.52 241.781 172.28C241.059 170.018 240.79 167.597 241.065 165.119C242.046 156.265 249.631 149.634 258.798 148.957C254.654 143.579 252.511 136.778 253.301 129.656C254.917 115.084 268.204 104.508 283.353 105.413L283.361 105.26L285.088 105.549C285.119 105.155 285.156 104.76 285.2 104.363C286.934 88.7204 297.957 77.1051 309.819 78.4203C312.267 78.6918 314.559 79.494 316.641 80.732C316.687 80.1633 316.74 79.5926 316.803 79.0207C319.661 53.2441 339.037 34.2394 360.082 36.5725ZM205.31 248.06C203.8 249.865 201.661 251.4 199.102 252.523C199.726 252.515 200.351 252.508 200.976 252.501C210.982 252.384 220.817 252.322 230.429 252.309L218.918 251.033C214.352 251.834 209.648 250.717 205.31 248.06Z" fill="#FFFEF8"/>
<path d="M360.082 36.5725L360.132 36.1215L360.082 36.5725ZM393.013 87.4703L393.464 87.5203L393.013 87.4703ZM392.648 90.1653L392.2 90.0944L392.103 90.7079L392.717 90.6138L392.648 90.1653ZM399.615 90.0309L399.665 89.58L399.615 90.0309ZM419.705 110.673L420.156 110.723L420.156 110.723L419.705 110.673ZM405.266 125.708L405.148 125.27L405.191 126.155L405.266 125.708ZM431.923 130.179L432.374 130.229L432.421 129.803L431.998 129.732L431.923 130.179ZM420.606 232.248L420.156 232.198L420.106 232.649L420.556 232.699L420.606 232.248ZM420.782 232.268L421.233 232.318L421.283 231.867L420.832 231.817L420.782 232.268ZM416.276 272.914L416.226 273.365L416.677 273.415L416.727 272.964L416.276 272.914ZM386.421 269.604L386.471 269.153L386.405 269.146L386.34 269.158L386.421 269.604ZM200.65 280.484L200.655 280.938L200.65 280.484ZM0.412324 268.824L-0.0413565 268.819L-0.041357 268.819L0.412324 268.824ZM59.2361 258.246L59.2729 258.698L60.0171 258.637L59.6205 258.005L59.2361 258.246ZM56.8114 249.754L56.3577 249.749L56.3577 249.749L56.8114 249.754ZM78.5673 231.37L78.5621 230.917L78.5673 231.37ZM86.5305 232.562L86.3901 232.993L86.4611 233.016L86.5358 233.016L86.5305 232.562ZM88.687 232.537L88.6923 232.99L89.3312 232.983L89.1136 232.382L88.687 232.537ZM86.442 219.163L85.9883 219.158L86.442 219.163ZM123.295 181.265L123.29 180.811L123.295 181.265ZM148.501 191.521L148.181 191.842L148.429 192.09L148.732 191.911L148.501 191.521ZM167.326 186.086L167.311 185.632L167.326 186.086ZM191.494 193.653L191.216 194.011L191.643 194.344L191.896 193.865L191.494 193.653ZM202.441 183.282L202.279 182.858L202.441 183.282ZM219.934 185.84L219.684 186.219L220.084 186.483L220.326 186.069L219.934 185.84ZM241.781 172.28L241.741 172.731L242.421 172.792L242.213 172.142L241.781 172.28ZM241.065 165.119L240.614 165.069L241.065 165.119ZM258.798 148.957L258.831 149.409L259.671 149.347L259.157 148.68L258.798 148.957ZM253.301 129.656L252.85 129.606L252.85 129.606L253.301 129.656ZM283.353 105.413L283.326 105.866L283.782 105.894L283.806 105.437L283.353 105.413ZM283.361 105.26L283.436 104.812L282.935 104.729L282.908 105.236L283.361 105.26ZM285.088 105.549L285.013 105.996L285.501 106.078L285.54 105.585L285.088 105.549ZM285.2 104.363L284.749 104.313L284.749 104.313L285.2 104.363ZM309.819 78.4203L309.869 77.9694L309.819 78.4203ZM316.641 80.732L316.409 81.122L317.034 81.4938L317.093 80.7688L316.641 80.732ZM316.803 79.0207L316.352 78.9707L316.803 79.0207ZM205.31 248.06L205.547 247.673L205.213 247.469L204.962 247.769L205.31 248.06ZM199.102 252.523L198.92 252.108L199.108 252.977L199.102 252.523ZM200.976 252.501L200.97 252.047L200.976 252.501ZM230.429 252.309L230.43 252.763L230.479 251.858L230.429 252.309ZM218.918 251.033L218.968 250.582L218.904 250.575L218.84 250.586L218.918 251.033ZM360.082 36.5725L360.032 37.0234C380.747 39.3201 395.402 61.8027 392.562 87.4203L393.013 87.4703L393.464 87.5203C396.339 61.5842 381.507 38.4914 360.132 36.1215L360.082 36.5725ZM393.013 87.4703L392.562 87.4203C392.462 88.3196 392.34 89.211 392.2 90.0944L392.648 90.1653L393.096 90.2362C393.238 89.3405 393.362 88.435 393.464 87.5203L393.013 87.4703ZM392.648 90.1653L392.717 90.6138C394.904 90.2786 397.207 90.2204 399.565 90.4819L399.615 90.0309L399.665 89.58C397.228 89.3097 394.845 89.3696 392.579 89.7168L392.648 90.1653ZM399.615 90.0309L399.565 90.4819C411.612 91.8175 420.332 100.904 419.254 110.623L419.705 110.673L420.156 110.723C421.306 100.349 412.037 90.9518 399.665 89.58L399.615 90.0309ZM419.705 110.673L419.254 110.623C418.476 117.644 412.801 123.21 405.148 125.27L405.266 125.708L405.384 126.146C413.3 124.015 419.327 118.206 420.156 110.723L419.705 110.673ZM405.266 125.708L405.191 126.155L431.848 130.627L431.923 130.179L431.998 129.732L405.341 125.26L405.266 125.708ZM431.923 130.179L431.472 130.129L420.156 232.198L420.606 232.248L421.057 232.298L432.374 130.229L431.923 130.179ZM420.606 232.248L420.556 232.699L420.732 232.719L420.782 232.268L420.832 231.817L420.656 231.797L420.606 232.248ZM420.782 232.268L420.331 232.218L415.825 272.864L416.276 272.914L416.727 272.964L421.233 232.318L420.782 232.268ZM416.276 272.914L416.326 272.463L386.471 269.153L386.421 269.604L386.371 270.055L416.226 273.365L416.276 272.914ZM386.421 269.604L386.34 269.158C356.495 274.61 284.595 279.054 200.644 280.03L200.65 280.484L200.655 280.938C284.603 279.961 356.573 275.518 386.503 270.051L386.421 269.604ZM200.65 280.484L200.644 280.03C145.313 280.674 95.2418 279.691 59.0195 277.582C40.9063 276.527 26.2665 275.191 16.1664 273.639C11.1128 272.862 7.21583 272.033 4.59348 271.166C3.27915 270.731 2.31309 270.295 1.6858 269.868C1.04047 269.428 0.863147 269.075 0.866004 268.829L0.412324 268.824L-0.041357 268.819C-0.0497312 269.539 0.462804 270.132 1.17487 270.618C1.90497 271.115 2.96384 271.582 4.30843 272.027C7.00392 272.919 10.9607 273.756 16.0285 274.535C26.171 276.095 40.8441 277.432 58.9667 278.488C95.2161 280.599 145.309 281.582 200.655 280.938L200.65 280.484ZM0.412324 268.824L0.866004 268.829C0.869032 268.577 1.06241 268.212 1.72283 267.754C2.3637 267.31 3.34307 266.85 4.66865 266.384C7.31409 265.455 11.2333 264.535 16.3075 263.64C26.4491 261.852 41.127 260.175 59.2729 258.698L59.2361 258.246L59.1993 257.793C41.044 259.271 26.3332 260.951 16.1498 262.747C11.0615 263.644 7.08413 264.574 4.36782 265.528C3.01253 266.005 1.94474 266.496 1.20576 267.008C0.486342 267.507 -0.0327987 268.105 -0.0413564 268.819L0.412324 268.824ZM59.2361 258.246L59.6205 258.005C58.0832 255.552 57.2303 252.747 57.2651 249.759L56.8114 249.754L56.3577 249.749C56.3208 252.921 57.2276 255.896 58.8517 258.487L59.2361 258.246ZM56.8114 249.754L57.2651 249.759C57.3778 240.059 66.8461 231.961 78.5726 231.824L78.5673 231.37L78.5621 230.917C66.4904 231.057 56.4778 239.42 56.3577 249.749L56.8114 249.754ZM78.5673 231.37L78.5726 231.824C81.3422 231.792 83.9798 232.209 86.3901 232.993L86.5305 232.562L86.6708 232.13C84.1655 231.315 81.4295 230.883 78.5621 230.917L78.5673 231.37ZM86.5305 232.562L86.5358 233.016L88.6923 232.99L88.687 232.537L88.6817 232.083L86.5252 232.108L86.5305 232.562ZM88.687 232.537L89.1136 232.382C87.6311 228.289 86.8414 223.836 86.8957 219.168L86.442 219.163L85.9883 219.158C85.9328 223.935 86.7411 228.497 88.2604 232.691L88.687 232.537ZM86.442 219.163L86.8957 219.168C87.1336 198.706 103.446 181.949 123.3 181.718L123.295 181.265L123.29 180.811C102.919 181.048 86.2317 198.226 85.9883 219.158L86.442 219.163ZM123.295 181.265L123.3 181.718C133.017 181.605 141.785 185.47 148.181 191.842L148.501 191.521L148.821 191.199C142.26 184.663 133.261 180.695 123.29 180.811L123.295 181.265ZM148.501 191.521L148.732 191.911C154.128 188.719 160.502 186.766 167.341 186.539L167.326 186.086L167.311 185.632C160.317 185.864 153.796 187.861 148.27 191.13L148.501 191.521ZM167.326 186.086L167.341 186.539C176.516 186.235 184.89 189.09 191.216 194.011L191.494 193.653L191.773 193.295C185.276 188.24 176.693 185.321 167.311 185.632L167.326 186.086ZM191.494 193.653L191.896 193.865C194.432 189.05 198.08 185.44 202.604 183.706L202.441 183.282L202.279 182.858C197.505 184.688 193.707 188.479 191.093 193.442L191.494 193.653ZM202.441 183.282L202.604 183.706C208.206 181.558 214.243 182.638 219.684 186.219L219.934 185.84L220.183 185.461C214.553 181.755 208.211 180.584 202.279 182.858L202.441 183.282ZM219.934 185.84L220.326 186.069C225.452 177.291 233.44 171.993 241.741 172.731L241.781 172.28L241.821 171.828C233.053 171.047 224.778 176.647 219.542 185.612L219.934 185.84ZM241.781 172.28L242.213 172.142C241.51 169.939 241.248 167.582 241.516 165.169L241.065 165.119L240.614 165.069C240.332 167.612 240.609 170.098 241.349 172.417L241.781 172.28ZM241.065 165.119L241.516 165.169C242.47 156.559 249.855 150.072 258.831 149.409L258.798 148.957L258.764 148.505C249.407 149.196 241.622 155.972 240.614 165.069L241.065 165.119ZM258.798 148.957L259.157 148.68C255.08 143.389 252.976 136.704 253.752 129.706L253.301 129.656L252.85 129.606C252.047 136.852 254.227 143.769 258.438 149.234L258.798 148.957ZM253.301 129.656L253.752 129.706C255.339 115.393 268.399 104.974 283.326 105.866L283.353 105.413L283.38 104.96C268.01 104.042 254.495 114.774 252.85 129.606L253.301 129.656ZM283.353 105.413L283.806 105.437L283.814 105.284L283.361 105.26L282.908 105.236L282.9 105.389L283.353 105.413ZM283.361 105.26L283.286 105.707L285.013 105.996L285.088 105.549L285.163 105.101L283.436 104.812L283.361 105.26ZM285.088 105.549L285.54 105.585C285.571 105.195 285.607 104.804 285.651 104.413L285.2 104.363L284.749 104.313C284.704 104.715 284.667 105.115 284.636 105.513L285.088 105.549ZM285.2 104.363L285.651 104.413C286.508 96.6812 289.659 89.9615 294.04 85.3449C298.421 80.7285 304.009 78.2327 309.769 78.8712L309.819 78.4203L309.869 77.9694C303.766 77.2927 297.912 79.947 293.382 84.7202C288.853 89.4932 285.626 96.4026 284.749 104.313L285.2 104.363ZM309.819 78.4203L309.769 78.8712C312.149 79.1352 314.38 79.9152 316.409 81.122L316.641 80.732L316.873 80.3421C314.738 79.0728 312.385 78.2484 309.869 77.9694L309.819 78.4203ZM316.641 80.732L317.093 80.7688C317.139 80.2033 317.191 79.6371 317.254 79.0707L316.803 79.0207L316.352 78.9707C316.288 79.5481 316.235 80.1234 316.188 80.6953L316.641 80.732ZM316.803 79.0207L317.254 79.0707C320.094 53.4533 339.318 34.727 360.032 37.0234L360.082 36.5725L360.132 36.1215C338.757 33.7519 319.228 53.0348 316.352 78.9707L316.803 79.0207ZM205.31 248.06L204.962 247.769C203.504 249.511 201.427 251.007 198.92 252.108L199.102 252.523L199.285 252.939C201.895 251.793 204.095 250.219 205.658 248.351L205.31 248.06ZM199.102 252.523L199.108 252.977C199.731 252.969 200.356 252.962 200.981 252.955L200.976 252.501L200.97 252.047C200.345 252.055 199.721 252.062 199.097 252.069L199.102 252.523ZM200.976 252.501L200.981 252.955C210.986 252.838 220.819 252.776 230.43 252.763L230.429 252.309L230.428 251.855C220.815 251.868 210.978 251.931 200.97 252.047L200.976 252.501ZM230.429 252.309L230.479 251.858L218.968 250.582L218.918 251.033L218.868 251.484L230.379 252.76L230.429 252.309ZM218.918 251.033L218.84 250.586C214.402 251.365 209.809 250.284 205.547 247.673L205.31 248.06L205.073 248.447C209.487 251.151 214.302 252.303 218.997 251.48L218.918 251.033Z" fill="#66A0D2" mask="url(#path-1-inside-1_466_587)"/>
<path d="M350.755 133.492C344.923 126.481 326.869 120.244 310.731 134.362" stroke="#78B8F1" stroke-width="0.453713"/>
<path d="M318.558 128.906C314.203 121.677 301.424 114.661 290.898 127.949" stroke="#78B8F1" stroke-width="0.453713"/>
<path d="M212.345 205.94C218.402 199.122 236.649 193.475 252.32 208.109" stroke="#78B8F1" stroke-width="0.453713"/>
<path d="M244.674 202.399C249.262 195.315 262.262 188.718 272.351 202.341" stroke="#78B8F1" stroke-width="0.453713"/>
<path d="M370.606 128.848C366.251 121.618 353.472 114.602 342.946 127.89" stroke="#78B8F1" stroke-width="0.453713"/>
<path d="M339.502 195.432C343.592 188.049 356.108 180.574 367.109 193.472" stroke="#78B8F1" stroke-width="0.453713"/>
<path d="M360.652 187.895C364.742 180.512 377.257 173.037 388.259 185.935" stroke="#78B8F1" stroke-width="0.453713"/>
</svg>
