<svg width="390" height="634" viewBox="0 0 390 634" fill="none" xmlns="http://www.w3.org/2000/svg">
<rect x="-86.785" y="0.215" width="576.799" height="632.768" fill="#225A7F" stroke="black" stroke-width="0.43"/>
<path d="M358 287.5C340.952 456.881 440.667 558.19 490 621V2H307C332.063 21.5138 373.5 133.5 358 287.5Z" fill="#4E6F98"/>
<path d="M45.2276 366.732C51.8495 199.07 -29.1969 85.8968 -85 24V634H122C93.6501 614.77 38.6057 534.394 45.2276 366.732Z" fill="#4E6F98"/>
<g filter="url(#filter0_d_814_269)">
<path d="M83.9944 125.127C85.0098 120.423 84.2765 115.119 81.906 110.02C79.5356 104.92 75.6574 100.305 70.8604 96.8738C66.0635 93.4428 60.6098 91.3839 55.3277 91.0097C50.0456 90.6355 45.2235 91.9665 41.5939 94.8005C37.9642 97.6345 35.7252 101.817 35.2169 106.712C34.7086 111.607 35.9588 116.948 38.7775 121.924C41.5963 126.9 45.8297 131.238 50.8348 134.28C55.8399 137.322 61.3433 138.902 66.5092 138.78L59.7727 114.867L83.9944 125.127Z" fill="#A5BFA0"/>
</g>
<g filter="url(#filter1_d_814_269)">
<path d="M375.918 568.52C376.253 563.441 374.314 558.353 370.398 554.027C366.481 549.701 360.8 546.374 354.218 544.551C347.635 542.728 340.511 542.509 333.926 543.926C327.342 545.344 321.657 548.321 317.736 552.406C313.814 556.49 311.87 561.459 312.198 566.558C312.526 571.656 315.109 576.606 319.554 580.655C323.999 584.704 330.064 587.632 336.827 588.993C343.59 590.354 350.682 590.074 357.027 588.196L344.059 566.423L375.918 568.52Z" fill="#7F99A8"/>
</g>
<g filter="url(#filter2_d_814_269)">
<path d="M320.98 575.296C322.066 571.703 321.88 567.833 320.449 564.274C319.018 560.714 316.421 557.658 313.052 555.571C309.684 553.484 305.727 552.48 301.784 552.71C297.841 552.941 294.126 554.394 291.204 556.849C288.282 559.303 286.312 562.626 285.593 566.311C284.875 569.997 285.447 573.845 287.223 577.269C289 580.694 291.882 583.51 295.434 585.288C298.986 587.066 303.013 587.71 306.903 587.121L303.484 570.005L320.98 575.296Z" fill="#A9BFA0"/>
</g>
<g filter="url(#filter3_d_814_269)">
<path d="M128 531C128 534.314 125.09 537 121.5 537C117.91 537 115 534.314 115 531C115 527.686 117.91 525 121.5 525C125.09 525 128 527.686 128 531Z" fill="#FCF7AF"/>
</g>
<g filter="url(#filter4_d_814_269)">
<path d="M247 65C247 68.3137 244.09 71 240.5 71C236.91 71 234 68.3137 234 65C234 61.6863 236.91 59 240.5 59C244.09 59 247 61.6863 247 65Z" fill="#FCF7AF"/>
</g>
<g opacity="0.8" filter="url(#filter5_d_814_269)">
<path d="M344 272.5C344 274.433 342.433 276 340.5 276C338.567 276 337 274.433 337 272.5C337 270.567 338.567 269 340.5 269C342.433 269 344 270.567 344 272.5Z" fill="#FCF7AF"/>
</g>
<g filter="url(#filter6_d_814_269)">
<circle cx="362.5" cy="528.5" r="3.5" fill="#FCF7AF" fill-opacity="0.8" shape-rendering="crispEdges"/>
</g>
<path fill-rule="evenodd" clip-rule="evenodd" d="M32.7605 582.55C37.1913 538.205 47.5495 477.605 58.9723 442C41.776 450.312 23.7726 512.092 12.382 568.818C4.40607 525.106 -8.0349 474.707 -19.1937 467.241C-10.8383 499.538 -3.29678 555.527 -0.452688 594.352C-7.78148 563.682 -20.0539 525.919 -31 520.573C-19.6008 552.735 -9.83004 619.502 -13.087 633.344L0.0646439 633.344L2.07275 633.344H6.04743L20.636 633.344L24.0418 633.344H31.4604H48.8114C44.5953 615.754 57.2436 530.91 72 490.04C57.9806 496.761 42.2805 543.807 32.7605 582.55Z" fill="#A9BFA0"/>
<path d="M58.9723 442L59.4484 442.153L59.8047 441.042L58.7548 441.55L58.9723 442ZM32.7605 582.55L32.263 582.501L33.246 582.67L32.7605 582.55ZM12.382 568.818L11.8902 568.908L12.8723 568.917L12.382 568.818ZM-19.1937 467.241L-18.9156 466.826L-20.0065 466.096L-19.6777 467.366L-19.1937 467.241ZM-0.452688 594.352L-0.938997 594.468L0.0459747 594.315L-0.452688 594.352ZM-31 520.573L-30.7806 520.124L-31.88 519.587L-31.4713 520.74L-31 520.573ZM-13.087 633.344L-13.5737 633.229L-13.7183 633.844H-13.087V633.344ZM0.0646439 633.344L0.0646477 632.844H0.0646439V633.344ZM2.07275 633.344L2.07275 633.844H2.07275V633.344ZM6.04743 633.344V633.844V633.344ZM20.636 633.344L20.636 632.844H20.636V633.344ZM24.0418 633.344L24.0418 633.844H24.0418V633.344ZM48.8114 633.344V633.844H49.4454L49.2976 633.227L48.8114 633.344ZM72 490.04L72.4703 490.209L72.885 489.061L71.7839 489.589L72 490.04ZM58.9723 442L58.4962 441.847C47.0581 477.5 36.6954 538.139 32.263 582.501L32.7605 582.55L33.258 582.6C37.6872 538.271 48.0408 477.71 59.4484 442.153L58.9723 442ZM12.382 568.818L12.8723 568.917C18.5652 540.565 25.9086 510.962 33.9731 487.415C38.0058 475.641 42.2137 465.396 46.4786 457.584C50.7585 449.745 55.0445 444.454 59.1899 442.45L58.9723 442L58.7548 441.55C54.302 443.702 49.889 449.25 45.6008 457.105C41.2977 464.987 37.0685 475.291 33.027 487.091C24.9431 510.695 17.5895 540.345 11.8918 568.72L12.382 568.818ZM12.382 568.818L12.8739 568.729C8.88432 546.863 3.77657 523.318 -1.732 504.298C-4.48592 494.79 -7.34366 486.4 -10.2168 479.913C-11.6533 476.669 -13.0982 473.891 -14.5417 471.683C-15.981 469.481 -17.4398 467.813 -18.9156 466.826L-19.1937 467.241L-19.4717 467.657C-18.1578 468.536 -16.7869 470.076 -15.3788 472.23C-13.9749 474.378 -12.5548 477.103 -11.1311 480.318C-8.28397 486.746 -5.44069 495.088 -2.69253 504.576C2.80307 523.551 7.90379 547.061 11.8902 568.908L12.382 568.818ZM-19.1937 467.241L-19.6777 467.366C-11.333 499.623 -3.79437 555.578 -0.951351 594.388L-0.452688 594.352L0.0459747 594.315C-2.79919 555.476 -10.3437 499.454 -18.7096 467.116L-19.1937 467.241ZM-0.452688 594.352L0.0336208 594.236C-3.63378 578.888 -8.54003 561.757 -13.9031 547.787C-16.5842 540.803 -19.3848 534.595 -22.2087 529.79C-25.0183 525.01 -27.9008 521.53 -30.7806 520.124L-31 520.573L-31.2194 521.022C-28.6262 522.289 -25.8699 525.534 -23.0708 530.297C-20.286 535.035 -17.5081 541.186 -14.8367 548.145C-9.49477 562.06 -4.60039 579.146 -0.938997 594.468L-0.452688 594.352ZM-31 520.573L-31.4713 520.74C-25.7871 536.778 -20.5003 561.474 -17.0416 583.905C-15.3128 595.117 -14.0424 605.751 -13.4075 614.443C-12.7707 623.161 -12.7796 629.854 -13.5737 633.229L-13.087 633.344L-12.6002 633.458C-11.7659 629.912 -11.7747 623.069 -12.4102 614.37C-13.0475 605.645 -14.3216 594.983 -16.0533 583.752C-19.5155 561.299 -24.8136 536.531 -30.5287 520.406L-31 520.573ZM-13.087 633.344V633.844L0.0646439 633.844V633.344V632.844L-13.087 632.844V633.344ZM0.0646439 633.344L0.06464 633.844L2.07275 633.844L2.07275 633.344L2.07275 632.844L0.0646477 632.844L0.0646439 633.344ZM2.07275 633.344V633.844H6.04743V633.344V632.844H2.07275V633.344ZM6.04743 633.344V633.844L20.636 633.844V633.344V632.844L6.04743 632.844V633.344ZM24.0418 633.344L24.0418 632.844L20.636 632.844L20.636 633.344L20.636 633.844L24.0418 633.844L24.0418 633.344ZM24.0418 633.344V633.844H31.4604V633.344V632.844H24.0418V633.344ZM31.4604 633.344V633.844H48.8114V633.344V632.844H31.4604V633.344ZM48.8114 633.344L49.2976 633.227C48.2645 628.917 48.2553 620.392 49.0795 609.316C49.9016 598.267 51.5466 584.749 53.785 570.499C58.2628 541.992 65.1081 510.6 72.4703 490.209L72 490.04L71.5297 489.87C64.1356 510.349 57.2785 541.814 52.7971 570.344C50.5558 584.613 48.907 598.159 48.0822 609.242C47.2595 620.299 47.2503 628.976 48.3252 633.46L48.8114 633.344ZM72 490.04L71.7839 489.589C68.137 491.337 64.4634 495.652 60.8649 501.623C57.2526 507.618 53.6665 515.368 50.2277 524.103C43.3492 541.576 37.038 563.047 32.2749 582.431L32.7605 582.55L33.246 582.67C38.0029 563.31 44.3018 541.886 51.1582 524.47C54.5869 515.76 58.1495 508.067 61.7214 502.14C65.3071 496.189 68.8533 492.103 72.2161 490.49L72 490.04Z" fill="#709364"/>
<defs>
<filter id="filter0_d_814_269" x="33.1001" y="90.9478" width="53.3457" height="51.851" filterUnits="userSpaceOnUse" color-interpolation-filters="sRGB">
<feFlood flood-opacity="0" result="BackgroundImageFix"/>
<feColorMatrix in="SourceAlpha" type="matrix" values="0 0 0 0 0 0 0 0 0 0 0 0 0 0 0 0 0 0 127 0" result="hardAlpha"/>
<feOffset dy="2.00635"/>
<feGaussianBlur stdDeviation="1.00318"/>
<feComposite in2="hardAlpha" operator="out"/>
<feColorMatrix type="matrix" values="0 0 0 0 0 0 0 0 0 0 0 0 0 0 0 0 0 0 0.25 0"/>
<feBlend mode="normal" in2="BackgroundImageFix" result="effect1_dropShadow_814_269"/>
<feBlend mode="normal" in="SourceGraphic" in2="effect1_dropShadow_814_269" result="shape"/>
</filter>
<filter id="filter1_d_814_269" x="310.559" y="543.003" width="66.9997" height="50.0466" filterUnits="userSpaceOnUse" color-interpolation-filters="sRGB">
<feFlood flood-opacity="0" result="BackgroundImageFix"/>
<feColorMatrix in="SourceAlpha" type="matrix" values="0 0 0 0 0 0 0 0 0 0 0 0 0 0 0 0 0 0 127 0" result="hardAlpha"/>
<feOffset dy="1.60338"/>
<feGaussianBlur stdDeviation="0.801691"/>
<feComposite in2="hardAlpha" operator="out"/>
<feColorMatrix type="matrix" values="0 0 0 0 0 0 0 0 0 0 0 0 0 0 0 0 0 0 0.25 0"/>
<feBlend mode="normal" in2="BackgroundImageFix" result="effect1_dropShadow_814_269"/>
<feBlend mode="normal" in="SourceGraphic" in2="effect1_dropShadow_814_269" result="shape"/>
</filter>
<filter id="filter2_d_814_269" x="283.689" y="552.678" width="39.5925" height="37.8623" filterUnits="userSpaceOnUse" color-interpolation-filters="sRGB">
<feFlood flood-opacity="0" result="BackgroundImageFix"/>
<feColorMatrix in="SourceAlpha" type="matrix" values="0 0 0 0 0 0 0 0 0 0 0 0 0 0 0 0 0 0 127 0" result="hardAlpha"/>
<feOffset dy="1.60338"/>
<feGaussianBlur stdDeviation="0.801691"/>
<feComposite in2="hardAlpha" operator="out"/>
<feColorMatrix type="matrix" values="0 0 0 0 0 0 0 0 0 0 0 0 0 0 0 0 0 0 0.25 0"/>
<feBlend mode="normal" in2="BackgroundImageFix" result="effect1_dropShadow_814_269"/>
<feBlend mode="normal" in="SourceGraphic" in2="effect1_dropShadow_814_269" result="shape"/>
</filter>
<filter id="filter3_d_814_269" x="92.1" y="502.1" width="58.8" height="57.8" filterUnits="userSpaceOnUse" color-interpolation-filters="sRGB">
<feFlood flood-opacity="0" result="BackgroundImageFix"/>
<feColorMatrix in="SourceAlpha" type="matrix" values="0 0 0 0 0 0 0 0 0 0 0 0 0 0 0 0 0 0 127 0" result="hardAlpha"/>
<feOffset/>
<feGaussianBlur stdDeviation="11.45"/>
<feComposite in2="hardAlpha" operator="out"/>
<feColorMatrix type="matrix" values="0 0 0 0 0.988235 0 0 0 0 0.968627 0 0 0 0 0.686275 0 0 0 1 0"/>
<feBlend mode="normal" in2="BackgroundImageFix" result="effect1_dropShadow_814_269"/>
<feBlend mode="normal" in="SourceGraphic" in2="effect1_dropShadow_814_269" result="shape"/>
</filter>
<filter id="filter4_d_814_269" x="211.1" y="36.1" width="58.8" height="57.8" filterUnits="userSpaceOnUse" color-interpolation-filters="sRGB">
<feFlood flood-opacity="0" result="BackgroundImageFix"/>
<feColorMatrix in="SourceAlpha" type="matrix" values="0 0 0 0 0 0 0 0 0 0 0 0 0 0 0 0 0 0 127 0" result="hardAlpha"/>
<feOffset/>
<feGaussianBlur stdDeviation="11.45"/>
<feComposite in2="hardAlpha" operator="out"/>
<feColorMatrix type="matrix" values="0 0 0 0 0.988235 0 0 0 0 0.968627 0 0 0 0 0.686275 0 0 0 1 0"/>
<feBlend mode="normal" in2="BackgroundImageFix" result="effect1_dropShadow_814_269"/>
<feBlend mode="normal" in="SourceGraphic" in2="effect1_dropShadow_814_269" result="shape"/>
</filter>
<filter id="filter5_d_814_269" x="314.1" y="246.1" width="52.8" height="52.8" filterUnits="userSpaceOnUse" color-interpolation-filters="sRGB">
<feFlood flood-opacity="0" result="BackgroundImageFix"/>
<feColorMatrix in="SourceAlpha" type="matrix" values="0 0 0 0 0 0 0 0 0 0 0 0 0 0 0 0 0 0 127 0" result="hardAlpha"/>
<feOffset/>
<feGaussianBlur stdDeviation="11.45"/>
<feComposite in2="hardAlpha" operator="out"/>
<feColorMatrix type="matrix" values="0 0 0 0 0.988235 0 0 0 0 0.968627 0 0 0 0 0.686275 0 0 0 1 0"/>
<feBlend mode="normal" in2="BackgroundImageFix" result="effect1_dropShadow_814_269"/>
<feBlend mode="normal" in="SourceGraphic" in2="effect1_dropShadow_814_269" result="shape"/>
</filter>
<filter id="filter6_d_814_269" x="326.5" y="492.5" width="72" height="72" filterUnits="userSpaceOnUse" color-interpolation-filters="sRGB">
<feFlood flood-opacity="0" result="BackgroundImageFix"/>
<feColorMatrix in="SourceAlpha" type="matrix" values="0 0 0 0 0 0 0 0 0 0 0 0 0 0 0 0 0 0 127 0" result="hardAlpha"/>
<feMorphology radius="7.5" operator="dilate" in="SourceAlpha" result="effect1_dropShadow_814_269"/>
<feOffset/>
<feGaussianBlur stdDeviation="12.5"/>
<feComposite in2="hardAlpha" operator="out"/>
<feColorMatrix type="matrix" values="0 0 0 0 0.988235 0 0 0 0 0.968627 0 0 0 0 0.686275 0 0 0 1 0"/>
<feBlend mode="normal" in2="BackgroundImageFix" result="effect1_dropShadow_814_269"/>
<feBlend mode="normal" in="SourceGraphic" in2="effect1_dropShadow_814_269" result="shape"/>
</filter>
</defs>
</svg>
