<svg xmlns="http://www.w3.org/2000/svg" fill="none" viewBox="0 83.634 1515.1565762004175 635.9340000000001" style="max-height: 500px" width="1515.1565762004175" height="635.9340000000001">
<path fill="#4E6F98" d="M1211.15 354.716C1195.85 525.169 1383.09 640.226 1512 703.153V83H1033.79C1099.29 102.55 1226.45 184.264 1211.15 354.716Z"/>
<path fill="#4E6F98" d="M305.84 445.284C321.391 274.831 131.053 159.774 -0.00112915 96.8471V717H486.141C419.561 697.45 290.288 615.736 305.84 445.284Z"/>
<line stroke-width="10" stroke="#A9BFA0" transform="matrix(0.0202601 -0.999795 0.999797 0.0201359 1429.54 628.972)" y2="-5" x2="152.349" y1="-5"/>
<path stroke="#C17830" fill="#DDB087" d="M1429.16 394.071C1433.63 394.071 1437.85 397.397 1440.96 406.018C1444.08 414.628 1446.02 428.358 1446.02 448.768C1446.02 469.177 1444.08 483.004 1440.96 491.711C1437.84 500.434 1433.63 503.849 1429.16 503.849C1424.69 503.849 1420.47 500.434 1417.35 491.711C1414.24 483.004 1412.29 469.176 1412.29 448.768C1412.29 428.358 1414.24 414.628 1417.35 406.018C1420.47 397.397 1424.68 394.071 1429.16 394.071Z"/>
<g filter="url(#filter0_d_0_1)">
<path fill="#A5BFA0" d="M437.245 228.182C440.021 218.999 439.156 208.988 434.78 199.67C430.403 190.352 422.755 182.235 412.997 176.553C403.239 170.871 391.903 167.934 380.712 168.188C369.521 168.442 359.085 171.872 350.99 177.959C342.895 184.046 337.583 192.456 335.86 201.912C334.137 211.369 336.097 221.355 341.444 230.354C346.79 239.353 355.23 246.874 365.483 251.774C375.735 256.674 387.239 258.686 398.248 257.504L387.046 213.003L437.245 228.182Z"/>
</g>
<g filter="url(#filter1_d_0_1)">
<path fill="#7F99A8" d="M1274.79 637.654C1275.63 624.985 1270.79 612.291 1261.02 601.499C1251.25 590.707 1237.08 582.407 1220.65 577.859C1204.23 573.311 1186.46 572.764 1170.03 576.3C1153.61 579.837 1139.43 587.264 1129.64 597.454C1119.86 607.644 1115.01 620.04 1115.83 632.76C1116.65 645.479 1123.09 657.827 1134.18 667.929C1145.27 678.03 1160.4 685.333 1177.27 688.729C1194.14 692.124 1211.84 691.427 1227.66 686.742L1195.31 632.423L1274.79 637.654Z"/>
</g>
<g filter="url(#filter2_d_0_1)">
<path fill="#A9BFA0" d="M1137.74 654.559C1140.45 645.598 1139.98 635.943 1136.41 627.062C1132.85 618.181 1126.37 610.558 1117.96 605.352C1109.56 600.145 1099.69 597.639 1089.85 598.214C1080.01 598.79 1070.75 602.415 1063.46 608.539C1056.17 614.663 1051.25 622.952 1049.46 632.146C1047.67 641.341 1049.1 650.939 1053.53 659.483C1057.96 668.027 1065.15 675.051 1074.01 679.486C1082.87 683.922 1092.92 685.528 1102.62 684.061L1094.09 641.362L1137.74 654.559Z"/>
</g>
<path stroke-width="10" stroke="#A9BFA0" d="M276.001 569.5L276.001 429.9"/>
<path stroke="#C17830" fill="#DDB087" d="M276 297.5C278.453 297.5 280.823 298.589 283.02 301.098C285.227 303.618 287.247 307.56 288.956 313.214C292.373 324.52 294.5 342.524 294.5 369.249C294.5 395.973 292.373 414.103 288.956 425.536C287.247 431.254 285.226 435.259 283.017 437.827C280.818 440.383 278.448 441.5 276 441.5C273.552 441.5 271.182 440.383 268.983 437.827C266.774 435.259 264.753 431.254 263.044 425.536C259.627 414.103 257.5 395.973 257.5 369.249C257.5 342.524 259.627 324.52 263.044 313.214C264.753 307.56 266.773 303.618 268.98 301.098C271.177 298.589 273.547 297.5 276 297.5Z"/>
<line stroke-width="10" stroke="#A9BFA0" y2="590.899" x2="380.001" y1="788.899" x1="376.001"/>
<path stroke="#C17830" fill="#DDB087" d="M380.5 483.5C386.392 483.5 391.893 487.914 395.939 499.183C399.982 510.439 402.5 528.371 402.5 555C402.5 581.628 399.982 599.686 395.938 611.068C391.889 622.468 386.387 627 380.5 627C374.613 627 369.111 622.468 365.062 611.068C361.018 599.686 358.5 581.628 358.5 555C358.5 528.371 361.018 510.439 365.061 499.183C369.107 487.914 374.608 483.5 380.5 483.5Z"/>
<line stroke-width="10" stroke="#A9BFA0" y2="336.899" x2="1361" y1="534.899" x1="1357"/>
<path stroke="#C17830" fill="#DDB087" d="M1361.5 229.5C1367.39 229.5 1372.89 233.914 1376.94 245.183C1380.98 256.439 1383.5 274.371 1383.5 301C1383.5 327.628 1380.98 345.686 1376.94 357.068C1372.89 368.468 1367.39 373 1361.5 373C1355.61 373 1350.11 368.468 1346.06 357.068C1342.02 345.686 1339.5 327.628 1339.5 301C1339.5 274.371 1342.02 256.439 1346.06 245.183C1350.11 233.914 1355.61 229.5 1361.5 229.5Z"/>
<line stroke-width="10" stroke="#A9BFA0" y2="199.899" x2="1282" y1="397.899" x1="1278"/>
<path stroke="#C17830" fill="#DDB087" d="M1282.5 92.5C1288.39 92.5 1293.89 96.9144 1297.94 108.183C1301.98 119.439 1304.5 137.371 1304.5 164C1304.5 190.628 1301.98 208.686 1297.94 220.068C1293.89 231.468 1288.39 236 1282.5 236C1276.61 236 1271.11 231.468 1267.06 220.068C1263.02 208.686 1260.5 190.628 1260.5 164C1260.5 137.371 1263.02 119.439 1267.06 108.183C1271.11 96.9144 1276.61 92.5 1282.5 92.5Z"/>
<line stroke-width="10" stroke="#A9BFA0" y2="240.582" x2="197.601" y1="420.9" x1="194.001"/>
<path stroke="#C17830" fill="#DDB087" d="M196 145.5C198.315 145.5 200.554 146.526 202.631 148.891C204.719 151.268 206.631 154.988 208.249 160.328C211.485 171.007 213.5 188.014 213.5 213.263C213.5 238.512 211.485 255.638 208.249 266.437C206.631 271.836 204.717 275.617 202.628 278.039C200.549 280.449 198.311 281.5 196 281.5C193.689 281.5 191.451 280.449 189.372 278.039C187.283 275.617 185.369 271.836 183.751 266.437C180.515 255.638 178.5 238.512 178.5 213.263C178.5 188.014 180.515 171.007 183.751 160.328C185.369 154.988 187.281 151.268 189.369 148.891C191.446 146.526 193.685 145.5 196 145.5Z"/>
<path stroke-width="10" stroke="#A9BFA0" d="M87 281.899L91 83.8989"/>
<path stroke="#C17830" fill="#DDB087" d="M90.5 0.5C96.3919 0.5 101.893 4.91436 105.939 16.1826C109.982 27.4392 112.5 45.3713 112.5 72C112.5 98.6282 109.982 116.686 105.938 128.068C101.889 139.468 96.3865 144 90.5 144C84.6135 144 79.1107 139.468 75.0615 128.068C71.0184 116.686 68.5 98.6282 68.5 72C68.5 45.3713 71.0181 27.4392 75.0605 16.1826C79.1073 4.91436 84.6081 0.5 90.5 0.5Z"/>
<path fill="#A9BFA0" d="M1483 255.069C1488.42 203.619 1501.09 133.31 1515.06 92C1494.03 101.643 1472 173.323 1458.07 239.139C1448.31 188.422 1433.09 129.948 1419.44 121.285C1429.66 158.755 1438.89 223.71 1442.37 268.755C1433.4 233.173 1418.39 189.364 1405 183.162C1418.94 220.477 1430.9 297.94 1426.91 314L1445.46 314H1481.41L1502.63 314C1497.48 293.592 1512.95 195.154 1531 147.736C1513.85 155.534 1494.64 210.118 1483 255.069Z" clip-rule="evenodd" fill-rule="evenodd"/>
<path fill="#709364" d="M1515.06 92L1515.54 92.1602L1515.91 91.0627L1514.85 91.5455L1515.06 92ZM1483 255.069L1482.5 255.016L1483.48 255.194L1483 255.069ZM1458.07 239.139L1457.58 239.234L1458.56 239.243L1458.07 239.139ZM1419.44 121.285L1419.71 120.863L1418.62 120.171L1418.96 121.417L1419.44 121.285ZM1442.37 268.755L1441.88 268.877L1442.87 268.716L1442.37 268.755ZM1405 183.162L1405.21 182.708L1404.11 182.196L1404.53 183.337L1405 183.162ZM1426.91 314L1426.43 313.88L1426.27 314.5H1426.91V314ZM1445.46 314V314.5V314ZM1481.41 314V314.5V314ZM1502.63 314V314.5H1503.28L1503.12 313.877L1502.63 314ZM1531 147.736L1531.47 147.914L1531.9 146.778L1530.79 147.281L1531 147.736ZM1514.59 91.8398C1500.6 133.199 1487.92 203.549 1482.5 255.016L1483.5 255.121C1488.91 203.688 1501.58 133.42 1515.54 92.1602L1514.59 91.8398ZM1458.56 239.243C1465.52 206.347 1474.51 171.997 1484.37 144.675C1489.31 131.012 1494.46 119.122 1499.68 110.053C1504.91 100.959 1510.17 94.7953 1515.27 92.4545L1514.85 91.5455C1509.44 94.0264 1504.06 100.439 1498.81 109.554C1493.55 118.694 1488.38 130.645 1483.43 144.335C1473.54 171.717 1464.55 206.115 1457.58 239.036L1458.56 239.243ZM1458.56 239.045C1453.68 213.677 1447.43 186.36 1440.69 164.296C1437.32 153.265 1433.83 143.533 1430.32 136.011C1428.56 132.249 1426.79 129.03 1425.03 126.472C1423.27 123.92 1421.5 121.997 1419.71 120.863L1419.17 121.707C1420.8 122.738 1422.48 124.538 1424.21 127.04C1425.93 129.536 1427.67 132.702 1429.41 136.434C1432.9 143.896 1436.37 153.578 1439.74 164.588C1446.46 186.605 1452.7 213.884 1457.58 239.234L1458.56 239.045ZM1418.96 121.417C1429.17 158.844 1438.39 223.764 1441.87 268.793L1442.87 268.716C1439.38 223.656 1430.16 158.666 1419.92 121.153L1418.96 121.417ZM1442.85 268.633C1438.37 250.828 1432.36 230.957 1425.81 214.753C1422.53 206.652 1419.1 199.454 1415.65 193.885C1412.21 188.338 1408.7 184.324 1405.21 182.708L1404.79 183.615C1407.99 185.1 1411.38 188.888 1414.8 194.412C1418.21 199.913 1421.61 207.054 1424.88 215.128C1431.41 231.275 1437.4 251.099 1441.88 268.877L1442.85 268.633ZM1404.53 183.337C1411.49 201.949 1417.96 230.606 1422.19 256.632C1424.3 269.641 1425.86 281.981 1426.63 292.067C1427.02 297.11 1427.21 301.585 1427.19 305.294C1427.16 309.012 1426.91 311.931 1426.43 313.88L1427.4 314.12C1427.91 312.054 1428.16 309.039 1428.19 305.301C1428.21 301.555 1428.02 297.051 1427.63 291.99C1426.85 281.869 1425.29 269.5 1423.17 256.471C1418.94 230.422 1412.46 201.689 1405.47 182.987L1404.53 183.337ZM1426.91 314.5L1445.46 314.5V313.5L1426.91 313.5V314.5ZM1481.41 313.5H1445.46V314.5H1481.41V313.5ZM1481.41 314.5L1502.63 314.5V313.5L1481.41 313.5V314.5ZM1503.12 313.877C1502.49 311.386 1502.17 307.665 1502.13 302.938C1502.1 298.219 1502.35 292.53 1502.85 286.119C1503.86 273.298 1505.87 257.613 1508.61 241.079C1514.08 208.003 1522.46 171.577 1531.47 147.914L1530.53 147.558C1521.49 171.313 1513.1 207.815 1507.62 240.915C1504.88 257.469 1502.86 273.183 1501.85 286.041C1501.35 292.469 1501.1 298.189 1501.13 302.945C1501.17 307.693 1501.49 311.512 1502.15 314.122L1503.12 313.877ZM1530.79 147.281C1526.36 149.295 1521.88 154.278 1517.48 161.207C1513.06 168.157 1508.68 177.145 1504.47 187.278C1496.06 207.547 1488.34 232.455 1482.51 254.943L1483.48 255.194C1489.3 232.732 1497.01 207.872 1505.4 187.662C1509.59 177.555 1513.95 168.626 1518.32 161.743C1522.71 154.841 1527.06 150.077 1531.21 148.191L1530.79 147.281Z"/>
<path fill="#A9BFA0" d="M55.3078 654.618C60.7495 600.155 73.4709 525.729 87.5 482C66.3802 492.208 44.2693 568.083 30.2799 637.753C20.4841 584.067 5.20471 522.17 -8.5 513C1.76165 552.666 11.0239 621.429 14.5168 669.112C5.51595 631.445 -9.55655 585.065 -23 578.5C-9 618 3 700 -1 717H15.1522H17.6185H22.5H40.4171H44.5999H53.7111H75.0208C69.8428 695.397 85.3769 591.195 103.5 541C86.282 549.254 66.9998 607.035 55.3078 654.618Z" clip-rule="evenodd" fill-rule="evenodd"/>
<path fill="#709364" d="M87.5 482L87.9761 482.153L88.3323 481.042L87.2824 481.55L87.5 482ZM55.3078 654.618L54.8102 654.568L55.7933 654.737L55.3078 654.618ZM30.2799 637.753L29.788 637.842L30.7701 637.851L30.2799 637.753ZM-8.5 513L-8.22195 512.584L-9.31278 511.855L-8.98406 513.125L-8.5 513ZM14.5168 669.112L14.0305 669.228L15.0155 669.075L14.5168 669.112ZM-23 578.5L-22.7806 578.051L-23.88 577.514L-23.4713 578.667L-23 578.5ZM-1 717L-1.48671 716.885L-1.6313 717.5H-1V717ZM75.0208 717V717.5H75.6548L75.507 716.883L75.0208 717ZM103.5 541L103.97 541.17L104.385 540.021L103.284 540.549L103.5 541ZM87.0239 481.847C72.9795 525.623 60.2536 600.089 54.8102 654.568L55.8053 654.667C61.2454 600.221 73.9623 525.834 87.9761 482.153L87.0239 481.847ZM30.7701 637.851C37.7624 603.028 46.7824 566.665 56.6891 537.74C61.6429 523.276 66.8133 510.687 72.0556 501.085C77.3129 491.455 82.5913 484.928 87.7176 482.45L87.2824 481.55C81.8488 484.176 76.4434 490.961 71.1779 500.606C65.8973 510.278 60.7056 522.927 55.743 537.416C45.8169 566.398 36.7868 602.808 29.7897 637.654L30.7701 637.851ZM30.7718 637.663C25.8723 610.811 19.6 581.897 12.8361 558.544C9.45449 546.868 5.94639 536.569 2.42068 528.609C0.65786 524.629 -1.11386 521.223 -2.88218 518.518C-4.6463 515.819 -6.42789 513.785 -8.22195 512.584L-8.77805 513.416C-7.14593 514.508 -5.45213 516.414 -3.71922 519.065C-1.99052 521.709 -0.243576 525.063 1.50634 529.014C5.00608 536.916 8.49972 547.166 11.8755 558.822C18.6265 582.131 24.8917 611.008 29.788 637.842L30.7718 637.663ZM-8.98406 513.125C1.26702 552.75 10.5263 621.48 14.0182 669.148L15.0155 669.075C11.5215 621.378 2.25629 552.582 -8.01594 512.875L-8.98406 513.125ZM15.0032 668.995C10.4997 650.149 4.47542 629.115 -2.10883 611.964C-5.4005 603.389 -8.83749 595.771 -12.3012 589.878C-15.7507 584.009 -19.2764 579.762 -22.7806 578.051L-23.2194 578.949C-20.0019 580.521 -16.6022 584.533 -13.1633 590.384C-9.73874 596.211 -6.3244 603.773 -3.0424 612.322C3.52068 629.418 9.5331 650.407 14.0305 669.228L15.0032 668.995ZM-23.4713 578.667C-16.4867 598.373 -9.99242 628.712 -5.74416 656.264C-3.62058 670.036 -2.05995 683.1 -1.27992 693.779C-0.497993 704.483 -0.506849 712.721 -1.48671 716.885L-0.513292 717.115C0.506849 712.779 0.497993 704.392 -0.282579 693.706C-1.06505 682.994 -2.62942 669.902 -4.75584 656.111C-9.00758 628.538 -15.5133 598.127 -22.5287 578.333L-23.4713 578.667ZM-1 717.5H15.1522V716.5H-1V717.5ZM15.1522 717.5H17.6185V716.5H15.1522V717.5ZM17.6185 717.5H22.5V716.5H17.6185V717.5ZM22.5 717.5H40.4171V716.5H22.5V717.5ZM44.5999 716.5H40.4171V717.5H44.5999V716.5ZM44.5999 717.5H53.7111V716.5H44.5999V717.5ZM53.7111 717.5H75.0208V716.5H53.7111V717.5ZM75.507 716.883C74.2334 711.57 74.2242 701.083 75.2363 687.482C76.2463 673.908 78.2671 657.303 81.0164 639.8C86.5163 604.786 94.9247 566.223 103.97 541.17L103.03 540.83C93.9522 565.972 85.532 604.608 80.0285 639.644C77.2762 657.166 75.2516 673.8 74.239 687.408C73.2284 700.99 73.2192 711.629 74.5346 717.117L75.507 716.883ZM103.284 540.549C98.8374 542.681 94.3401 547.954 89.9221 555.286C85.4902 562.64 81.0886 572.152 76.8664 582.877C68.4211 604.33 60.6713 630.694 54.8222 654.498L55.7933 654.737C61.6362 630.958 69.3736 604.64 77.7969 583.244C82.009 572.544 86.3871 563.089 90.7786 555.802C95.1839 548.491 99.5536 543.446 103.716 541.451L103.284 540.549Z"/>
<g filter="url(#filter3_d_0_1)">
<ellipse fill="#FCF7AF" ry="6" rx="6.5" cy="343" cx="398.5"/>
</g>
<g filter="url(#filter4_d_0_1)">
<ellipse fill="#FCF7AF" ry="6" rx="6.5" cy="615" cx="192.5"/>
</g>
<g filter="url(#filter5_d_0_1)">
<ellipse fill="#FCF7AF" ry="6" rx="6.5" cy="132" cx="1205.5"/>
</g>
<g filter="url(#filter6_d_0_1)">
<ellipse fill="#FCF7AF" ry="6" rx="6.5" cy="638" cx="964.5"/>
</g>
<defs>
<filter color-interpolation-filters="sRGB" filterUnits="userSpaceOnUse" height="97.6611" width="111.588" y="168.173" x="331.252" id="filter0_d_0_1">
<feFlood result="BackgroundImageFix" flood-opacity="0"/>
<feColorMatrix result="hardAlpha" values="0 0 0 0 0 0 0 0 0 0 0 0 0 0 0 0 0 0 127 0" type="matrix" in="SourceAlpha"/>
<feOffset dy="4"/>
<feGaussianBlur stdDeviation="2"/>
<feComposite operator="out" in2="hardAlpha"/>
<feColorMatrix values="0 0 0 0 0 0 0 0 0 0 0 0 0 0 0 0 0 0 0.25 0" type="matrix"/>
<feBlend result="effect1_dropShadow_0_1" in2="BackgroundImageFix" mode="normal"/>
<feBlend result="shape" in2="effect1_dropShadow_0_1" in="SourceGraphic" mode="normal"/>
</filter>
<filter color-interpolation-filters="sRGB" filterUnits="userSpaceOnUse" height="124.853" width="167.146" y="573.997" x="1111.74" id="filter1_d_0_1">
<feFlood result="BackgroundImageFix" flood-opacity="0"/>
<feColorMatrix result="hardAlpha" values="0 0 0 0 0 0 0 0 0 0 0 0 0 0 0 0 0 0 127 0" type="matrix" in="SourceAlpha"/>
<feOffset dy="4"/>
<feGaussianBlur stdDeviation="2"/>
<feComposite operator="out" in2="hardAlpha"/>
<feColorMatrix values="0 0 0 0 0 0 0 0 0 0 0 0 0 0 0 0 0 0 0.25 0" type="matrix"/>
<feBlend result="effect1_dropShadow_0_1" in2="BackgroundImageFix" mode="normal"/>
<feBlend result="shape" in2="effect1_dropShadow_0_1" in="SourceGraphic" mode="normal"/>
</filter>
<filter color-interpolation-filters="sRGB" filterUnits="userSpaceOnUse" height="94.4561" width="98.7734" y="598.134" x="1044.71" id="filter2_d_0_1">
<feFlood result="BackgroundImageFix" flood-opacity="0"/>
<feColorMatrix result="hardAlpha" values="0 0 0 0 0 0 0 0 0 0 0 0 0 0 0 0 0 0 127 0" type="matrix" in="SourceAlpha"/>
<feOffset dy="4"/>
<feGaussianBlur stdDeviation="2"/>
<feComposite operator="out" in2="hardAlpha"/>
<feColorMatrix values="0 0 0 0 0 0 0 0 0 0 0 0 0 0 0 0 0 0 0.25 0" type="matrix"/>
<feBlend result="effect1_dropShadow_0_1" in2="BackgroundImageFix" mode="normal"/>
<feBlend result="shape" in2="effect1_dropShadow_0_1" in="SourceGraphic" mode="normal"/>
</filter>
<filter color-interpolation-filters="sRGB" filterUnits="userSpaceOnUse" height="73.8" width="74.8" y="306.1" x="361.1" id="filter3_d_0_1">
<feFlood result="BackgroundImageFix" flood-opacity="0"/>
<feColorMatrix result="hardAlpha" values="0 0 0 0 0 0 0 0 0 0 0 0 0 0 0 0 0 0 127 0" type="matrix" in="SourceAlpha"/>
<feMorphology result="effect1_dropShadow_0_1" in="SourceAlpha" operator="dilate" radius="8"/>
<feOffset/>
<feGaussianBlur stdDeviation="11.45"/>
<feComposite operator="out" in2="hardAlpha"/>
<feColorMatrix values="0 0 0 0 0.988235 0 0 0 0 0.968627 0 0 0 0 0.686275 0 0 0 1 0" type="matrix"/>
<feBlend result="effect1_dropShadow_0_1" in2="BackgroundImageFix" mode="normal"/>
<feBlend result="shape" in2="effect1_dropShadow_0_1" in="SourceGraphic" mode="normal"/>
</filter>
<filter color-interpolation-filters="sRGB" filterUnits="userSpaceOnUse" height="73.8" width="74.8" y="578.1" x="155.1" id="filter4_d_0_1">
<feFlood result="BackgroundImageFix" flood-opacity="0"/>
<feColorMatrix result="hardAlpha" values="0 0 0 0 0 0 0 0 0 0 0 0 0 0 0 0 0 0 127 0" type="matrix" in="SourceAlpha"/>
<feMorphology result="effect1_dropShadow_0_1" in="SourceAlpha" operator="dilate" radius="8"/>
<feOffset/>
<feGaussianBlur stdDeviation="11.45"/>
<feComposite operator="out" in2="hardAlpha"/>
<feColorMatrix values="0 0 0 0 0.988235 0 0 0 0 0.968627 0 0 0 0 0.686275 0 0 0 1 0" type="matrix"/>
<feBlend result="effect1_dropShadow_0_1" in2="BackgroundImageFix" mode="normal"/>
<feBlend result="shape" in2="effect1_dropShadow_0_1" in="SourceGraphic" mode="normal"/>
</filter>
<filter color-interpolation-filters="sRGB" filterUnits="userSpaceOnUse" height="73.8" width="74.8" y="95.1" x="1168.1" id="filter5_d_0_1">
<feFlood result="BackgroundImageFix" flood-opacity="0"/>
<feColorMatrix result="hardAlpha" values="0 0 0 0 0 0 0 0 0 0 0 0 0 0 0 0 0 0 127 0" type="matrix" in="SourceAlpha"/>
<feMorphology result="effect1_dropShadow_0_1" in="SourceAlpha" operator="dilate" radius="8"/>
<feOffset/>
<feGaussianBlur stdDeviation="11.45"/>
<feComposite operator="out" in2="hardAlpha"/>
<feColorMatrix values="0 0 0 0 0.988235 0 0 0 0 0.968627 0 0 0 0 0.686275 0 0 0 1 0" type="matrix"/>
<feBlend result="effect1_dropShadow_0_1" in2="BackgroundImageFix" mode="normal"/>
<feBlend result="shape" in2="effect1_dropShadow_0_1" in="SourceGraphic" mode="normal"/>
</filter>
<filter color-interpolation-filters="sRGB" filterUnits="userSpaceOnUse" height="73.8" width="74.8" y="601.1" x="927.1" id="filter6_d_0_1">
<feFlood result="BackgroundImageFix" flood-opacity="0"/>
<feColorMatrix result="hardAlpha" values="0 0 0 0 0 0 0 0 0 0 0 0 0 0 0 0 0 0 127 0" type="matrix" in="SourceAlpha"/>
<feMorphology result="effect1_dropShadow_0_1" in="SourceAlpha" operator="dilate" radius="8"/>
<feOffset/>
<feGaussianBlur stdDeviation="11.45"/>
<feComposite operator="out" in2="hardAlpha"/>
<feColorMatrix values="0 0 0 0 0.988235 0 0 0 0 0.968627 0 0 0 0 0.686275 0 0 0 1 0" type="matrix"/>
<feBlend result="effect1_dropShadow_0_1" in2="BackgroundImageFix" mode="normal"/>
<feBlend result="shape" in2="effect1_dropShadow_0_1" in="SourceGraphic" mode="normal"/>
</filter>
</defs>


</svg>