<svg width="119" height="75" viewBox="0 0 119 75" fill="none" xmlns="http://www.w3.org/2000/svg">
<mask id="path-1-inside-1_5_433" fill="white">
<path fill-rule="evenodd" clip-rule="evenodd" d="M63.1516 5.34123C63.8528 4.95535 64.5761 4.59423 65.3209 4.25979C78.753 -1.77195 94.0521 3.15966 99.4925 15.2749C100.75 18.0754 101.371 21.0146 101.416 23.9532C107.883 25.8527 113.335 30.1975 116.149 36.4643C121.59 48.5795 115.111 63.2905 101.679 69.3222C92.5113 73.4391 82.4737 72.4487 75.2947 67.5528C73.2309 69.3213 70.8614 70.8404 68.2237 72.0249C56.887 77.1157 44.2202 74.3968 37.2733 66.1407C37.023 66.2616 36.7701 66.3794 36.5147 66.4941C23.0827 72.5259 7.78352 67.5942 2.34313 55.4791C-3.09726 43.3639 3.38126 28.6529 16.8133 22.6211C18.0917 22.0471 19.387 21.5723 20.6891 21.1936C22.6368 13.7062 28.2116 6.9013 36.3209 3.25979C45.6803 -0.943088 55.9461 0.176969 63.1516 5.34123Z"/>
</mask>
<path fill-rule="evenodd" clip-rule="evenodd" d="M63.1516 5.34123C63.8528 4.95535 64.5761 4.59423 65.3209 4.25979C78.753 -1.77195 94.0521 3.15966 99.4925 15.2749C100.75 18.0754 101.371 21.0146 101.416 23.9532C107.883 25.8527 113.335 30.1975 116.149 36.4643C121.59 48.5795 115.111 63.2905 101.679 69.3222C92.5113 73.4391 82.4737 72.4487 75.2947 67.5528C73.2309 69.3213 70.8614 70.8404 68.2237 72.0249C56.887 77.1157 44.2202 74.3968 37.2733 66.1407C37.023 66.2616 36.7701 66.3794 36.5147 66.4941C23.0827 72.5259 7.78352 67.5942 2.34313 55.4791C-3.09726 43.3639 3.38126 28.6529 16.8133 22.6211C18.0917 22.0471 19.387 21.5723 20.6891 21.1936C22.6368 13.7062 28.2116 6.9013 36.3209 3.25979C45.6803 -0.943088 55.9461 0.176969 63.1516 5.34123Z" fill="#FFF2C9"/>
<path d="M63.1516 5.34123L62.569 6.15403L63.0814 6.52128L63.6337 6.21732L63.1516 5.34123ZM65.3209 4.25979L65.7305 5.17203L65.7306 5.17203L65.3209 4.25979ZM99.4925 15.2749L98.5803 15.6845V15.6845L99.4925 15.2749ZM101.416 23.9532L100.416 23.9686L100.427 24.7051L101.134 24.9127L101.416 23.9532ZM116.149 36.4643L115.237 36.874L116.149 36.4643ZM101.679 69.3222L101.269 68.41L101.679 69.3222ZM75.2947 67.5528L75.8581 66.7267L75.2255 66.2952L74.644 66.7935L75.2947 67.5528ZM68.2237 72.0249L68.6334 72.9371L68.2237 72.0249ZM37.2733 66.1407L38.0385 65.4969L37.5382 64.9023L36.8385 65.2402L37.2733 66.1407ZM36.5147 66.4941L36.9244 67.4064L36.9244 67.4064L36.5147 66.4941ZM2.34313 55.4791L3.25537 55.0694L2.34313 55.4791ZM16.8133 22.6211L16.4037 21.7089L16.8133 22.6211ZM20.6891 21.1936L20.9683 22.1538L21.5138 21.9952L21.6569 21.4454L20.6891 21.1936ZM36.3209 3.25979L36.7305 4.17203L36.3209 3.25979ZM63.6337 6.21732C64.3113 5.84446 65.0104 5.4954 65.7305 5.17203L64.9113 3.34754C64.1418 3.69306 63.3943 4.06625 62.6694 4.46515L63.6337 6.21732ZM65.7306 5.17203C78.7496 -0.674257 93.4049 4.15939 98.5803 15.6845L100.405 14.8652C94.6994 2.15992 78.7563 -2.86965 64.9113 3.34754L65.7306 5.17203ZM98.5803 15.6845C99.7804 18.3571 100.373 21.1617 100.416 23.9686L102.416 23.9379C102.369 20.8675 101.72 17.7937 100.405 14.8652L98.5803 15.6845ZM101.134 24.9127C107.352 26.7389 112.555 30.9018 115.237 36.874L117.061 36.0547C114.115 29.4932 108.414 24.9665 101.698 22.9938L101.134 24.9127ZM115.237 36.874C120.412 48.3991 114.288 62.5637 101.269 68.41L102.089 70.2345C115.934 64.0173 122.767 48.7599 117.061 36.0547L115.237 36.874ZM101.269 68.41C92.4011 72.3923 82.7341 71.4158 75.8581 66.7267L74.7313 68.379C82.2134 73.4815 92.6214 74.4858 102.089 70.2345L101.269 68.41ZM74.644 66.7935C72.6526 68.4999 70.3642 69.9675 67.8141 71.1126L68.6334 72.9371C71.3585 71.7134 73.8092 70.1427 75.9454 68.3122L74.644 66.7935ZM67.8141 71.1126C56.8385 76.0413 44.6662 73.3737 38.0385 65.4969L36.5082 66.7846C43.7742 75.42 56.9355 78.1901 68.6334 72.9371L67.8141 71.1126ZM36.8385 65.2402C36.5965 65.3571 36.352 65.471 36.1051 65.5819L36.9244 67.4064C37.1882 67.2879 37.4495 67.1661 37.7082 67.0412L36.8385 65.2402ZM36.1051 65.5819C23.086 71.4282 8.43079 66.5945 3.25537 55.0694L1.43089 55.8887C7.13626 68.594 23.0793 73.6236 36.9244 67.4064L36.1051 65.5819ZM3.25537 55.0694C-1.92004 43.5443 4.2039 29.3796 17.223 23.5334L16.4037 21.7089C2.55863 27.9261 -4.27449 43.1834 1.43089 55.8887L3.25537 55.0694ZM17.223 23.5334C18.459 22.9783 19.7107 22.5196 20.9683 22.1538L20.4098 20.2334C19.0632 20.625 17.7244 21.1158 16.4037 21.7089L17.223 23.5334ZM21.6569 21.4454C23.5257 14.2614 28.8882 7.69367 36.7305 4.17203L35.9113 2.34754C27.535 6.10893 21.748 13.1511 19.7213 20.9418L21.6569 21.4454ZM36.7305 4.17203C45.7847 0.106227 55.6701 1.20943 62.569 6.15403L63.7341 4.52844C56.2222 -0.855493 45.5759 -1.9924 35.9113 2.34754L36.7305 4.17203Z" fill="#F4DA9D" mask="url(#path-1-inside-1_5_433)"/>
</svg>
