<svg width="107" height="93" viewBox="0 0 107 93" fill="none" xmlns="http://www.w3.org/2000/svg">
<mask id="path-1-inside-1_5_446" fill="white">
<path fill-rule="evenodd" clip-rule="evenodd" d="M75.2457 21.4077C75.364 22.7612 75.3197 24.0958 75.1273 25.3963C76.6478 24.9534 78.2437 24.6502 79.8969 24.5057C91.9013 23.4564 102.381 31.1695 103.305 41.7333C103.988 49.5471 99.251 56.7319 91.8805 60.3679C92.5322 61.9478 92.9541 63.6351 93.1086 65.4022C94.032 75.9661 85.049 85.3805 73.0446 86.4298C64.986 87.1342 57.6142 83.8898 53.3595 78.485C49.719 82.5933 44.2563 85.4422 37.9632 85.9923C25.9588 87.0417 15.4788 79.3286 14.5553 68.7647C14.2134 64.8535 15.2296 61.0998 17.2542 57.8699C9.69619 55.4188 4.09288 49.2976 3.42902 41.7029C2.5056 31.139 11.4885 21.7247 23.4929 20.6753C26.4138 20.42 29.2445 20.6835 31.8692 21.3805C33.1027 12.4573 41.3078 5.10054 51.8378 4.1801C63.8422 3.13076 74.3223 10.8438 75.2457 21.4077Z"/>
</mask>
<path fill-rule="evenodd" clip-rule="evenodd" d="M75.2457 21.4077C75.364 22.7612 75.3197 24.0958 75.1273 25.3963C76.6478 24.9534 78.2437 24.6502 79.8969 24.5057C91.9013 23.4564 102.381 31.1695 103.305 41.7333C103.988 49.5471 99.251 56.7319 91.8805 60.3679C92.5322 61.9478 92.9541 63.6351 93.1086 65.4022C94.032 75.9661 85.049 85.3805 73.0446 86.4298C64.986 87.1342 57.6142 83.8898 53.3595 78.485C49.719 82.5933 44.2563 85.4422 37.9632 85.9923C25.9588 87.0417 15.4788 79.3286 14.5553 68.7647C14.2134 64.8535 15.2296 61.0998 17.2542 57.8699C9.69619 55.4188 4.09288 49.2976 3.42902 41.7029C2.5056 31.139 11.4885 21.7247 23.4929 20.6753C26.4138 20.42 29.2445 20.6835 31.8692 21.3805C33.1027 12.4573 41.3078 5.10054 51.8378 4.1801C63.8422 3.13076 74.3223 10.8438 75.2457 21.4077Z" fill="#B1D2EF"/>
<path d="M75.1273 25.3963L74.138 25.25L73.9098 26.7926L75.4069 26.3564L75.1273 25.3963ZM91.8805 60.3679L91.4381 59.4711L90.5995 59.8848L90.9561 60.7492L91.8805 60.3679ZM53.3595 78.485L54.1452 77.8665L53.4049 76.926L52.6111 77.8218L53.3595 78.485ZM17.2542 57.8699L18.1015 58.401L18.7827 57.3143L17.5627 56.9187L17.2542 57.8699ZM31.8692 21.3805L31.6125 22.347L32.705 22.6372L32.8598 21.5175L31.8692 21.3805ZM76.1165 25.5427C76.3202 24.1658 76.3671 22.7529 76.2419 21.3206L74.2495 21.4948C74.3609 22.7695 74.3192 24.0257 74.138 25.25L76.1165 25.5427ZM79.8098 23.5095C78.0913 23.6598 76.4309 23.975 74.8476 24.4363L75.4069 26.3564C76.8647 25.9318 78.3961 25.6407 79.984 25.5019L79.8098 23.5095ZM104.301 41.6463C103.319 30.4164 92.2409 22.4229 79.8098 23.5095L79.984 25.5019C91.5617 24.4899 101.443 31.9226 102.309 41.8204L104.301 41.6463ZM92.3229 61.2647C99.9934 57.4807 105.026 49.9432 104.301 41.6463L102.309 41.8204C102.949 49.151 98.5086 55.9831 91.4381 59.4711L92.3229 61.2647ZM94.1048 65.3152C93.9413 63.4449 93.4946 61.6585 92.8049 59.9866L90.9561 60.7492C91.5698 62.2371 91.9669 63.8254 92.1124 65.4893L94.1048 65.3152ZM73.1317 87.426C85.5628 86.3394 95.0864 76.5451 94.1048 65.3152L92.1124 65.4893C92.9775 75.3872 84.5352 84.4216 72.9576 85.4336L73.1317 87.426ZM52.5737 79.1036C57.0521 84.7925 64.7619 88.1576 73.1317 87.426L72.9576 85.4336C65.21 86.1108 58.1764 82.9872 54.1452 77.8665L52.5737 79.1036ZM38.0503 86.9885C44.5902 86.4169 50.2924 83.454 54.1079 79.1482L52.6111 77.8218C49.1456 81.7326 43.9224 84.4676 37.8761 84.9961L38.0503 86.9885ZM13.5591 68.8518C14.5408 80.0817 25.6192 88.0752 38.0503 86.9885L37.8761 84.9961C26.2985 86.0082 16.4167 78.5755 15.5515 68.6776L13.5591 68.8518ZM16.407 57.3388C14.2758 60.7385 13.1969 64.7072 13.5591 68.8518L15.5515 68.6776C15.23 64.9997 16.1833 61.4611 18.1015 58.401L16.407 57.3388ZM2.43281 41.79C3.13767 49.8535 9.07614 56.269 16.9458 58.8211L17.5627 56.9187C10.3162 54.5686 5.0481 48.7416 4.42522 41.6158L2.43281 41.79ZM23.4058 19.6791C10.9747 20.7658 1.45118 30.5601 2.43281 41.79L4.42522 41.6158C3.56002 31.718 12.0023 22.6836 23.58 21.6715L23.4058 19.6791ZM32.1259 20.414C29.3892 19.6872 26.4422 19.4137 23.4058 19.6791L23.58 21.6715C26.3855 21.4263 29.0998 21.6797 31.6125 22.347L32.1259 20.414ZM51.7507 3.18389C40.8317 4.13835 32.1859 11.787 30.8786 21.2436L32.8598 21.5175C34.0196 13.1277 41.784 6.06274 51.9249 5.1763L51.7507 3.18389ZM76.2419 21.3206C75.2603 10.0907 64.1818 2.09726 51.7507 3.18389L51.9249 5.1763C63.5026 4.16426 73.3843 11.5969 74.2495 21.4948L76.2419 21.3206Z" fill="#78B8F1" mask="url(#path-1-inside-1_5_446)"/>
<circle cx="53.7518" cy="49.0408" r="14.7767" transform="rotate(-4.99565 53.7518 49.0408)" fill="#FFF2C9"/>
</svg>
