<svg width="101" height="101" viewBox="0 0 101 101" fill="none" xmlns="http://www.w3.org/2000/svg">
<path d="M24.4189 76.7978C5.80383 57.6073 2.49999 48.1402 2.49999 36.9282C2.49999 29.7864 5.33936 22.9371 10.3935 17.8871C15.4476 12.8371 22.3024 10 29.45 10C38.074 10 44.15 12.448 51.5 19.7921C58.85 12.448 64.926 10 73.55 10C80.6976 10 87.5524 12.8371 92.6065 17.8871C97.6606 22.9371 100.5 29.7864 100.5 36.9282C100.5 48.1891 95.3335 56.7215 88.833 64.9882C82.3325 73.2549 79.9023 75.0967 73.55 80.9311C65.5077 88.3178 51.4994 95 51.4994 95C51.4994 95 33.7914 86.46 24.4189 76.7978Z" fill="#F1C8D0" stroke="#E2A7AF" stroke-linecap="round" stroke-linejoin="round"/>
</svg>
