<svg width="108" height="96" viewBox="0 0 108 96" fill="none" xmlns="http://www.w3.org/2000/svg">
<path d="M64.1831 20.1736C39.5513 -15.9715 33.8862 5.79034 34.4026 29.8226C34.5718 37.698 30.4524 44.7135 22.6175 45.5293C16.5782 46.1582 9.8274 47.1821 2.80597 52.8325C-3.85503 58.1928 8.6211 71.3163 28.5465 80.5108C43.2992 87.3185 72.4722 74.678 88.1488 65.9439C90.4888 64.6402 92.5018 62.774 94.032 60.5754C116.137 28.8165 106.314 24.8054 91.7194 28.9697C81.5212 31.8795 70.1553 28.9374 64.1831 20.1736Z" fill="#A9BFA0" stroke="#457850"/>
<ellipse cx="21.602" cy="5.25282" rx="21.602" ry="5.25282" transform="matrix(0.972151 0.234353 -0.257759 0.966209 26.708 56)" fill="#81916E"/>
<path d="M63.9219 71.326C61.0239 72.2053 55.725 64.1342 52.0865 53.2986C48.448 42.463 47.8477 32.9662 50.7457 32.0868C53.6436 31.2075 58.9425 39.2786 62.581 50.1142C66.2195 60.9498 66.8198 70.4466 63.9219 71.326Z" fill="#81916E"/>
<ellipse cx="21.009" cy="5.40605" rx="21.009" ry="5.40605" transform="matrix(-0.636462 0.771308 -0.801668 -0.59777 93.4106 43.4634)" fill="#81916E"/>
<path d="M70.7899 74.6569L76.845 88.6629C77.6963 90.6323 76.7893 92.9192 74.8199 93.7706C72.8505 94.6219 70.564 93.7157 69.7125 91.7464L63.6574 77.7405L70.7899 74.6569Z" fill="#A9BFA0" stroke="#457850"/>
</svg>
